<?xml version="1.0" encoding="utf-8"?>
<!-- Generator: Adobe Illustrator 24.3.0, SVG Export Plug-In . SVG Version: 6.00 Build 0)  -->
<svg version="1.1" id="Layer_1" xmlns="http://www.w3.org/2000/svg" xmlns:xlink="http://www.w3.org/1999/xlink" x="0px" y="0px"
	 viewBox="0 0 41.3 57.2" style="enable-background:new 0 0 41.3 57.2;" xml:space="preserve">
<style type="text/css">
	.st0{fill:#F5F5F5;}
	.st1{fill:#575756;}
	.st2{fill:#AD1820;}
	.st3{fill:#E5332A;}
	.st4{fill:#F6A723;}
	.st5{fill:#E84E1B;}
	.st6{fill:#FAA634;}
	.st7{fill:none;stroke:#9C9B9B;stroke-width:3;stroke-miterlimit:10;}
	.st8{fill:#9C9B9B;}
	.st9{fill:#1D1D1B;}
	.st10{clip-path:url(#SVGID_2_);}
	.st11{clip-path:url(#SVGID_4_);}
	.st12{clip-path:url(#SVGID_6_);}
	.st13{fill:none;stroke:#AD1820;stroke-width:2.7971;stroke-miterlimit:10;}
	.st14{fill:#FFFFFF;}
	.st15{fill:#C6C6C5;}
	.st16{fill:#868686;}
	.st17{fill:#3C3C3B;}
	.st18{opacity:0.52;fill:#AD1820;}
	.st19{fill:none;stroke:#AD1820;stroke-width:4.3435;stroke-miterlimit:10;}
	.st20{fill:none;stroke:#E5332A;stroke-width:4.3435;stroke-miterlimit:10;}
	.st21{fill:#B1B1B1;}
	.st22{fill:#DD4D02;}
	.st23{fill:#A4A4A4;}
</style>
<g>
	<path class="st16" d="M32,37.9c-0.6,0-1.2,0.5-1.2,1.2v5.2H2.3V8.4h28.5v5.4c0,0.6,0.5,1.2,1.2,1.2c0.6,0,1.2-0.5,1.2-1.2V1.2
		C33.1,0.5,32.6,0,32,0H1.2C0.5,0,0,0.5,0,1.2V56c0,0.6,0.5,1.2,1.2,1.2H32c0.6,0,1.2-0.5,1.2-1.2V39C33.1,38.4,32.6,37.9,32,37.9z
		 M2.3,2.3h28.5v3.8H2.3V2.3z M30.8,54.8H2.3v-8.3h28.5V54.8z"/>
	<path class="st16" d="M16.6,52.4c1,0,1.8-0.8,1.8-1.8c0-1-0.8-1.8-1.8-1.8c-1,0-1.8,0.8-1.8,1.8C14.8,51.6,15.6,52.4,16.6,52.4z"/>
	<path class="st16" d="M21.4,33.9c0.6,0.1,1.2-0.3,1.3-1c0.1-0.6-0.3-1.2-1-1.3L21,31.4c0-0.2,0-0.4-0.1-0.6l0.7-0.3
		c0.6-0.2,0.9-0.9,0.7-1.5c-0.2-0.6-0.9-0.9-1.5-0.7l-0.8,0.3c-0.1-0.2-0.2-0.3-0.4-0.5l0.5-0.6c0.4-0.5,0.3-1.2-0.1-1.6
		c-0.5-0.4-1.2-0.3-1.6,0.2L18,26.6c-0.2-0.1-0.4-0.2-0.6-0.3l0.1-0.8c0.1-0.6-0.3-1.2-1-1.3c-0.6-0.1-1.2,0.3-1.3,1L15.1,26
		c-0.2,0-0.4,0-0.6,0.1l-0.3-0.7c-0.2-0.6-0.9-0.9-1.5-0.7c-0.6,0.2-0.9,0.9-0.7,1.5l0.3,0.8c-0.2,0.1-0.3,0.2-0.5,0.4l-0.6-0.5
		c-0.5-0.4-1.2-0.3-1.6,0.2c-0.4,0.5-0.3,1.2,0.1,1.6l0.6,0.5c-0.1,0.2-0.2,0.4-0.3,0.6l-0.8-0.1c-0.6-0.1-1.2,0.3-1.3,1
		c-0.1,0.6,0.3,1.2,1,1.3l0.8,0.1c0,0.2,0,0.4,0.1,0.6l-0.7,0.3C8.3,33,8,33.7,8.3,34.3c0.2,0.6,0.9,0.9,1.5,0.7l0.8-0.3
		c0.1,0.2,0.2,0.3,0.4,0.5l-0.5,0.6c-0.4,0.5-0.3,1.2,0.1,1.6c0.5,0.4,1.2,0.3,1.6-0.2l0.5-0.6c0.2,0.1,0.4,0.2,0.6,0.3l-0.1,0.8
		c-0.1,0.6,0.3,1.2,1,1.3s1.2-0.3,1.3-1l0.1-0.8c0.2,0,0.4,0,0.6-0.1l0.3,0.7c0.2,0.6,0.9,0.9,1.5,0.7c0.6-0.2,0.9-0.9,0.7-1.5
		l-0.3-0.8c0.2-0.1,0.3-0.2,0.5-0.4l0.6,0.5c0.5,0.4,1.2,0.3,1.6-0.2c0.4-0.5,0.3-1.2-0.2-1.6l-0.6-0.5c0.1-0.2,0.2-0.4,0.3-0.6
		L21.4,33.9z M18.6,32.2L18.6,32.2c-0.3,1.8-2,3-3.9,2.7c-1.8-0.3-3-2-2.7-3.9c0.3-1.8,2-3,3.9-2.7C17.7,28.7,18.9,30.4,18.6,32.2z"
		/>
	<path class="st16" d="M40.1,27.5c0.6,0,1.2-0.5,1.2-1.2s-0.5-1.2-1.2-1.2h-1.3c-0.1-0.4-0.2-0.8-0.3-1.2l1.1-0.6
		c0.6-0.3,0.7-1,0.4-1.6c-0.3-0.6-1-0.7-1.6-0.4l-1.1,0.6c-0.3-0.3-0.6-0.6-0.9-0.9l0.6-1.1c0.3-0.6,0.1-1.3-0.4-1.6
		c-0.6-0.3-1.3-0.1-1.6,0.4l-0.6,1.1c-0.4-0.1-0.8-0.3-1.2-0.3v-1.3c0-0.6-0.5-1.2-1.2-1.2s-1.2,0.5-1.2,1.2v1.3
		c-0.4,0.1-0.8,0.2-1.2,0.3l-0.6-1.1c-0.3-0.6-1-0.7-1.6-0.4c-0.6,0.3-0.7,1-0.4,1.6l0.6,1.1c-0.3,0.3-0.6,0.6-0.9,0.9l-1.1-0.6
		c-0.6-0.3-1.3-0.1-1.6,0.4c-0.3,0.6-0.1,1.3,0.4,1.6l1.1,0.6c-0.1,0.4-0.3,0.8-0.3,1.2h-1.3c-0.6,0-1.2,0.5-1.2,1.2
		s0.5,1.2,1.2,1.2h1.3c0.1,0.4,0.2,0.8,0.3,1.2l-1.1,0.6c-0.6,0.3-0.7,1-0.4,1.6s1,0.7,1.6,0.4l1.1-0.6c0.3,0.3,0.6,0.6,0.9,0.9
		l-0.6,1.1c-0.3,0.6-0.1,1.3,0.4,1.6c0.6,0.3,1.3,0.1,1.6-0.4l0.6-1.1c0.4,0.1,0.8,0.3,1.2,0.3v1.3c0,0.6,0.5,1.2,1.2,1.2
		s1.2-0.5,1.2-1.2v-1.3c0.4-0.1,0.8-0.2,1.2-0.3l0.6,1.1c0.3,0.6,1,0.7,1.6,0.4c0.6-0.3,0.7-1,0.4-1.6l-0.6-1.1
		c0.3-0.3,0.6-0.6,0.9-0.9l1.1,0.6c0.6,0.3,1.3,0.1,1.6-0.4c0.3-0.6,0.1-1.3-0.4-1.6l-1.1-0.6c0.1-0.4,0.3-0.8,0.3-1.2H40.1z
		 M32,30.9c-2.5,0-4.6-2.1-4.6-4.6s2.1-4.6,4.6-4.6c2.5,0,4.6,2.1,4.6,4.6S34.5,30.9,32,30.9z"/>
</g>
</svg>
