<?xml version="1.0" encoding="utf-8"?>
<!-- Generator: Adobe Illustrator 24.3.0, SVG Export Plug-In . SVG Version: 6.00 Build 0)  -->
<svg version="1.1" id="Layer_1" xmlns="http://www.w3.org/2000/svg" xmlns:xlink="http://www.w3.org/1999/xlink" x="0px" y="0px"
	 viewBox="0 0 48.7 48.7" style="enable-background:new 0 0 48.7 48.7;" xml:space="preserve">
<style type="text/css">
	.st0{fill:#F5F5F5;}
	.st1{fill:#575756;}
	.st2{fill:#AD1820;}
	.st3{fill:#E5332A;}
	.st4{fill:#F6A723;}
	.st5{fill:#E84E1B;}
	.st6{fill:#FAA634;}
	.st7{fill:none;stroke:#9C9B9B;stroke-width:3;stroke-miterlimit:10;}
	.st8{fill:#9C9B9B;}
	.st9{fill:#1D1D1B;}
	.st10{clip-path:url(#SVGID_2_);}
	.st11{clip-path:url(#SVGID_4_);}
	.st12{clip-path:url(#SVGID_6_);}
	.st13{fill:none;stroke:#AD1820;stroke-width:2.7971;stroke-miterlimit:10;}
	.st14{fill:#FFFFFF;}
	.st15{fill:#C6C6C5;}
	.st16{fill:#868686;}
	.st17{fill:#3C3C3B;}
	.st18{opacity:0.52;fill:#AD1820;}
	.st19{fill:none;stroke:#AD1820;stroke-width:4.3435;stroke-miterlimit:10;}
	.st20{fill:none;stroke:#E5332A;stroke-width:4.3435;stroke-miterlimit:10;}
	.st21{fill:#B1B1B1;}
	.st22{fill:#DD4D02;}
	.st23{fill:#A4A4A4;}
</style>
<g>
	<circle class="st16" cx="41.1" cy="10.5" r="1"/>
	<circle class="st16" cx="7.6" cy="10.5" r="1"/>
	<path class="st16" d="M47.7,20.9h-1.1c-0.4-2.7-1.2-5.3-2.6-7.8c-0.3-0.5-0.8-0.6-1.3-0.4s-0.6,0.8-0.4,1.3c1.2,2.1,2,4.4,2.3,6.8
		h-0.7c-0.5,0-1,0.4-1,1v3.8c0,0.5,0.4,1,1,1h3.8c0.5,0,1-0.4,1-1v-3.8C48.7,21.3,48.3,20.9,47.7,20.9z M46.8,24.7h-1.9v-1.9h0.9
		c0,0,0,0,0,0s0,0,0,0h1V24.7z"/>
	<path class="st16" d="M34.8,27.8C34.8,27.8,34.8,27.7,34.8,27.8C34.8,27.7,34.8,27.7,34.8,27.8c0-0.1,0-0.1,0-0.2c0,0,0,0,0,0
		c0,0,0-0.1,0-0.1c0,0,0,0,0,0c0,0,0-0.1,0-0.1L25.2,10c-0.2-0.3-0.5-0.5-0.8-0.5s-0.7,0.2-0.8,0.5L14,27.4c0,0,0,0.1,0,0.1
		c0,0,0,0,0,0c0,0,0,0.1,0,0.1c0,0,0,0,0,0c0,0,0,0,0,0.1c0,0,0,0,0,0c0,0,0,0,0,0.1c0,0,0,0,0,0c0,0,0,0,0,0c0,0,0,0,0,0
		c0,0,0,0,0,0c0,0,0,0,0,0.1c0,0,0,0,0,0c0,0,0,0,0,0.1c0,0,0,0,0,0c0,0,0,0,0,0.1c0,0,0,0,0,0l3.4,9.1c-0.3,0.1-0.5,0.3-0.8,0.5
		c-0.5,0.5-0.8,1.3-0.8,2c0,1.2,0.8,2.3,1.9,2.7v5.2c0,0.5,0.4,1,1,1H30c0.5,0,1-0.4,1-1v-5.2c0.4-0.1,0.8-0.4,1.1-0.7
		c0.5-0.5,0.8-1.3,0.8-2c0-1.1-0.6-2.1-1.6-2.6l3.4-9.1c0,0,0,0,0,0c0,0,0,0,0-0.1c0,0,0,0,0,0c0,0,0,0,0-0.1c0,0,0,0,0,0
		c0,0,0,0,0-0.1C34.8,27.9,34.8,27.9,34.8,27.8C34.8,27.9,34.8,27.9,34.8,27.8C34.8,27.8,34.8,27.8,34.8,27.8
		C34.8,27.8,34.8,27.8,34.8,27.8z M24.3,26.9c0.5,0,1,0.4,1,1c0,0.5-0.4,1-1,1c-0.5,0-1-0.4-1-1C23.4,27.3,23.8,26.9,24.3,26.9z
		 M29.1,46.8h-9.5v-4.1h9.5V46.8z M30.7,40.5c-0.2,0.2-0.4,0.3-0.7,0.3H18.6c-0.5,0-1-0.4-1-1c0-0.3,0.1-0.5,0.3-0.7
		c0.2-0.2,0.4-0.3,0.7-0.3H30c0,0,0,0,0,0c0,0,0,0,0,0c0.5,0,0.9,0.4,0.9,1C31,40.1,30.9,40.3,30.7,40.5z M29.4,37H19.3l-3.1-8.2
		h2.4c0.5,0,1-0.4,1-1s-0.4-1-1-1h-2.2l7-12.7v11c-1.1,0.4-1.9,1.4-1.9,2.7c0,1.6,1.3,2.9,2.9,2.9s2.9-1.3,2.9-2.9
		c0-1.2-0.8-2.3-1.9-2.7v-11l7,12.7H30c-0.5,0-1,0.4-1,1s0.4,1,1,1h2.4L29.4,37z"/>
	<path class="st16" d="M5.9,12.8c-0.5-0.3-1-0.1-1.3,0.4c-1.3,2.4-2.2,5-2.6,7.8H1c-0.5,0-1,0.4-1,1v3.8c0,0.5,0.4,1,1,1h3.8
		c0.5,0,1-0.4,1-1v-3.8c0-0.5-0.4-1-1-1H4c0.3-2.4,1.1-4.7,2.3-6.8C6.6,13.6,6.4,13,5.9,12.8z M3.8,24.7H1.9v-1.9h1c0,0,0,0,0,0
		c0,0,0,0,0,0h0.9V24.7z"/>
	<path class="st16" d="M33.6,3.8h9.6c0.4,1.1,1.4,1.9,2.7,1.9c1.6,0,2.9-1.3,2.9-2.9S47.4,0,45.8,0c-1.2,0-2.3,0.8-2.7,1.9H27.2V1
		c0-0.5-0.4-1-1-1h-3.8c-0.5,0-1,0.4-1,1v1H5.5C5.1,0.8,4.1,0,2.9,0C1.3,0,0,1.3,0,2.9s1.3,2.9,2.9,2.9c1.2,0,2.3-0.8,2.7-1.9h9.6
		c-2,0.8-3.9,2-5.4,3.2C9.3,7.4,9.2,8,9.6,8.4c0.2,0.2,0.5,0.3,0.7,0.3c0.2,0,0.4-0.1,0.6-0.2c2.7-2.3,6.6-3.9,10.6-4.5v0.7
		c0,0.5,0.4,1,1,1h3.8c0.5,0,1-0.4,1-1V4c4,0.6,7.9,2.2,10.6,4.5c0.2,0.2,0.4,0.2,0.6,0.2c0.3,0,0.5-0.1,0.7-0.3
		C39.5,8,39.4,7.4,39,7C37.5,5.8,35.6,4.7,33.6,3.8z M45.8,1.9c0.5,0,1,0.4,1,1c0,0.5-0.4,1-1,1c-0.5,0-1-0.4-1-1
		C44.9,2.3,45.3,1.9,45.8,1.9z M2.9,3.8c-0.5,0-1-0.4-1-1c0-0.5,0.4-1,1-1c0.5,0,1,0.4,1,1C3.8,3.4,3.4,3.8,2.9,3.8z M25.3,2.9
		L25.3,2.9v1h-1.9V2.9V2.9v-1h1.9V2.9z"/>
</g>
</svg>
