<?xml version="1.0" encoding="utf-8"?>
<!-- Generator: Adobe Illustrator 24.3.0, SVG Export Plug-In . SVG Version: 6.00 Build 0)  -->
<svg version="1.1" id="Layer_1" xmlns="http://www.w3.org/2000/svg" xmlns:xlink="http://www.w3.org/1999/xlink" x="0px" y="0px"
	 viewBox="0 0 54 54.8" style="enable-background:new 0 0 54 54.8;" xml:space="preserve">
<style type="text/css">
	.st0{fill:#F5F5F5;}
	.st1{fill:#575756;}
	.st2{fill:#AD1820;}
	.st3{fill:#E5332A;}
	.st4{fill:#F6A723;}
	.st5{fill:#E84E1B;}
	.st6{fill:#FAA634;}
	.st7{fill:none;stroke:#9C9B9B;stroke-width:3;stroke-miterlimit:10;}
	.st8{fill:#9C9B9B;}
	.st9{fill:#1D1D1B;}
	.st10{clip-path:url(#SVGID_2_);}
	.st11{clip-path:url(#SVGID_4_);}
	.st12{clip-path:url(#SVGID_6_);}
	.st13{fill:none;stroke:#AD1820;stroke-width:2.7971;stroke-miterlimit:10;}
	.st14{fill:#FFFFFF;}
	.st15{fill:#C6C6C5;}
	.st16{fill:#868686;}
	.st17{fill:#3C3C3B;}
	.st18{opacity:0.52;fill:#AD1820;}
	.st19{fill:none;stroke:#AD1820;stroke-width:4.3435;stroke-miterlimit:10;}
	.st20{fill:none;stroke:#E5332A;stroke-width:4.3435;stroke-miterlimit:10;}
	.st21{fill:#B1B1B1;}
	.st22{fill:#DD4D02;}
	.st23{fill:#A4A4A4;}
</style>
<g>
	<path class="st16" d="M15.1,21.2c0,0.3,0.2,6.9,4.8,10l0.1,0.1c0.2,0.1,0.4,0.3,0.7,0.5c1.6,1.3,3.9,2.8,5.9,2.8c0.1,0,0.3,0,0.6,0
		c1.2,0,3.7-0.3,6.1-2.5c0.3-0.3,0.7-0.6,1.1-0.9l0.1-0.1c1.6-1,4.2-3.7,4.8-9.9l0-1.8l0.1,0c0.3-0.5,2-3.2,2-4.3V8.8
		c0-0.1,0-0.2,0-0.2c0-0.1-0.4-3.2-3.1-4.7c0-0.6-0.1-1.2-0.4-1.7c-0.6-1.2-1.7-1.9-3.3-2.2c-0.1,0-0.2,0-0.4,0H22.6
		c-5.3,0-9.6,4.3-9.6,9.6v4.6c0,1.3,1.2,3.6,2,4.9V21.2z M33.4,29.4l0.6,0.8L33.4,29.4c-0.6,0.4-1,0.8-1.4,1.1c-1.9,1.8-3.8,2-4.8,2
		c-0.2,0-0.3,0-0.4,0l-0.1,0c-1.1,0-2.8-0.9-4.8-2.4c-0.3-0.2-0.5-0.4-0.8-0.6L21,29.5c-3.8-2.5-4-8.1-4-8.3l0-2.8l0,0c0,0,0,0,0,0
		l0-4.6c0.7-3.2,3.5-3.6,3.6-3.6h3.8c0.4,0,0.7-0.1,1.1-0.2c0.6-0.2,1.5-0.5,2.6-1c0.7-0.3,1.5-0.3,2.2,0l4,1.4l0,0l0.1,0
		c2.5,1,2.8,3.3,2.9,3.4l0,7.2C36.9,26.3,34.7,28.5,33.4,29.4z M15.1,14.1V9.6c0-4.2,3.4-7.6,7.6-7.6l11.6,0c1,0.2,1.6,0.6,1.9,1.1
		c0.2,0.3,0.2,0.8,0.2,1.2l-0.1,0.8l0.7,0.3c2.2,0.9,2.6,3.3,2.6,3.4l0,6.2c0,0,0,0.1,0,0.2l0-1.4l0-0.2c0-0.2-0.4-3.7-4.2-5.1
		l-4-1.4c-1.2-0.4-2.4-0.4-3.6,0c-1.1,0.4-2,0.7-2.5,0.9c-0.1,0-0.3,0.1-0.5,0.1h-3.8c-0.1,0-0.2,0-0.2,0c-1.6,0.2-4.5,1.5-5.3,5.2
		c0,0.1,0,0.3,0,0.4v0.5C15.1,14.2,15.1,14.1,15.1,14.1z"/>
	<path class="st16" d="M52.5,43.2c-0.4-2.5-2.1-4.6-4.5-5.4l-14.7-5.3l0,0.1l-5.9,4.2c-0.2,0-0.4,0-0.6,0L21,32.6l0,0l0,0L6.1,37.8
		c-2.4,0.9-4.1,2.9-4.5,5.4L0,53.4l2,0.3l1.6-10.1c0.3-1.8,1.5-3.2,3.2-3.9l11.5-4.1l3.9,9.5l1-1.6c0.1-0.2,0.3-0.5,0.5-0.8l1.3,0.9
		l-1.7,5.2l0,0.2c-0.1,0.4,0,0.8,0.2,1.2l2,3.7c0.3,0.6,1,1,1.6,1c0.4,0,0.7-0.1,1-0.3h0c0.3-0.2,0.5-0.4,0.6-0.7l2-3.7
		c0.2-0.3,0.2-0.6,0.2-0.9c0-0.1,0-0.2,0-0.3l-1.7-5.3l1.4-0.9l0,0c0.2,0.3,0.4,0.6,0.5,0.8l1,1.6l3.8-9.5l11.3,4.1
		c1.7,0.6,2.9,2.1,3.2,3.8l1.6,10.1l2-0.3L52.5,43.2z M20.2,35l0.5-0.2l4,2.9c-0.6,0.9-1.5,2.1-2.2,3.1L20.2,35z M27.1,52.6
		l-1.9-3.3l1.9-5.7l1.9,5.7L27.1,52.6z M27.1,42.6l-1.9-1.3l1.9-2.6l1.9,2.6L27.1,42.6z M31.8,40.8c-0.7-1-1.5-2.2-2.2-3.1l4-2.9
		l0.5,0.2L31.8,40.8z"/>
</g>
</svg>
