<?xml version="1.0" encoding="utf-8"?>
<!-- Generator: Adobe Illustrator 24.3.0, SVG Export Plug-In . SVG Version: 6.00 Build 0)  -->
<svg version="1.1" id="Layer_1" xmlns="http://www.w3.org/2000/svg" xmlns:xlink="http://www.w3.org/1999/xlink" x="0px" y="0px"
	 viewBox="0 0 62.1 55.5" style="enable-background:new 0 0 62.1 55.5;" xml:space="preserve">
<style type="text/css">
	.st0{fill:#F5F5F5;}
	.st1{fill:#575756;}
	.st2{fill:#AD1820;}
	.st3{fill:#E5332A;}
	.st4{fill:#F6A723;}
	.st5{fill:#E84E1B;}
	.st6{fill:#FAA634;}
	.st7{fill:none;stroke:#9C9B9B;stroke-width:3;stroke-miterlimit:10;}
	.st8{fill:#9C9B9B;}
	.st9{fill:#1D1D1B;}
	.st10{clip-path:url(#SVGID_2_);}
	.st11{clip-path:url(#SVGID_4_);}
	.st12{clip-path:url(#SVGID_6_);}
	.st13{fill:none;stroke:#AD1820;stroke-width:2.7971;stroke-miterlimit:10;}
	.st14{fill:#FFFFFF;}
	.st15{fill:#C6C6C5;}
	.st16{fill:#868686;}
	.st17{fill:#3C3C3B;}
	.st18{opacity:0.52;fill:#AD1820;}
	.st19{fill:none;stroke:#AD1820;stroke-width:4.3435;stroke-miterlimit:10;}
	.st20{fill:none;stroke:#E5332A;stroke-width:4.3435;stroke-miterlimit:10;}
	.st21{fill:#B1B1B1;}
	.st22{fill:#DD4D02;}
	.st23{fill:#A4A4A4;}
</style>
<path class="st16" d="M60.6,45.1c-0.4-2.5-2.1-4.6-4.5-5.4l-14.4-5.2L41,34c-1.5-1.1-1.6-1.5-1.7-3.6c1.1-1.5,4.6-6.5,5.2-9.8
	c0-0.1,0.1-0.3,0.1-0.5c0-0.1,0-0.2,0-0.2c0,0,0-0.1,0-0.1l0,0l0,0c0.6-1.5,0.6-2.7,0.6-4c0-0.3,0-0.6,0-0.9C45.3,6.6,39,0,31.4,0
	c-1.6,0-2.6,0.5-3.7,1c-0.2,0.1-0.4,0.2-0.7,0.3c-0.5,0.1-1,0.2-1.5,0.3c-3.5,1-5.2,3.4-6.7,6.8c-1.3,3-1.9,5-1.4,8.5
	c0.1,0.8,0.4,1.9,0.7,2.7c0,0.1,0.2,0.5,0.3,0.7c0.7,4,2.5,7.9,4.8,10.3c-0.1,1.6-0.6,2.4-2.2,3.5l-0.5,0.3L6.1,39.6
	c-2.4,0.9-4.1,2.9-4.5,5.4L0,55.2l2,0.3l1.6-10.1c0.3-1.8,1.5-3.2,3.2-3.9l14.6-5.2l6.8,9.5c0.7,1,1.8,1.6,3,1.6v0.1
	c1.3,0,2.4-0.6,3.2-1.7l6.4-9.9l-0.1,0.2l14.7,5.3c1.7,0.6,2.9,2.1,3.2,3.8l1.6,10.1l2-0.3L60.6,45.1z M20.6,9.3
	c1.4-3,2.7-4.9,5.4-5.7c0.4-0.1,0.9-0.2,1.4-0.3l0.3-0.1c0.3-0.1,0.6-0.3,0.9-0.4c1-0.5,1.7-0.8,2.8-0.8c6.6,0,11.9,5.7,11.9,12.7
	c0,0.4,0,0.7,0,1c0,0.5,0,0.9,0,1.3c-1-1.4-2.8-2.6-5.2-2.4l-10.2,0c-0.7,0-1.7-0.2-2.5-0.4l-1.5-0.4L23,14.9
	c-0.4,0.5-0.8,0.9-1.3,1.5l-0.2,0.2c-0.3,0.4-0.8,0.8-1.9,1.3c-0.1-0.4-0.2-0.8-0.2-1.1C18.9,13.6,19.4,12,20.6,9.3z M32.7,44.8
	c-0.3,0.5-0.8,0.8-1.4,0.8v-0.1c-0.6,0-1.2-0.3-1.6-0.8l-6.8-9.5c1.4-1.2,2.2-2.5,2.3-5l0-0.4l-0.3-0.3c-2.1-2-4-5.9-4.6-9.6
	l-0.1-0.2c1.6-0.6,2.2-1.3,2.7-1.7l0.1-0.2c0.6-0.6,1.1-1.1,1.5-1.6l0.1-0.1l0.2,0.1c1,0.3,2.2,0.5,3.1,0.5l10.3,0
	c1.9-0.1,3.3,1,3.8,2.2c0,0.1,0.3,0.7,0.6,1.2l-0.1,0.2c-0.4,2.5-3.4,7.1-5,9.3l-0.2,0.3l0,0.6c0,2.2,0.2,3.4,1.8,4.7L32.7,44.8z"/>
</svg>
