<?xml version="1.0" encoding="utf-8"?>
<!-- Generator: Adobe Illustrator 24.3.0, SVG Export Plug-In . SVG Version: 6.00 Build 0)  -->
<svg version="1.1" id="Layer_1" xmlns="http://www.w3.org/2000/svg" xmlns:xlink="http://www.w3.org/1999/xlink" x="0px" y="0px"
	 viewBox="0 0 34.4 56.2" style="enable-background:new 0 0 34.4 56.2;" xml:space="preserve">
<style type="text/css">
	.st0{fill:#F5F5F5;}
	.st1{fill:#575756;}
	.st2{fill:#AD1820;}
	.st3{fill:#E5332A;}
	.st4{fill:#F6A723;}
	.st5{fill:#E84E1B;}
	.st6{fill:#FAA634;}
	.st7{fill:none;stroke:#9C9B9B;stroke-width:3;stroke-miterlimit:10;}
	.st8{fill:#9C9B9B;}
	.st9{fill:#1D1D1B;}
	.st10{clip-path:url(#SVGID_2_);}
	.st11{clip-path:url(#SVGID_4_);}
	.st12{clip-path:url(#SVGID_6_);}
	.st13{fill:none;stroke:#AD1820;stroke-width:2.7971;stroke-miterlimit:10;}
	.st14{fill:#FFFFFF;}
	.st15{fill:#C6C6C5;}
	.st16{fill:#868686;}
	.st17{fill:#3C3C3B;}
	.st18{opacity:0.52;fill:#AD1820;}
	.st19{fill:none;stroke:#AD1820;stroke-width:4.3435;stroke-miterlimit:10;}
	.st20{fill:none;stroke:#E5332A;stroke-width:4.3435;stroke-miterlimit:10;}
	.st21{fill:#B1B1B1;}
	.st22{fill:#DD4D02;}
	.st23{fill:#A4A4A4;}
</style>
<g>
	<path class="st16" d="M24.9,15.9l-10.5,8.5l-4.1-4.8v0c-0.2-0.3-0.5-0.4-0.9-0.5c-0.3,0-0.7,0.1-1,0.3C8.2,19.7,8.1,20,8,20.3
		s0.1,0.7,0.3,1l4.9,5.8c0.3,0.3,0.6,0.5,1,0.5c0.3,0,0.6-0.1,0.8-0.3l11.5-9.3c0.3-0.2,0.4-0.5,0.5-0.9c0-0.3-0.1-0.7-0.3-1
		C26.3,15.5,25.5,15.4,24.9,15.9z"/>
	<path class="st16" d="M13.1,50.3h8c1,0,1-1.4,0-1.4h-8C12.1,48.9,12.1,50.3,13.1,50.3z"/>
	<path class="st16" d="M31.6,0H2.8C1.2,0,0,1.2,0,2.8l0,50.7c0,1.5,1.2,2.8,2.8,2.8h28.8c1.5,0,2.8-1.2,2.8-2.8V2.8
		C34.4,1.2,33.1,0,31.6,0z M32.4,53.5c0,0.4-0.3,0.8-0.8,0.8H2.8c-0.4,0-0.8-0.3-0.8-0.8v-7.9h30.4V53.5z M32.4,43.6H2V2.8
		C2,2.3,2.3,2,2.8,2h28.8c0.4,0,0.8,0.3,0.8,0.8V43.6z"/>
</g>
</svg>
