<?xml version="1.0" encoding="utf-8"?>
<!-- Generator: Adobe Illustrator 24.3.0, SVG Export Plug-In . SVG Version: 6.00 Build 0)  -->
<svg version="1.1" id="Layer_1" xmlns="http://www.w3.org/2000/svg" xmlns:xlink="http://www.w3.org/1999/xlink" x="0px" y="0px"
	 viewBox="0 0 79.2 79.3" style="enable-background:new 0 0 79.2 79.3;" xml:space="preserve">
<style type="text/css">
	.st0{fill:#F5F5F5;}
	.st1{fill:#575756;}
	.st2{fill:#AD1820;}
	.st3{fill:#E5332A;}
	.st4{fill:#F6A723;}
	.st5{fill:#E84E1B;}
	.st6{fill:#FAA634;}
	.st7{fill:none;stroke:#9C9B9B;stroke-width:3;stroke-miterlimit:10;}
	.st8{fill:#9C9B9B;}
	.st9{fill:#1D1D1B;}
	.st10{clip-path:url(#SVGID_2_);}
	.st11{clip-path:url(#SVGID_4_);}
	.st12{clip-path:url(#SVGID_6_);}
	.st13{fill:none;stroke:#AD1820;stroke-width:2.7971;stroke-miterlimit:10;}
	.st14{fill:#FFFFFF;}
	.st15{fill:#C6C6C5;}
	.st16{fill:#868686;}
	.st17{fill:#3C3C3B;}
	.st18{opacity:0.52;fill:#AD1820;}
	.st19{fill:none;stroke:#AD1820;stroke-width:4.3435;stroke-miterlimit:10;}
	.st20{fill:none;stroke:#E5332A;stroke-width:4.3435;stroke-miterlimit:10;}
	.st21{fill:#B1B1B1;}
	.st22{fill:#DD4D02;}
	.st23{fill:#A4A4A4;}
</style>
<g>
	<path class="st22" d="M39.6,30.2c-5.2,0-9.4,4.2-9.4,9.4s4.2,9.4,9.4,9.4s9.4-4.2,9.4-9.4S44.8,30.2,39.6,30.2z M39.6,47.5
		c-4.4,0-7.9-3.5-7.9-7.9s3.5-7.9,7.9-7.9c4.4,0,7.9,3.5,7.9,7.9S44,47.5,39.6,47.5z"/>
	<path class="st22" d="M74,34.4c-2.9,0-5.2,2.3-5.2,5.2s2.3,5.2,5.2,5.2s5.2-2.3,5.2-5.2S76.9,34.4,74,34.4z M74,43.4
		c-2.1,0-3.7-1.7-3.7-3.7s1.7-3.7,3.7-3.7s3.7,1.7,3.7,3.7S76.1,43.4,74,43.4z"/>
	<path class="st22" d="M5.2,34.4c-2.9,0-5.2,2.3-5.2,5.2s2.3,5.2,5.2,5.2s5.2-2.3,5.2-5.2S8.1,34.4,5.2,34.4z M5.2,43.4
		c-2.1,0-3.7-1.7-3.7-3.7s1.7-3.7,3.7-3.7S9,37.6,9,39.6S7.3,43.4,5.2,43.4z"/>
	<path class="st22" d="M39.6,10.5c2.9,0,5.2-2.3,5.2-5.2S42.5,0,39.6,0s-5.2,2.3-5.2,5.2S36.7,10.5,39.6,10.5z M39.6,1.5
		c2.1,0,3.7,1.7,3.7,3.7S41.7,9,39.6,9s-3.7-1.7-3.7-3.7S37.6,1.5,39.6,1.5z"/>
	<path class="st22" d="M39.6,68.8c-2.9,0-5.2,2.3-5.2,5.2s2.3,5.2,5.2,5.2s5.2-2.3,5.2-5.2S42.5,68.8,39.6,68.8z M39.6,77.8
		c-2.1,0-3.7-1.7-3.7-3.7s1.7-3.7,3.7-3.7s3.7,1.7,3.7,3.7S41.7,77.8,39.6,77.8z"/>
	<polygon class="st22" points="33.6,56.3 34.7,57.3 38.9,53.2 38.9,66.5 40.4,66.5 40.4,53.2 44.5,57.3 45.6,56.3 39.6,50.3 	"/>
	<polygon class="st22" points="45.6,22.8 44.5,21.8 40.4,26 40.4,12.6 38.9,12.6 38.9,26 34.7,21.8 33.6,22.8 39.6,28.8 	"/>
	<polygon class="st22" points="66.6,38.9 53.3,38.9 57.5,34.7 56.4,33.6 50.4,39.6 56.4,45.6 57.5,44.6 53.3,40.4 66.6,40.4 	"/>
	<polygon class="st22" points="22.8,45.6 28.8,39.6 22.8,33.6 21.8,34.7 26,38.9 12.6,38.9 12.6,40.4 26,40.4 21.8,44.6 	"/>
	<path class="st22" d="M60.3,60.3c-2,2-2,5.4,0,7.4c1,1,2.4,1.5,3.7,1.5c1.3,0,2.7-0.5,3.7-1.5c2-2,2-5.4,0-7.4
		C65.6,58.2,62.3,58.2,60.3,60.3z M66.6,66.6c-1.5,1.5-3.8,1.5-5.3,0c-1.5-1.5-1.5-3.8,0-5.3c0.7-0.7,1.7-1.1,2.6-1.1
		c1,0,1.9,0.4,2.6,1.1C68,62.8,68,65.1,66.6,66.6z"/>
	<path class="st22" d="M15.3,20.5c1.4,0,2.7-0.5,3.7-1.5s1.5-2.3,1.5-3.7c0-1.4-0.5-2.7-1.5-3.7s-2.3-1.5-3.7-1.5
		c-1.4,0-2.7,0.5-3.7,1.5s-1.5,2.3-1.5,3.7c0,1.4,0.5,2.7,1.5,3.7S13.9,20.5,15.3,20.5z M12.7,12.7c0.7-0.7,1.6-1.1,2.6-1.1
		c1,0,1.9,0.4,2.6,1.1s1.1,1.6,1.1,2.6c0,1-0.4,1.9-1.1,2.6c-1.4,1.4-3.9,1.4-5.3,0c-0.7-0.7-1.1-1.6-1.1-2.6
		C11.6,14.3,12,13.4,12.7,12.7z"/>
	<path class="st22" d="M63.9,20.5c1.3,0,2.7-0.5,3.7-1.5c2-2,2-5.4,0-7.4c-2-2-5.4-2-7.4,0c-2,2-2,5.4,0,7.4
		C61.3,20,62.6,20.5,63.9,20.5z M61.3,12.7c0.7-0.7,1.7-1.1,2.6-1.1c1,0,1.9,0.4,2.6,1.1c1.5,1.5,1.5,3.8,0,5.3
		c-1.5,1.5-3.8,1.5-5.3,0S59.9,14.1,61.3,12.7z"/>
	<path class="st22" d="M11.6,60.3c-2,2-2,5.4,0,7.4c1,1,2.4,1.5,3.7,1.5c1.3,0,2.7-0.5,3.7-1.5c2-2,2-5.4,0-7.4
		C17,58.2,13.6,58.2,11.6,60.3z M17.9,66.6c-1.5,1.5-3.8,1.5-5.3,0c-1.5-1.5-1.5-3.8,0-5.3c0.7-0.7,1.7-1.1,2.6-1.1
		c1,0,1.9,0.4,2.6,1.1C19.4,62.8,19.4,65.1,17.9,66.6z"/>
	<polygon class="st22" points="23.6,48.7 29.5,48.7 20.1,58.1 21.1,59.2 30.6,49.7 30.6,55.6 32.1,55.6 32.1,47.2 23.6,47.2 	"/>
	<polygon class="st22" points="55.7,30.5 49.8,30.5 59.3,21 58.2,20 48.8,29.4 48.8,23.5 47.3,23.5 47.3,32 55.7,32 	"/>
	<polygon class="st22" points="59.3,58.2 49.8,48.8 55.7,48.8 55.7,47.3 47.3,47.3 47.3,55.7 48.8,55.7 48.8,49.8 58.2,59.3 	"/>
	<polygon class="st22" points="20,21.1 29.4,30.5 23.5,30.5 23.5,32 32,32 32,23.5 30.5,23.5 30.5,29.4 21.1,20 	"/>
</g>
</svg>
