<?xml version="1.0" encoding="utf-8"?>
<!-- Generator: Adobe Illustrator 24.3.0, SVG Export Plug-In . SVG Version: 6.00 Build 0)  -->
<svg version="1.1" id="Layer_1" xmlns="http://www.w3.org/2000/svg" xmlns:xlink="http://www.w3.org/1999/xlink" x="0px" y="0px"
	 viewBox="0 0 91.4 76" style="enable-background:new 0 0 91.4 76;" xml:space="preserve">
<style type="text/css">
	.st0{fill:#F5F5F5;}
	.st1{fill:#575756;}
	.st2{fill:#AD1820;}
	.st3{fill:#E5332A;}
	.st4{fill:#F6A723;}
	.st5{fill:#E84E1B;}
	.st6{fill:#FAA634;}
	.st7{fill:none;stroke:#9C9B9B;stroke-width:3;stroke-miterlimit:10;}
	.st8{fill:#9C9B9B;}
	.st9{fill:#1D1D1B;}
	.st10{clip-path:url(#SVGID_2_);}
	.st11{clip-path:url(#SVGID_4_);}
	.st12{clip-path:url(#SVGID_6_);}
	.st13{fill:none;stroke:#AD1820;stroke-width:2.7971;stroke-miterlimit:10;}
	.st14{fill:#FFFFFF;}
	.st15{fill:#C6C6C5;}
	.st16{fill:#868686;}
	.st17{fill:#3C3C3B;}
	.st18{opacity:0.52;fill:#AD1820;}
	.st19{fill:none;stroke:#AD1820;stroke-width:4.3435;stroke-miterlimit:10;}
	.st20{fill:none;stroke:#E5332A;stroke-width:4.3435;stroke-miterlimit:10;}
	.st21{fill:#B1B1B1;}
	.st22{fill:#DD4D02;}
	.st23{fill:#A4A4A4;}
</style>
<g>
	<path class="st22" d="M31.4,17.7c-7.5,0-13.7,6.1-13.7,13.7S23.9,45,31.4,45C38.9,45,45,38.9,45,31.4S38.9,17.7,31.4,17.7z
		 M31.4,43.5c-6.7,0-12.2-5.5-12.2-12.2s5.5-12.2,12.2-12.2c6.7,0,12.2,5.5,12.2,12.2S38.1,43.5,31.4,43.5z"/>
	<path class="st22" d="M56.3,49.9L54.4,45c0-0.1,0-0.2,0-0.3l2.7-6.5c0-0.1,0.1-0.2,0.2-0.2l4.8-2.1c0.4-0.2,0.7-0.6,0.7-1v-7.1
		c0-0.4-0.3-0.8-0.7-1l-4.8-2.1c-0.1,0-0.2-0.1-0.2-0.2L54.5,18c0-0.1,0-0.2,0-0.3l1.9-4.8c0.2-0.4,0.1-0.9-0.2-1.2L51,6.7
		c-0.3-0.3-0.8-0.4-1.2-0.2L45,8.3c-0.1,0-0.2,0-0.3,0l-6.5-2.7c-0.1,0-0.2-0.1-0.2-0.2L36,0.7C35.8,0.3,35.4,0,35,0h-7.1
		c-0.4,0-0.8,0.3-1,0.7l-2.1,4.8c0,0.1-0.1,0.2-0.2,0.2L18,8.3c-0.1,0-0.2,0-0.3,0l-4.8-1.9c-0.4-0.2-0.9-0.1-1.2,0.2l-5,5
		c-0.3,0.3-0.4,0.8-0.3,1.2l1.9,4.8c0,0.1,0,0.2,0,0.3l-2.7,6.5c0,0.1-0.1,0.2-0.2,0.2l-4.8,2.1C0.3,27,0,27.4,0,27.8V35
		c0,0.4,0.3,0.8,0.7,1l4.8,2.1c0.1,0,0.2,0.1,0.2,0.2l2.7,6.5c0,0.1,0,0.2,0,0.3l-1.9,4.8c-0.2,0.4-0.1,0.9,0.2,1.2l5.1,5.1
		c0.3,0.3,0.8,0.4,1.2,0.2l4.8-1.9c0.1,0,0.2,0,0.3,0l6.5,2.7c0.1,0,0.2,0.1,0.2,0.2l2.1,4.8c0.2,0.4,0.6,0.7,1,0.7H35
		c0.4,0,0.8-0.3,1-0.7l2.1-4.8c0-0.1,0.1-0.2,0.2-0.2l6.5-2.7c0.1,0,0.2,0,0.3,0l4.8,1.9c0.4,0.2,0.9,0.1,1.2-0.2l5.1-5.1
		C56.4,50.7,56.5,50.3,56.3,49.9z M50.2,54.9l-4.6-1.8c-0.5-0.2-1-0.2-1.4,0l-6.5,2.7c-0.4,0.2-0.8,0.5-1,1l-2,4.5h-6.6l-2-4.5
		c-0.2-0.4-0.6-0.8-1-1l-6.5-2.7c-0.5-0.2-0.9-0.2-1.4,0l-4.6,1.8l-4.7-4.7l1.8-4.6c0.2-0.5,0.2-1,0-1.4L7,37.7
		c-0.2-0.4-0.5-0.8-1-1l-4.5-2v-6.6l4.5-2c0.4-0.2,0.8-0.6,1-1l2.7-6.5c0.2-0.4,0.2-0.9,0-1.4l-1.8-4.6l4.7-4.7l4.6,1.8
		c0.5,0.2,1,0.2,1.4,0L25.1,7c0.4-0.2,0.8-0.5,1-1l2-4.5h6.6l2,4.5c0.2,0.4,0.5,0.8,1,1l6.5,2.7c0.4,0.2,0.9,0.2,1.4,0l4.6-1.8
		l4.7,4.7l-1.8,4.6c-0.2,0.5-0.2,1,0,1.4l2.7,6.5c0.2,0.5,0.5,0.8,1,1l4.5,2v6.6l-4.5,2c-0.4,0.2-0.8,0.6-1,1l-2.7,6.5
		c-0.2,0.4-0.2,0.9,0,1.4l1.8,4.6L50.2,54.9z"/>
	<path class="st22" d="M90.6,55.3l-2.4-1l-1.5-3.5l0.9-2.4c0.2-0.5,0.1-1-0.3-1.4l-2.5-2.5c-0.4-0.4-0.9-0.5-1.4-0.3l-2.4,0.9
		l-3.5-1.4l-1-2.4c-0.2-0.5-0.7-0.8-1.2-0.8h-3.5c-0.5,0-1,0.3-1.2,0.8l-1,2.4l-3.5,1.4l-2.4-0.9c-0.5-0.2-1-0.1-1.4,0.3l-2.5,2.5
		c-0.4,0.4-0.5,0.9-0.3,1.4l0.9,2.4L59,54.3l-2.4,1c-0.5,0.2-0.8,0.7-0.8,1.2V60c0,0.5,0.3,1,0.8,1.2l2.4,1l1.5,3.5l-0.9,2.4
		c-0.2,0.5-0.1,1,0.3,1.4l2.5,2.5c0.4,0.4,0.9,0.5,1.4,0.3l2.4-0.9l3.5,1.4l1,2.4c0.2,0.5,0.7,0.8,1.2,0.8h3.5c0.5,0,1-0.3,1.2-0.8
		l1-2.4l3.5-1.4l2.4,0.9c0.5,0.2,1,0.1,1.4-0.3l2.5-2.5c0.4-0.4,0.5-0.9,0.3-1.4l-0.9-2.4l1.5-3.5l2.4-1c0.5-0.2,0.8-0.7,0.8-1.2
		v-3.5C91.4,56,91.1,55.5,90.6,55.3z M89.9,59.9l-2.3,1c-0.3,0.1-0.6,0.4-0.7,0.7l-1.5,3.6c-0.1,0.3-0.1,0.7,0,1l0.9,2.4L84,70.9
		L81.6,70c-0.3-0.1-0.7-0.1-1,0L77,71.5c-0.3,0.1-0.6,0.4-0.7,0.7l-1,2.3H72l-1-2.3c-0.1-0.3-0.4-0.6-0.7-0.7L66.6,70
		c-0.3-0.1-0.7-0.1-1,0l-2.4,0.9L61,68.6l0.9-2.4c0.1-0.3,0.1-0.7,0-1l-1.5-3.6c-0.1-0.3-0.4-0.6-0.7-0.7l-2.3-1v-3.2l2.3-1
		c0.3-0.1,0.6-0.4,0.7-0.7l1.5-3.6c0.1-0.3,0.1-0.7,0-1L61,47.9l2.3-2.3l2.4,0.9c0.3,0.1,0.7,0.1,1,0l3.6-1.5
		c0.3-0.1,0.6-0.4,0.7-0.7l1-2.3h3.2l1,2.3c0.1,0.3,0.4,0.6,0.7,0.7l3.6,1.5c0.3,0.1,0.7,0.1,1,0l2.4-0.9l2.3,2.3l-0.9,2.4
		c-0.1,0.3-0.1,0.7,0,1l1.5,3.6c0.1,0.3,0.4,0.6,0.7,0.7l2.3,1V59.9z"/>
	<path class="st22" d="M73.6,50.3c-4.4,0-7.9,3.5-7.9,7.9s3.5,7.9,7.9,7.9s7.9-3.5,7.9-7.9S78,50.3,73.6,50.3z M73.6,64.7
		c-3.5,0-6.4-2.9-6.4-6.4s2.9-6.4,6.4-6.4s6.4,2.9,6.4,6.4S77.2,64.7,73.6,64.7z"/>
</g>
</svg>
