<?xml version="1.0" encoding="utf-8"?>
<!-- Generator: Adobe Illustrator 24.3.0, SVG Export Plug-In . SVG Version: 6.00 Build 0)  -->
<svg version="1.1" id="Layer_1" xmlns="http://www.w3.org/2000/svg" xmlns:xlink="http://www.w3.org/1999/xlink" x="0px" y="0px"
	 viewBox="0 0 40.1 45.9" style="enable-background:new 0 0 40.1 45.9;" xml:space="preserve">
<style type="text/css">
	.st0{fill:#F5F5F5;}
	.st1{fill:#575756;}
	.st2{fill:#AD1820;}
	.st3{fill:#E5332A;}
	.st4{fill:#F6A723;}
	.st5{fill:#E84E1B;}
	.st6{fill:#FAA634;}
	.st7{fill:none;stroke:#9C9B9B;stroke-width:3;stroke-miterlimit:10;}
	.st8{fill:#9C9B9B;}
	.st9{fill:#1D1D1B;}
	.st10{clip-path:url(#SVGID_2_);}
	.st11{clip-path:url(#SVGID_4_);}
	.st12{clip-path:url(#SVGID_6_);}
	.st13{fill:none;stroke:#AD1820;stroke-width:2.7971;stroke-miterlimit:10;}
	.st14{fill:#FFFFFF;}
	.st15{fill:#C6C6C5;}
	.st16{fill:#868686;}
	.st17{fill:#3C3C3B;}
	.st18{opacity:0.52;fill:#AD1820;}
	.st19{fill:none;stroke:#AD1820;stroke-width:4.3435;stroke-miterlimit:10;}
	.st20{fill:none;stroke:#E5332A;stroke-width:4.3435;stroke-miterlimit:10;}
	.st21{fill:#B1B1B1;}
	.st22{fill:#DD4D02;}
	.st23{fill:#A4A4A4;}
</style>
<g>
	<path class="st16" d="M37.4,0H2.7C1.2,0,0,1.2,0,2.7v40.4c0,1.5,1.2,2.7,2.7,2.7h34.6c1.5,0,2.7-1.2,2.7-2.7V2.7
		C40.1,1.2,38.9,0,37.4,0z M2.7,2.2h34.6c0.3,0,0.5,0.2,0.5,0.5v9.4H2.2V2.7C2.2,2.4,2.4,2.2,2.7,2.2z M25.3,43.7H14.8V30.1h10.5
		V43.7z M25.3,27.9H14.8V14.3h10.5V27.9z M2.2,14.3h10.5v13.6H2.2V14.3z M2.2,43.1V30.1h10.5v13.6H2.7C2.4,43.7,2.2,43.4,2.2,43.1z
		 M37.4,43.7h-9.9V14.3h10.5v28.8C37.9,43.4,37.7,43.7,37.4,43.7z"/>
	<path class="st16" d="M10.1,20H8.5v-1.6c0-0.6-0.5-1.1-1.1-1.1s-1.1,0.5-1.1,1.1V20H4.7c-0.6,0-1.1,0.5-1.1,1.1s0.5,1.1,1.1,1.1
		h1.6v1.6c0,0.6,0.5,1.1,1.1,1.1s1.1-0.5,1.1-1.1v-1.6h1.6c0.6,0,1.1-0.5,1.1-1.1S10.7,20,10.1,20z"/>
	<path class="st16" d="M17.3,22.2h5.5c0.6,0,1.1-0.5,1.1-1.1S23.4,20,22.8,20h-5.5c-0.6,0-1.1,0.5-1.1,1.1S16.7,22.2,17.3,22.2z"/>
	<path class="st16" d="M8.9,36.9l1.3-1.3c0.4-0.4,0.4-1.1,0-1.5c-0.4-0.4-1.1-0.4-1.5,0l-1.3,1.3L6.1,34c-0.4-0.4-1.1-0.4-1.5,0
		c-0.4,0.4-0.4,1.1,0,1.5l1.3,1.3l-1.3,1.3c-0.4,0.4-0.4,1.1,0,1.5C4.8,39.9,5,40,5.3,40s0.6-0.1,0.8-0.3l1.3-1.3l1.3,1.3
		C8.9,39.9,9.2,40,9.5,40c0.3,0,0.6-0.1,0.8-0.3c0.4-0.4,0.4-1.1,0-1.5L8.9,36.9z"/>
	<path class="st16" d="M17.2,39.7c0.2,0.2,0.5,0.3,0.8,0.3s0.6-0.1,0.8-0.3l4.2-4.2c0.4-0.4,0.4-1.1,0-1.5c-0.4-0.4-1.1-0.4-1.5,0
		l-4.2,4.2C16.8,38.6,16.8,39.3,17.2,39.7z"/>
	<circle class="st16" cx="18" cy="34.8" r="0.9"/>
	<circle class="st16" cx="22.1" cy="39" r="0.9"/>
	<path class="st16" d="M35.4,26h-5.6c-0.6,0-1.1,0.5-1.1,1.1c0,0.6,0.5,1.1,1.1,1.1h5.6c0.6,0,1.1-0.5,1.1-1.1
		C36.5,26.5,36,26,35.4,26z"/>
	<path class="st16" d="M35.4,29.8h-5.6c-0.6,0-1.1,0.5-1.1,1.1s0.5,1.1,1.1,1.1h5.6c0.6,0,1.1-0.5,1.1-1.1S36,29.8,35.4,29.8z"/>
</g>
</svg>
