<?xml version="1.0" encoding="utf-8"?>
<!-- Generator: Adobe Illustrator 24.3.0, SVG Export Plug-In . SVG Version: 6.00 Build 0)  -->
<svg version="1.1" id="Layer_1" xmlns="http://www.w3.org/2000/svg" xmlns:xlink="http://www.w3.org/1999/xlink" x="0px" y="0px"
	 viewBox="0 0 38 48.4" style="enable-background:new 0 0 38 48.4;" xml:space="preserve">
<style type="text/css">
	.st0{fill:#F5F5F5;}
	.st1{fill:#575756;}
	.st2{fill:#AD1820;}
	.st3{fill:#E5332A;}
	.st4{fill:#F6A723;}
	.st5{fill:#E84E1B;}
	.st6{fill:#FAA634;}
	.st7{fill:none;stroke:#9C9B9B;stroke-width:3;stroke-miterlimit:10;}
	.st8{fill:#9C9B9B;}
	.st9{fill:#1D1D1B;}
	.st10{clip-path:url(#SVGID_2_);}
	.st11{clip-path:url(#SVGID_4_);}
	.st12{clip-path:url(#SVGID_6_);}
	.st13{fill:none;stroke:#AD1820;stroke-width:2.7971;stroke-miterlimit:10;}
	.st14{fill:#FFFFFF;}
	.st15{fill:#C6C6C5;}
	.st16{fill:#868686;}
	.st17{fill:#3C3C3B;}
	.st18{opacity:0.52;fill:#AD1820;}
	.st19{fill:none;stroke:#AD1820;stroke-width:4.3435;stroke-miterlimit:10;}
	.st20{fill:none;stroke:#E5332A;stroke-width:4.3435;stroke-miterlimit:10;}
	.st21{fill:#B1B1B1;}
	.st22{fill:#DD4D02;}
	.st23{fill:#A4A4A4;}
</style>
<g>
	<path class="st16" d="M33.2,6.3h-4.4v-2c0-0.6-0.7-0.9-1.3-0.9h-3.4C23.3,1.2,21.3,0,19,0c-2.3-0.1-4.4,1.3-5.1,3.5h-3.3
		c-0.6,0-1.3,0.3-1.3,0.9v2H4.8C2.2,6.4,0.1,8.4,0,11v33c0,2.5,2.3,4.4,4.8,4.4h28.3c2.5,0,4.8-1.8,4.8-4.4V11
		C37.9,8.4,35.8,6.4,33.2,6.3z M11.5,5.8h3.2c0.6-0.1,1-0.5,1.1-1c0.3-1.5,1.6-2.6,3.2-2.6c1.5,0,2.8,1.1,3.1,2.6
		c0.1,0.6,0.6,1,1.2,1h3.3v4.6h-15V5.8z M35.7,44c0,1.3-1.3,2.1-2.5,2.1H4.8c-1.3,0-2.5-0.8-2.5-2.1V11c0.1-1.3,1.2-2.3,2.5-2.4h4.4
		v2.9c0.1,0.6,0.6,1.1,1.3,1.1h17c0.7,0,1.2-0.4,1.3-1.1V8.6h4.4c1.3,0,2.4,1,2.5,2.4V44z"/>
	<path class="st16" d="M13,25.7l-3.7,3.5l-1.6-1.6c-0.4-0.5-1.1-0.5-1.6-0.1c-0.4,0.5-0.4,1.2,0,1.7l2.4,2.4C8.7,31.9,9,32,9.3,32
		c0.3,0,0.6-0.1,0.8-0.3l4.5-4.3c0.4-0.4,0.5-1.1,0.1-1.5c0,0,0,0-0.1-0.1C14.1,25.3,13.4,25.3,13,25.7z"/>
	<path class="st16" d="M31.1,28.2H17.9c-0.6,0-1.2,0.5-1.2,1.2c0,0.6,0.5,1.2,1.2,1.2h13.2c0.6,0,1.2-0.5,1.2-1.2
		C32.3,28.7,31.7,28.2,31.1,28.2z"/>
	<path class="st16" d="M13,16.5L9.3,20l-1.6-1.6c-0.4-0.5-1.1-0.5-1.6-0.1c-0.4,0.5-0.4,1.2,0,1.7l2.4,2.4c0.2,0.2,0.5,0.4,0.8,0.3
		c0.3,0,0.6-0.1,0.8-0.3l4.5-4.3c0.4-0.4,0.5-1.1,0.1-1.5c0,0,0,0-0.1-0.1C14.1,16.1,13.4,16.1,13,16.5z"/>
	<path class="st16" d="M31.1,19H17.9c-0.6,0-1.2,0.5-1.2,1.2c0,0.6,0.5,1.2,1.2,1.2h13.2c0.6,0,1.2-0.5,1.2-1.2
		C32.3,19.5,31.7,19,31.1,19z"/>
	<path class="st16" d="M13,34.9l-3.7,3.5l-1.6-1.6c-0.4-0.5-1.1-0.5-1.6-0.1c-0.4,0.5-0.4,1.2,0,1.7l2.4,2.4
		c0.2,0.2,0.5,0.4,0.8,0.3c0.3,0,0.6-0.1,0.8-0.3l4.5-4.3c0.4-0.4,0.5-1.1,0.1-1.5c0,0,0,0-0.1-0.1C14.1,34.5,13.4,34.5,13,34.9z"/>
	<path class="st16" d="M31.1,37.4H17.9c-0.6,0-1.2,0.5-1.2,1.2s0.5,1.2,1.2,1.2h13.2c0.6,0,1.2-0.5,1.2-1.2S31.7,37.4,31.1,37.4z"/>
</g>
</svg>
