<?xml version="1.0" encoding="utf-8"?>
<!-- Generator: Adobe Illustrator 24.3.0, SVG Export Plug-In . SVG Version: 6.00 Build 0)  -->
<svg version="1.1" id="Layer_1" xmlns="http://www.w3.org/2000/svg" xmlns:xlink="http://www.w3.org/1999/xlink" x="0px" y="0px"
	 viewBox="0 0 48.7 48.2" style="enable-background:new 0 0 48.7 48.2;" xml:space="preserve">
<style type="text/css">
	.st0{fill:#F5F5F5;}
	.st1{fill:#575756;}
	.st2{fill:#AD1820;}
	.st3{fill:#E5332A;}
	.st4{fill:#F6A723;}
	.st5{fill:#E84E1B;}
	.st6{fill:#FAA634;}
	.st7{fill:none;stroke:#9C9B9B;stroke-width:3;stroke-miterlimit:10;}
	.st8{fill:#9C9B9B;}
	.st9{fill:#1D1D1B;}
	.st10{clip-path:url(#SVGID_2_);}
	.st11{clip-path:url(#SVGID_4_);}
	.st12{clip-path:url(#SVGID_6_);}
	.st13{fill:none;stroke:#AD1820;stroke-width:2.7971;stroke-miterlimit:10;}
	.st14{fill:#FFFFFF;}
	.st15{fill:#C6C6C5;}
	.st16{fill:#868686;}
	.st17{fill:#3C3C3B;}
	.st18{opacity:0.52;fill:#AD1820;}
	.st19{fill:none;stroke:#AD1820;stroke-width:4.3435;stroke-miterlimit:10;}
	.st20{fill:none;stroke:#E5332A;stroke-width:4.3435;stroke-miterlimit:10;}
	.st21{fill:#B1B1B1;}
	.st22{fill:#DD4D02;}
	.st23{fill:#A4A4A4;}
</style>
<g>
	<path class="st16" d="M46.5,41.8c1.5-2.3,2.3-4.9,2.3-7.6c0-5.8-3.5-10.9-8.9-13c0-0.5,0.1-0.9,0.1-1.4C40,8.8,31.1,0,20.3,0
		S0.6,8.8,0.6,19.7c0,3.4,0.8,6.8,2.3,9.6L0,39.8l10.4-2.9l0.1,0.1c2.8,1.7,5.7,2.4,9.7,2.4c0.5,0,0.9,0,1.4-0.1
		c2.1,5.3,7.3,8.9,13,8.9c2.7,0,5.4-0.8,7.6-2.3l0.2-0.1l5.3,1.5l-1.5-5.3L46.5,41.8z M11.6,35.3l-0.8-0.6l-7.9,2.2L5.1,29l-0.3-0.5
		c-1.4-2.5-2.1-5.6-2.1-8.8C2.6,9.9,10.5,2,20.3,2S38,9.9,38,19.7c0,1.8-0.3,3.5-0.8,5.2c0,0.1-0.1,0.2-0.1,0.3
		c-0.1,0.4-0.3,0.7-0.4,1.1c-0.1,0.3-0.2,0.5-0.3,0.8c-0.1,0.2-0.2,0.4-0.3,0.5c-0.2,0.3-0.4,0.7-0.6,1c0,0.1-0.1,0.1-0.1,0.2
		c-1.5,2.4-3.5,4.5-6,6c-0.1,0.1-0.2,0.1-0.3,0.2c-0.3,0.2-0.6,0.3-0.8,0.5c-0.3,0.1-0.5,0.3-0.8,0.4C27.3,35.9,27.1,36,27,36
		c-2.1,0.9-4.3,1.3-6.7,1.3C16.6,37.4,14.1,36.8,11.6,35.3z M42.2,43.6l-0.9,0.6c-1.9,1.3-4.2,1.9-6.5,1.9c-4.8,0-9-2.8-11-7.1
		c0.8-0.1,1.6-0.4,2.4-0.6c0,0,0,0,0,0c0.5-0.2,1.1-0.4,1.6-0.6c0.1,0,0.2-0.1,0.2-0.1c0.5-0.2,1-0.4,1.4-0.7
		c0.4-0.2,0.7-0.4,1.1-0.6c0.1,0,0.1-0.1,0.2-0.1c3.5-2.2,6.3-5.5,7.8-9.4c0.2-0.4,0.3-0.8,0.4-1.2c0-0.1,0.1-0.2,0.1-0.4
		c0.2-0.7,0.4-1.4,0.5-2.2c4.3,1.9,7.1,6.2,7.1,11c0,2.3-0.7,4.6-1.9,6.5l-0.6,0.9l0.8,2.8L42.2,43.6z"/>
	<rect x="18.7" y="26.9" class="st16" width="2.9" height="2.9"/>
	<path class="st16" d="M20.2,9.5c-3.2,0-5.8,2.6-5.8,5.8h2.9c0-1.6,1.3-2.9,2.9-2.9s2.9,1.3,2.9,2.9c0,0.8-0.3,1.6-0.9,2.1l-3.4,3.1
		V24h2.9v-2.3l2.5-2.2c1.2-1.1,1.9-2.6,1.9-4.3C26,12,23.4,9.5,20.2,9.5z"/>
</g>
</svg>
