<?xml version="1.0" encoding="utf-8"?>
<!-- Generator: Adobe Illustrator 24.3.0, SVG Export Plug-In . SVG Version: 6.00 Build 0)  -->
<svg version="1.1" id="Layer_1" xmlns="http://www.w3.org/2000/svg" xmlns:xlink="http://www.w3.org/1999/xlink" x="0px" y="0px"
	 viewBox="0 0 54.2 54.2" style="enable-background:new 0 0 54.2 54.2;" xml:space="preserve">
<style type="text/css">
	.st0{fill:#F5F5F5;}
	.st1{fill:#575756;}
	.st2{fill:#AD1820;}
	.st3{fill:#E5332A;}
	.st4{fill:#F6A723;}
	.st5{fill:#E84E1B;}
	.st6{fill:#FAA634;}
	.st7{fill:none;stroke:#9C9B9B;stroke-width:3;stroke-miterlimit:10;}
	.st8{fill:#9C9B9B;}
	.st9{fill:#1D1D1B;}
	.st10{clip-path:url(#SVGID_2_);}
	.st11{clip-path:url(#SVGID_4_);}
	.st12{clip-path:url(#SVGID_6_);}
	.st13{fill:none;stroke:#AD1820;stroke-width:2.7971;stroke-miterlimit:10;}
	.st14{fill:#FFFFFF;}
	.st15{fill:#C6C6C5;}
	.st16{fill:#868686;}
	.st17{fill:#3C3C3B;}
	.st18{opacity:0.52;fill:#AD1820;}
	.st19{fill:none;stroke:#AD1820;stroke-width:4.3435;stroke-miterlimit:10;}
	.st20{fill:none;stroke:#E5332A;stroke-width:4.3435;stroke-miterlimit:10;}
	.st21{fill:#B1B1B1;}
	.st22{fill:#DD4D02;}
	.st23{fill:#A4A4A4;}
	.st24{fill:#E94D00;}
	.st25{clip-path:url(#SVGID_8_);fill:#E74E1B;}
	.st26{clip-path:url(#SVGID_8_);}
	.st27{fill:#AC1820;}
	.st28{fill:#F19000;}
	.st29{opacity:0.52;fill:#AC1820;}
	.st30{fill:#E4332A;}
</style>
<g>
	<path class="st22" d="M27.1,0C12.2,0,0,12.2,0,27.1s12.2,27.1,27.1,27.1s27.1-12.2,27.1-27.1S42.1,0,27.1,0z M27.1,52.7
		C13,52.7,1.5,41.2,1.5,27.1S13,1.5,27.1,1.5S52.7,13,52.7,27.1S41.2,52.7,27.1,52.7z"/>
	<path class="st22" d="M40.3,20.9h-7v-7c0-1-0.8-1.9-1.9-1.9h-8.8c-1,0-1.9,0.8-1.9,1.9v7h-7c-1,0-1.9,0.8-1.9,1.9v8.8
		c0,1,0.8,1.9,1.9,1.9h7v7c0,1,0.8,1.9,1.9,1.9h8.8c1,0,1.9-0.8,1.9-1.9v-7h7c1,0,1.9-0.8,1.9-1.9l0-8.9
		C42.1,21.6,41.3,20.9,40.3,20.9z M40.7,31.5c0,0.2-0.2,0.4-0.4,0.4h-7.7c-0.4,0-0.8,0.3-0.8,0.8v7.7c0,0.2-0.2,0.4-0.4,0.4h-8.8
		c-0.2,0-0.4-0.2-0.4-0.4v-7.7c0-0.4-0.3-0.8-0.8-0.8h-7.7c-0.2,0-0.4-0.2-0.4-0.4v-8.8c0-0.2,0.2-0.4,0.4-0.4h7.7
		c0.4,0,0.8-0.3,0.8-0.8v-7.7c0-0.2,0.2-0.4,0.4-0.4h8.8c0.2,0,0.4,0.2,0.4,0.4v7.7c0,0.4,0.3,0.8,0.8,0.8h7.7
		c0.1,0,0.3,0.2,0.4,0.4V31.5z"/>
</g>
</svg>
