<?xml version="1.0" encoding="utf-8"?>
<!-- Generator: Adobe Illustrator 24.3.0, SVG Export Plug-In . SVG Version: 6.00 Build 0)  -->
<svg version="1.1" id="Layer_1" xmlns="http://www.w3.org/2000/svg" xmlns:xlink="http://www.w3.org/1999/xlink" x="0px" y="0px"
	 viewBox="0 0 58.4 55.3" style="enable-background:new 0 0 58.4 55.3;" xml:space="preserve">
<style type="text/css">
	.st0{fill:#F5F5F5;}
	.st1{fill:#575756;}
	.st2{fill:#AD1820;}
	.st3{fill:#E5332A;}
	.st4{fill:#F6A723;}
	.st5{fill:#E84E1B;}
	.st6{fill:#FAA634;}
	.st7{fill:none;stroke:#9C9B9B;stroke-width:3;stroke-miterlimit:10;}
	.st8{fill:#9C9B9B;}
	.st9{fill:#1D1D1B;}
	.st10{clip-path:url(#SVGID_2_);}
	.st11{clip-path:url(#SVGID_4_);}
	.st12{clip-path:url(#SVGID_6_);}
	.st13{fill:none;stroke:#AD1820;stroke-width:2.7971;stroke-miterlimit:10;}
	.st14{fill:#FFFFFF;}
	.st15{fill:#C6C6C5;}
	.st16{fill:#868686;}
	.st17{fill:#3C3C3B;}
	.st18{opacity:0.52;fill:#AD1820;}
	.st19{fill:none;stroke:#AD1820;stroke-width:4.3435;stroke-miterlimit:10;}
	.st20{fill:none;stroke:#E5332A;stroke-width:4.3435;stroke-miterlimit:10;}
	.st21{fill:#B1B1B1;}
	.st22{fill:#DD4D02;}
	.st23{fill:#A4A4A4;}
	.st24{fill:#E94D00;}
	.st25{clip-path:url(#SVGID_8_);fill:#E74E1B;}
	.st26{clip-path:url(#SVGID_8_);}
	.st27{fill:#AC1820;}
	.st28{fill:#F19000;}
	.st29{opacity:0.52;fill:#AC1820;}
	.st30{fill:#E4332A;}
</style>
<g>
	<path class="st22" d="M33.6,25c0.1,0.1,0.3,0.2,0.5,0.2s0.4-0.1,0.5-0.2L46,13.7c1.6-1.6,2.4-3.6,2.4-5.8c0-2.2-0.9-4.3-2.5-5.8
		C44.3,0.8,42.4,0,40.3,0c-2.2,0-4.5,0.9-6.1,2.5l-0.1,0.1l-0.1-0.1C32.5,0.9,30.3,0,28,0c-2,0-4,0.8-5.4,2.1
		C21,3.6,20.1,5.7,20,7.9c0,2.2,0.8,4.3,2.4,5.8L33.6,25z M23.6,3.2c1.2-1.1,2.7-1.7,4.4-1.7c1.9,0,3.7,0.8,5,2.1l0.6,0.6
		c0.1,0.1,0.3,0.2,0.5,0.2c0,0,0,0,0,0c0.2,0,0.4-0.1,0.5-0.2l0.6-0.6c1.3-1.3,3.1-2.1,5-2.1c1.7,0,3.2,0.6,4.4,1.7
		c1.3,1.2,2,2.9,2.1,4.7c0,1.8-0.7,3.5-1.9,4.8L34.2,23.4L23.5,12.7c-1.3-1.3-2-3-1.9-4.8C21.6,6.1,22.3,4.4,23.6,3.2z"/>
	<path class="st22" d="M57.8,30.6c-1.6-1.1-3.6-1-5.7,0.2c-1.9,1.1-12.9,10.5-13,10.6c0,0-0.1,0.1-0.2,0.1l-10.9,0
		c-0.7,0-1.3-0.7-1.3-1.3c0-0.7,0.6-1.3,1.3-1.3h6.7c2,0,4.7-1.2,4.7-4c0-3.1-3.1-4-4.7-4c-2.8,0-4.8,0-4.8,0
		c-1.7,0-3.4-0.1-4.7-0.8c-1.7-0.9-3.6-1.3-5.6-1.3c-3.3,0-6.4,1.3-8.6,3.5L0.2,42.8C0.1,42.9,0,43.1,0,43.3s0.1,0.4,0.2,0.5
		l11.3,11.3c0.1,0.1,0.3,0.2,0.5,0.2s0.4-0.1,0.5-0.2l3.5-3.5c0,0,0.1-0.1,0.2-0.1h21.5c2.1,0,4-0.7,5.6-2.2l14.5-16.3
		c0.4-0.3,0.6-0.8,0.5-1.3C58.4,31.3,58.2,30.8,57.8,30.6z M56.9,31.9c-0.1,0-0.1,0.1-0.2,0.2L42.3,48.3C41,49.4,39.4,50,37.7,50
		H16.3c-0.5,0-0.9,0.2-1.2,0.5l-3,3L1.8,43.3l10.2-10c1.9-1.9,4.6-3.1,7.5-3.1c1.7,0,3.4,0.4,4.9,1.2c1.6,0.9,3.5,1,5.4,1
		c0,0,0,0,0,0c0,0,0.8,0,4.8,0c0.1,0,3.2,0,3.2,2.5c0,1.9-2.2,2.5-3.2,2.5H28c-1.5,0-2.8,1.3-2.8,2.8c0,1.5,1.3,2.8,2.8,2.8l10.9,0
		c0.4,0,0.8-0.2,1.1-0.4c4.2-3.6,11.5-9.7,12.8-10.4c1.6-0.9,3-1.1,4.1-0.3C56.9,31.9,56.9,31.9,56.9,31.9z"/>
</g>
</svg>
