<?xml version="1.0" encoding="utf-8"?>
<!-- Generator: Adobe Illustrator 24.3.0, SVG Export Plug-In . SVG Version: 6.00 Build 0)  -->
<svg version="1.1" id="Layer_1" xmlns="http://www.w3.org/2000/svg" xmlns:xlink="http://www.w3.org/1999/xlink" x="0px" y="0px"
	 viewBox="0 0 192.3 44.7" style="enable-background:new 0 0 192.3 44.7;" xml:space="preserve">
<style type="text/css">
	.st0{fill:#F5F5F5;}
	.st1{fill:#575756;}
	.st2{fill:#AD1820;}
	.st3{fill:#E5332A;}
	.st4{fill:#F6A723;}
	.st5{fill:#E84E1B;}
	.st6{fill:#FAA634;}
	.st7{fill:none;stroke:#9C9B9B;stroke-width:3;stroke-miterlimit:10;}
	.st8{fill:#9C9B9B;}
	.st9{fill:#1D1D1B;}
	.st10{clip-path:url(#SVGID_2_);}
	.st11{clip-path:url(#SVGID_4_);}
	.st12{clip-path:url(#SVGID_6_);}
	.st13{fill:none;stroke:#AD1820;stroke-width:2.7971;stroke-miterlimit:10;}
	.st14{fill:#FFFFFF;}
	.st15{fill:#C6C6C5;}
	.st16{fill:#868686;}
	.st17{fill:#3C3C3B;}
	.st18{opacity:0.52;fill:#AD1820;}
	.st19{fill:none;stroke:#AD1820;stroke-width:4.3435;stroke-miterlimit:10;}
	.st20{fill:none;stroke:#E5332A;stroke-width:4.3435;stroke-miterlimit:10;}
	.st21{fill:#B1B1B1;}
	.st22{fill:#DD4D02;}
	.st23{fill:#A4A4A4;}
</style>
<g>
	<g>
		<path class="st1" d="M50.1,0.7v23.1c0,3,0.6,4.2,2.3,5.2l2.6,0.4l0,5.5c-7.8,0-10.4-2.8-10.4-10.1V0.7H50.1z"/>
		<path class="st1" d="M162.5,0.7v23.1c0,3,0.6,4.2,2.3,5.2l2.6,0.4l-0.1,5.5c-7.8,0-10.4-2.8-10.4-10.1V0.7H162.5z"/>
		<path class="st1" d="M69.3,7.7c9,0,14.2,6.8,14.2,13.6c0,6.8-5.2,13.6-14.2,13.6c-9,0-14.2-6.8-14.2-13.6
			C55.1,14.4,60.3,7.7,69.3,7.7z M69.3,29.6c4.8,0,8.4-3.7,8.4-8.4c0-4.6-3.5-8.4-8.4-8.4c-4.8,0-8.4,3.7-8.4,8.4
			C60.9,25.9,64.4,29.6,69.3,29.6z"/>
		<path class="st1" d="M111.9,31.3c0,8.5-6.5,13.4-13.5,13.4c-3.6,0-7.9-1.5-10.9-5.1l4.5-3.3c1.1,1.5,3.5,3.2,6.1,3.2
			c5.6,0,8.5-3.7,8.5-7.6v-1.7c-2.3,2.6-5,4-8.8,4c-6.7,0-12.5-5-12.5-13.2c0-8.5,6.3-13.3,13.2-13.3c3.5,0,6.2,1.3,8,3.7h0.1v-3
			h5.2V31.3z M99,28.9c4.5,0,7.7-3.6,7.7-8c0-4.5-3.5-8-7.7-8c-4.3,0-7.8,3.6-7.8,8C91.2,25.3,94.3,28.9,99,28.9z"/>
		<path class="st1" d="M120.5,0c1.7,0,3.1,1.4,3.1,3.1c0,1.7-1.4,3.1-3.1,3.1c-1.7,0-3.1-1.4-3.1-3.1C117.4,1.4,118.8,0,120.5,0z
			 M117.7,8.4h5.5v25.8h-5.5V8.4z"/>
		<path class="st1" d="M148,16.8c-1.5-2.3-3.6-3.9-6.7-3.9c-4.8,0-8.4,3.7-8.4,8.4c0,4.6,3.5,8.4,8.4,8.4c3,0,5.2-1.5,6.7-3.9
			l4.8,2.9c-2.3,3.6-6.7,6.2-11.6,6.2c-9,0-14.2-6.8-14.2-13.6c0-6.8,5.2-13.6,14.2-13.6c5.5,0,9.1,2.6,11.6,6.2L148,16.8z"/>
		<path class="st1" d="M168.8,8.4h5.5v15.1c0,4.3,2.7,6.1,6.1,6.1c4.3,0,6.4-2.7,6.4-6.7V8.4h5.5v25c0,7.9-7,11.3-11.8,11.3
			c-5.8,0-8.4-2.2-10.9-5.1l4.7-2.9c1.8,1.7,3.5,2.7,5.9,2.7c3.7,0,6.9-2.2,6.9-6.8v-1.4H187c-2.2,2.4-4.2,3.5-7.8,3.5
			c-5.8,0-10.4-4.3-10.4-11.6V8.4z"/>
	</g>
	<g>
		<g>
			<path class="st3" d="M0,1c0,9.2,7.4,16.6,16.6,16.6V1H0z"/>
			<path class="st2" d="M16.6,17.6c0,9.2-7.4,16.6-16.6,16.6V17.6H16.6z"/>
			<path class="st5" d="M16.6,17.6c9.2,0,16.6,7.4,16.6,16.6H16.6V17.6z"/>
			<path class="st4" d="M16.6,17.6C16.6,8.5,24,1,33.1,1v16.6H16.6z"/>
		</g>
		<rect x="11.6" y="12.6" transform="matrix(0.7073 -0.707 0.707 0.7073 -7.603 16.8741)" class="st14" width="10" height="10"/>
	</g>
</g>
</svg>
