<svg id="Layer_1" data-name="Layer 1" xmlns="http://www.w3.org/2000/svg" xmlns:xlink="http://www.w3.org/1999/xlink" viewBox="0 0 131.72 66.03"><defs><style>.cls-1{fill:none;}.cls-2{clip-path:url(#clip-path);}.cls-3{fill-rule:evenodd;}</style><clipPath id="clip-path"><rect class="cls-1" width="131.71" height="66.03"/></clipPath></defs><g class="cls-2"><path class="cls-3" d="M5.7,63.18H2.43l-.39.9a2.17,2.17,0,0,0-.19.74.64.64,0,0,0,.32.58,2.78,2.78,0,0,0,.9.16v.25H0v-.25a1.43,1.43,0,0,0,.82-.41,5.88,5.88,0,0,0,.79-1.4l3.31-7.38H5L8.38,64a4.75,4.75,0,0,0,.78,1.35,1,1,0,0,0,.66.25v.25H5.35v-.25h.18a1.42,1.42,0,0,0,.76-.15.36.36,0,0,0,.15-.31,1.17,1.17,0,0,0,0-.26s-.08-.21-.21-.51Zm-.23-.51L4.09,59.49,2.67,62.67Z"/><path d="M15.49,59.44v5a1.88,1.88,0,0,0,.13.91.84.84,0,0,0,.56.23v.24h-2.6V65a3.46,3.46,0,0,1-.92.8,2.13,2.13,0,0,1-1,.24,1.56,1.56,0,0,1-1-.32,1.73,1.73,0,0,1-.56-.78A5.63,5.63,0,0,1,10,63.35V60.82a1.8,1.8,0,0,0-.14-.9.77.77,0,0,0-.55-.23v-.25h2.59v4.35a3.65,3.65,0,0,0,.07.88.59.59,0,0,0,.2.3.57.57,0,0,0,.33.11.84.84,0,0,0,.44-.13,2.81,2.81,0,0,0,.66-.72V60.82a1.8,1.8,0,0,0-.14-.9.77.77,0,0,0-.55-.23v-.25Z"/><path d="M20.64,59.26l.1,2.17h-.23a3.48,3.48,0,0,0-.87-1.32,1.38,1.38,0,0,0-.88-.35.65.65,0,0,0-.48.19.57.57,0,0,0-.2.43.51.51,0,0,0,.14.35,6,6,0,0,0,1.22,1,5,5,0,0,1,1.31,1.15,1.81,1.81,0,0,1,.32,1.06A2.23,2.23,0,0,1,20.81,65a1.88,1.88,0,0,1-.75.78A2.15,2.15,0,0,1,19,66a3.73,3.73,0,0,1-1.22-.29,1,1,0,0,0-.28-.07c-.15,0-.28.11-.38.34h-.22l-.11-2.29H17A2.9,2.9,0,0,0,17.85,65a1.63,1.63,0,0,0,1,.45.77.77,0,0,0,.54-.2.65.65,0,0,0,.21-.49.81.81,0,0,0-.21-.56,5.35,5.35,0,0,0-.91-.73,7,7,0,0,1-1.35-1.1,1.91,1.91,0,0,1-.45-1.24,2,2,0,0,1,.5-1.33,1.89,1.89,0,0,1,1.48-.6,2.13,2.13,0,0,1,1,.26.62.62,0,0,0,.3.1.39.39,0,0,0,.2-.05,1.25,1.25,0,0,0,.23-.29Z"/><path d="M24,57.1v2.34h1.52v.67H24V64a3.37,3.37,0,0,0,0,.72.61.61,0,0,0,.18.26.47.47,0,0,0,.24.1c.3,0,.58-.23.84-.68l.21.15a1.88,1.88,0,0,1-1.8,1.31,1.65,1.65,0,0,1-1-.33,1.63,1.63,0,0,1-.53-.76,6.84,6.84,0,0,1-.07-1.26V60.11h-.83v-.24a8.82,8.82,0,0,0,1.46-1.27,7.65,7.65,0,0,0,1.06-1.5Z"/><path d="M28.64,59.44v1.44a4.62,4.62,0,0,1,1.11-1.31,1.63,1.63,0,0,1,.92-.32.78.78,0,0,1,.61.23.93.93,0,0,1,.23.66,1,1,0,0,1-.22.71.7.7,0,0,1-.54.26.91.91,0,0,1-.62-.23,2.22,2.22,0,0,0-.32-.26.27.27,0,0,0-.15,0,.57.57,0,0,0-.38.15,1.38,1.38,0,0,0-.42.67,4.48,4.48,0,0,0-.22,1.46v1.84a1.34,1.34,0,0,0,.05.5.56.56,0,0,0,.23.27,1.54,1.54,0,0,0,.55.11v.24H26v-.24a.75.75,0,0,0,.55-.23,2,2,0,0,0,.16-1V60.79a2.42,2.42,0,0,0-.06-.7.5.5,0,0,0-.2-.28,1,1,0,0,0-.45-.12v-.25Z"/><path class="cls-3" d="M35,64.87a3.34,3.34,0,0,1-2.09,1,1.28,1.28,0,0,1-.91-.35,1.24,1.24,0,0,1-.36-.91,1.73,1.73,0,0,1,.63-1.3A11.64,11.64,0,0,1,35,61.78v-.64a2.85,2.85,0,0,0-.08-.91.73.73,0,0,0-.29-.32.86.86,0,0,0-.49-.15,1.26,1.26,0,0,0-.73.2.35.35,0,0,0-.18.29.58.58,0,0,0,.19.35.84.84,0,0,1,.26.57.75.75,0,0,1-.25.57.92.92,0,0,1-.65.23,1,1,0,0,1-.72-.26.79.79,0,0,1-.29-.6,1.42,1.42,0,0,1,.39-.94,2.46,2.46,0,0,1,1.08-.69,4.45,4.45,0,0,1,1.45-.23,2.36,2.36,0,0,1,1.43.38,1.77,1.77,0,0,1,.69.84,5.43,5.43,0,0,1,.1,1.31v2.48a3,3,0,0,0,0,.55.37.37,0,0,0,.1.16.25.25,0,0,0,.16.06c.12,0,.24-.09.36-.25l.21.16a2.5,2.5,0,0,1-.72.73,1.43,1.43,0,0,1-.82.23,1.34,1.34,0,0,1-.85-.25,1.16,1.16,0,0,1-.38-.78m0-.5V62.24a3.91,3.91,0,0,0-1.22,1,1.28,1.28,0,0,0-.27.75.78.78,0,0,0,.23.55.61.61,0,0,0,.47.18,1.27,1.27,0,0,0,.79-.38"/><path d="M40.55,56.56v7.93a1.53,1.53,0,0,0,.16.86.85.85,0,0,0,.61.22v.24H37.88v-.24a.87.87,0,0,0,.63-.25,1.53,1.53,0,0,0,.14-.83v-6.6a1.49,1.49,0,0,0-.16-.85.81.81,0,0,0-.61-.22v-.26Z"/><path class="cls-3" d="M43.47,56.35a1.06,1.06,0,0,1,1.06,1,1,1,0,0,1-1.06,1.05,1,1,0,0,1-.74-.3,1.06,1.06,0,0,1-.31-.75,1,1,0,0,1,.31-.74,1,1,0,0,1,.74-.31m1,3.09v5a1.45,1.45,0,0,0,.16.86.81.81,0,0,0,.61.22v.24H41.75v-.24a.85.85,0,0,0,.63-.25,1.5,1.5,0,0,0,.14-.83V60.76a1.43,1.43,0,0,0-.16-.85.81.81,0,0,0-.61-.22v-.25Z"/><path class="cls-3" d="M48.92,64.87a3.36,3.36,0,0,1-2.09,1,1.26,1.26,0,0,1-.91-.35,1.24,1.24,0,0,1-.36-.91,1.75,1.75,0,0,1,.62-1.3,11.55,11.55,0,0,1,2.74-1.56v-.64a3.2,3.2,0,0,0-.08-.91.73.73,0,0,0-.29-.32.89.89,0,0,0-.5-.15,1.28,1.28,0,0,0-.73.2.36.36,0,0,0-.17.29.58.58,0,0,0,.19.35.89.89,0,0,1,.26.57.76.76,0,0,1-.26.57.9.9,0,0,1-.64.23,1,1,0,0,1-.73-.26.78.78,0,0,1-.28-.6,1.45,1.45,0,0,1,.38-.94,2.56,2.56,0,0,1,1.09-.69,4.4,4.4,0,0,1,1.45-.23,2.36,2.36,0,0,1,1.43.38,1.9,1.9,0,0,1,.69.84,5.64,5.64,0,0,1,.09,1.31v2.48a2.08,2.08,0,0,0,0,.55A.29.29,0,0,0,51,65a.22.22,0,0,0,.15.06c.12,0,.24-.09.37-.25l.2.16a2.48,2.48,0,0,1-.71.73,1.43,1.43,0,0,1-.82.23,1.37,1.37,0,0,1-.86-.25,1.2,1.2,0,0,1-.37-.78m0-.5V62.24a4.09,4.09,0,0,0-1.23,1,1.26,1.26,0,0,0-.26.75.77.77,0,0,0,.22.55.62.62,0,0,0,.48.18,1.27,1.27,0,0,0,.79-.38"/><path d="M54.43,59.44v.82a3.84,3.84,0,0,1,.94-.77,2,2,0,0,1,1-.24,1.54,1.54,0,0,1,1,.34,1.63,1.63,0,0,1,.54.86A6.07,6.07,0,0,1,58,61.94v2.48a2,2,0,0,0,.13.92.84.84,0,0,0,.56.23v.24H55.49v-.24a.7.7,0,0,0,.51-.3,2,2,0,0,0,.12-.85V61.58a4.54,4.54,0,0,0-.07-1,.58.58,0,0,0-.21-.31.49.49,0,0,0-.32-.12c-.39,0-.75.29-1.09.84v3.42a1.91,1.91,0,0,0,.13.91.74.74,0,0,0,.5.24v.24H51.83v-.24a.81.81,0,0,0,.57-.26,1.87,1.87,0,0,0,.12-.89v-3.6a1.8,1.8,0,0,0-.14-.9.75.75,0,0,0-.55-.23v-.25Z"/><path d="M71.27,56.35v3.26H71a4.17,4.17,0,0,0-1.37-2,3.26,3.26,0,0,0-2-.69,2.59,2.59,0,0,0-1.73.58,3.15,3.15,0,0,0-1,1.62,8.51,8.51,0,0,0,0,4.48A2.65,2.65,0,0,0,66,65a3,3,0,0,0,1.67.47,3.21,3.21,0,0,0,.68-.07,4.89,4.89,0,0,0,.72-.21V63.31a2,2,0,0,0-.07-.7.75.75,0,0,0-.31-.3,1.26,1.26,0,0,0-.57-.13h-.24v-.25h4.5v.25a1.86,1.86,0,0,0-.72.15.65.65,0,0,0-.31.34,2,2,0,0,0-.06.64v1.92a9.09,9.09,0,0,1-1.85.6,9.85,9.85,0,0,1-2,.2,5.76,5.76,0,0,1-2.19-.36,5.58,5.58,0,0,1-1.54-.94,4.42,4.42,0,0,1-1-1.31,4.58,4.58,0,0,1-.48-2.11,4.72,4.72,0,0,1,1.47-3.52,5,5,0,0,1,3.69-1.44,5.9,5.9,0,0,1,1.24.11,5.48,5.48,0,0,1,1,.31,4.14,4.14,0,0,0,.8.25.55.55,0,0,0,.36-.13,1.32,1.32,0,0,0,.3-.54Z"/><path class="cls-3" d="M75.7,59.25a3,3,0,0,1,1.55.42,2.85,2.85,0,0,1,1.08,1.22,4,4,0,0,1,.37,1.74A3.73,3.73,0,0,1,78,64.9a2.75,2.75,0,0,1-2.3,1.1,2.62,2.62,0,0,1-2.22-1,3.71,3.71,0,0,1-.78-2.34,3.76,3.76,0,0,1,.8-2.38,2.58,2.58,0,0,1,2.18-1m0,.48a.8.8,0,0,0-.6.27,1.82,1.82,0,0,0-.32,1c0,.51-.08,1.23-.08,2.15a8.27,8.27,0,0,0,.1,1.36,1.27,1.27,0,0,0,.32.74.75.75,0,0,0,.56.25.8.8,0,0,0,.51-.17,1.17,1.17,0,0,0,.35-.65,14.55,14.55,0,0,0,.14-2.61,6.18,6.18,0,0,0-.13-1.59,1.2,1.2,0,0,0-.38-.64.77.77,0,0,0-.47-.14"/><path d="M81.71,66l-2.15-4.94a4.85,4.85,0,0,0-.6-1.13.81.81,0,0,0-.47-.24v-.25h3.39v.25a.65.65,0,0,0-.43.11.48.48,0,0,0-.17.36,3.09,3.09,0,0,0,.3,1l1,2.39.84-2.07a4,4,0,0,0,.36-1.25.42.42,0,0,0-.15-.34.87.87,0,0,0-.54-.15v-.25h2.08v.25a.89.89,0,0,0-.49.22A4.52,4.52,0,0,0,84.16,61L82,66Z"/><path class="cls-3" d="M90.24,62.39H86.75a3.23,3.23,0,0,0,.67,2,1.4,1.4,0,0,0,1.13.56,1.29,1.29,0,0,0,.74-.22,2.89,2.89,0,0,0,.72-.82l.23.15a4.09,4.09,0,0,1-1.14,1.5,2.51,2.51,0,0,1-1.46.43,2.4,2.4,0,0,1-2.14-1.09,3.76,3.76,0,0,1-.59-2.18,3.65,3.65,0,0,1,.86-2.54,2.65,2.65,0,0,1,2-.94,2.17,2.17,0,0,1,1.68.79,3.55,3.55,0,0,1,.77,2.35m-1.68-.45a6.28,6.28,0,0,0-.12-1.51,1.23,1.23,0,0,0-.37-.62.56.56,0,0,0-.38-.12.66.66,0,0,0-.58.35,3,3,0,0,0-.4,1.66v.24Z"/><path d="M93.27,59.44v1.44a4.62,4.62,0,0,1,1.11-1.31,1.6,1.6,0,0,1,.92-.32.81.81,0,0,1,.61.23.93.93,0,0,1,.23.66,1,1,0,0,1-.23.71.67.67,0,0,1-.53.26,1,1,0,0,1-.63-.23,1.88,1.88,0,0,0-.31-.26.3.3,0,0,0-.16,0,.57.57,0,0,0-.37.15,1.38,1.38,0,0,0-.42.67,4.48,4.48,0,0,0-.22,1.46v1.84a1.6,1.6,0,0,0,0,.5.64.64,0,0,0,.24.27,1.49,1.49,0,0,0,.55.11v.24H90.66v-.24a.77.77,0,0,0,.56-.23,2.08,2.08,0,0,0,.15-1V60.79a2.42,2.42,0,0,0-.06-.7.54.54,0,0,0-.19-.28,1,1,0,0,0-.46-.12v-.25Z"/><path d="M99.14,59.44v.82a3.87,3.87,0,0,1,1-.77,2,2,0,0,1,1-.24,1.52,1.52,0,0,1,1,.34,1.59,1.59,0,0,1,.55.86,6.64,6.64,0,0,1,.11,1.49v2.48a1.91,1.91,0,0,0,.13.92.81.81,0,0,0,.56.23v.24H100.2v-.24a.74.74,0,0,0,.52-.3,2,2,0,0,0,.11-.85V61.58a4.8,4.8,0,0,0-.06-1,.58.58,0,0,0-.21-.31.51.51,0,0,0-.32-.12c-.39,0-.76.29-1.1.84v3.42a2.05,2.05,0,0,0,.13.91.76.76,0,0,0,.5.24v.24H96.54v-.24a.83.83,0,0,0,.58-.26,1.87,1.87,0,0,0,.12-.89v-3.6a1.8,1.8,0,0,0-.14-.9.77.77,0,0,0-.56-.23v-.25Z"/><path d="M106.53,59.44v.83a3.65,3.65,0,0,1,1-.79,2.05,2.05,0,0,1,1-.23,1.76,1.76,0,0,1,1,.28,1.72,1.72,0,0,1,.64.87,4.14,4.14,0,0,1,1-.88,2.08,2.08,0,0,1,1-.27,1.68,1.68,0,0,1,1,.3,1.55,1.55,0,0,1,.54.77,4.9,4.9,0,0,1,.16,1.49v2.61a1.83,1.83,0,0,0,.13.91.84.84,0,0,0,.56.24v.24h-3.3v-.24a.79.79,0,0,0,.58-.3,1.9,1.9,0,0,0,.12-.85V61.68a4.83,4.83,0,0,0-.07-1.09.63.63,0,0,0-.22-.34.53.53,0,0,0-.34-.11,1,1,0,0,0-.59.22,2.7,2.7,0,0,0-.61.64v3.42a1.91,1.91,0,0,0,.12.87.72.72,0,0,0,.6.28v.24h-3.3v-.24a.74.74,0,0,0,.41-.13.57.57,0,0,0,.21-.29,2.89,2.89,0,0,0,0-.73V61.68a5.72,5.72,0,0,0-.06-1.09.71.71,0,0,0-.24-.34.52.52,0,0,0-.34-.12.93.93,0,0,0-.49.14,2.72,2.72,0,0,0-.69.73v3.42a2.07,2.07,0,0,0,.13.89.73.73,0,0,0,.56.26v.24h-3.28v-.24a.85.85,0,0,0,.57-.26,1.93,1.93,0,0,0,.11-.89v-3.6a1.83,1.83,0,0,0-.13-.9.77.77,0,0,0-.55-.23v-.25Z"/><path class="cls-3" d="M120.36,62.39h-3.49a3.29,3.29,0,0,0,.67,2,1.4,1.4,0,0,0,1.13.56,1.32,1.32,0,0,0,.75-.22,2.89,2.89,0,0,0,.71-.82l.23.15a3.88,3.88,0,0,1-1.14,1.5,2.48,2.48,0,0,1-1.45.43,2.4,2.4,0,0,1-2.15-1.09,3.83,3.83,0,0,1-.59-2.18,3.65,3.65,0,0,1,.86-2.54,2.67,2.67,0,0,1,2-.94,2.16,2.16,0,0,1,1.67.79,3.55,3.55,0,0,1,.77,2.35m-1.67-.45a5.66,5.66,0,0,0-.13-1.51,1.16,1.16,0,0,0-.37-.62.56.56,0,0,0-.38-.12.66.66,0,0,0-.58.35,3,3,0,0,0-.4,1.66v.24Z"/><path d="M123.21,59.44v.82a3.84,3.84,0,0,1,.94-.77,2,2,0,0,1,1-.24,1.56,1.56,0,0,1,1,.34,1.63,1.63,0,0,1,.54.86,6.07,6.07,0,0,1,.11,1.49v2.48a1.91,1.91,0,0,0,.13.92.84.84,0,0,0,.56.23v.24h-3.23v-.24a.72.72,0,0,0,.52-.3,1.88,1.88,0,0,0,.11-.85V61.58a4.8,4.8,0,0,0-.06-1,.58.58,0,0,0-.21-.31.47.47,0,0,0-.32-.12c-.39,0-.76.29-1.09.84v3.42a1.91,1.91,0,0,0,.13.91.74.74,0,0,0,.5.24v.24h-3.23v-.24a.81.81,0,0,0,.57-.26,1.87,1.87,0,0,0,.12-.89v-3.6a1.8,1.8,0,0,0-.14-.9.75.75,0,0,0-.55-.23v-.25Z"/><path d="M130.2,57.1v2.34h1.52v.67H130.2V64a3.37,3.37,0,0,0,.05.72.61.61,0,0,0,.18.26.47.47,0,0,0,.24.1c.3,0,.58-.23.84-.68l.21.15a1.88,1.88,0,0,1-1.8,1.31,1.57,1.57,0,0,1-1.56-1.09,6.84,6.84,0,0,1-.07-1.26V60.11h-.83v-.24a8.82,8.82,0,0,0,1.46-1.27A8.09,8.09,0,0,0,130,57.1Z"/><path d="M54.8,40.07a.42.42,0,0,1-.18.17"/><path d="M56.39,27.58a.34.34,0,1,0-.33-.33.34.34,0,0,0,.33.33"/><path d="M71.87,13.48h-12v9.71a2.2,2.2,0,0,0,.95,2L65.41,28a.61.61,0,0,0,.43.19.56.56,0,0,0,.37-.15l4.7-2.81a2.2,2.2,0,0,0,1-2V13.48Zm-8,2.81h-1V13.8h1Zm-.75.87.14-.16-.09-.17.2,0,.11-.2.12.2.19,0-.09.17.15.16-.19,0v.21l-.18-.13-.17.13v-.21Zm-2.91.73h1.27v2.36H60.17Zm.21-1.06.19,0,.12-.2.12.2.19,0-.09.17.15.16-.19,0v.21l-.18-.13-.18.13v-.21l-.19,0,.15-.16Zm1.43,2.4.19,0,.12-.21.11.2.2,0-.09.17.15.16-.19,0v.21l-.18-.14-.18.14V19.6l-.19,0,.15-.16Zm.84-1.89c0-.07-.09-.08-.13-.08s-.16.18-.25.19-.12,0-.12-.08.14-.11.2-.16c-.79,0-.8.35-.92.35s.17-.37.28-.48c-.16,0-.25-.22-.42-.32.08-.12.12-.07.23,0,0-.09.06-.18.24-.18.35,0,.25.34.31.34s0-.34.22-.34.78.89.39.89c-.17,0,0-.13,0-.15m-.9-2.6.15-.16-.09-.17.19,0,.12-.2.11.2.2,0-.09.17.15.16-.19,0V15l-.18-.13-.18.13v-.21Zm-.31,1.55H60.17V13.8h1.27Zm2.39,10.35L61,24.92a2.07,2.07,0,0,1-.78-1.6V20.58h3.66Zm-1-8.75h1v2.36h-1Zm4.75,8.94-1.33.8h0a.55.55,0,0,1-.35.12.57.57,0,0,1-.36-.13l-1.32-.79V20.58h3.38Zm0-6.58H64.16V13.8h3.38Zm4,3.07a2.07,2.07,0,0,1-.79,1.6l-2.87,1.72V20.58h3.66Zm0-3.07H67.87V13.8h3.66Z"/><path d="M63.64,22.81s-.46.14-.33.13.25-.39.36-.49-.22,0-.42.09c.68-1,.24-.58-.14-.51.61-.65.45-.64,0-.44.35-.28.43-.62.38-.71-.34.44-.64.37-.64.78a1.65,1.65,0,0,1-.24.87c-.18.19,0-.73-.51-.73-.15,0-.5,0-.61.17.09,0,.24.25.24.34s.09.37-.07.37-.35-.34-.35-.5,0-.13,0-.36a1.29,1.29,0,0,0-.89-.93c0,.27.35.33.35.68-.15,0-.36-.28-.36-.11s.22.21.22.36-.26-.06-.26.11.15.11.18.25c-.1,0-.2,0-.22,0s0,.11.11.15-.07.12-.07.34c0,.77.49,1.13.84,1.13s.21-.18.24-.26c0,.13.14-.07.14.16s-.25.13-.25.34.39,0,.39.29a3.25,3.25,0,0,1,0,.5c0,.1.41-.13.38-.17s.09.32.27.31.14-.29.24-.32c-.06,0,.36.28.36.15,0-.36-.15-.21-.15-.46s.5-.18.42-.29-.11,0-.16-.21c0,0-.39-.57.08-.26s.55-.76.53-.81"/><path d="M76.47,25.35a.35.35,0,1,0,0-.7.35.35,0,1,0,0,.7"/><path d="M74.87,26.3a.35.35,0,1,0,0-.7.35.35,0,1,0,0,.7"/><path d="M55.86,28.49a.35.35,0,1,0-.4-.35.37.37,0,0,0,.4.35"/><path d="M57.09,28.6a.35.35,0,1,0,0-.7.35.35,0,1,0,0,.7"/><path d="M91.32,12a2.47,2.47,0,0,1,.3,2.62c-.23,0-.19-.32-.23-.49A3.13,3.13,0,0,1,91,11.48c.27,0,.17.38.31.53"/><path d="M41.09,13a3.62,3.62,0,0,0,0,1.67c-.11.1-.09-.11-.19-.09-.82-.59-.44-1.75-.65-2.58a.17.17,0,0,1,.21,0,1.51,1.51,0,0,1,.63,1"/><path d="M93.13,13c.12.23-.11.46-.27.57a.55.55,0,0,1-.53-.23.49.49,0,0,1,.25-.55.56.56,0,0,1,.55.21"/><path d="M39.81,14a.62.62,0,0,1-.27.46c-.13,0-.32,0-.4-.1a.39.39,0,0,1-.09-.44.5.5,0,0,1,.4-.19c.15.06.3.1.36.27"/><path d="M94,14.31a.5.5,0,0,1,0,.34.49.49,0,0,1-.57.19.55.55,0,0,1-.23-.36.62.62,0,0,1,.36-.38.66.66,0,0,1,.44.21"/><path d="M92.75,14.33c.17.08,0,.3,0,.42s-.25.28-.44.21-.23-.1-.27-.25a.46.46,0,0,1,.29-.48c.17-.05.27,0,.4.1"/><path d="M91.22,14.65c0,.23,0,.53-.25.57a.39.39,0,0,1-.48-.3.49.49,0,0,1,.31-.51.57.57,0,0,1,.42.24"/><path d="M42.1,14.75c.06.21-.15.34-.28.45s-.33-.09-.42-.24.05-.27.09-.4a.39.39,0,0,1,.61.19"/><path d="M40.84,14.82a.46.46,0,0,1-.23.4.39.39,0,0,1-.42-.19.36.36,0,0,1,.19-.49c.23-.08.37.13.46.28"/><path d="M86.14,14.9a4.32,4.32,0,0,1,.42,1.52c-.08.41.06.93-.23,1.21-.29-.11-.31-.47-.5-.66a3.68,3.68,0,0,1,.08-2.32c.17-.07.17.15.23.25"/><path d="M39.85,15.15c.06.26-.13.39-.27.53s-.42-.12-.53-.29a.54.54,0,0,1,.28-.51.53.53,0,0,1,.52.27"/><path d="M89.46,15.77a3.06,3.06,0,0,1,.1,2l-.13.1a8.56,8.56,0,0,1-.86-1.71,2.78,2.78,0,0,1,.26-1.2c.15-.11.23,0,.29.14a.84.84,0,0,0,.34.64"/><path d="M92.1,15.39a.52.52,0,0,1-.31.5.38.38,0,0,1-.49-.25.48.48,0,0,1,.23-.51c.23-.12.47.09.57.26"/><path d="M40.86,16a.45.45,0,0,1-.32.4c-.16.13-.29-.08-.44-.14a.53.53,0,0,1,0-.49c.07-.13.21-.13.34-.17s.38.19.42.4"/><path d="M41.78,15.94c.09.21-.14.31-.23.42-.25.08-.38-.11-.48-.25s.08-.34.23-.47.38.11.48.3"/><path d="M92.69,15.87c0,.28-.44.55-.48.83a2.15,2.15,0,0,1-1.31,1.18.93.93,0,0,1-.48.28c0-.43.34-.81.57-1.19a3.12,3.12,0,0,1,1.7-1.1"/><path d="M40.44,16.76a6.71,6.71,0,0,0,.86,1,.18.18,0,0,1-.15.22c-1-.07-1.72-1.12-2.22-1.86.06-.24.33-.05.48-.07.36.28.76.36,1,.72"/><path d="M93,17.06a2.69,2.69,0,0,1-1.3,2.28c-.23.08-.48.32-.71.17a10.55,10.55,0,0,1,1.84-2.45Z"/><path d="M89,17.67a.5.5,0,0,1-.35.61c-.23,0-.38-.17-.49-.34a.44.44,0,0,1,.3-.46.35.35,0,0,1,.25-.06c.13,0,.19.15.29.25"/><path d="M39.29,17.86c.39.28.75.66,1.13,1-.27.19-.61,0-.93,0-.71-.25-1.19-.86-1.93-1.07,0-.24.3-.15.44-.21a3.86,3.86,0,0,1,1.29.27"/><path d="M61.76,11.6c-1.18-.46-1.95.76-3.15.62-.15.08-.1.23-.19.34s-.17,0-.23,0c-.06-.5-.23-1-.29-1.45-.13-.21-.07-.51-.17-.72-.67-1.84,1.64-.45,2.1-1.52s-.78-1-1.14-1.69V6.87c-.33-.34-.69-.44-.9-.89a3,3,0,0,0,.06-1.63c0-.12-.1-.29-.29-.23-.4.55-.69,1-1.07,1.53a11.86,11.86,0,0,0-1.24-.94c-.31,0-.61-.36-1-.23a.31.31,0,0,0,.06.32,3,3,0,0,0,1,2.07l.06.32A9.59,9.59,0,0,0,55.06,10a15.39,15.39,0,0,1-4.55,6.4c-1.2,1.35-2.62,2.66-2.81,4.52-.07.3,0,.66-.19.87a7.13,7.13,0,0,1-1.95-1c-1-.68-2.35-.6-3-1.82a1.33,1.33,0,0,1,.29-1.33,2.45,2.45,0,0,0,.23-2.71c-.08,0-.1.09-.16.11-.07,1.24-1.06,2.11-.68,3.48.09.41.3.66.4,1a2.4,2.4,0,0,1-.48-.11,5.49,5.49,0,0,0-1.4-.19c-1,.45-2.29-.1-3.07.79-.13,0-.29,0-.25.23.46,0,.9.12,1.36.1.74.13,1.22-.48,1.72-.76h.13c.21-.21.56-.08.84-.12A8.38,8.38,0,0,1,45,20.88V21c-.42.19-.9.31-1.32.55a2.89,2.89,0,0,0-1.18,1.41c-.33.53.11,1,.32,1.44,0,.21,0,.46.23.55.67-.72,0-1.61.15-2.43a1.69,1.69,0,0,1,1.36-1.1c1.2-.51,2.06.46,3,1a15.12,15.12,0,0,1-.1,2.86,2.77,2.77,0,0,1-1,.15c-1.66.12-3,1-4.45,1.54-.67.23-1.47.21-2.14.46a5.21,5.21,0,0,0,1.62-.06c2.05-.3,3.63-1.88,5.85-1.61l0,.07a5,5,0,0,1-1,1.37c-.07-.23-.09-.42-.3-.55a.39.39,0,0,0-.48.17.31.31,0,0,0,0,.32.67.67,0,0,0,.46.29c0,.19-.27.28-.4.45-.58,1-1.78.59-2.47,1.29-.11.15-.48.23-.32.46A3.13,3.13,0,0,0,45,29.06c.78-.86,1.6-1.69,2.37-2.51a2.49,2.49,0,0,1-.46,1.92,2.34,2.34,0,0,0-.56-.32.54.54,0,0,0-.38.43,1.39,1.39,0,0,0,.31.42,7.29,7.29,0,0,1-2.43.78,41,41,0,0,1-4.57.34,10.13,10.13,0,0,1-2.27,0c-.8.15-1.66-.11-2.31.34-.08.1,0,.21,0,.31,1,.64,2.29.13,3.38.32H46.4a3.64,3.64,0,0,0,1.7-.32A6.15,6.15,0,0,0,50.3,28a4.19,4.19,0,0,0,.44-1.26,1.82,1.82,0,0,1,1.57-1.29A9.55,9.55,0,0,1,52,28.64c-.13.68-.57,1.33-.3,2.05.07.34.43.34.7.38,2.54,0,5.07-.15,7.76,0a6,6,0,0,0,1.43.21c0-.06.18-.08.12-.21a.79.79,0,0,0-.5-.59c0-.13-.23-.08-.29-.17-1.35-.76-3-.36-4.54-.34A3.38,3.38,0,0,1,54,29.78c-.31-.38-.08-1.58-.08-1.58a29.59,29.59,0,0,1,1.3-4.08,3.87,3.87,0,0,0,.13-1,4,4,0,0,0,.12-1.43,10.33,10.33,0,0,1,.65-2c.13-.32.24-.65.36-1a3.31,3.31,0,0,1,.42-1.1c.68.43,1.35.42,1.68,1.2l.29,1.76c0,.11.09.32.23.19.55-.36.38-1.16.38-1.71s-.33-1-.52-1.55a2.35,2.35,0,0,1-.39-.61c-.09-.46-1.1-.78-.87-1.35a1.72,1.72,0,0,1,.71-1.21.24.24,0,0,1,.11.15l.25-.17,0-1.77c.68,0,1.7.09,2.39.09.19.06.34.21.54.23l.17-.23,1.7-.34c-.72.08-1.16-.75-1.84-.75"/><path d="M63.61,12.35l.15,0Z"/><path d="M45.33,18.24a.48.48,0,0,1-.32.49c-.17-.07-.29-.09-.39-.26s.12-.4.29-.48.38.06.42.25"/><path d="M44,18.24a.49.49,0,0,1,.08.49c-.15.12-.38.23-.51.06s-.25-.27-.14-.44.39-.28.57-.11"/><path d="M73.17,18.47s0,0,0,0"/><path d="M89.16,18.83c.09.24-.1.4-.27.49s-.48-.11-.48-.38a.39.39,0,0,1,.31-.32.42.42,0,0,1,.44.21"/><path d="M90.27,18.79c.07.11.21.28,0,.38a.58.58,0,0,0-.21.17.42.42,0,0,1-.51-.25c0-.24.15-.34.32-.45s.25.07.35.15"/><path d="M38.7,19a.42.42,0,0,1-.57.28A1,1,0,0,1,38,19a.42.42,0,0,1,.23-.36.53.53,0,0,1,.51.36"/><path d="M45.77,19.4c0,.17-.21.32-.36.4a.51.51,0,0,1-.46-.29c0-.17.08-.38.25-.42a.47.47,0,0,1,.57.31"/><path d="M44.53,19.25a.35.35,0,0,1,.06.34c-.12.11-.31.3-.52.17s-.27-.19-.23-.4a1,1,0,0,1,.31-.25c.17,0,.25.06.38.14"/><path d="M93.48,19.51a.54.54,0,0,1-.27.4.41.41,0,0,1-.46-.11c-.12,0-.08-.21-.08-.31a.7.7,0,0,1,.39-.28.73.73,0,0,1,.42.3"/><path d="M94.83,19.7a.53.53,0,0,1-.4.38c-.13,0-.36-.06-.31-.25a.36.36,0,0,1,.71-.13"/><path d="M41.09,20a.4.4,0,0,1-.25.5c-.15.09-.3,0-.4-.1a.37.37,0,0,1-.11-.43c.05-.19.23-.14.36-.23a.53.53,0,0,1,.4.26"/><path d="M42.12,20.18c.06.17-.13.24-.17.36a.35.35,0,0,1-.38.05c-.14-.13-.31-.32-.17-.51s.61-.15.72.1"/><path d="M92.25,20.08c0,.21-.17.36-.29.49a.38.38,0,0,1-.43-.26.45.45,0,0,1,.23-.4.47.47,0,0,1,.49.17"/><path d="M94,20.42c0,.19,0,.4-.23.53a.58.58,0,0,1-.5-.09.38.38,0,0,1-.09-.44.5.5,0,0,1,.51-.26c.14.09.18.19.31.26"/><path d="M40.29,20.86c.09.17-.1.21-.17.3a.43.43,0,0,1-.42-.05c-.14-.08-.08-.29-.06-.4.19-.36.57-.1.65.15"/><path d="M92.65,21.26c.08,0,0,.15,0,.19a1.58,1.58,0,0,1-1.7-.08,7.77,7.77,0,0,0-.84-.47c.1-.27.48-.25.75-.31.61.08,1.09.65,1.77.67"/><path d="M41.3,21.07c0,.17-.08.23-.13.36s-.25.09-.35.05a.35.35,0,1,1,.48-.41"/><path d="M43.15,21.2a.38.38,0,0,1-.21.46c-.15.09-.28,0-.4-.06s-.3-.32-.11-.49.57-.14.72.09"/><path d="M67.4,22.09c0,.43-.73-.06-.63.51a3.19,3.19,0,0,0,.42,1.18,1.8,1.8,0,0,1,.08,1.06,1.85,1.85,0,0,1-.8.69c-.6-.06-1.48.3-1.76-.44a3.07,3.07,0,0,1-.33-1c.06,0,.13,0,.19-.1s-.16-.22-.13-.36c.67-.12-.28-.72.29-.76.48.5,1.26.34,1.68.88a1.87,1.87,0,0,0,.3.26c-.08-.5-.32-1-.4-1.54a.7.7,0,0,1,.24-.71c.36-.28.66.12.85.34"/><path d="M45,22c.07.21-.1.34-.23.44s-.29-.12-.38-.23.09-.31.21-.42A.44.44,0,0,1,45,22"/><path d="M57.94,22.17a2.91,2.91,0,0,1-.25,2.37c0,.17,0,.44-.19.42-.57-.78-.15-1.88.08-2.7,0-.21.29-.3.36-.09"/><path d="M75.9,22.57a2.34,2.34,0,0,1,0,2l-.16.17a4.8,4.8,0,0,1-.49-1.5,4.78,4.78,0,0,0,.25-1.12c.3-.07.28.31.36.48"/><path d="M46.63,22.81c-.13.25-.48.31-.72.48a2.46,2.46,0,0,1-1.86.36,2.27,2.27,0,0,1,2.39-1c0,.08.15,0,.19.15"/><path d="M38,23.57a5.64,5.64,0,0,1,1.45,2.07c.07.08.28.1.19.27s-.33-.12-.57-.08a2.34,2.34,0,0,1-1.28-2.18c0-.08.13-.08.21-.08"/><path d="M75.08,24.22c0,.21,0,.42-.19.49a.39.39,0,0,1-.48-.26c-.06-.14.06-.23.11-.33a.36.36,0,0,1,.56.1"/><path d="M83.94,25.34a10.81,10.81,0,0,1,.14-1.16.73.73,0,0,0,.09-.44c.5-.68,1.53-.47,2.33-.41a4.58,4.58,0,0,0,1,.24.73.73,0,0,1,.52-.11c.67-.36.23-1.14.28-1.75l-.26-.64a3.33,3.33,0,0,1-.17-.42c-.12-.15-.21-.42-.33-.57A8.48,8.48,0,0,0,86,17.88a8.91,8.91,0,0,0-4.43-2.73c-1.65-.57-3.33.17-4.82.7a1.2,1.2,0,0,1-.82-.88,4.13,4.13,0,0,1,.4-2.25,7.85,7.85,0,0,1,.57-1.41,15.84,15.84,0,0,0,.86-3.64A1.92,1.92,0,0,0,76.57,6a1.14,1.14,0,0,0-1.15.24,3,3,0,0,1-1.37,1.22c0,.36.4.13.55.26.46.08,1-.07,1.36.23a3.53,3.53,0,0,1-.88,2.17,17.13,17.13,0,0,0-1.91,3.3l-.08-.08.1,5.16a5.91,5.91,0,0,0,2.75,2.81c.68.54,1.51,1.2,2.42.71.48-.14.52.53.75.81.25.78-.32,1.33-.36,2.05L78.21,26a15.11,15.11,0,0,1-2.16,3.57c-.32,0-.51.34-.82.36-.17.23-.51.06-.72.15-.64.27-1.57.1-2,.72a.3.3,0,0,0,.17.1c1.28,0,2.71.11,4.07,0a.52.52,0,0,0,.33-.41c-.18-.36.07-.67.24-.95.1-.51.44-.82.58-1.31.45-.86,1-1.71,1.43-2.58l.65-1a7.84,7.84,0,0,1,.65-1.19,2.46,2.46,0,0,0,.38-.57c0-.21-.08-.29-.21-.44.15-.15.38-.11.57-.15a2.36,2.36,0,0,1,1.17,1.4l.19.55.08.25,0,.7.09.65A15.84,15.84,0,0,1,82.66,29c-.36,1.22-1.77,1.1-2.77,1.37-.26.17-.74.08-.74.51a19.21,19.21,0,0,0,3.95.08c.21-.08.25-.27.35-.46s.32-.51.24-.81c-.24-.29,0-.76-.09-1.16a.68.68,0,0,0,0-.4c.17-.61.13-1.35.25-1.95Z"/><path d="M94.26,24.52a5.26,5.26,0,0,1-2.56,2.37c-.08,0-.17,0-.21-.07.72-.76,1.09-1.94,2.21-2.22a.66.66,0,0,1,.56-.08"/><path d="M37,25.55c-.11.09,0,.28-.21.3a.34.34,0,0,1-.44-.19.38.38,0,0,1,.27-.47c.17.09.34.15.38.36"/><path d="M43,25.85c.06.19-.15.19-.25.23a2.27,2.27,0,0,1-2.41-.61c0-.09,0-.17.08-.19.86.21,1.87,0,2.58.57"/><path d="M38.13,25.57a.6.6,0,0,1,0,.32.47.47,0,0,1-.52.19.64.64,0,0,1-.27-.27.48.48,0,0,1,.35-.4.63.63,0,0,1,.4.16"/><path d="M57.79,25.68c0,.19-.12.32-.25.4a.41.41,0,0,1-.44-.17.31.31,0,0,1,.15-.4c.18,0,.48,0,.54.17"/><path d="M95.06,25.76c.06.21-.13.32-.27.45a.45.45,0,0,1-.4-.07c0-.1-.15-.19-.11-.33a.46.46,0,0,1,.49-.26c.1.09.18.11.29.21"/><path d="M96.44,25.68c.13.19,0,.34-.08.49a.29.29,0,0,1-.38.12c-.12-.12-.29-.19-.31-.38s.19-.29.31-.36.3.13.46.13"/><path d="M36.1,26.29c0,.15-.11.24-.15.36s-.21.13-.34.09a.61.61,0,0,1-.31-.34.53.53,0,0,1,.38-.42.55.55,0,0,1,.42.31"/><path d="M80.29,26.29a.67.67,0,0,1,0,.28c-.13.17-.3.32-.5.21s-.28-.25-.22-.45a.42.42,0,0,1,.7,0"/><path d="M39.47,26.61c0,.15-.1.3-.29.32s-.25-.15-.36-.24,0-.38.17-.48a.38.38,0,0,1,.48.4"/><path d="M37.46,26.65a.45.45,0,0,1-.21.47.51.51,0,0,1-.57-.3.61.61,0,0,1,.38-.49c.19,0,.29.22.4.32"/><path d="M81.67,26.61a.43.43,0,0,1-.23.51c-.25.08-.46-.13-.57-.3.11-.17.13-.4.38-.44a.47.47,0,0,1,.42.23"/><path d="M38.45,26.69c.06.15-.07.21-.11.32s-.17.13-.29.09-.25-.15-.28-.3.13-.32.28-.4a.39.39,0,0,1,.4.29"/><path d="M93.9,26.86a.59.59,0,0,1-.35.34c-.17,0-.27-.1-.4-.17s-.06-.27,0-.38a.42.42,0,0,1,.77.21"/><path d="M95.5,27a.54.54,0,0,1-.5.36c-.19-.09-.4-.24-.26-.49.09-.08.13-.17.26-.19a.4.4,0,0,1,.5.32"/><path d="M85.53,27.1c.11.27-.14.36-.31.48a.88.88,0,0,1-.4-.17.49.49,0,0,1,.29-.55.5.5,0,0,1,.42.24"/><path d="M79.76,27.35c.11,0,.07.19,0,.25s-.29.3-.48.17a.35.35,0,0,1-.21-.4.39.39,0,0,1,.65,0"/><path d="M80.94,27.5a.3.3,0,0,1-.17.34c-.15.14-.32,0-.46-.07a.31.31,0,0,1,0-.31.41.41,0,0,1,.27-.17c.15,0,.32,0,.38.21"/><path d="M45.33,27.52c.12.12,0,.27,0,.4a.42.42,0,0,1-.53.11c-.21-.09-.19-.36-.14-.53s.12-.19.29-.19a.7.7,0,0,1,.42.21"/><path d="M87.78,27.6c0,.21-.17.3-.32.34s-.38-.1-.48-.27.13-.21.17-.32c.29-.13.48.09.63.25"/><path d="M86.64,27.6c.09.21-.14.32-.22.43a.44.44,0,0,1-.47-.09c-.1-.06-.1-.19-.1-.32s.19-.23.33-.27a.55.55,0,0,1,.46.25"/><path d="M96.11,27.86c0,.29-.34.14-.48.23a3.38,3.38,0,0,1-2.86-.19c.06-.28.38-.17.55-.28.9-.57,1.82.13,2.72.17Z"/><path d="M38.68,27.6l-.09.15a3.4,3.4,0,0,1-2.71.49l-.08-.13a3.8,3.8,0,0,1,2.81-.57Z"/><path d="M89.92,27.75a.49.49,0,0,1-.21.4.42.42,0,0,1-.55-.23c-.06-.17.11-.34.28-.4s.39,0,.48.23"/><path d="M42.43,27.84c-.08.16,0,.33-.25.42a.47.47,0,0,1-.53-.28c-.06-.23.11-.29.22-.4s.44.07.56.26"/><path d="M40.94,27.94c.07.15-.06.23-.1.34a.37.37,0,0,1-.42.06c-.15-.12-.3-.27-.23-.5a1.27,1.27,0,0,1,.33-.24c.19,0,.38.13.42.34"/><path d="M91.39,28.43a.45.45,0,0,1-.34.38.5.5,0,0,1-.4-.21.33.33,0,0,1,.09-.4c0-.07.19-.07.27-.11a.46.46,0,0,1,.38.34"/><path d="M39.39,28.2c.06.16-.09.23-.11.35a2.89,2.89,0,0,1-.46.91c-.4.49-1,.49-1.53.64l-.08-.17a5.48,5.48,0,0,1,2.12-1.78Z"/><path d="M90.34,28.66c0,.25-.17.3-.32.4a.49.49,0,0,1-.42-.25c-.06-.23.15-.32.28-.42a.41.41,0,0,1,.46.27"/><path d="M41.8,28.66s0,.08.07.1c0,.24-.19.3-.32.41a.57.57,0,0,1-.46-.21.35.35,0,0,1,.21-.49c.19,0,.44,0,.5.19"/><path d="M94.2,29.3c.21,0,.25-.28.48-.32a.5.5,0,0,1,.5.23c.09.25-.1.38-.27.49s-.46-.13-.44.14a.66.66,0,0,1,.29.43c0,.08-.18.06-.25,0A2.68,2.68,0,0,1,93,29c-.08-.19-.48-.34-.25-.51a1.93,1.93,0,0,1,1.45.83"/><path d="M96.21,28.64a.31.31,0,0,1,0,.4c-.1.21-.42.13-.61.11s-.21-.21-.16-.38a.61.61,0,0,1,.31-.28.56.56,0,0,1,.48.15"/><path d="M88.6,29.78a3.06,3.06,0,0,1,.46.85c0,.06-.15,0-.19,0-.71-.4-1.64-.85-1.91-1.69-.06-.09-.23-.19-.21-.34a2,2,0,0,1,1.45.59,2.57,2.57,0,0,1,.4.55"/><path d="M40.63,29c.08.19-.09.34-.19.42a.47.47,0,0,1-.48-.17c-.15-.23.12-.42.29-.51s.27.15.38.26"/><path d="M91.22,29.46c0,.13-.15.21-.21.3s-.34.08-.48-.06-.15-.28,0-.38c.23-.3.56-.07.71.14"/><path d="M96.44,29.76c.07.25-.12.42-.29.53a.56.56,0,0,1-.5-.19c-.11-.13,0-.26,0-.4a.5.5,0,0,1,.54-.15.8.8,0,0,1,.25.21"/><path d="M81.92,32.68c0,.25-.46.18-.65.38a4.58,4.58,0,0,1-2.2.31v-.12a3.08,3.08,0,0,1,2.85-.57"/><path d="M51.31,33.58a.4.4,0,0,1-.32.36.39.39,0,0,1-.35-.21c-.09-.25.12-.36.27-.46a.49.49,0,0,1,.4.31"/><path d="M81.57,33.82c0,.19-.11.4-.32.48s-.31-.06-.46-.14,0-.24-.06-.34a.45.45,0,0,1,.84,0"/><path d="M85.74,33.9a3.4,3.4,0,0,1-1.8.74l-1.13,0-.11-.08c.69-.85,2-.85,3-.76Z"/><path d="M45.56,34.41a.39.39,0,0,1-.27.4.4.4,0,0,1-.45-.19.39.39,0,0,1,.17-.49c.23-.14.46.11.55.28"/><path d="M46.61,34.62c.06.1,0,.17-.09.27a.32.32,0,0,1-.39,0,.26.26,0,0,1-.13-.35c.06-.13.19-.11.25-.19a.58.58,0,0,1,.36.27"/><path d="M38.57,36.75c-.21.26-.54-.06-.77-.19-.74-.42-.72-1.24-1.45-1.73.08-.25.27,0,.42,0a2,2,0,0,0,.44.23c.71.4.88,1.08,1.36,1.71"/><path d="M99.74,28.55a1.68,1.68,0,0,0-1.58-.86,1.44,1.44,0,0,0-1.17.86,1.07,1.07,0,0,0,.4,1.17.33.33,0,0,0,.42-.11c.1-.27-.19-.27-.23-.49a.68.68,0,0,1,.23-.73c.21-.22.56-.11.81-.11a1.51,1.51,0,0,1,.64.61,1.79,1.79,0,0,1,0,1.12A1.89,1.89,0,0,1,98,31.07c-1.74.25-20.85.17-20.85.17-2.25.21-4.81-.42-6.74.76a3.31,3.31,0,0,0-1.55,2.26,15.17,15.17,0,0,0-1.64,1.67l-.06-.06c.1-.51.33-.95.44-1.46A9.1,9.1,0,0,0,68.09,33a11.68,11.68,0,0,1,2.8-3.51c.52-.7,1.44-.57,2.24-.57a5.55,5.55,0,0,0,2.92.42.18.18,0,0,0,.06-.14c-.3-.28-.78-.38-1.11-.66-.84-.4-1.64.13-2.52.06,0,0-.08-.06-.06-.12A12.31,12.31,0,0,1,75,27a18.19,18.19,0,0,1,2.29-.91c.31,0,.61-.27.9-.08l1.11-.3s.08.09.17.07a11.81,11.81,0,0,1,3.21,0l.15.13,1,.25c.38.05.55.49,1,.51.21-.3-.23-.42-.34-.61a2.3,2.3,0,0,1,1.41.21l-.21.23c-.13.24.06.41.25.49s.25-.06.36-.11c.27-.19,0-.38.06-.55a20.62,20.62,0,0,1,4.47,1.27A3.5,3.5,0,0,0,92,28a5.56,5.56,0,0,0-1.6-.84c-.36-.21-.86-.23-1.13-.53.06-.11.21-.06.27-.15a3.13,3.13,0,0,0,1.83-1.18c0-.13.27-.09.25-.26-.19-.21-.5.07-.76.05-.88.17-1.26,1.2-2.14,1.39-1.07-.25-2.16-.5-3.23-.78a6.37,6.37,0,0,1-1.57-.34l-1.18-.1H80.62s-.08-.07-.06-.13c.75-.19,1.4-.63,2.16-.83l5.63-2.57A13.79,13.79,0,0,0,89.94,20a.41.41,0,0,0-.23-.4.35.35,0,0,0-.42.09c-.25.19,0,.42,0,.65a3.43,3.43,0,0,1-1,.83c-.08,0-5.79,2.6-5.79,2.6a15.19,15.19,0,0,1-2.56,1l-1.21.19a.82.82,0,0,1-.53.48,4.77,4.77,0,0,1-1,.28c-2.73,1.05-5.56,2.17-7.73,4.33a2.28,2.28,0,0,0,.21-.89,1.76,1.76,0,0,0-.23-.93c0-.11-.2-.46-.15-.58l-.31.2a2.94,2.94,0,0,0-.17,1.8c.07.38.38.82.09,1.16a19.51,19.51,0,0,0-2.25,4.1c-.25,0-.38-.27-.48-.51a7,7,0,0,0,1.49-3.08c.15-.11,0-.38.19-.51,0-.34.18-.67,0-.95.13-.46-.62-.89-.14-1.18l-.39.19c-.91,1.18.47,3-.56,4.1V33c-.3.38-.44.76-.84,1-.51-.21-.7-.78-1-1.2a1.88,1.88,0,0,1-.19-2c.19-.62-.12-1.15-.19-1.7L64.44,29a2.44,2.44,0,0,0-.29,2.47c.21.38.23.91.55,1.23a6.44,6.44,0,0,0,.9,1.56c.08.21-.13.25-.23.36-.23-.15-.19-.49-.4-.64a15.38,15.38,0,0,0-2.69-3.86c0-.19-.23-.36-.13-.57a1.53,1.53,0,0,0,.28-1.61c0-.1-.17-.23-.15-.34L62,27.35c0,.74-.44,1.39-.24,2.18v0a39.41,39.41,0,0,0-7-4.22l-.19.53A15.25,15.25,0,0,1,56.81,27a15.06,15.06,0,0,1,2.09,1.12,14.46,14.46,0,0,1,6,7.12c0,.24.24.49.09.72a12,12,0,0,0-1.59-1.6A3.09,3.09,0,0,0,61.82,32c-.31-.46-1-.5-1.51-.65l-7.64-.05c-6.21-.08-11.87.2-18,.09-.86-.09-1.91-.38-2.16-1.29a1.38,1.38,0,0,1,0-1.16,1.28,1.28,0,0,1,1.07-.57c.33,0,.56.36.71.59s-.23.53-.34.76c0,.08.11.25.25.19a1,1,0,0,0,.55-.68c0-.15.08-.36-.06-.46a1.42,1.42,0,0,0-1-.87,1.78,1.78,0,0,0-1.43.49,1.74,1.74,0,0,0-.33,1.77,2.81,2.81,0,0,0,2.26,1.69L54.58,32c2,.1,4.24-.23,6.25.17a2.39,2.39,0,0,1,1.7,1.6s-.08,0-.14,0a9.1,9.1,0,0,0-6-1.22,7.09,7.09,0,0,0-2.35.49,1.21,1.21,0,0,1-1-.34,3.45,3.45,0,0,0-3-.38c0,.06,0,.12,0,.14,1-.08,1.63.81,2.56.91.21.05.38-.19.56,0a17.64,17.64,0,0,1-2.91,1.31c-.32-.06-.49-.36-.74-.53-.4-.44-1.13-.25-1.68-.29-.18,0-.35-.09-.48,0a1.82,1.82,0,0,0,.9.7c.53.23,1.14,0,1.62.29a2.14,2.14,0,0,1-.44.3c-1,.38-1.81,1.26-2.9,1.2a3.72,3.72,0,0,1-3.1-1,2.11,2.11,0,0,0-2.12-1.23c-.06,0-.15,0-.13.15.47.27.82.82,1.28,1.14.3.36.86,0,1.14.4a3.76,3.76,0,0,0,1.36.6,6.22,6.22,0,0,0,1.09.29l-.15.08a17.9,17.9,0,0,1-6.25.62c-.63,0-1.24-.22-1.87-.19a1.27,1.27,0,0,0,.51.29,1.23,1.23,0,0,1-.57.17,5,5,0,0,0-.8.21,2.2,2.2,0,0,0-.9.21,4.47,4.47,0,0,1-1.19,1c0,.08,0,.21.08.21.4-.17.9,0,1.3-.21.69-.07,1.09-.83,1.64-1.15A2.81,2.81,0,0,1,40,37.64c.42.11,0,.28.08.55s.32.32.55.25a.36.36,0,0,1,.14-.1.47.47,0,0,0,0-.53c.3-.19.7,0,1-.1.8,0,1.6-.2,2.37-.22.13,0,.28-.15.4,0-.06.17-.27.19-.19.42s.26.28.42.32.4-.23.32-.5-.21-.17-.32-.24c.44-.21.95-.27,1.39-.48a4.35,4.35,0,0,0,.88-.3c.27,0,.5-.27.75-.17a4.2,4.2,0,0,1-.44,1,5.05,5.05,0,0,0,0,3.67c.07,0,.09,0,.13,0a5,5,0,0,1,.19-3.46c.29-1.8,2.14-2.33,3.46-3l.06.09a6.74,6.74,0,0,0-.8,2.94c.05.19-.08.38,0,.5a2.21,2.21,0,0,0,.78-1c.15-.95-.4-2.13.57-2.83,1.72-.68,3.33-1.56,5.33-1.59.06.07.21,0,.23.09a5,5,0,0,0-1.22,1.48,4.78,4.78,0,0,0-.36,3.65c.19.66-.37,1-.65,1.53-.13.17-.16.48-.28.69l.41,0a2.23,2.23,0,0,0,.71-1.4.59.59,0,0,0,.4.42c.15-.23-.12-.4-.14-.63.33-.19.48.23.75.32a5.65,5.65,0,0,0,1.28.29l.15-.14a2.59,2.59,0,0,0-2.18-.89,4.25,4.25,0,0,1-.38-2.41,3.59,3.59,0,0,1,.42-1.31,3.12,3.12,0,0,1,.59-.81,2.9,2.9,0,0,1,1.32-.71h.06a.09.09,0,0,0,0,.06c-.57.44-.63,1.06-1,1.61a1.74,1.74,0,0,0-.19,1.83c.12.28.06.7.35.89a4.19,4.19,0,0,0,.44-1.29c-.06-.7-.48-1.35-.08-2a1.73,1.73,0,0,1,1.13-.93,6.6,6.6,0,0,1,3.17.93c.21.15.57.28.61.57A1.72,1.72,0,0,1,60,36.1a1.45,1.45,0,0,1-.33-1.29.87.87,0,0,1,.92-.34c.21.11.4.32.67.19a.27.27,0,0,0,.09-.34c-.23-.12-.32-.44-.63-.48a1.34,1.34,0,0,0-1.16.23,1.5,1.5,0,0,0-.48,1.48,1.8,1.8,0,0,0,1.3,1.35A2.42,2.42,0,0,0,63,36a2.77,2.77,0,0,0,.47-.9,5.52,5.52,0,0,1,2.16,2.78,4.74,4.74,0,0,1,0,1.06l.73.06a.73.73,0,0,1,.06-.5A6.4,6.4,0,0,1,68.56,35c.35-.21.27.28.35.42a2.82,2.82,0,0,0,1.83,1.61A2.3,2.3,0,0,0,73,36.33c.27-.51.6-1.24.14-1.77a1.35,1.35,0,0,0-2.31.23c0,.17,0,.36.13.44s.25,0,.32-.1c0-.32.31-.47.56-.64a.66.66,0,0,1,.67.13,1.1,1.1,0,0,1,.29.82,1.28,1.28,0,0,1-.69,1,2.14,2.14,0,0,1-2-.19,4.9,4.9,0,0,1-.59-.93,1.56,1.56,0,0,1,0-1,7,7,0,0,1,3-1.05,2.19,2.19,0,0,1,1.12.69c1,1-.22,2.41.46,3.51.25,0,.25-.38.35-.59a3.67,3.67,0,0,0-.27-2.32,4.23,4.23,0,0,0-.8-1.25.59.59,0,0,1,.26,0,4.86,4.86,0,0,1,1.27,1.1,5.62,5.62,0,0,1,.82,3.46c-.17.64-.84.93-1.36,1.16a2.18,2.18,0,0,0-.57.68c.26.15.61,0,.86-.1.4-.15.63-.66.9-.89,0,0,0,.08,0,.13,0,.23-.11.55.1.61a8,8,0,0,0,.19-1.08,2.12,2.12,0,0,1,.4,1.06c.19.38.5.89,1,.95.12-.19,0-.38-.07-.55-.06-.53-.5-.81-.79-1.19-.74-1-.4-2.59-1-3.74a4.51,4.51,0,0,0-1.13-1.56l.08-.08a12.07,12.07,0,0,1,2.84.5c1.15.57,2.83.45,3.37,2A5.7,5.7,0,0,0,81.84,38l.06,0a.85.85,0,0,0,0-.79c-.12-1-1.05-1.31-1.53-2.19l.06-.09a14.3,14.3,0,0,1,1.53.49A4.51,4.51,0,0,1,85,39.19a8.19,8.19,0,0,1-.78,3.61c-.06.17-.36.36-.17.51.23-.17.28-.45.4-.64a5.88,5.88,0,0,0,.7-4.25c0-.27-.34-.48-.19-.76a.61.61,0,0,0,.35.19c.13-.08.32-.08.4-.23s.11-.28,0-.38-.4-.19-.6-.15a1,1,0,0,0-.26.47,4.18,4.18,0,0,0-.76-1.12l0-.06c.94.31,1.8.77,2.77,1a1.35,1.35,0,0,0,.73.23,20.32,20.32,0,0,0,2.58.66c.63-.07,1.16.23,1.79.08v0l0,0c-.23-.3-.74,0-1-.23a15.75,15.75,0,0,1-4.13-1c0-.06.1,0,.16,0a.56.56,0,0,0,.34-.53.59.59,0,0,0-.48-.23.57.57,0,0,0-.32.36.51.51,0,0,0,.32.4s-.13,0-.19,0l-1.91-.86c-.23-.05-.42-.24-.65-.28-.49-.23-1-.47-1.45-.66a34.43,34.43,0,0,0-4.26-1.58l-.9-.25L76,33a8,8,0,0,0-5.73.49c-.25-.08-.39.32-.52.06A3,3,0,0,1,72.58,32c8.42-.09,16.31-.15,24.6-.28a2.64,2.64,0,0,0,2.41-1.2,2.13,2.13,0,0,0,.15-1.95m-33.37,7.8c-.08.26-.25.47-.23.74l-.08,0c.06-.31-.25-.5-.17-.84a7.1,7.1,0,0,1-.31-.85c-.19-.33.16-.48.31-.71.3.12.4.4.61.65s-.15.63-.13,1"/><path d="M89.14,35c0,.07.13.09.08.19a4.34,4.34,0,0,1-2.81.89.57.57,0,0,1-.27.06c-.06,0-.08-.1,0-.15a3.22,3.22,0,0,1,3-1"/><path d="M85.76,35.36c.09.3-.1.46-.33.57a.62.62,0,0,1-.47-.34c-.06-.17.09-.25.15-.36a.4.4,0,0,1,.65.13"/><path d="M45.87,35.4a.44.44,0,0,1-.1.44.42.42,0,0,1-.38.11c-.15,0-.23-.19-.27-.32s.1-.29.27-.4.36,0,.48.17"/><path d="M42.12,36.78v.14a1.65,1.65,0,0,1-1.37-.31,2.76,2.76,0,0,0-1.11-1.06c0-.06-.12-.15,0-.19,1,0,1.68.85,2.48,1.42"/><path d="M92.33,35.38c-.48.72-.9,1.61-1.76,1.92-.15,0-.27.21-.4.07a3.87,3.87,0,0,1,1.87-2,.71.71,0,0,1,.29,0"/><path d="M47.09,35.63c0,.24-.15.28-.3.41s-.25-.11-.35-.24.1-.29.21-.4a.45.45,0,0,1,.44.23"/><path d="M95,35.76c-.18.28-.1.68-.29,1-.42.49-.77,1-1.45,1.14-.1-.21.15-.42.25-.61a3,3,0,0,1,1.39-1.62Z"/><path d="M35.61,36a.41.41,0,0,1,0,.47.51.51,0,0,1-.48.08A.4.4,0,0,1,35,36c.13-.19.51-.29.65,0"/><path d="M34.42,36.21c0,.1.08.18.06.29a.48.48,0,0,1-.29.25.44.44,0,0,1-.49-.27.4.4,0,0,1,.21-.44.43.43,0,0,1,.51.17"/><path d="M36.89,36.33c0,.17.09.47-.16.51s-.47-.09-.64-.25a.49.49,0,0,1,.26-.43.57.57,0,0,1,.54.17"/><path d="M40.33,36.61c0,.14,0,.36-.14.4s-.3.06-.4,0-.28-.23-.15-.38a.76.76,0,0,1,.3-.23c.12.06.31,0,.39.17"/><path d="M97,36.75c-.06.15-.15.34-.32.34a.55.55,0,0,1-.48-.23c-.08-.23.11-.36.28-.42s.48.08.52.31"/><path d="M93.15,36.86c0,.17-.17.29-.25.36a.51.51,0,0,1-.65-.32.46.46,0,0,1,.9,0"/><path d="M95.75,36.82a.44.44,0,0,1-.19.36.48.48,0,0,1-.5-.09c-.19-.17,0-.31.09-.44s.54-.09.6.17"/><path d="M35.07,37.18a.45.45,0,0,1-.26.53.5.5,0,0,1-.46-.3.39.39,0,0,1,.21-.44.48.48,0,0,1,.51.21"/><path d="M92.1,37.41a.47.47,0,0,1-.29.55.41.41,0,0,1-.4-.15c-.08-.11-.19-.34,0-.44.16-.32.58-.19.71,0"/><path d="M46.36,37.64c.08.23-.17.28-.24.4s-.25.07-.31,0-.23-.25-.17-.44.15-.17.27-.21.32.15.45.27"/><path d="M96.61,37.79c0,.15-.08.21-.1.32a.61.61,0,0,1-.49.08c-.18-.1-.18-.27-.18-.46s.14-.19.29-.24a.48.48,0,0,1,.48.3"/><path d="M95.31,37.85c.08.26-.14.38-.31.45s-.21,0-.23.08a5.83,5.83,0,0,1,1.3,1.12v.17a2.82,2.82,0,0,1-2.08-.8c-.15-.11-.4-.11-.57-.26.28-.27.78-.17,1.16-.19.27-.29-.32-.5,0-.75.13,0,.21-.16.38-.11a.72.72,0,0,1,.31.29"/><path d="M86.73,37.87c0,.11-.09.24-.11.34a.42.42,0,0,1-.46.09c-.1-.15-.27-.28-.21-.49a.44.44,0,0,1,.78.06"/><path d="M39.81,38.61c-.06.19-.15.32-.36.34a.43.43,0,0,1-.38-.25c0-.15.09-.23.11-.34.23-.19.65-.06.63.25"/><path d="M41.51,38.34c0,.29-.32.46-.42.76a2.13,2.13,0,0,1-1.68,1.39c-.08-.19.27-.42.36-.61a4.25,4.25,0,0,1,1.61-1.54Z"/><path d="M86.22,38.63a.52.52,0,0,1-.35.49.46.46,0,0,1-.44-.17c-.17-.17-.07-.34,0-.5.25-.26.61-.05.77.18"/><path d="M87.53,38.78a.54.54,0,0,1-.38.47c0-.06-.15,0-.21,0a.47.47,0,0,1-.27-.38c.1-.11.14-.28.29-.3s.5,0,.57.25"/><path d="M44.76,38.76a.44.44,0,0,1-.31.44.39.39,0,0,1-.4-.25c0-.19.15-.31.25-.42.25-.08.32.11.46.23"/><path d="M46.21,38.85a.51.51,0,0,1-.4.36c-.15-.05-.31-.09-.38-.26s.15-.31.3-.42a.44.44,0,0,1,.48.32"/><path d="M92,40.33c.1.08.29.18.25.33-.34.15-.61-.23-.92-.29a4.33,4.33,0,0,1-1.1-1.69c.19-.19.4,0,.57.1A4.11,4.11,0,0,1,92,40.33"/><path d="M92.81,38.85a.48.48,0,0,1,0,.46c-.12.21-.4.17-.59.13s-.29-.3-.16-.49.25-.21.4-.27.25.1.39.17"/><path d="M48.14,39.4c0,.16.06.42-.15.52a.4.4,0,0,1-.5-.25c-.11-.25.12-.29.25-.42s.27,0,.4.15"/><path d="M87.46,40.77a3.1,3.1,0,0,1,.55,1.5c-.06.15.1.3,0,.4H87.9a4.76,4.76,0,0,1-1.51-2.58.17.17,0,0,1-.08-.21c.21-.19.35.19.57.26Z"/><path d="M50.87,40.05s0,0,0,0a2.78,2.78,0,0,1-3,.38.16.16,0,0,1,.1-.19,4.44,4.44,0,0,1,1.85-.4Z"/><path d="M46.08,40.16c-.71.44-1.36,1.31-2.24,1.52-.17.06-.28.29-.49.17A3.1,3.1,0,0,1,46.08,40Z"/><path d="M86.22,41.11a.33.33,0,0,1-.16.44.28.28,0,0,1-.4,0c-.19-.08-.19-.27-.19-.42s.21-.17.31-.23.34,0,.44.21"/><path d="M84.48,41.21a1.13,1.13,0,0,1-.75.55,3.18,3.18,0,0,1-2-.25c0-.17.23-.11.34-.21a4.54,4.54,0,0,1,2.14-.11.23.23,0,0,1,.27,0"/><path d="M46.08,41.83c-.06.08-.08.27-.25.33a.43.43,0,0,1-.42-.08c0-.13-.19-.23-.08-.38s.21-.19.33-.23a.45.45,0,0,1,.42.36"/><path d="M47.32,42a.78.78,0,0,1-.29.4.45.45,0,0,1-.42-.15.48.48,0,0,1-.07-.42c.05-.11.19-.13.3-.19s.4.19.48.36"/><path d="M85.82,42.23c0,.17-.06.27-.14.4a.35.35,0,0,1-.46.08c-.15,0-.19-.19-.25-.29s.08-.28.14-.42a.45.45,0,0,1,.71.23"/><path d="M86.75,42.19c0,.1.08.21,0,.29s-.21.38-.46.28-.19-.13-.25-.17a.4.4,0,0,1,.25-.57c.19-.07.31.1.42.17"/><path d="M46.57,42.8a.59.59,0,0,1-.21.57c-.23,0-.53,0-.61-.23a.58.58,0,0,1,.25-.62.51.51,0,0,1,.57.28"/><path d="M47.76,42.71A1.94,1.94,0,0,1,47,44.36c-.34.07-.67.38-1,.17v-.1a23.9,23.9,0,0,1,1.76-1.72"/><path d="M82.53,43.2c.09.13-.06.23-.12.34s-.36.08-.51,0-.17-.28-.1-.42.17-.19.27-.24.36.15.46.3"/><path d="M49.86,44.17c.29.49.12,1.14.29,1.67-.35,0-.5-.36-.73-.57a6.59,6.59,0,0,1-.61-2.22A.12.12,0,0,1,49,43a5.7,5.7,0,0,1,.8.89c0,.15.12.15.1.27"/><path d="M83.58,43.37c0,.17-.19.21-.29.32a.78.78,0,0,1-.4-.19c-.07-.21.1-.28.21-.38a.34.34,0,0,1,.48.25"/><path d="M86.08,45.25c0,.06,0,.19-.13.15h-.08a2.52,2.52,0,0,1-1.14-2l.13,0a2.63,2.63,0,0,1,1.22,1.88"/><path d="M84.5,44.57a.49.49,0,0,1-.18.4c-.24.07-.59.05-.63-.27s.21-.32.31-.42a.42.42,0,0,1,.5.29"/><path d="M83.12,45c-.3.78-1.09,1.18-1.64,1.77-.1-.06-.06-.23,0-.31a2.88,2.88,0,0,1,1.62-1.9c.33,0,0,.27.06.44"/><path d="M84.69,45.65c0,.19-.19.28-.29.38a.59.59,0,0,1-.46-.23c0-.21.14-.28.27-.38a.43.43,0,0,1,.48.23"/><path d="M69.08,7.28a.53.53,0,0,1,.52.53.52.52,0,0,1-.52.52H62.86a.52.52,0,0,1-.52-.52.52.52,0,0,1,.52-.53Zm-4.4.91c.61,0,0-.74-.3-.74h-.6c-.61,0,0,.74.29.74Zm2.55,0c.61,0,0-.74-.3-.74h-.6c-.61,0,0,.74.29.74Zm1.88-.74h-.23c-.61,0-.1.74.23.74s.43-.74,0-.74"/><path d="M68.53,14.42l1.19.46,1.17-.46-.46,1.75.93-.19L71,17l.32,1-.83-.22.36,1.88-1.17-.45-1.19.45L69,17.84l-1,.26L68.32,17l-.25-1,.91.15Zm1.76,3.16c.27,0,.29-.37.29-.69,0-.72-.57,0-.87-.68-.21.58-.8.05-.8.66,0,.43,0,.71.42.71Zm-1.17-.65c0,.27.37.09.65.09s.64.18.64-.09-.37-.26-.64-.26-.65-.13-.65.26"/><polygon points="65.75 17 65.75 16.77 65.55 16.74 65.71 16.57 65.61 16.4 65.81 16.42 65.94 16.2 66.06 16.41 66.27 16.4 66.17 16.57 66.33 16.74 66.13 16.77 66.13 17 65.94 16.86 65.75 17"/><polygon points="64.83 18.18 64.83 17.96 64.63 17.93 64.78 17.76 64.69 17.58 64.89 17.61 65.02 17.39 65.14 17.6 65.34 17.58 65.25 17.76 65.4 17.93 65.2 17.96 65.2 18.18 65.02 18.04 64.83 18.18"/><polygon points="66.39 18.03 66.39 17.81 66.19 17.77 66.35 17.61 66.25 17.43 66.46 17.45 66.58 17.24 66.7 17.45 66.91 17.43 66.81 17.61 66.97 17.77 66.77 17.81 66.77 18.03 66.58 17.89 66.39 18.03"/><polygon points="66.58 18.92 66.58 18.8 66.47 18.77 66.55 18.68 66.5 18.58 66.61 18.59 66.69 18.47 66.75 18.59 66.87 18.58 66.81 18.68 66.9 18.77 66.79 18.8 66.79 18.92 66.69 18.84 66.58 18.92"/><polygon points="65.12 19.94 65.12 19.55 64.78 19.49 65.05 19.21 64.89 18.91 65.23 18.94 65.44 18.57 65.65 18.94 66.01 18.91 65.84 19.21 66.11 19.49 65.77 19.55 65.77 19.94 65.44 19.7 65.12 19.94"/><polygon points="65.86 0 66.6 1.82 68.47 1.27 67.52 2.98 69.12 4.11 67.19 4.43 67.31 6.39 65.86 5.08 64.42 6.39 64.53 4.43 62.61 4.11 64.2 2.98 63.25 1.27 65.13 1.82 65.86 0"/><path d="M59.09,40.76c-.22.08-.31.14-.25.37l.26,1.12A1,1,0,0,1,59,43a1.39,1.39,0,0,1-.76.45,1.54,1.54,0,0,1-.9,0c-.21-.09-.34-.18-.43-.56l-.28-1.17c-.07-.29-.18-.27-.42-.24l0-.09L57.63,41l0,.08c-.27.08-.4.12-.33.42l.28,1.17c0,.2.16.68.76.54a.69.69,0,0,0,.56-.94l-.25-1.07c-.05-.21-.13-.32-.49-.24l0-.09.91-.22Z"/><path d="M61.18,41a.89.89,0,0,0-1-.46c-.22,0-.43.2-.38.43s.14.25.53.32l.67.11a.76.76,0,0,1,.6.55c.06.31-.11.79-.88,1a3.72,3.72,0,0,1-.74,0c-.09,0-.09.09-.1.15l-.12,0-.19-.87.12,0a.89.89,0,0,0,1,.56c.5-.11.44-.46.43-.51,0-.23-.27-.27-.56-.32l-.31-.05c-.78-.13-.84-.43-.88-.59s0-.72.77-.9a4.81,4.81,0,0,1,.68,0c.1,0,.11-.08.11-.15l.13,0,.17.76Z"/><path d="M64,42.38l-1.52.14v-.09c.31,0,.41-.07.38-.37l-.18-1.88c-.3,0-.73.1-.76.68h-.13l0-.72,2.55-.24.08.71-.12,0c-.14-.57-.58-.54-.88-.53L63.49,42c0,.3.13.3.45.29Z"/><path d="M67.51,42.37h-.88l-.86-1.14h-.12v.71c0,.29.08.3.37.34v.09l-1.44,0v-.09c.29,0,.38,0,.38-.33l0-1.58c0-.31-.12-.32-.36-.34v-.09l1.37,0c.3,0,1.21,0,1.2.65,0,.44-.45.55-.69.6l.84,1a.26.26,0,0,0,.18.08ZM65.65,41.1c.56,0,.79-.07.8-.54s-.17-.52-.51-.52-.25,0-.27.14Z"/><path d="M70.31,42.74l-1.37-.18v-.09c.26,0,.34,0,.36-.09a2.11,2.11,0,0,0-.14-.5l-1-.12a2.39,2.39,0,0,0-.24.43c0,.14.19.18.33.2v.09l-.86-.1v-.1c.23,0,.31-.11.47-.36l1.18-1.83h.12l.71,2c.15.41.2.54.41.56Zm-1.19-1-.32-.92-.5.82Z"/><path d="M72.81,43.24l-2.44-.44,0-.09c.24,0,.37,0,.41-.19l.31-1.71c0-.23-.13-.27-.32-.32l0-.08,1.47.27,0,.08c-.3,0-.43-.06-.48.25l-.31,1.67c0,.17.06.22.34.27a1.06,1.06,0,0,0,1.19-.5l.12,0Z"/><path d="M74.42,43.6,73,43.3v-.09c.23,0,.4,0,.44-.17l.36-1.7c0-.23-.15-.28-.34-.33l0-.09,1.46.31v.09c-.2,0-.4-.08-.45.16l-.36,1.7c0,.23.12.27.35.34Z"/><path d="M77.4,44,76,43.84v-.09c.26,0,.34,0,.35-.1a1.76,1.76,0,0,0-.15-.5l-1-.1a2.25,2.25,0,0,0-.24.45c0,.13.19.16.34.18v.09l-.87-.09V43.6c.24,0,.31-.12.46-.38l1.15-1.86.12,0,.75,2c.15.4.21.53.42.55Zm-1.21-1-.35-.92-.49.83Z"/><path d="M66.46,15c0-.86-.49-.05-.76-.79-.19.62-.78.1-.78.77a.51.51,0,0,0,.2.48v.26a.12.12,0,0,0,.11.12h.92a.13.13,0,0,0,.12-.12v-.28a.55.55,0,0,0,.19-.44m-.75.17c-.25,0-.59.17-.59-.13s.28-.33.53-.33.65-.09.65.33-.34.13-.59.13"/><path d="M74,25.59a.37.37,0,0,0,.4-.35.38.38,0,0,0-.4-.35.37.37,0,0,0-.39.35.36.36,0,0,0,.39.35"/><path d="M72.1,12.81a2.13,2.13,0,0,0-.18.37.19.19,0,1,0,.37,0l-.19-.37"/><path d="M59.43,12.81a2.09,2.09,0,0,0-.19.37.2.2,0,0,0,.19.21.2.2,0,0,0,.19-.21l-.19-.37"/><path d="M62.6,12.81a2.09,2.09,0,0,0-.19.37.19.19,0,1,0,.38,0l-.19-.37"/><path d="M65.77,12.81a2.09,2.09,0,0,0-.19.37.2.2,0,0,0,.19.21.2.2,0,0,0,.19-.21l-.19-.37"/><path d="M68.93,12.81a2.13,2.13,0,0,0-.18.37.19.19,0,1,0,.37,0l-.19-.37"/><path d="M59.44,17.16a2.13,2.13,0,0,1,.18.37.2.2,0,0,1-.19.21.2.2,0,0,1-.19-.21l.2-.37"/><path d="M59.44,21.39a2.13,2.13,0,0,1,.18.37.2.2,0,0,1-.19.21.21.21,0,0,1-.19-.21s.2-.37.2-.37"/><path d="M59.94,24.73a2.51,2.51,0,0,1,.19.37.2.2,0,0,1-.19.21.2.2,0,0,1-.19-.21l.19-.37"/><path d="M62.6,26.51a2.51,2.51,0,0,1,.19.37.2.2,0,0,1-.19.21.2.2,0,0,1-.19-.21l.19-.37"/><path d="M72.26,17.16a2.13,2.13,0,0,0-.18.37.2.2,0,0,0,.19.21.2.2,0,0,0,.19-.21l-.2-.37"/><path d="M72.26,21.39a2.13,2.13,0,0,0-.18.37.2.2,0,0,0,.19.21.21.21,0,0,0,.19-.21s-.2-.37-.2-.37"/><path d="M71.76,24.73a2.51,2.51,0,0,0-.19.37.2.2,0,0,0,.19.21A.2.2,0,0,0,72,25.1l-.19-.37"/><path d="M69.1,26.51a2.51,2.51,0,0,0-.19.37.19.19,0,1,0,.38,0l-.19-.37"/><path d="M65.86,28.4a2.13,2.13,0,0,0-.18.37.19.19,0,1,0,.37,0l-.19-.37"/><path d="M71,22.09c0,.06.14.08.27,0l.12-.34s-.14-.16-.23-.14c-.34.08-.7.12-.9.44a.7.7,0,0,0,.32.53c.12-.05.14.08.22.14a.14.14,0,0,1-.14.18c-.24-.24-.66.08-.84-.22.08-.31.24-.65,0-.93,0-.06.12-.12.06-.18-.09-.28-.4-.06-.58-.06a.76.76,0,0,0-.71.36.56.56,0,0,0,.16.3c.08,0,.12,0,.14.08l-.2.12a.45.45,0,0,1,.08.23c-.14.06-.28-.15-.34-.25s0-.44-.2-.48a.93.93,0,0,0-.18.06.66.66,0,0,0-.08.33,1.28,1.28,0,0,0,.08.36,3.3,3.3,0,0,1,.75.74c-.17.36-.17.86-.59,1.06a.33.33,0,0,0-.12.32l.1.08c.26-.14.76-.18.72-.62a1.58,1.58,0,0,1,.38-.52.42.42,0,0,1,.46.22.82.82,0,0,1-.55.6.27.27,0,0,0,0,.16c.09.14.3.08.43.06.33-.22.47-.62.77-.74,0,.2-.4.26-.12.46.18,0,.42,0,.54-.22-.14-.34.48-.5.1-.8,0-.3.32-.42.3-.74s-.5-.33-.6-.63a.45.45,0,0,1,.42,0"/><path d="M56.46,25.75a.35.35,0,1,0,0-.7.35.35,0,1,0,0,.7"/><path d="M35.91,37.75a.38.38,0,0,0,.39-.37.39.39,0,0,0-.39-.38.38.38,0,0,0-.39.38.37.37,0,0,0,.39.37"/><path d="M49,40.67h0l0,0h0v0h0v0h0s0,0,0,0,0,0,0,0l0,0h0Zm-.06,0s0,0,0,0,0,0,0,0h0Z"/><path d="M49,40.62l0,0h0v0s0,0,0,0h0v0h0s0,0,0,0,0,0,0,0h0s0,0,0,0,0,0,0,0h0v0Z"/><path d="M49.17,40.6h0l0,.07h0l0-.05,0,.05h0l0-.07h0l0,0h0v0h0l0,0v0h0Z"/><path d="M49.18,40.67s0,0,0,0h0s0,0,0,0,0,0,0,0,0,0,0,0a0,0,0,0,1,0,0Zm0,0h0s0,0,0,0h0s0,0,0,0"/><path d="M49.25,40.62h0v0s0,0,0,0a0,0,0,0,1,0,0h0v0h0Z"/><path d="M73.15,12.31H58.53V23.48a2.69,2.69,0,0,0,1.15,2.45l5.62,3.57a.7.7,0,0,0,.52.23.65.65,0,0,0,.45-.18L72,25.93a2.71,2.71,0,0,0,1.14-2.45l0-11.17Zm-.41,11.32a2.48,2.48,0,0,1-.95,1.95l-5.51,3.51h0a.67.67,0,0,1-.42.15.63.63,0,0,1-.43-.16l-5.51-3.5a2.54,2.54,0,0,1-1-1.95V12.7h13.8Z"/><path d="M67.81,28.6l.18-.09-.18.09"/><path d="M56.78,43.87,55.4,44v-.09c.26,0,.34-.06.33-.18a2.07,2.07,0,0,0-.25-.45l-1,.11a1.87,1.87,0,0,0-.13.49c0,.13.22.12.36.11v.09l-.86.1v-.09c.23-.06.27-.18.37-.47L55,41.59h.12l1.16,1.76c.24.36.32.47.52.44Zm-1.39-.69-.53-.82-.3.92Z"/><path d="M81,38.63a2.21,2.21,0,0,0-1.43-1.3,1.82,1.82,0,0,0-1.82.46c-.76.61-.23,1.63-.21,2.45,0,.17,0,.3-.15.38-3-.27-5.87-1-8.9-1.35-.69-.12-1.39-.09-2-.23L65.6,39a35.42,35.42,0,0,0-7.7.87c-.53.17-1.12.21-1.64.4-.38-.06-.69.21-1,.11l-.69.16a.48.48,0,0,1-.23,0c-.34-.86.67-1.39.35-2.24a1.52,1.52,0,0,0-1.44-.86,1.75,1.75,0,0,0-1.68.86c-.49,1.06.12,2.16.31,3.2,0,.33.34.71,0,1a2.86,2.86,0,0,0-2.37-.49c-.25.13-.71,0-.84.26a6.14,6.14,0,0,0,3.07.38.26.26,0,0,1,.31,0c.09.55-.11,1.29.23,1.77a2.15,2.15,0,0,0,1.62.7A24.48,24.48,0,0,0,59.26,44c.27,0,.48-.17.78-.17a15.28,15.28,0,0,1,3-.4,5.16,5.16,0,0,0-.88,1.9c-.26.57.44.66.65,1a17.55,17.55,0,0,0-1.73.88,23.8,23.8,0,0,0-3.73.62c0,.27.44.19.48.46s-.25.21-.4.32,0,.15.13.17c.13-.15.4-.05.52-.19.42,0,.78-.13,1.18-.15A4.11,4.11,0,0,0,60.31,48c.44-.13.71-.43,1.15-.55.63,0,1.2-.21,1.79-.26v.13c-.49.78-1,1.59-1.49,2.33a.23.23,0,0,0,.14.33,1.09,1.09,0,0,0,.82-.12c.44-.76.84-1.48,1.2-2.27A3.13,3.13,0,0,1,65.11,46c.09,0,.21-.17.3,0a9.68,9.68,0,0,0-1,1.48,1.78,1.78,0,0,0,.32,1.84c.25.21.63.14,1,.16.82-.42,1.87.26,2.5-.54.38-.07.44.38.65.59s.73.46,1.09.21c0-.23-.27-.45-.4-.66-.25-.44-.56-.8-.8-1.2a4.66,4.66,0,0,1-.33-.78,6.63,6.63,0,0,0,1.13.44,7.47,7.47,0,0,1,1.14.34,3.71,3.71,0,0,0,1,.8c.52.26,1.11.3,1.65.51.21,0,.53.19.67,0a.92.92,0,0,0-.31-.24c-.07-.27.38-.12.52-.33a.27.27,0,0,0-.24-.16c-.3-.16-1-.22-1.25-.33a5.12,5.12,0,0,1-.73-.23c-1.26,0-2-1.14-3-1.56.23-.22.59-.39.73-.7a1.2,1.2,0,0,0,.07-1.12c-.19-.66-1-.57-1.51-.93l.06-.07a8.82,8.82,0,0,1,2.27.3c2,.27,3.88,1,6,1.08,1.15,0,2.6.06,3.16-1.06.11-.65.24-1.31.34-2,.25-1.06,1-2,.84-3.2M58.34,48.27,58,48c.15-.19.46-.09.7-.21a3.69,3.69,0,0,1,1.78-.26,5.06,5.06,0,0,1-2.18.74m13.1-.33a9.36,9.36,0,0,0,2.24.52c-.07.29-.58,0-.52.43A4.93,4.93,0,0,1,71.27,48s.08-.08.17-.06M51.75,39a1.48,1.48,0,0,1,.5-1.05,1.77,1.77,0,0,1,1.66.06.8.8,0,0,1,.34.4,1,1,0,0,1-.32,1h-.21a2.24,2.24,0,0,1,.13-1c0-.25-.23-.27-.4-.38a1.26,1.26,0,0,0-1,.21,1,1,0,0,0-.27.93c.15.23,0,.55.11.8l-.07.09A1.32,1.32,0,0,1,51.75,39m1,.61c.32.23.76.12,1.14.19a.81.81,0,0,1-.11.72c-.35-.09-.82,0-1-.38,0-.15-.06-.36,0-.53m-.06-.71c.06-.17,0-.43.23-.47s.38,0,.4.13a4.4,4.4,0,0,1-.1.74.49.49,0,0,1-.53-.4m9.84,6.78a2.31,2.31,0,0,1,.67-1.9,1.24,1.24,0,0,1,.91,0c-.55.15-1.24.27-1.37,1,0,.28-.06.43.07.66.23.4.75.23,1,.55a.27.27,0,0,1-.19.25,9.2,9.2,0,0,1-1.13-.57m-.75,1.46c.5-.21,1-.66,1.59-.47a2.86,2.86,0,0,1-1.59.47m2,.21a15.68,15.68,0,0,1-1,2c0,.1-.21.12-.33.14,0-.29.29-.53.42-.78a19.7,19.7,0,0,1,1.07-1.73c.12.13-.13.21-.13.38m.53-1.23v.09h0v-.11h.09a.15.15,0,0,0-.09,0Zm-.19-.57a4.53,4.53,0,0,1-1-.25c-.21-.21,0-.44,0-.68a1.07,1.07,0,0,1,1.53-.27,2.22,2.22,0,0,1-.52,1.2m.46,0a3.61,3.61,0,0,1,.33-.88,1.73,1.73,0,0,1-.33.88m.23-1.71c-.28-.06-.42-.38-.71-.38a1.74,1.74,0,0,1,.79,0c.11.15-.06.28-.08.4m.25.64h0v-.24h0Zm0,1c0-.09,0-.19.06-.3s.21.09.26.15a.32.32,0,0,1-.32.15m.32-1.31a2.29,2.29,0,0,1,.31-.79,1.18,1.18,0,0,1,.57.09c0,.42.56,1,0,1.35-.19.09-.46.28-.67.09a.58.58,0,0,1-.21-.74m1.53-.59c-.05-.2.19,0,.27-.13l.65,0c-.34,0-.76.74-.92.09m1,.27c-.25.09-.44.38-.69.44a.85.85,0,0,1,.69-.44m-.89,1.38h0v-.07h0Zm0,1.22s0,.11,0,.15l-.48-.38a.52.52,0,0,1,.53.23m-.57-.65a.14.14,0,0,1,.19,0Zm-.29-.32c.08-.13.19-.32.33-.32s0,0,0,.07a1.1,1.1,0,0,1-.37.25m-.48,0h-.09l.13-.13c.06,0,0,.08,0,.13m.06.8c.27-.3.52.17.63.4.31.47,1.13.89.82,1.52-.4.36-1,0-1.47.3-.23,0-.63,0-.76-.19a11.7,11.7,0,0,1,.78-2m-.59.4.11-.17a9,9,0,0,1-.7,1.52c-.12-.5.4-.91.59-1.35m.92,2.52c-.39,0-1,.25-1.38-.09,0-.17-.17-.25-.15-.42.34-.13.63.27,1,0a7.92,7.92,0,0,1,1.46,0c.24.06.59-.38.63.06-.16.7-1,.21-1.51.43M67.38,46h0V46h0Zm.13,1.39c0,.21.23.3.1.49a.63.63,0,0,1-.1-.49m.58,1.27-.1,0c-.1-.08-.06-.31,0-.44.12.11.23.25.14.4m1,.51c0,.06-.12.06-.16,0a11.21,11.21,0,0,1-1.33-2.54l.09,0c.5.83.9,1.74,1.4,2.54m.78-2a.1.1,0,0,0,0,.09,2.4,2.4,0,0,1-1.47-.66l0-.1a3.94,3.94,0,0,1,1.53.67m-.55-2.81c.25.07.28.34.3.55A1.14,1.14,0,0,1,69,46a1.08,1.08,0,0,1-.82.08,1.33,1.33,0,0,0,1.25-.71Zm-.46-.08a1.35,1.35,0,0,1,.19.93c-.21.4-.63.4-1,.49a.69.69,0,0,1-.48-.15.21.21,0,0,0-.08-.21c.06-.28-.49-.55-.11-.79s1.14-1,1.49-.27m10.66-1.54c-.17.21,0,.54-.23.74,0,.38-.31.57-.58.71-2.5.55-5-.29-7.37-.71a25.55,25.55,0,0,0-10.77-.17,47.32,47.32,0,0,0-4.74,1.12,7.1,7.1,0,0,1-2.94,0c-.75-.36-.44-1.34-.67-2A11.64,11.64,0,0,0,52.11,41a1.18,1.18,0,0,1-.09-.55,8.94,8.94,0,0,1,1,.36c1.76.34,3.33-.23,5-.53a36.32,36.32,0,0,1,4.85-.74,31.76,31.76,0,0,1,5.62.19c.59,0,1.09.17,1.66.21,1.17.15,2.26.47,3.46.55a4.14,4.14,0,0,0,.63.11c1.89.29,4,.82,5.81,0a15,15,0,0,1-.42,2.2M79,40.18c0,.34-.3.25-.47.38H78A1.09,1.09,0,0,1,78,40a4.1,4.1,0,0,1,1,.21m-.23-.53c.23-.23-.07-1.56.58-.7,0,.17,0,.43-.14.55s-.28.25-.44.15m1.69-.21a1.2,1.2,0,0,1-.9.72c0-.51.49-.87.32-1.44a1.27,1.27,0,0,0-1.33-.42c-.18.12-.1.33-.16.53l-.09.69c-.42,0-.44-.38-.57-.67a1.24,1.24,0,0,1,.66-1.1,1.43,1.43,0,0,1,1.21,0,1,1,0,0,1,.7.44c.31.3.23.83.16,1.21"/></g></svg>