<?xml version="1.0" encoding="utf-8"?>
<!-- Generator: Adobe Illustrator 24.3.0, SVG Export Plug-In . SVG Version: 6.00 Build 0)  -->
<svg version="1.1" id="Layer_1" xmlns="http://www.w3.org/2000/svg" xmlns:xlink="http://www.w3.org/1999/xlink" x="0px" y="0px"
	 viewBox="0 0 48.4 48.4" style="enable-background:new 0 0 48.4 48.4;" xml:space="preserve">
<style type="text/css">
	.st0{fill:#F5F5F5;}
	.st1{fill:#575756;}
	.st2{fill:#AD1820;}
	.st3{fill:#E5332A;}
	.st4{fill:#F6A723;}
	.st5{fill:#E84E1B;}
	.st6{fill:#FAA634;}
	.st7{fill:none;stroke:#9C9B9B;stroke-width:3;stroke-miterlimit:10;}
	.st8{fill:#9C9B9B;}
	.st9{fill:#1D1D1B;}
	.st10{clip-path:url(#SVGID_2_);}
	.st11{clip-path:url(#SVGID_4_);}
	.st12{clip-path:url(#SVGID_6_);}
	.st13{fill:none;stroke:#AD1820;stroke-width:2.7971;stroke-miterlimit:10;}
	.st14{fill:#FFFFFF;}
	.st15{fill:#C6C6C5;}
	.st16{fill:#868686;}
	.st17{fill:#3C3C3B;}
	.st18{opacity:0.52;fill:#AD1820;}
	.st19{fill:none;stroke:#AD1820;stroke-width:4.3435;stroke-miterlimit:10;}
	.st20{fill:none;stroke:#E5332A;stroke-width:4.3435;stroke-miterlimit:10;}
	.st21{fill:#B1B1B1;}
	.st22{fill:#DD4D02;}
	.st23{fill:#A4A4A4;}
</style>
<g>
	<path class="st5" d="M46,43.5c-0.1,0-0.3,0-0.4,0c-0.6-1-1.6-1.6-2.8-1.6c-1.2,0-2.3,0.6-2.8,1.6c-0.1,0-0.3,0-0.4,0
		c-1.3,0-2.4,1.1-2.4,2.4c0,0.3,0.1,0.6,0.1,0.8h-3.4v-4.8h4c0.4,0,0.8-0.4,0.8-0.8V8.9c0-0.4-0.4-0.8-0.8-0.8H13.7
		c-0.4,0-0.8,0.4-0.8,0.8v38.7c0,0.4,0.4,0.8,0.8,0.8H46c1.3,0,2.4-1.1,2.4-2.4C48.4,44.6,47.3,43.5,46,43.5L46,43.5z M33.9,9.7h3.2
		v4.8h-3.2V9.7z M33.9,16.1h3.2V21h-3.2V16.1z M33.9,22.6h3.2v4.8h-3.2V22.6z M33.9,29h3.2v4.8h-3.2V29z M33.9,35.5h3.2v4.8h-3.2
		V35.5z M17.7,46.8h-3.2v-4.8h3.2V46.8z M17.7,40.3h-3.2v-4.8h3.2V40.3z M17.7,33.9h-3.2V29h3.2V33.9z M17.7,27.4h-3.2v-4.8h3.2
		V27.4z M17.7,21h-3.2v-4.8h3.2V21z M17.7,14.5h-3.2V9.7h3.2V14.5z M22.6,46.8h-3.2v-4.8h3.2V46.8z M22.6,40.3h-3.2v-4.8h3.2V40.3z
		 M22.6,33.9h-3.2V29h3.2V33.9z M22.6,27.4h-3.2v-4.8h3.2V27.4z M22.6,21h-3.2v-4.8h3.2V21z M22.6,14.5h-3.2V9.7h3.2V14.5z
		 M27.4,46.8h-3.2v-4.8h3.2V46.8z M27.4,40.3h-3.2v-4.8h3.2V40.3z M27.4,33.9h-3.2V29h3.2V33.9z M27.4,27.4h-3.2v-4.8h3.2V27.4z
		 M27.4,21h-3.2v-4.8h3.2V21z M27.4,14.5h-3.2V9.7h3.2V14.5z M32.2,46.8H29v-4.8h3.2V46.8z M32.2,40.3H29v-4.8h3.2V40.3z M32.2,33.9
		H29V29h3.2V33.9z M32.2,27.4H29v-4.8h3.2V27.4z M32.2,21H29v-4.8h3.2V21z M32.2,14.5H29V9.7h3.2V14.5z M46,46.8h-6.4
		c-0.4,0-0.8-0.4-0.8-0.8c0-0.4,0.4-0.8,0.8-0.8c0.2,0,0.3,0,0.4,0.1c0.2,0.1,0.5,0.2,0.7,0.1c0.2-0.1,0.4-0.3,0.5-0.6
		c0.2-0.7,0.8-1.2,1.6-1.2c0.8,0,1.4,0.5,1.6,1.2c0.1,0.3,0.2,0.5,0.5,0.6c0.2,0.1,0.5,0.1,0.7-0.1c0.5-0.3,1.2,0.1,1.2,0.7
		C46.8,46.4,46.4,46.8,46,46.8L46,46.8z M46,46.8"/>
	<path class="st5" d="M17.7,5.6V3.2h5.6c0.4,0,0.8-0.4,0.8-0.8V1.6h3.2v0.8c0,0.4,0.4,0.8,0.8,0.8h5.6v1.6H20.2
		c-0.4,0-0.8,0.4-0.8,0.8c0,0.4,0.4,0.8,0.8,0.8h20.2v33.4c0,0.4,0.4,0.8,0.8,0.8c0.4,0,0.8-0.4,0.8-0.8V5.6c0-0.4-0.4-0.8-0.8-0.8
		h-5.6V2.4c0-0.4-0.4-0.8-0.8-0.8H29V0.8C29,0.4,28.7,0,28.2,0h-4.8c-0.4,0-0.8,0.4-0.8,0.8v0.8h-5.6c-0.4,0-0.8,0.4-0.8,0.8v2.4
		h-5.6c-0.4,0-0.8,0.4-0.8,0.8v41.1H4.8v-3.3c1.8-0.4,3.2-2,3.2-3.9C8.1,39.4,8,29,4,29c-4,0-4,10.4-4,10.5c0,1.9,1.4,3.6,3.2,3.9
		v3.3H0.8c-0.4,0-0.8,0.4-0.8,0.8c0,0.4,0.4,0.8,0.8,0.8h9.7c0.4,0,0.8-0.4,0.8-0.8V6.4h5.6C17.4,6.4,17.7,6.1,17.7,5.6L17.7,5.6z
		 M1.6,39.5c0-4,1.1-8.9,2.4-8.9c1.3,0,2.4,4.9,2.4,8.9c0,1.3-1.1,2.4-2.4,2.4C2.7,41.9,1.6,40.8,1.6,39.5L1.6,39.5z M1.6,39.5"/>
</g>
</svg>
