<?xml version="1.0" encoding="utf-8"?>
<!-- Generator: Adobe Illustrator 24.3.0, SVG Export Plug-In . SVG Version: 6.00 Build 0)  -->
<svg version="1.1" id="Layer_1" xmlns="http://www.w3.org/2000/svg" xmlns:xlink="http://www.w3.org/1999/xlink" x="0px" y="0px"
	 viewBox="0 0 9.1 17.3" style="enable-background:new 0 0 9.1 17.3;" xml:space="preserve">
<style type="text/css">
	.st0{fill:#F5F5F5;}
	.st1{fill:#575756;}
	.st2{fill:#AD1820;}
	.st3{fill:#E5332A;}
	.st4{fill:#F6A723;}
	.st5{fill:#E84E1B;}
	.st6{fill:#FAA634;}
	.st7{fill:none;stroke:#9C9B9B;stroke-width:3;stroke-miterlimit:10;}
	.st8{fill:#9C9B9B;}
	.st9{fill:#1D1D1B;}
	.st10{clip-path:url(#SVGID_2_);}
	.st11{clip-path:url(#SVGID_4_);}
	.st12{clip-path:url(#SVGID_6_);}
	.st13{fill:none;stroke:#AD1820;stroke-width:2.7971;stroke-miterlimit:10;}
	.st14{fill:#FFFFFF;}
	.st15{fill:#C6C6C5;}
	.st16{fill:#868686;}
	.st17{fill:#3C3C3B;}
	.st18{opacity:0.52;fill:#AD1820;}
	.st19{fill:none;stroke:#AD1820;stroke-width:4.3435;stroke-miterlimit:10;}
	.st20{fill:none;stroke:#E5332A;stroke-width:4.3435;stroke-miterlimit:10;}
	.st21{fill:#B1B1B1;}
	.st22{fill:#DD4D02;}
	.st23{fill:#A4A4A4;}
	.st24{fill:#E94D00;}
	.st25{clip-path:url(#SVGID_8_);fill:#E74E1B;}
	.st26{clip-path:url(#SVGID_8_);}
	.st27{fill:#AC1820;}
	.st28{fill:#F19000;}
	.st29{opacity:0.52;fill:#AC1820;}
	.st30{fill:#E4332A;}
	.st31{fill-rule:evenodd;clip-rule:evenodd;fill:#D9D9D9;}
	.st32{fill:#D9D9D9;}
</style>
<path class="st31" d="M7.2,2.9c0.5,0,1.1,0,1.6,0c0.1,0,0.1,0,0.2,0V0.1C8.8,0.1,8.5,0.1,8.2,0C7.6,0,7.1,0,6.5,0
	C5.7,0,4.9,0.2,4.2,0.7C3.4,1.3,2.9,2.1,2.8,3.1C2.7,3.4,2.7,3.9,2.7,4.3c0,0.6,0,1.3,0,1.9v0.2H0v3.1h2.7v7.8h3.2V9.5h2.6
	c0.1-1,0.3-2.1,0.4-3.1c-0.2,0-0.4,0-0.6,0c-0.8,0-2.5,0-2.5,0s0-1.5,0-2.2C5.9,3.2,6.5,3,7.2,2.9z"/>
</svg>
