<?xml version="1.0" encoding="utf-8"?>
<!-- Generator: Adobe Illustrator 24.3.0, SVG Export Plug-In . SVG Version: 6.00 Build 0)  -->
<svg version="1.1" id="Layer_1" xmlns="http://www.w3.org/2000/svg" xmlns:xlink="http://www.w3.org/1999/xlink" x="0px" y="0px"
	 viewBox="0 0 48.5 48.5" style="enable-background:new 0 0 48.5 48.5;" xml:space="preserve">
<style type="text/css">
	.st0{fill:#F5F5F5;}
	.st1{fill:#575756;}
	.st2{fill:#AD1820;}
	.st3{fill:#E5332A;}
	.st4{fill:#F6A723;}
	.st5{fill:#E84E1B;}
	.st6{fill:#FAA634;}
	.st7{fill:none;stroke:#9C9B9B;stroke-width:3;stroke-miterlimit:10;}
	.st8{fill:#9C9B9B;}
	.st9{fill:#1D1D1B;}
	.st10{clip-path:url(#SVGID_2_);}
	.st11{clip-path:url(#SVGID_4_);}
	.st12{clip-path:url(#SVGID_6_);}
	.st13{fill:none;stroke:#AD1820;stroke-width:2.7971;stroke-miterlimit:10;}
	.st14{fill:#FFFFFF;}
	.st15{fill:#C6C6C5;}
	.st16{fill:#868686;}
	.st17{fill:#3C3C3B;}
	.st18{opacity:0.52;fill:#AD1820;}
	.st19{fill:none;stroke:#AD1820;stroke-width:4.3435;stroke-miterlimit:10;}
	.st20{fill:none;stroke:#E5332A;stroke-width:4.3435;stroke-miterlimit:10;}
	.st21{fill:#B1B1B1;}
	.st22{fill:#DD4D02;}
	.st23{fill:#A4A4A4;}
</style>
<g>
	<path class="st5" d="M17.8,29.9c0,0.4,0.4,0.8,0.8,0.8h3.2c0.4,0,0.8-0.4,0.8-0.8v-4.9c0-0.4-0.4-0.8-0.8-0.8h-3.2
		c-0.4,0-0.8,0.4-0.8,0.8V29.9z M19.4,25.9H21v3.2h-1.6V25.9z M19.4,25.9"/>
	<path class="st5" d="M18.6,21h3.2c0.4,0,0.8-0.4,0.8-0.8v-4.9c0-0.4-0.4-0.8-0.8-0.8h-3.2c-0.4,0-0.8,0.4-0.8,0.8v4.9
		C17.8,20.7,18.1,21,18.6,21L18.6,21z M19.4,16.2H21v3.2h-1.6V16.2z M19.4,16.2"/>
	<path class="st5" d="M12.5,15.2l11.7-7l11.7,7c0.1,0.1,0.3,0.1,0.4,0.1c0.3,0,0.5-0.1,0.7-0.4c0.2-0.4,0.1-0.9-0.3-1.1l-11.7-7V1.6
		h4v1.6h-2.4c-0.4,0-0.8,0.4-0.8,0.8c0,0.4,0.4,0.8,0.8,0.8h3.2c0.4,0,0.8-0.4,0.8-0.8V0.8c0-0.4-0.4-0.8-0.8-0.8h-5.7
		c-0.4,0-0.8,0.4-0.8,0.8v6l-11.7,7c-0.4,0.2-0.5,0.7-0.3,1.1C11.7,15.4,12.2,15.5,12.5,15.2L12.5,15.2z M12.5,15.2"/>
	<path class="st5" d="M8.9,30.7c0.4,0,0.8-0.4,0.8-0.8v-4.9c0-0.4-0.4-0.8-0.8-0.8H5.7c-0.4,0-0.8,0.4-0.8,0.8v1.6
		c0,0.4,0.4,0.8,0.8,0.8c0.4,0,0.8-0.4,0.8-0.8v-0.8h1.6v4C8.1,30.4,8.4,30.7,8.9,30.7L8.9,30.7z M8.9,30.7"/>
	<path class="st5" d="M14.6,41.2V17.8c0-0.4-0.4-0.8-0.8-0.8c-0.4,0-0.8,0.4-0.8,0.8v23.4c0,0.4,0.4,0.8,0.8,0.8
		C14.2,42,14.6,41.7,14.6,41.2L14.6,41.2z M14.6,41.2"/>
	<path class="st5" d="M10.5,45.3H38c0.4,0,0.8-0.4,0.8-0.8c0-0.4-0.4-0.8-0.8-0.8h-7.3v-8.1h0.8c0.4,0,0.8-0.4,0.8-0.8
		c0-0.4-0.4-0.8-0.8-0.8H17c-0.4,0-0.8,0.4-0.8,0.8c0,0.4,0.4,0.8,0.8,0.8h0.8v8.1h-7.3c-0.4,0-0.8,0.4-0.8,0.8
		C9.7,44.9,10.1,45.3,10.5,45.3L10.5,45.3z M25.1,40.4c0.4,0,0.8-0.4,0.8-0.8c0-0.4-0.4-0.8-0.8-0.8v-3.2h4v8.1h-4V40.4z M19.4,35.6
		h4v3.2c-0.4,0-0.8,0.4-0.8,0.8c0,0.4,0.4,0.8,0.8,0.8v3.2h-4V35.6z M19.4,35.6"/>
	<path class="st5" d="M42.8,34.8h-3.2c-0.4,0-0.8,0.4-0.8,0.8v4.9c0,0.4,0.4,0.8,0.8,0.8h3.2c0.4,0,0.8-0.4,0.8-0.8v-4.9
		C43.7,35.1,43.3,34.8,42.8,34.8L42.8,34.8z M42,39.6h-1.6v-3.2H42V39.6z M42,39.6"/>
	<path class="st5" d="M42.8,25.1h-3.2c-0.4,0-0.8,0.4-0.8,0.8v4.9c0,0.4,0.4,0.8,0.8,0.8h3.2c0.4,0,0.8-0.4,0.8-0.8v-4.9
		C43.7,25.4,43.3,25.1,42.8,25.1L42.8,25.1z M42,29.9h-1.6v-3.2H42V29.9z M42,29.9"/>
	<path class="st5" d="M41.2,46.9h-34c-0.4,0-0.8,0.4-0.8,0.8c0,0.4,0.4,0.8,0.8,0.8h34c0.4,0,0.8-0.4,0.8-0.8
		C42,47.3,41.7,46.9,41.2,46.9L41.2,46.9z M41.2,46.9"/>
	<path class="st5" d="M47.7,17.8c-0.4,0-0.8,0.4-0.8,0.8v0.8H38c-0.4,0-0.8,0.4-0.8,0.8c0,0.4,0.4,0.8,0.8,0.8h8.9v26.7
		c0,0.4,0.4,0.8,0.8,0.8c0.4,0,0.8-0.4,0.8-0.8V18.6C48.5,18.1,48.1,17.8,47.7,17.8L47.7,17.8z M47.7,17.8"/>
	<path class="st5" d="M25.9,29.9c0,0.4,0.4,0.8,0.8,0.8h3.2c0.4,0,0.8-0.4,0.8-0.8v-4.9c0-0.4-0.4-0.8-0.8-0.8h-3.2
		c-0.4,0-0.8,0.4-0.8,0.8V29.9z M27.5,25.9h1.6v3.2h-1.6V25.9z M27.5,25.9"/>
	<path class="st5" d="M8.1,39.6c0-0.1,0-10.5-4-10.5c-4,0-4,10.4-4,10.5c0,2,1.4,3.6,3.2,4v4.1c0,0.4,0.4,0.8,0.8,0.8
		c0.4,0,0.8-0.4,0.8-0.8v-4.1C6.7,43.2,8.1,41.6,8.1,39.6L8.1,39.6z M4,42c-1.3,0-2.4-1.1-2.4-2.4c0-4,1.1-8.9,2.4-8.9
		c1.3,0,2.4,4.9,2.4,8.9C6.5,41,5.4,42,4,42L4,42z M4,42"/>
	<path class="st5" d="M35.6,41.2V17c0-0.4-0.4-0.8-0.8-0.8c-0.4,0-0.8,0.4-0.8,0.8v24.3c0,0.4,0.4,0.8,0.8,0.8
		C35.2,42,35.6,41.7,35.6,41.2L35.6,41.2z M35.6,41.2"/>
	<path class="st5" d="M26.7,21h3.2c0.4,0,0.8-0.4,0.8-0.8v-4.9c0-0.4-0.4-0.8-0.8-0.8h-3.2c-0.4,0-0.8,0.4-0.8,0.8v4.9
		C25.9,20.7,26.2,21,26.7,21L26.7,21z M27.5,16.2h1.6v3.2h-1.6V16.2z M27.5,16.2"/>
	<path class="st5" d="M0.8,28.3c0.4,0,0.8-0.4,0.8-0.8V21h8.9c0.4,0,0.8-0.4,0.8-0.8c0-0.4-0.4-0.8-0.8-0.8H1.6v-0.8
		c0-0.4-0.4-0.8-0.8-0.8c-0.4,0-0.8,0.4-0.8,0.8v8.9C0,27.9,0.4,28.3,0.8,28.3L0.8,28.3z M0.8,28.3"/>
</g>
</svg>
