<?xml version="1.0" encoding="utf-8"?>
<!-- Generator: Adobe Illustrator 24.3.0, SVG Export Plug-In . SVG Version: 6.00 Build 0)  -->
<svg version="1.1" id="Layer_1" xmlns="http://www.w3.org/2000/svg" xmlns:xlink="http://www.w3.org/1999/xlink" x="0px" y="0px"
	 viewBox="0 0 48.4 48.4" style="enable-background:new 0 0 48.4 48.4;" xml:space="preserve">
<style type="text/css">
	.st0{fill:#F5F5F5;}
	.st1{fill:#575756;}
	.st2{fill:#AD1820;}
	.st3{fill:#E5332A;}
	.st4{fill:#F6A723;}
	.st5{fill:#E84E1B;}
	.st6{fill:#FAA634;}
	.st7{fill:none;stroke:#9C9B9B;stroke-width:3;stroke-miterlimit:10;}
	.st8{fill:#9C9B9B;}
	.st9{fill:#1D1D1B;}
	.st10{clip-path:url(#SVGID_2_);}
	.st11{clip-path:url(#SVGID_4_);}
	.st12{clip-path:url(#SVGID_6_);}
	.st13{fill:none;stroke:#AD1820;stroke-width:2.7971;stroke-miterlimit:10;}
	.st14{fill:#FFFFFF;}
	.st15{fill:#C6C6C5;}
	.st16{fill:#868686;}
	.st17{fill:#3C3C3B;}
	.st18{opacity:0.52;fill:#AD1820;}
	.st19{fill:none;stroke:#AD1820;stroke-width:4.3435;stroke-miterlimit:10;}
	.st20{fill:none;stroke:#E5332A;stroke-width:4.3435;stroke-miterlimit:10;}
	.st21{fill:#B1B1B1;}
	.st22{fill:#DD4D02;}
	.st23{fill:#A4A4A4;}
</style>
<g>
	<path class="st5" d="M24.2,0C10.8,0,0,10.8,0,24.2s10.8,24.2,24.2,24.2s24.2-10.8,24.2-24.2S37.6,0,24.2,0z M24.2,46.3
		C12,46.3,2.1,36.4,2.1,24.2S12,2.1,24.2,2.1S46.3,12,46.3,24.2S36.4,46.3,24.2,46.3z"/>
	<path class="st5" d="M36.8,19h-7.3v-7.3c0-0.6-0.5-1-1-1H20c-0.6,0-1,0.5-1,1V19h-7.3c-0.6,0-1,0.5-1,1v8.4c0,0.6,0.5,1,1,1H19v7.3
		c0,0.6,0.5,1,1,1h8.4c0.6,0,1-0.5,1-1v-7.3h7.3c0.6,0,1-0.5,1-1V20C37.8,19.4,37.3,19,36.8,19z M35.8,27.4h-7.3c-0.6,0-1,0.5-1,1
		v7.3h-6.3v-7.3c0-0.6-0.5-1-1-1h-7.3v-6.3H20c0.6,0,1-0.5,1-1v-7.3h6.4V20c0,0.6,0.5,1,1,1h7.3L35.8,27.4L35.8,27.4z"/>
</g>
</svg>
