<svg id="Layer_1" data-name="Layer 1" xmlns="http://www.w3.org/2000/svg" viewBox="0 0 291.94 112.87"><defs><style>.cls-1{fill:#231f20;}.cls-2{fill:#313131;}</style></defs><path class="cls-1" d="M285.74,373.73c-.33-1.82-1-5.47-1-5.47l-15.74.86v8.15l4.42.56V420.5h14.42V385.57c4.29-4.55,6.9-6.47,11.48-6.47,5,0,7.27,3.48,7.27,11.29V420.5H321V387.85c0-13.69-6.52-20.93-18.86-20.93C295.62,366.92,291,368.82,285.74,373.73Z" transform="translate(-144.15 -338.26)"/><path class="cls-1" d="M412.34,379.24c5.8,0,8.75,5,8.75,14.8,0,7.21-2.13,15.8-12.28,15.8a22.82,22.82,0,0,1-8.34-1.66V386.1C404.52,381.37,408.21,379.24,412.34,379.24Zm-31.13-30.35v8.16s4.78.59,5.29.67v60.51a76.83,76.83,0,0,0,21.43,3.37c17.9,0,28.17-10.58,28.17-29,0-15.67-8.09-25.42-21.11-25.42a21.5,21.5,0,0,0-14.52,5.44v-24.4Z" transform="translate(-144.15 -338.26)"/><path class="cls-1" d="M332.79,370.21l-.79.29,2.61,11,1-.41a41,41,0,0,1,14.43-2.87c8,0,9.53,2.93,9.53,8.36v1.7h-5.13c-17.33,0-26.09,5.81-26.09,17.29,0,10.22,6.78,16.3,18.17,16.3a23,23,0,0,0,15.23-5.44c.29,1.42.82,4.05.82,4.05l16.1-.5V411.8l-4.88-.46V385.4c0-12.42-7.19-18.48-22-18.48A58.77,58.77,0,0,0,332.79,370.21Zm10,34.67c0-2.85,1.18-6.61,11.48-6.61h5.32v8.1c-3.48,3.09-6.62,4.51-10.11,4.51C345.15,410.88,342.78,408.75,342.78,404.88Z" transform="translate(-144.15 -338.26)"/><path class="cls-2" d="M213.55,339.16l-18.74,23.08c-.15,0-26.75-13-26.75-13a1.42,1.42,0,0,0-2.21,1.75l6.31,29c-.07.13-26.77,12.87-26.77,12.87-.79.38-1.23.88-1.24,1.41s.43,1,1.22,1.41l26.56,13.09c.06.14-6.58,29-6.58,29-.2.86-.09,1.51.32,1.84a1.77,1.77,0,0,0,1.87-.07l26.75-12.65c.15,0,18.62,23.28,18.62,23.28.54.69,1.13,1,1.64.9s.91-.65,1.11-1.51l6.74-28.85c.12-.1,29.86,0,29.86,0,.88,0,1.49-.25,1.72-.73a1.77,1.77,0,0,0-.48-1.8l-18.39-23.32c0-.15,18.66-23.29,18.66-23.29a1.78,1.78,0,0,0,.51-1.79c-.23-.49-.84-.75-1.72-.76L245,369a1.94,1.94,0,0,0-1.39.61l-27.94,29.76c-.25.3-.49.4-.64.28s-.13-.31.13-.65c.56-.7,16-19.5,23.85-29a.66.66,0,0,0,.11-.69.75.75,0,0,0-.66-.39l-9.8-.07a3,3,0,0,0-2.06,1c-4.53,4.83-27.18,28.91-27.64,29.45-.26.3-.5.4-.65.28s-.13-.31.14-.65l23.48-28.51c.56-.68.89-1.14.77-1.74-.06-.31-6.34-28.68-6.4-29-.19-.85-.58-1.39-1.09-1.51S214.11,338.48,213.55,339.16Z" transform="translate(-144.15 -338.26)"/></svg>