<?xml version="1.0" encoding="utf-8"?>
<!-- Generator: Adobe Illustrator 24.3.0, SVG Export Plug-In . SVG Version: 6.00 Build 0)  -->
<svg version="1.1" id="Layer_1" xmlns="http://www.w3.org/2000/svg" xmlns:xlink="http://www.w3.org/1999/xlink" x="0px" y="0px"
	 viewBox="0 0 188 62.7" style="enable-background:new 0 0 188 62.7;" xml:space="preserve">
<style type="text/css">
	.st0{fill:#F5F5F5;}
	.st1{fill:#575756;}
	.st2{fill:#AD1820;}
	.st3{fill:#E5332A;}
	.st4{fill:#F6A723;}
	.st5{fill:#E84E1B;}
	.st6{fill:#FAA634;}
	.st7{fill:none;stroke:#9C9B9B;stroke-width:3;stroke-miterlimit:10;}
	.st8{fill:#9C9B9B;}
	.st9{fill:#1D1D1B;}
	.st10{clip-path:url(#SVGID_2_);}
	.st11{clip-path:url(#SVGID_4_);}
	.st12{clip-path:url(#SVGID_6_);}
	.st13{fill:none;stroke:#AD1820;stroke-width:2.7971;stroke-miterlimit:10;}
	.st14{fill:#FFFFFF;}
	.st15{fill:#C6C6C5;}
	.st16{fill:#868686;}
	.st17{fill:#3C3C3B;}
	.st18{opacity:0.52;fill:#AD1820;}
	.st19{font-family:'Montserrat-Regular';}
	.st20{font-size:7.9929px;}
	.st21{fill:none;stroke:#AD1820;stroke-width:4.3435;stroke-miterlimit:10;}
	.st22{fill:none;stroke:#E5332A;stroke-width:4.3435;stroke-miterlimit:10;}
	.st23{fill:#B1B1B1;}
	.st24{fill:#DD4D02;}
	.st25{fill:#A4A4A4;}
</style>
<g>
	<text transform="matrix(1 0 0 1 56.4957 12.027)" class="st14 st19 st20"> </text>
	<text transform="matrix(1 0 0 1 56.4957 12.027)" class="st14 st19 st20"> </text>
	<path class="st2" d="M31.3,62.7c17.3,0,31.3-14,31.3-31.3H31.3V62.7z"/>
	<path class="st4" d="M0,31.3C0,14,14,0,31.3,0v31.3H0z"/>
	<path class="st3" d="M94,31.3C94,14,108,0,125.3,0v31.3H94z"/>
	<path class="st3" d="M31.3,31.3C31.3,14,45.4,0,62.7,0v31.3H31.3z"/>
	<path class="st5" d="M0,31.3c0,17.3,14,31.3,31.3,31.3V31.3H0z"/>
	<path class="st4" d="M156.7,31.3c0-17.3-14-31.3-31.3-31.3v31.3H156.7z"/>
	<path class="st5" d="M125.3,31.3c0,17.3,14,31.3,31.3,31.3V31.3H125.3z"/>
	<path class="st5" d="M94,62.7c-17.3,0-31.3-14-31.3-31.3H94V62.7z"/>
	<path class="st4" d="M94,31.3C94,14,80,0,62.7,0v31.3H94z"/>
	<path class="st2" d="M156.7,62.7c17.3,0,31.3-14,31.3-31.3h-31.3V62.7z"/>
	<path class="st2" d="M125.3,31.3c0,17.3-14,31.3-31.3,31.3V31.3H125.3z"/>
</g>
</svg>
