<?xml version="1.0" encoding="utf-8"?>
<!-- Generator: Adobe Illustrator 24.3.0, SVG Export Plug-In . SVG Version: 6.00 Build 0)  -->
<svg version="1.1" id="Layer_1" xmlns="http://www.w3.org/2000/svg" xmlns:xlink="http://www.w3.org/1999/xlink" x="0px" y="0px"
	 viewBox="0 0 117.1 109.4" style="enable-background:new 0 0 117.1 109.4;" xml:space="preserve">
<style type="text/css">
	.st0{fill:#F5F5F5;}
	.st1{fill:#575756;}
	.st2{fill:#AD1820;}
	.st3{fill:#E5332A;}
	.st4{fill:#F6A723;}
	.st5{fill:#E84E1B;}
	.st6{fill:#FAA634;}
	.st7{fill:none;stroke:#9C9B9B;stroke-width:3;stroke-miterlimit:10;}
	.st8{fill:#9C9B9B;}
	.st9{fill:#1D1D1B;}
	.st10{clip-path:url(#SVGID_2_);}
	.st11{clip-path:url(#SVGID_4_);}
	.st12{clip-path:url(#SVGID_6_);}
	.st13{fill:none;stroke:#AD1820;stroke-width:2.7971;stroke-miterlimit:10;}
	.st14{fill:#FFFFFF;}
	.st15{font-family:'Montserrat-Regular';}
	.st16{font-size:13.854px;}
	.st17{fill:#C6C6C5;}
	.st18{fill:#868686;}
	.st19{fill:#3C3C3B;}
	.st20{opacity:0.52;fill:#AD1820;}
	.st21{fill:none;stroke:#AD1820;stroke-width:4.3435;stroke-miterlimit:10;}
	.st22{fill:none;stroke:#E5332A;stroke-width:4.3435;stroke-miterlimit:10;}
	.st23{fill:#B1B1B1;}
	.st24{fill:#DD4D02;}
	.st25{fill:#A4A4A4;}
</style>
<g>
	<text transform="matrix(1 0 0 1 59.528 53.9365)" class="st14 st15 st16"> </text>
	<rect x="57.8" y="46.5" transform="matrix(0.7073 -0.707 0.707 0.7073 -18.0668 59.4426)" class="st14" width="10" height="10"/>
	<path class="st5" d="M56.3,94l-5.9,5.9v9.5H67C67,102.4,62.6,96.4,56.3,94z"/>
	<path class="st2" d="M9.5,46.8H0v16.6c7.1,0,13.1-4.4,15.5-10.6L9.5,46.8z"/>
	<path class="st3" d="M67,9.5L67,9.5L67,0H50.4c0,7.1,4.4,13.1,10.6,15.5L67,9.5z"/>
	<path class="st4" d="M101.7,57.5l5.9,5.9h9.5V46.8C110.1,46.8,104.1,51.2,101.7,57.5z"/>
	<rect x="38.1" y="32.5" class="st17" width="42.9" height="42.9"/>
</g>
</svg>
