<?xml version="1.0" encoding="utf-8"?>
<!-- Generator: Adobe Illustrator 24.3.0, SVG Export Plug-In . SVG Version: 6.00 Build 0)  -->
<svg version="1.1" id="Layer_1" xmlns="http://www.w3.org/2000/svg" xmlns:xlink="http://www.w3.org/1999/xlink" x="0px" y="0px"
	 viewBox="0 0 478.9 149.8" style="enable-background:new 0 0 478.9 149.8;" xml:space="preserve">
<style type="text/css">
	.st0{fill:#F5F5F5;}
	.st1{fill:#575756;}
	.st2{fill:#AD1820;}
	.st3{fill:#E5332A;}
	.st4{fill:#F6A723;}
	.st5{fill:#E84E1B;}
	.st6{fill:#FAA634;}
	.st7{fill:none;stroke:#9C9B9B;stroke-width:3;stroke-miterlimit:10;}
	.st8{fill:#9C9B9B;}
	.st9{fill:#1D1D1B;}
	.st10{clip-path:url(#SVGID_2_);}
	.st11{clip-path:url(#SVGID_4_);}
	.st12{clip-path:url(#SVGID_6_);}
	.st13{fill:none;stroke:#AD1820;stroke-width:2.7971;stroke-miterlimit:10;}
	.st14{fill:#FFFFFF;}
	.st15{fill:#C6C6C5;}
	.st16{fill:#868686;}
	.st17{fill:#3C3C3B;}
	.st18{opacity:0.52;fill:#AD1820;}
	.st19{fill:none;stroke:#AD1820;stroke-width:4.3435;stroke-miterlimit:10;}
	.st20{fill:none;stroke:#E5332A;stroke-width:4.3435;stroke-miterlimit:10;}
	.st21{fill:#B1B1B1;}
	.st22{fill:#DD4D02;}
	.st23{fill:#A4A4A4;}
</style>
<g>
	<g>
		<path class="st1" d="M45,10.3V1.7h3.8c0.4,0,0.8,0.1,1.1,0.2c0.3,0.2,0.6,0.4,0.9,0.6c0.2,0.3,0.4,0.6,0.6,0.9s0.2,0.7,0.2,1
			c0,0.6-0.1,1.1-0.4,1.5s-0.7,0.8-1.1,1l2,3.2h-1.9l-1.8-2.9h-1.6v2.9H45z M46.7,6h2.1c0.2,0,0.3,0,0.4-0.1s0.2-0.2,0.3-0.3
			c0.1-0.1,0.2-0.3,0.2-0.4c0.1-0.2,0.1-0.3,0.1-0.5c0-0.2,0-0.4-0.1-0.6c-0.1-0.2-0.1-0.3-0.3-0.4c-0.1-0.1-0.2-0.2-0.4-0.3
			c-0.1-0.1-0.3-0.1-0.4-0.1h-2V6z"/>
		<path class="st1" d="M60.2,8.8v1.5h-5.9V1.7h5.8v1.5H56v2.1h3.6v1.3H56v2.2H60.2z"/>
		<path class="st1" d="M67.7,4c-0.1-0.1-0.2-0.1-0.3-0.2c-0.1-0.1-0.3-0.2-0.5-0.3s-0.4-0.2-0.7-0.2c-0.2-0.1-0.5-0.1-0.8-0.1
			c-0.5,0-0.8,0.1-1,0.3c-0.2,0.2-0.3,0.4-0.3,0.7c0,0.2,0,0.3,0.1,0.4c0.1,0.1,0.2,0.2,0.4,0.3c0.2,0.1,0.4,0.2,0.6,0.2
			c0.2,0.1,0.5,0.1,0.8,0.2c0.4,0.1,0.8,0.2,1.1,0.4C67.5,5.8,67.8,6,68,6.1c0.2,0.2,0.4,0.4,0.5,0.7c0.1,0.3,0.2,0.6,0.2,1
			c0,0.5-0.1,0.8-0.3,1.2c-0.2,0.3-0.4,0.6-0.7,0.8c-0.3,0.2-0.6,0.3-1,0.4s-0.8,0.1-1.2,0.1c-0.6,0-1.3-0.1-1.9-0.3
			c-0.6-0.2-1.2-0.5-1.7-0.8l0.7-1.4C62.8,7.9,63,8,63.2,8.1c0.2,0.1,0.4,0.2,0.7,0.3c0.3,0.1,0.5,0.2,0.9,0.3
			c0.3,0.1,0.6,0.1,1,0.1C66.6,8.9,67,8.6,67,8c0-0.2-0.1-0.4-0.2-0.5s-0.3-0.2-0.4-0.3C66.2,7.1,66,7,65.7,6.9
			c-0.3-0.1-0.6-0.2-0.9-0.3c-0.4-0.1-0.8-0.2-1.1-0.4C63.4,6.2,63.2,6,63,5.8c-0.2-0.2-0.3-0.4-0.4-0.6c-0.1-0.2-0.2-0.5-0.2-0.9
			c0-0.4,0.1-0.8,0.2-1.2s0.4-0.6,0.7-0.8c0.3-0.2,0.6-0.4,1-0.5c0.4-0.1,0.8-0.2,1.2-0.2c0.6,0,1.2,0.1,1.7,0.3
			c0.5,0.2,0.9,0.4,1.3,0.7L67.7,4z"/>
		<path class="st1" d="M77.1,8.8v1.5h-5.9V1.7H77v1.5h-4.2v2.1h3.6v1.3h-3.6v2.2H77.1z"/>
		<path class="st1" d="M78.8,10.3l3.4-8.5h1.3l3.3,8.5h-1.8l-0.8-2.1h-3l-0.8,2.1H78.8z M82.8,3.5L81.6,7H84L82.8,3.5z"/>
		<path class="st1" d="M89,10.3V1.7h3.8c0.4,0,0.8,0.1,1.1,0.2c0.3,0.2,0.6,0.4,0.9,0.6c0.2,0.3,0.4,0.6,0.6,0.9s0.2,0.7,0.2,1
			c0,0.6-0.1,1.1-0.4,1.5s-0.7,0.8-1.1,1l2,3.2h-1.9l-1.8-2.9h-1.6v2.9H89z M90.6,6h2.1c0.2,0,0.3,0,0.4-0.1s0.2-0.2,0.3-0.3
			c0.1-0.1,0.2-0.3,0.2-0.4c0.1-0.2,0.1-0.3,0.1-0.5c0-0.2,0-0.4-0.1-0.6c-0.1-0.2-0.1-0.3-0.3-0.4c-0.1-0.1-0.2-0.2-0.4-0.3
			c-0.1-0.1-0.3-0.1-0.4-0.1h-2V6z"/>
		<path class="st1" d="M97.8,5.9c0-0.5,0.1-1,0.3-1.5c0.2-0.5,0.5-1,0.8-1.4c0.3-0.4,0.8-0.7,1.3-1s1.1-0.4,1.7-0.4
			c0.8,0,1.4,0.2,2,0.5c0.6,0.3,1,0.8,1.2,1.3l-1.3,0.9c-0.1-0.2-0.2-0.4-0.4-0.6c-0.2-0.2-0.3-0.3-0.5-0.4
			c-0.2-0.1-0.4-0.2-0.6-0.2c-0.2,0-0.4-0.1-0.6-0.1c-0.4,0-0.7,0.1-1,0.3s-0.5,0.4-0.7,0.7c-0.2,0.3-0.3,0.6-0.4,0.9
			c-0.1,0.3-0.2,0.7-0.2,1c0,0.4,0.1,0.7,0.2,1.1c0.1,0.3,0.3,0.7,0.5,0.9c0.2,0.3,0.5,0.5,0.8,0.6c0.3,0.2,0.6,0.2,1,0.2
			c0.2,0,0.4,0,0.6-0.1c0.2,0,0.4-0.1,0.6-0.2c0.2-0.1,0.3-0.2,0.5-0.4c0.2-0.2,0.3-0.4,0.4-0.6l1.4,0.8c-0.1,0.3-0.3,0.6-0.6,0.8
			c-0.2,0.2-0.5,0.4-0.8,0.6c-0.3,0.2-0.6,0.3-1,0.4s-0.7,0.1-1,0.1c-0.6,0-1.1-0.1-1.6-0.4c-0.5-0.3-0.9-0.6-1.3-1
			c-0.4-0.4-0.6-0.9-0.8-1.4C97.9,7,97.8,6.5,97.8,5.9z"/>
		<path class="st1" d="M114.7,1.7v8.5H113V6.6h-3.9v3.6h-1.7V1.7h1.7v3.4h3.9V1.7H114.7z"/>
	</g>
	<g>
		<path class="st1" d="M164.8,10.3V1.7h3.1c0.7,0,1.3,0.1,1.8,0.3c0.5,0.2,1,0.5,1.3,0.9c0.4,0.4,0.6,0.8,0.8,1.4
			c0.2,0.5,0.3,1.1,0.3,1.6c0,0.6-0.1,1.2-0.3,1.8c-0.2,0.5-0.5,1-0.8,1.3s-0.8,0.7-1.3,0.9c-0.5,0.2-1.1,0.3-1.7,0.3H164.8z
			 M170.4,6c0-0.4-0.1-0.8-0.2-1.1c-0.1-0.3-0.3-0.6-0.5-0.9c-0.2-0.2-0.5-0.4-0.8-0.6c-0.3-0.1-0.7-0.2-1.1-0.2h-1.4v5.6h1.4
			c0.4,0,0.8-0.1,1.1-0.2c0.3-0.1,0.6-0.3,0.8-0.6s0.4-0.5,0.5-0.9C170.3,6.8,170.4,6.4,170.4,6z"/>
		<path class="st1" d="M180.5,8.8v1.5h-5.9V1.7h5.8v1.5h-4.2v2.1h3.6v1.3h-3.6v2.2H180.5z"/>
		<path class="st1" d="M188,4c-0.1-0.1-0.2-0.1-0.3-0.2c-0.1-0.1-0.3-0.2-0.5-0.3s-0.4-0.2-0.7-0.2c-0.2-0.1-0.5-0.1-0.8-0.1
			c-0.5,0-0.8,0.1-1,0.3c-0.2,0.2-0.3,0.4-0.3,0.7c0,0.2,0,0.3,0.1,0.4c0.1,0.1,0.2,0.2,0.4,0.3c0.2,0.1,0.4,0.2,0.6,0.2
			c0.2,0.1,0.5,0.1,0.8,0.2c0.4,0.1,0.8,0.2,1.1,0.4c0.3,0.1,0.6,0.3,0.9,0.5c0.2,0.2,0.4,0.4,0.5,0.7c0.1,0.3,0.2,0.6,0.2,1
			c0,0.5-0.1,0.8-0.3,1.2c-0.2,0.3-0.4,0.6-0.7,0.8c-0.3,0.2-0.6,0.3-1,0.4s-0.8,0.1-1.2,0.1c-0.6,0-1.3-0.1-1.9-0.3
			c-0.6-0.2-1.2-0.5-1.7-0.8l0.7-1.4c0.1,0.1,0.2,0.2,0.4,0.3c0.2,0.1,0.4,0.2,0.7,0.3c0.3,0.1,0.5,0.2,0.9,0.3
			c0.3,0.1,0.6,0.1,1,0.1c0.9,0,1.4-0.3,1.4-0.9c0-0.2-0.1-0.4-0.2-0.5s-0.3-0.2-0.4-0.3c-0.2-0.1-0.4-0.2-0.7-0.3
			c-0.3-0.1-0.6-0.2-0.9-0.3c-0.4-0.1-0.8-0.2-1.1-0.4c-0.3-0.1-0.5-0.3-0.8-0.5c-0.2-0.2-0.3-0.4-0.4-0.6c-0.1-0.2-0.2-0.5-0.2-0.9
			c0-0.4,0.1-0.8,0.2-1.2s0.4-0.6,0.7-0.8c0.3-0.2,0.6-0.4,1-0.5c0.4-0.1,0.8-0.2,1.2-0.2c0.6,0,1.2,0.1,1.7,0.3
			c0.5,0.2,0.9,0.4,1.3,0.7L188,4z"/>
		<path class="st1" d="M191.5,10.3V1.8h1.7v8.5H191.5z"/>
		<path class="st1" d="M201.8,9.3c-0.7,0.7-1.4,1-2.3,1c-0.5,0-1.1-0.1-1.5-0.4c-0.5-0.2-0.9-0.6-1.3-1c-0.4-0.4-0.6-0.9-0.8-1.4
			s-0.3-1.1-0.3-1.6c0-0.6,0.1-1.1,0.3-1.7s0.5-1,0.9-1.4c0.4-0.4,0.8-0.7,1.3-0.9c0.5-0.2,1-0.3,1.6-0.3c0.8,0,1.4,0.2,2,0.5
			c0.6,0.3,1,0.8,1.2,1.4l-1.2,0.9c-0.2-0.4-0.5-0.7-0.9-1c-0.4-0.2-0.8-0.3-1.2-0.3c-0.4,0-0.7,0.1-1,0.2c-0.3,0.2-0.5,0.4-0.7,0.6
			c-0.2,0.3-0.4,0.6-0.5,0.9c-0.1,0.3-0.2,0.7-0.2,1.1c0,0.4,0.1,0.8,0.2,1.1c0.1,0.3,0.3,0.6,0.5,0.9c0.2,0.3,0.5,0.5,0.8,0.6
			s0.6,0.2,1,0.2c0.8,0,1.5-0.4,2.1-1.2V7.1h-1.7V5.9h3.1v4.4h-1.4V9.3z"/>
		<path class="st1" d="M207.5,4.8v5.5h-1.7V1.7h1.3l4.4,5.6V1.8h1.7v8.5h-1.3L207.5,4.8z"/>
	</g>
	<g>
		<path class="st1" d="M284.1,8.1c0,0.4-0.1,0.7-0.2,0.9c-0.1,0.3-0.3,0.5-0.6,0.7c-0.3,0.2-0.5,0.3-0.9,0.4
			c-0.3,0.1-0.7,0.1-1.1,0.1h-4.1V1.7h4.6c0.3,0,0.6,0.1,0.8,0.2s0.4,0.3,0.6,0.5s0.3,0.4,0.4,0.7s0.1,0.5,0.1,0.8
			c0,0.4-0.1,0.8-0.3,1.2s-0.5,0.6-0.9,0.8c0.5,0.1,0.9,0.4,1.2,0.8S284.1,7.5,284.1,8.1z M278.9,3.2v2.1h2.2c0.3,0,0.5-0.1,0.7-0.3
			c0.2-0.2,0.3-0.5,0.3-0.8c0-0.3-0.1-0.6-0.3-0.8c-0.2-0.2-0.4-0.3-0.7-0.3H278.9z M282.4,7.8c0-0.2,0-0.3-0.1-0.4
			c-0.1-0.1-0.1-0.3-0.2-0.4c-0.1-0.1-0.2-0.2-0.3-0.2c-0.1-0.1-0.3-0.1-0.4-0.1h-2.5v2.2h2.5c0.2,0,0.3,0,0.4-0.1
			c0.1-0.1,0.2-0.1,0.3-0.2c0.1-0.1,0.2-0.2,0.2-0.4C282.4,8,282.4,7.9,282.4,7.8z"/>
		<path class="st1" d="M290.2,8.9c0.4,0,0.7-0.1,1-0.2c0.3-0.2,0.5-0.4,0.6-0.6c0.2-0.3,0.3-0.6,0.3-0.9c0.1-0.3,0.1-0.7,0.1-1V1.7
			h1.6v4.3c0,0.6-0.1,1.1-0.2,1.6c-0.1,0.5-0.4,1-0.7,1.3c-0.3,0.4-0.7,0.7-1.2,0.9c-0.5,0.2-1,0.3-1.7,0.3c-0.7,0-1.3-0.1-1.7-0.4
			s-0.9-0.5-1.2-0.9c-0.3-0.4-0.5-0.8-0.6-1.3s-0.2-1-0.2-1.6V1.7h1.7v4.3c0,0.4,0,0.7,0.1,1c0.1,0.3,0.2,0.6,0.3,0.9
			c0.2,0.3,0.4,0.5,0.6,0.6C289.5,8.8,289.8,8.9,290.2,8.9z"/>
		<path class="st1" d="M296.8,10.3V1.8h1.7v8.5H296.8z"/>
		<path class="st1" d="M301.4,10.3V1.7h1.7v7.1h4.3v1.5H301.4z"/>
		<path class="st1" d="M309.7,10.3V1.7h3.1c0.7,0,1.3,0.1,1.8,0.3c0.5,0.2,1,0.5,1.3,0.9c0.4,0.4,0.6,0.8,0.8,1.4
			c0.2,0.5,0.3,1.1,0.3,1.6c0,0.6-0.1,1.2-0.3,1.8c-0.2,0.5-0.5,1-0.8,1.3s-0.8,0.7-1.3,0.9c-0.5,0.2-1.1,0.3-1.7,0.3H309.7z
			 M315.3,6c0-0.4-0.1-0.8-0.2-1.1c-0.1-0.3-0.3-0.6-0.5-0.9c-0.2-0.2-0.5-0.4-0.8-0.6c-0.3-0.1-0.7-0.2-1.1-0.2h-1.4v5.6h1.4
			c0.4,0,0.8-0.1,1.1-0.2c0.3-0.1,0.6-0.3,0.8-0.6s0.4-0.5,0.5-0.9C315.2,6.8,315.3,6.4,315.3,6z"/>
	</g>
	<g>
		<path class="st1" d="M387.5,10.3V4.6l-2.2,4.2h-0.9l-2.2-4.2v5.6h-1.7V1.7h1.8l2.5,4.8l2.5-4.8h1.8v8.5H387.5z"/>
		<path class="st1" d="M391.3,10.3l3.4-8.5h1.3l3.3,8.5h-1.8l-0.8-2.1h-3l-0.8,2.1H391.3z M395.3,3.5L394.1,7h2.4L395.3,3.5z"/>
		<path class="st1" d="M401.4,10.3V1.8h1.7v8.5H401.4z"/>
		<path class="st1" d="M407.7,4.8v5.5h-1.7V1.7h1.3l4.4,5.6V1.8h1.7v8.5h-1.3L407.7,4.8z"/>
		<path class="st1" d="M422.8,3.2h-2.7v7.1h-1.7V3.2h-2.7V1.7h7.1V3.2z"/>
		<path class="st1" d="M423.4,10.3l3.4-8.5h1.3l3.3,8.5h-1.8l-0.8-2.1h-3l-0.8,2.1H423.4z M427.4,3.5L426.2,7h2.4L427.4,3.5z"/>
		<path class="st1" d="M433.6,10.3V1.8h1.7v8.5H433.6z"/>
		<path class="st1" d="M439.8,4.8v5.5h-1.7V1.7h1.3l4.4,5.6V1.8h1.7v8.5h-1.3L439.8,4.8z"/>
	</g>
	<g>
		<path class="st1" d="M166.3,148v-8.5h3.8c0.4,0,0.8,0.1,1.1,0.2c0.3,0.2,0.6,0.4,0.9,0.6c0.2,0.3,0.4,0.6,0.6,0.9s0.2,0.7,0.2,1
			c0,0.6-0.1,1.1-0.4,1.5s-0.7,0.8-1.1,1l2,3.2h-1.9l-1.8-2.9h-1.6v2.9H166.3z M167.9,143.7h2.1c0.2,0,0.3,0,0.4-0.1
			s0.2-0.2,0.3-0.3c0.1-0.1,0.2-0.3,0.2-0.4c0.1-0.2,0.1-0.3,0.1-0.5c0-0.2,0-0.4-0.1-0.6c-0.1-0.2-0.1-0.3-0.3-0.4
			c-0.1-0.1-0.2-0.2-0.4-0.3c-0.1-0.1-0.3-0.1-0.4-0.1h-2V143.7z"/>
		<path class="st1" d="M181.5,146.5v1.5h-5.9v-8.5h5.8v1.5h-4.2v2.1h3.6v1.3h-3.6v2.2H181.5z"/>
		<path class="st1" d="M184,148v-8.5h3.6c0.4,0,0.8,0.1,1.1,0.2c0.3,0.2,0.6,0.4,0.9,0.6c0.2,0.3,0.4,0.6,0.6,0.9s0.2,0.7,0.2,1
			c0,0.4-0.1,0.7-0.2,1.1s-0.3,0.6-0.5,0.9c-0.2,0.3-0.5,0.5-0.8,0.6s-0.7,0.2-1.1,0.2h-2v2.9H184z M185.7,143.7h1.9
			c0.3,0,0.6-0.1,0.8-0.4c0.2-0.2,0.3-0.6,0.3-1c0-0.2,0-0.4-0.1-0.6c-0.1-0.2-0.1-0.3-0.3-0.4c-0.1-0.1-0.2-0.2-0.4-0.3
			c-0.1-0.1-0.3-0.1-0.4-0.1h-1.8V143.7z"/>
		<path class="st1" d="M198.6,146.5v1.5h-5.9v-8.5h5.8v1.5h-4.2v2.1h3.6v1.3h-3.6v2.2H198.6z"/>
		<path class="st1" d="M200.2,148l3.4-8.5h1.3l3.3,8.5h-1.8l-0.8-2.1h-3L202,148H200.2z M204.3,141.2l-1.2,3.4h2.4L204.3,141.2z"/>
		<path class="st1" d="M216,140.9h-2.7v7.1h-1.7v-7.1h-2.7v-1.5h7.1V140.9z"/>
		<path class="st1" d="M228,140.9h-2.7v7.1h-1.7v-7.1h-2.7v-1.5h7.1V140.9z"/>
		<path class="st1" d="M237.4,139.5v8.5h-1.6v-3.6h-3.9v3.6h-1.7v-8.5h1.7v3.4h3.9v-3.4H237.4z"/>
		<path class="st1" d="M246.3,146.5v1.5h-5.9v-8.5h5.8v1.5h-4.2v2.1h3.6v1.3h-3.6v2.2H246.3z"/>
		<path class="st1" d="M252.9,148v-8.5h3.6c0.4,0,0.8,0.1,1.1,0.2c0.3,0.2,0.6,0.4,0.9,0.6c0.2,0.3,0.4,0.6,0.6,0.9s0.2,0.7,0.2,1
			c0,0.4-0.1,0.7-0.2,1.1s-0.3,0.6-0.5,0.9c-0.2,0.3-0.5,0.5-0.8,0.6s-0.7,0.2-1.1,0.2h-2v2.9H252.9z M254.6,143.7h1.9
			c0.3,0,0.6-0.1,0.8-0.4c0.2-0.2,0.3-0.6,0.3-1c0-0.2,0-0.4-0.1-0.6c-0.1-0.2-0.1-0.3-0.3-0.4c-0.1-0.1-0.2-0.2-0.4-0.3
			c-0.1-0.1-0.3-0.1-0.4-0.1h-1.8V143.7z"/>
		<path class="st1" d="M261.6,148v-8.5h3.8c0.4,0,0.8,0.1,1.1,0.2c0.3,0.2,0.6,0.4,0.9,0.6c0.2,0.3,0.4,0.6,0.6,0.9s0.2,0.7,0.2,1
			c0,0.6-0.1,1.1-0.4,1.5s-0.7,0.8-1.1,1l2,3.2h-1.9l-1.8-2.9h-1.6v2.9H261.6z M263.2,143.7h2.1c0.2,0,0.3,0,0.4-0.1
			s0.2-0.2,0.3-0.3c0.1-0.1,0.2-0.3,0.2-0.4c0.1-0.2,0.1-0.3,0.1-0.5c0-0.2,0-0.4-0.1-0.6c-0.1-0.2-0.1-0.3-0.3-0.4
			c-0.1-0.1-0.2-0.2-0.4-0.3c-0.1-0.1-0.3-0.1-0.4-0.1h-2V143.7z"/>
		<path class="st1" d="M274.3,148c-0.6,0-1.1-0.1-1.6-0.4s-0.9-0.6-1.3-1c-0.4-0.4-0.6-0.9-0.8-1.4c-0.2-0.5-0.3-1.1-0.3-1.6
			c0-0.6,0.1-1.1,0.3-1.6c0.2-0.5,0.5-1,0.9-1.4c0.4-0.4,0.8-0.7,1.3-1c0.5-0.2,1-0.4,1.6-0.4c0.6,0,1.1,0.1,1.6,0.4
			c0.5,0.3,0.9,0.6,1.3,1c0.4,0.4,0.6,0.9,0.8,1.4c0.2,0.5,0.3,1,0.3,1.6c0,0.6-0.1,1.1-0.3,1.6c-0.2,0.5-0.5,1-0.8,1.4
			c-0.4,0.4-0.8,0.7-1.3,0.9S274.9,148,274.3,148z M272,143.7c0,0.4,0.1,0.7,0.2,1.1c0.1,0.3,0.3,0.6,0.5,0.9
			c0.2,0.3,0.5,0.5,0.8,0.6c0.3,0.2,0.6,0.2,1,0.2c0.4,0,0.7-0.1,1-0.2c0.3-0.2,0.5-0.4,0.7-0.7c0.2-0.3,0.4-0.6,0.5-0.9
			c0.1-0.3,0.2-0.7,0.2-1c0-0.4-0.1-0.7-0.2-1.1c-0.1-0.3-0.3-0.6-0.5-0.9c-0.2-0.3-0.5-0.5-0.7-0.6s-0.6-0.2-1-0.2
			c-0.4,0-0.7,0.1-1,0.2c-0.3,0.2-0.5,0.4-0.7,0.6c-0.2,0.3-0.4,0.6-0.5,0.9C272,143,272,143.4,272,143.7z"/>
		<path class="st1" d="M280.4,143.7c0-0.5,0.1-1,0.3-1.5c0.2-0.5,0.5-1,0.8-1.4c0.3-0.4,0.8-0.7,1.3-1s1.1-0.4,1.7-0.4
			c0.8,0,1.4,0.2,2,0.5c0.6,0.3,1,0.8,1.2,1.3l-1.3,0.9c-0.1-0.2-0.2-0.4-0.4-0.6c-0.2-0.2-0.3-0.3-0.5-0.4
			c-0.2-0.1-0.4-0.2-0.6-0.2c-0.2,0-0.4-0.1-0.6-0.1c-0.4,0-0.7,0.1-1,0.3s-0.5,0.4-0.7,0.7c-0.2,0.3-0.3,0.6-0.4,0.9
			c-0.1,0.3-0.2,0.7-0.2,1c0,0.4,0.1,0.7,0.2,1.1c0.1,0.3,0.3,0.7,0.5,0.9c0.2,0.3,0.5,0.5,0.8,0.6c0.3,0.2,0.6,0.2,1,0.2
			c0.2,0,0.4,0,0.6-0.1c0.2,0,0.4-0.1,0.6-0.2c0.2-0.1,0.3-0.2,0.5-0.4c0.2-0.2,0.3-0.4,0.4-0.6l1.4,0.8c-0.1,0.3-0.3,0.6-0.6,0.8
			c-0.2,0.2-0.5,0.4-0.8,0.6c-0.3,0.2-0.6,0.3-1,0.4s-0.7,0.1-1,0.1c-0.6,0-1.1-0.1-1.6-0.4c-0.5-0.3-0.9-0.6-1.3-1
			c-0.4-0.4-0.6-0.9-0.8-1.4C280.5,144.7,280.4,144.2,280.4,143.7z"/>
		<path class="st1" d="M296,146.5v1.5h-5.9v-8.5h5.8v1.5h-4.2v2.1h3.6v1.3h-3.6v2.2H296z"/>
		<path class="st1" d="M303.5,141.7c-0.1-0.1-0.2-0.1-0.3-0.2c-0.1-0.1-0.3-0.2-0.5-0.3s-0.4-0.2-0.7-0.2c-0.2-0.1-0.5-0.1-0.8-0.1
			c-0.5,0-0.8,0.1-1,0.3c-0.2,0.2-0.3,0.4-0.3,0.7c0,0.2,0,0.3,0.1,0.4c0.1,0.1,0.2,0.2,0.4,0.3c0.2,0.1,0.4,0.2,0.6,0.2
			c0.2,0.1,0.5,0.1,0.8,0.2c0.4,0.1,0.8,0.2,1.1,0.4c0.3,0.1,0.6,0.3,0.9,0.5c0.2,0.2,0.4,0.4,0.5,0.7c0.1,0.3,0.2,0.6,0.2,1
			c0,0.5-0.1,0.8-0.3,1.2c-0.2,0.3-0.4,0.6-0.7,0.8c-0.3,0.2-0.6,0.3-1,0.4s-0.8,0.1-1.2,0.1c-0.6,0-1.3-0.1-1.9-0.3
			c-0.6-0.2-1.2-0.5-1.7-0.8l0.7-1.4c0.1,0.1,0.2,0.2,0.4,0.3c0.2,0.1,0.4,0.2,0.7,0.3c0.3,0.1,0.5,0.2,0.9,0.3
			c0.3,0.1,0.6,0.1,1,0.1c0.9,0,1.4-0.3,1.4-0.9c0-0.2-0.1-0.4-0.2-0.5s-0.3-0.2-0.4-0.3c-0.2-0.1-0.4-0.2-0.7-0.3
			c-0.3-0.1-0.6-0.2-0.9-0.3c-0.4-0.1-0.8-0.2-1.1-0.4c-0.3-0.1-0.5-0.3-0.8-0.5c-0.2-0.2-0.3-0.4-0.4-0.6c-0.1-0.2-0.2-0.5-0.2-0.9
			c0-0.4,0.1-0.8,0.2-1.2s0.4-0.6,0.7-0.8c0.3-0.2,0.6-0.4,1-0.5c0.4-0.1,0.8-0.2,1.2-0.2c0.6,0,1.2,0.1,1.7,0.3
			c0.5,0.2,0.9,0.4,1.3,0.7L303.5,141.7z"/>
		<path class="st1" d="M312.1,141.7c-0.1-0.1-0.2-0.1-0.3-0.2c-0.1-0.1-0.3-0.2-0.5-0.3s-0.4-0.2-0.7-0.2c-0.2-0.1-0.5-0.1-0.8-0.1
			c-0.5,0-0.8,0.1-1,0.3c-0.2,0.2-0.3,0.4-0.3,0.7c0,0.2,0,0.3,0.1,0.4c0.1,0.1,0.2,0.2,0.4,0.3c0.2,0.1,0.4,0.2,0.6,0.2
			c0.2,0.1,0.5,0.1,0.8,0.2c0.4,0.1,0.8,0.2,1.1,0.4c0.3,0.1,0.6,0.3,0.9,0.5c0.2,0.2,0.4,0.4,0.5,0.7c0.1,0.3,0.2,0.6,0.2,1
			c0,0.5-0.1,0.8-0.3,1.2c-0.2,0.3-0.4,0.6-0.7,0.8c-0.3,0.2-0.6,0.3-1,0.4s-0.8,0.1-1.2,0.1c-0.6,0-1.3-0.1-1.9-0.3
			c-0.6-0.2-1.2-0.5-1.7-0.8l0.7-1.4c0.1,0.1,0.2,0.2,0.4,0.3c0.2,0.1,0.4,0.2,0.7,0.3c0.3,0.1,0.5,0.2,0.9,0.3
			c0.3,0.1,0.6,0.1,1,0.1c0.9,0,1.4-0.3,1.4-0.9c0-0.2-0.1-0.4-0.2-0.5s-0.3-0.2-0.4-0.3c-0.2-0.1-0.4-0.2-0.7-0.3
			c-0.3-0.1-0.6-0.2-0.9-0.3c-0.4-0.1-0.8-0.2-1.1-0.4c-0.3-0.1-0.5-0.3-0.8-0.5c-0.2-0.2-0.3-0.4-0.4-0.6c-0.1-0.2-0.2-0.5-0.2-0.9
			c0-0.4,0.1-0.8,0.2-1.2s0.4-0.6,0.7-0.8c0.3-0.2,0.6-0.4,1-0.5c0.4-0.1,0.8-0.2,1.2-0.2c0.6,0,1.2,0.1,1.7,0.3
			c0.5,0.2,0.9,0.4,1.3,0.7L312.1,141.7z"/>
	</g>
	<path class="st6" d="M11,71.2H2.6C2.6,46.2,20.5,26,42.4,26h73v8.4h-73C25.1,34.3,11,50.9,11,71.2z"/>
	<g>
		<path class="st8" d="M475.2,74.2l-8.4-0.5c0-0.8,0.1-1.7,0.1-2.6h8.4C475.3,72.2,475.3,73.2,475.2,74.2z"/>
		<path class="st8" d="M435.5,116.3h-2.1V108h2.1c1,0,2-0.1,3-0.2l0.9,8.3C438.1,116.3,436.8,116.3,435.5,116.3z M431.5,116.3H426
			V108h5.6V116.3z M424.1,116.3h-5.6V108h5.6V116.3z M416.7,116.3h-5.6V108h5.6V116.3z M409.2,116.3h-5.6V108h5.6V116.3z
			 M401.8,116.3h-5.6V108h5.6V116.3z M394.3,116.3h-5.6V108h5.6V116.3z M386.9,116.3h-5.6V108h5.6V116.3z M379.4,116.3h-5.6V108h5.6
			V116.3z M372,116.3h-5.6V108h5.6V116.3z M364.6,116.3H359V108h5.6V116.3z M357.1,116.3h-5.6V108h5.6V116.3z M349.7,116.3h-5.6V108
			h5.6V116.3z M342.2,116.3h-5.6V108h5.6V116.3z M334.8,116.3h-5.6V108h5.6V116.3z M327.4,116.3h-5.6V108h5.6V116.3z M319.9,116.3
			h-5.6V108h5.6V116.3z M312.5,116.3h-5.6V108h5.6V116.3z M305,116.3h-5.6V108h5.6V116.3z M297.6,116.3H292V108h5.6V116.3z
			 M290.1,116.3h-5.6V108h5.6V116.3z M282.7,116.3h-5.6V108h5.6V116.3z M275.3,116.3h-5.6V108h5.6V116.3z M267.8,116.3h-5.6V108h5.6
			V116.3z M260.4,116.3h-5.6V108h5.6V116.3z M252.9,116.3h-5.6V108h5.6V116.3z M245.5,116.3h-5.6V108h5.6V116.3z M238,116.3h-5.6
			V108h5.6V116.3z M230.6,116.3H225V108h5.6V116.3z M223.2,116.3h-5.6V108h5.6V116.3z M215.7,116.3h-5.6V108h5.6V116.3z
			 M208.3,116.3h-5.6V108h5.6V116.3z M200.8,116.3h-5.6V108h5.6V116.3z M193.4,116.3h-5.6V108h5.6V116.3z M186,116.3h-5.6V108h5.6
			V116.3z M178.5,116.3h-5.6V108h5.6V116.3z M171.1,116.3h-5.6V108h5.6V116.3z M163.6,116.3H158V108h5.6V116.3z M156.2,116.3h-5.6
			V108h5.6V116.3z M148.7,116.3h-5.6V108h5.6V116.3z M141.3,116.3h-5.6V108h5.6V116.3z M133.9,116.3h-5.6V108h5.6V116.3z
			 M126.4,116.3h-5.6V108h5.6V116.3z M119,116.3h-5.6V108h5.6V116.3z M111.5,116.3h-5.6V108h5.6V116.3z M104.1,116.3h-5.6V108h5.6
			V116.3z M96.6,116.3h-5.6V108h5.6V116.3z M89.2,116.3h-5.6V108h5.6V116.3z M81.8,116.3h-5.6V108h5.6V116.3z M74.3,116.3h-5.6V108
			h5.6V116.3z M66.9,116.3h-5.6V108h5.6V116.3z M59.4,116.3h-5.6V108h5.6V116.3z M52,116.3h-5.6V108H52V116.3z M44.5,116.3h-2.1
			c-1.3,0-2.6-0.1-3.9-0.2l0.9-8.3c1,0.1,2,0.2,3,0.2h2.1V116.3z M36.4,115.8c-2.1-0.4-4.1-0.9-6.1-1.6l2.9-7.9
			c1.5,0.5,3.1,1,4.7,1.2L36.4,115.8z M441.5,115.8l-1.4-8.3c1.6-0.3,3.2-0.7,4.7-1.2l2.9,7.9C445.7,114.9,443.6,115.5,441.5,115.8z
			 M28.4,113.5c-1.9-0.8-3.8-1.8-5.5-2.9l4.5-7.1c1.4,0.9,2.8,1.7,4.3,2.3L28.4,113.5z M449.6,113.4l-3.3-7.7
			c1.5-0.6,2.9-1.4,4.3-2.3l4.5,7.1C453.3,111.6,451.5,112.6,449.6,113.4z M21.1,109.3c-1.7-1.2-3.3-2.5-4.8-4l5.9-6
			c1.2,1.2,2.5,2.2,3.8,3.2L21.1,109.3z M456.8,109.3l-4.9-6.8c1.3-1,2.6-2,3.8-3.2l5.9,6C460.1,106.7,458.5,108.1,456.8,109.3z
			 M14.9,103.9c-1.4-1.5-2.7-3.1-3.8-4.8l6.9-4.8c1,1.4,2,2.7,3.1,3.9L14.9,103.9z M463,103.8l-6.2-5.7c1.1-1.2,2.2-2.5,3.1-3.9
			l6.9,4.8C465.7,100.7,464.4,102.3,463,103.8z M9.9,97.3c-1.1-1.7-2.1-3.5-2.9-5.4l7.6-3.5c0.7,1.5,1.5,3,2.4,4.4L9.9,97.3z
			 M468,97.3l-7.1-4.4c0.9-1.4,1.7-2.9,2.4-4.4l7.6,3.5C470,93.7,469.1,95.5,468,97.3z M6.2,90.1c-0.8-1.9-1.4-3.8-1.9-5.8l8.1-2.2
			c0.4,1.6,1,3.2,1.6,4.8L6.2,90.1z M471.7,90l-7.8-3.1c0.6-1.6,1.2-3.2,1.6-4.8l8.1,2.1C473.1,86.2,472.4,88.1,471.7,90z M3.8,82.3
			c-0.4-2-0.8-4-1-6l8.3-0.8c0.2,1.7,0.4,3.4,0.8,5L3.8,82.3z M474.1,82.2l-8.2-1.8c0.4-1.6,0.6-3.3,0.8-5l8.4,0.8
			C474.9,78.2,474.5,80.3,474.1,82.2z"/>
		<path class="st8" d="M2.7,74.2c-0.1-1-0.1-2-0.1-3H11c0,0.9,0,1.7,0.1,2.6L2.7,74.2z"/>
	</g>
	<path class="st2" d="M475.3,71.2h-8.4c0-20.3-14.1-36.8-31.4-36.8H331.7V26h104.7v0C457.9,26.5,475.3,46.6,475.3,71.2z"/>
	<rect x="217.6" y="26" class="st3" width="115.3" height="8.4"/>
	<rect x="115.5" y="26" class="st5" width="102.1" height="8.4"/>
</g>
</svg>
