<?xml version="1.0" encoding="utf-8"?>
<!-- Generator: Adobe Illustrator 24.3.0, SVG Export Plug-In . SVG Version: 6.00 Build 0)  -->
<svg version="1.1" id="Layer_1" xmlns="http://www.w3.org/2000/svg" xmlns:xlink="http://www.w3.org/1999/xlink" x="0px" y="0px"
	 viewBox="0 0 59.6 59.2" style="enable-background:new 0 0 59.6 59.2;" xml:space="preserve">
<style type="text/css">
	.st0{fill:#F5F5F5;}
	.st1{fill:#575756;}
	.st2{fill:#AD1820;}
	.st3{fill:#E5332A;}
	.st4{fill:#F6A723;}
	.st5{fill:#E84E1B;}
	.st6{fill:#FAA634;}
	.st7{fill:none;stroke:#9C9B9B;stroke-width:3;stroke-miterlimit:10;}
	.st8{fill:#9C9B9B;}
	.st9{fill:#1D1D1B;}
	.st10{clip-path:url(#SVGID_2_);}
	.st11{clip-path:url(#SVGID_4_);}
	.st12{clip-path:url(#SVGID_6_);}
	.st13{fill:none;stroke:#AD1820;stroke-width:2.7971;stroke-miterlimit:10;}
	.st14{fill:#FFFFFF;}
	.st15{fill:#C6C6C5;}
	.st16{fill:#868686;}
	.st17{fill:#3C3C3B;}
	.st18{opacity:0.52;fill:#AD1820;}
	.st19{fill:none;stroke:#AD1820;stroke-width:4.3435;stroke-miterlimit:10;}
	.st20{fill:none;stroke:#E5332A;stroke-width:4.3435;stroke-miterlimit:10;}
	.st21{fill:#B1B1B1;}
	.st22{fill:#DD4D02;}
	.st23{fill:#A4A4A4;}
	.st24{fill:#E94D00;}
	.st25{clip-path:url(#SVGID_8_);fill:#E74E1B;}
	.st26{clip-path:url(#SVGID_8_);}
	.st27{fill:#AC1820;}
	.st28{fill:#F19000;}
	.st29{opacity:0.52;fill:#AC1820;}
	.st30{fill:#E4332A;}
</style>
<g>
	<path class="st23" d="M0.9,35.3c0.4,0,0.8-0.3,0.8-0.8v-9.2h12.2c0.4,0,0.8-0.3,0.8-0.8s-0.3-0.8-0.8-0.8H1.6v-2.2
		c0-0.4-0.3-0.8-0.8-0.8s-0.8,0.3-0.8,0.8v12.9C0.1,35,0.4,35.3,0.9,35.3z"/>
	<path class="st23" d="M58.9,20.9c-0.4,0-0.8,0.3-0.8,0.8v2.2H45.9c-0.4,0-0.8,0.3-0.8,0.8s0.3,0.8,0.8,0.8h12.2v33.1
		c0,0.4,0.3,0.8,0.8,0.8s0.8-0.3,0.8-0.8V21.6C59.6,21.2,59.3,20.9,58.9,20.9z"/>
	<path class="st23" d="M51.8,57.7H8c-0.4,0-0.8,0.3-0.8,0.8s0.3,0.8,0.8,0.8h43.8c0.4,0,0.8-0.3,0.8-0.8S52.2,57.7,51.8,57.7z"/>
	<path class="st23" d="M12.2,54.5c0,0.4,0.3,0.8,0.8,0.8H23h13.7h10.1c0.4,0,0.8-0.3,0.8-0.8s-0.3-0.8-0.8-0.8h-9.3V43.3h1.4
		c0.4,0,0.8-0.3,0.8-0.8s-0.3-0.8-0.8-0.8h-2.1H23h-2.1c-0.4,0-0.8,0.3-0.8,0.8s0.3,0.8,0.8,0.8h1.4v10.5h-9.3
		C12.5,53.8,12.2,54.1,12.2,54.5z M36,53.8h-5.4V43.3H36V53.8z M23.7,43.3h5.4v10.5h-5.4V43.3z"/>
	<path class="st23" d="M14.6,18.8l15.3-9.1l15.3,9.1c0.1,0.1,0.3,0.1,0.4,0.1c0.3,0,0.5-0.1,0.6-0.4c0.2-0.4,0.1-0.8-0.3-1L30.6,8.4
		V1.5H36V4h-3.4c-0.4,0-0.8,0.3-0.8,0.8s0.3,0.8,0.8,0.8h4.2c0.4,0,0.8-0.3,0.8-0.8v-4c0-0.4-0.3-0.8-0.8-0.8h-6.9
		c-0.4,0-0.8,0.3-0.8,0.8v7.6l-15.3,9.1c-0.4,0.2-0.5,0.7-0.3,1C13.8,18.9,14.2,19,14.6,18.8z"/>
	<path class="st23" d="M23,25.4h3.8c0.4,0,0.8-0.3,0.8-0.8v-6c0-0.4-0.3-0.8-0.8-0.8H23c-0.4,0-0.8,0.3-0.8,0.8v6
		C22.2,25,22.6,25.4,23,25.4z M23.7,19.4H26v4.5h-2.3V19.4z"/>
	<path class="st23" d="M32.9,25.4h3.8c0.4,0,0.8-0.3,0.8-0.8v-6c0-0.4-0.3-0.8-0.8-0.8h-3.8c-0.4,0-0.8,0.3-0.8,0.8v6
		C32.2,25,32.5,25.4,32.9,25.4z M33.7,19.4H36v4.5h-2.3V19.4z"/>
	<path class="st23" d="M22.2,36.6c0,0.4,0.3,0.8,0.8,0.8h3.8c0.4,0,0.8-0.3,0.8-0.8v-6c0-0.4-0.3-0.8-0.8-0.8H23
		c-0.4,0-0.8,0.3-0.8,0.8V36.6z M23.7,31.3H26v4.5h-2.3V31.3z"/>
	<path class="st23" d="M32.2,36.6c0,0.4,0.3,0.8,0.8,0.8h3.8c0.4,0,0.8-0.3,0.8-0.8v-6c0-0.4-0.3-0.8-0.8-0.8h-3.8
		c-0.4,0-0.8,0.3-0.8,0.8V36.6z M33.7,31.3H36v4.5h-2.3V31.3z"/>
	<path class="st23" d="M52.7,29.8h-3.8c-0.4,0-0.8,0.3-0.8,0.8v6c0,0.4,0.3,0.8,0.8,0.8h3.8c0.4,0,0.8-0.3,0.8-0.8v-6
		C53.5,30.2,53.2,29.8,52.7,29.8z M52,35.8h-2.3v-4.5H52V35.8z"/>
	<path class="st23" d="M52.7,41.8h-3.8c-0.4,0-0.8,0.3-0.8,0.8v6c0,0.4,0.3,0.8,0.8,0.8h3.8c0.4,0,0.8-0.3,0.8-0.8v-6
		C53.5,42.1,53.2,41.8,52.7,41.8z M52,47.7h-2.3v-4.5H52V47.7z"/>
	<path class="st23" d="M17.7,50.5V21.6c0-0.4-0.3-0.8-0.8-0.8s-0.8,0.3-0.8,0.8v28.9c0,0.4,0.3,0.8,0.8,0.8S17.7,50.9,17.7,50.5z"/>
	<path class="st23" d="M43.5,50.5V21.6c0-0.4-0.3-0.8-0.8-0.8S42,21.2,42,21.6v28.9c0,0.4,0.3,0.8,0.8,0.8S43.5,50.9,43.5,50.5z"/>
	<path class="st23" d="M10.8,37.3c0.4,0,0.8-0.3,0.8-0.8v-6c0-0.4-0.3-0.8-0.8-0.8H7c-0.4,0-0.8,0.3-0.8,0.8v3
		c0,0.4,0.3,0.8,0.8,0.8s0.8-0.3,0.8-0.8v-2.2h2.3v5.2C10.1,37,10.4,37.3,10.8,37.3z"/>
	<path class="st23" d="M9.9,47.9c0-1.2-0.1-11.7-5-11.7S0,46.7,0,47.9c0,2.4,1.7,5.2,4,5.4c0,0,0.1,0,0.2,0v5.1
		c0,0.4,0.3,0.8,0.8,0.8s0.8-0.3,0.8-0.8v-5.1c0.1,0,0.1,0,0.2,0C8.3,53.1,9.9,50.3,9.9,47.9z M4.2,51.9c-1.5-0.2-2.7-2.2-2.7-3.9
		c0-3.3,0.9-10.2,3.5-10.2s3.5,6.9,3.5,10.2c0,1.7-1.2,3.8-2.7,3.9C5.3,51.9,4.6,51.9,4.2,51.9z"/>
</g>
</svg>
