<svg id="Layer_1" data-name="Layer 1" xmlns="http://www.w3.org/2000/svg" viewBox="0 0 2500 2500"><defs><style>.cls-1,.cls-3,.cls-4,.cls-5,.cls-7,.cls-8{fill:#fff;}.cls-1{fill-opacity:0;}.cls-1,.cls-2,.cls-3,.cls-4,.cls-5,.cls-7,.cls-8{fill-rule:evenodd;}.cls-3,.cls-4,.cls-6{stroke:#2d67a0;}.cls-10,.cls-3,.cls-4,.cls-6,.cls-7,.cls-8,.cls-9{stroke-miterlimit:33.89;}.cls-3,.cls-8,.cls-9{stroke-width:0.01px;}.cls-4,.cls-6{stroke-width:0.1px;}.cls-10,.cls-6,.cls-9{fill:none;}.cls-10,.cls-7{stroke:#000;}.cls-7{stroke-width:3.63px;}.cls-8,.cls-9{stroke:#fff;}.cls-10{stroke-width:11.15px;}</style></defs><path class="cls-1" d="M0,0H2500V2500H0Z"/><path class="cls-2" d="M1475.49,1442.73c143.6-50.39,194-113.36,231.78-161.24,60.47-68,95.76-181.41,95.76-292.26l-5-65.51-7.55-73.06-10.08-68-10.08-65.51c-2.53-20.16-5-42.83-2.53-63-2.5-57.95,12.62-113.38,63-151.16l-25.2-32.75c22.67-20.15,32.75-40.31,20.16-45.35,7.55-5,95.73-105.81,12.6-60.47,17.65-10.08,30.24-40.31,35.29-60.46-32.75,5-45.37,10.07-78.12,20.15l-78.09,30.23-52.89-70.54-22.7-30.23c-5,7.56-10,12.59-15.09,17.62-30.25,27.72-75.59,27.72-115.9,22.69l-75.59-12.59-60.46-7.57c-55.42-10.06-121-12.59-178.88-7.56l-70.55,7.56-85.65,15.13c-52.91,7.56-126,17.62-158.72-37.8L797.82,356.86c-10.08-2.51-25.2-7.56-42.82-10.07-2.53,10.07,7.56,27.71,20.15,42.82l-12.66,17.64L692,500.48c65.51,47.87,65.51,131,57.95,204.06L729.74,828l-7.56,65.51c-5,37.8-7.56,78.11-5,118.42,5,206.59,128.49,362.8,320,428.31l40.31,15.12c63,27.72,126,52.89,178.88,105.81,2.53-2.53,5-2.53,5-5,63-58,138.58-85.68,214.17-113.4Z"/><path class="cls-3" d="M986.71,304l25.2-5,113.37-17.63,75.59-7.57c73.05-7.56,148.63,2.52,216.69,12.61L1518.33,304c42.84,2.51,88.18,0,118.4-30.24l5-7.56,68,90.7c-10.08,2.52-25.2,7.56-35.29,12.59H1672l-35.29-47.87c-35.26,20.16-75.56,22.69-118.4,20.16l-58-10.08-73.06-12.59-78.09-7.57c-45.34-5-93.23-2.51-138.57,2.52l-63,10.08L999.33,339.21C959,341.73,918.71,336.7,886,319.06L845.63,372c-12.6-2.51-25.19-7.56-37.8-12.6l73.06-95.73C906.09,298.91,946.4,301.43,986.71,304Z"/><path class="cls-4" d="M1866,311.51c-17.63,40.31-32.75,52.9-57.94,60.46l-110.85,35.28c-17.65,5.05-35.29,17.63-55.45,25.19-75.56-27.72-133.52-5.05-158.72,2.51-35.26,12.6-63,30.24-93.2,52.91a13.89,13.89,0,0,0-12.62-7.56c5,5,10.08,17.64,12.62,22.68,2.5,0,15.1-7.56,25.17,0,10.08,10.08-2.5,20.16-7.54,30.23,12.59-10.07,22.67-15.12,35.26-10.07,12.59,10.07-5,25.2-10.08,32.74,10.08,0,20.17-10.07,32.75-2.51,5,10.08-7.55,15.12-17.62,20.15,10.07,0,22.67,5.05,30.24,12.6-12.62,7.56-27.74,0-42.84-2.52-27.71-7.56-35.29-17.64-63-25.19-7.55-2.51-20.14-5-27.72-2.51-5-2.52-12.59-2.52-17.62-2.52,40.29-12.59,30.24-60.46,47.87-90.7,20.14-35.27,60.46-42.82,95.73-47.87,47.87-7.56,98.26-5,141.1-17.64l37.79-10.07,60.46-22.69,85.66-30.23C1818.15,326.63,1840.82,316.55,1866,311.51Z"/><path class="cls-4" d="M1868.53,359.37c-7.58,15.12-30.25,47.87-47.87,57.95-30.22,17.63-68,25.2-105.81,30.23-25.2,5-30.25,0-55.42-2.52l-15.12-2.51c57.93-30.24,108.35-42.84,173.84-60.47,32.73-12.59,37.8-17.64,50.38-22.68Zm-612.23,58c-15.12,2.51-30.23,0-40.31,20.15-5-2.51,0-12.6,5-15.12C1231.1,414.8,1246.21,412.3,1256.3,417.33ZM1820.66,440c-2.51,7.56-12.6,22.68-20.17,30.24-12.59,10.08-17.63,15.13-52.89,22.68-27.72,2.51-78.09,7.56-83.14-2.52,37.77-15.12,37.77-27.72,45.34-32.75,30.22-2.52,60.47-7.56,108.35-25.19C1823.19,429.92,1825.7,435,1820.66,440Zm-206.61-5c17.65,5,30.24,10.07,22.67,12.59-63,12.59-98.23,20.16-206.58,63,2.5-2.51-5.05-12.59-7.55-15.11s-17.65-5-22.7-5c75.59-40.31,108.35-63,191.49-60.47C1596.42,429.92,1606.5,432.44,1614.05,435Z"/><path class="cls-4" d="M1289.05,419.84c-15.12-5-30.22,0-40.31,2.52S1226.07,432.44,1221,440c17.63,5,37.8,2.53,55.43,5,10.08,2.52,17.62,12.6,27.71,7.56,7.55-7.56,7.55-10.07,7.55-15.12C1309.21,435,1304.17,424.88,1289.05,419.84ZM1321.8,445c0,2.52,0,5-2.5,7.57-2.53,0-2.53,5-10.08,2.51a13.84,13.84,0,0,1,7.55-12.59C1319.3,442.53,1321.8,442.53,1321.8,445Zm367.84,17.63c0,7.56-20.15,12.59-22.68,17.64-25.2,12.59-27.71,20.15-55.41,25.19L1536,525.65c-20.17,5.05-47.87,12.6-80.64,17.63,7.58-12.6,10.08-22.67-2.5-30.23l133.52-42.83c42.83-12.58,78.12-22.66,103.3-7.55Z"/><path class="cls-5" d="M1281.5,452.59c7.55,2.52,22.67,17.64,27.72,27.72,2.5,5,0,12.59-5,15.12s-7.54,7.56-10.07,10.08c2.53-5,0-7.56-2.51-10.08s-7.57-7.56-10.07-12.59c-15.13,0-42.84,0-42.84-12.6,2.51-2.51,22.67,0,27.71,0,7.55,0,15.13,0,22.67,5h-5c2.53,5,7.57,7.56,12.62,5,2.5,0,2.5-5,2.5-7.56-2.5-5-10.08-5-17.63-7.56h-47.87c-5-2.52-15.12-15.12-20.17-17.64,0-2.52,2.52-2.52,5-2.52C1236.15,450.08,1261.34,450.08,1281.5,452.59Z"/><path class="cls-6" d="M1281.5,452.59c7.55,2.52,22.67,17.64,27.72,27.72,2.5,5,0,12.59-5,15.12s-7.54,7.56-10.07,10.08c2.53-5,0-7.56-2.51-10.08s-7.57-7.56-10.07-12.59c-15.13,0-42.84,0-42.84-12.6,2.51-2.51,22.67,0,27.71,0,7.55,0,15.13,0,22.67,5h-5c2.53,5,7.57,7.56,12.62,5,2.5,0,2.5-5,2.5-7.56-2.5-5-10.08-5-17.63-7.56h-47.87c-5-2.52-15.12-15.12-20.17-17.64,0-2.52,2.52-2.52,5-2.52C1236.15,450.08,1261.34,450.08,1281.5,452.59Z"/><path class="cls-4" d="M1334.39,455.11c0,2.52,0,2.52,2.53,5,0,5.05-2.53,7.57-7.57,10.08-2.5,2.52-7.55,5-12.59,0-2.51,0-7.55-2.51-7.55-2.51,0-7.57,10.07-12.61,17.62-15.13C1329.35,452.59,1334.39,452.59,1334.39,455.11Zm-405.63,7.56c40.31,12.59,42.84,25.19,52.92,52.92l-70.54-5.05c-85.65-10.06-115.9-78.09-131-110.85,57.94,42.84,126,60.46,148.63,63Zm866.7,25.2c-20.15,27.72-40.3,42.84-68,50.39-15.12,2.51-27.71,10.08-45.34,0-32.75-20.16-47.87-32.75-30.24-37.8,57.94,12.61,118.41-2.51,143.6-12.59Z"/><path class="cls-5" d="M1326.85,477.79s2.5-2.51,5-2.51c2.5,7.56-7.55,10.07-12.59,12.59a5.42,5.42,0,0,1-5-5c0-5-5-7.56,0-10.08A19.2,19.2,0,0,0,1326.85,477.79Z"/><path class="cls-6" d="M1326.85,477.79l5-2.51c2.5,7.56-7.55,10.07-12.59,12.59a5.42,5.42,0,0,1-5-5c0-5-5-7.56,0-10.08A19.2,19.2,0,0,0,1326.85,477.79Z"/><path class="cls-4" d="M994.28,543.29l10.07,10.08H928.76c-22.67,0-60.46-27.72-73-42.84,35.27,10.08,65.51,12.61,75.58,12.61C956.49,525.66,976.64,520.62,994.28,543.29Zm88.18,10.09c-2.52,5,7.56,15.12-5,10.08-32.75,0-73.06-10.08-90.7-40.31,12.61,0,22.69,0,30.25,2.51,25.19,10.08,42.81,15.11,65.5,27.72Z"/><path class="cls-5" d="M1682.09,553.38c-5,12.59-17.63,12.59-27.72,15.12,0-2.53-2.53-7.56-12.62-7.56-7.55,0-12.59,2.52-17.62,2.52,2.52-2.52,5-10.08,2.52-15.12,0,0-2.52-2.52-5-2.52s-5,5-10.08,5c-10.08,5-25.2,7.56-35.29,20.16l-57.93,7.56c-12.6,0-37.8,0-47.88-7.56,0,0,15.13-7.56,7.58-20.16l103.28-25.19c63-20.15,52.91-15.12,75.58,10.08l25.22,17.64Z"/><path class="cls-6" d="M1682.09,553.38c-5,12.59-17.63,12.59-27.72,15.12,0-2.53-2.53-7.56-12.62-7.56-7.55,0-12.59,2.52-17.62,2.52,2.52-2.52,5-10.08,2.52-15.12l-5-2.52c-2.53,0-5,5-10.08,5-10.08,5-25.2,7.56-35.29,20.16l-57.93,7.56c-12.6,0-37.8,0-47.88-7.56,0,0,15.13-7.56,7.58-20.16l103.28-25.19c63-20.15,52.91-15.12,75.58,10.08l25.22,17.64Z"/><path class="cls-5" d="M1621.62,555.9c0,10.07-12.62,12.6-17.62,20.15l-5,5.05c5,0,10-2.52,15.1-7.56,7.57-2.52,35.29-7.57,35.29-2.52s-5,12.59-10.08,15.12c-15.12,7.56-35.26,17.64-55.42,12.6-12.59,0-22.67,5-32.75,7.56l-55.42,15.12c-20.16,5.05-42.84,10.08-63,2.52-30.22-5.05-60.47-12.61-93.23-12.61-5,2.52-10.08,5-12.59,7.56,5,0,10.08-2.51,12.59,0-2.5,10.08-2.5,22.67-10.08,30.23-2.5,0-2.5-2.51-2.5-5-5-25.19-17.62-60.47,10.08-80.62,12.59-2.52,27.72,2.51,40.3,7.56,22.67,15.12,52.91,17.64,80.63,27.72,10.08-2.52,22.67-5,32.75-7.57l80.63-10.07c12.59,2.51,15.1-15.13,27.72-17.63,7.55,0,12.59-5,20.14-10.08a2.45,2.45,0,0,1,2.5,2.51Z"/><path class="cls-6" d="M1621.62,555.9c0,10.07-12.62,12.6-17.62,20.15l-5,5.05c5,0,10-2.52,15.1-7.56,7.57-2.52,35.29-7.57,35.29-2.52s-5,12.59-10.08,15.12c-15.12,7.56-35.26,17.64-55.42,12.6-12.59,0-22.67,5-32.75,7.56l-55.42,15.12c-20.16,5.05-42.84,10.08-63,2.52-30.22-5.05-60.47-12.61-93.23-12.61-5,2.52-10.08,5-12.59,7.56,5,0,10.08-2.51,12.59,0-2.5,10.08-2.5,22.67-10.08,30.23,0,0-2.5-2.51-2.5-5-5-25.19-17.62-60.47,10.08-80.62,12.59-2.52,27.72,2.51,40.3,7.56,22.67,15.12,52.91,17.64,80.63,27.72,10.08-2.52,22.67-5,32.75-7.57l80.63-10.07c12.59,2.51,15.1-15.13,27.72-17.63,7.55,0,12.59-5,20.14-10.08l2.5,2.51Z"/><path class="cls-4" d="M1750.11,535.74c-17.62,55.42-57.93,45.34-75.58,35.27,20.16-7.56,20.16-17.64,20.16-17.64,27.71,0,40.29-7.55,55.42-17.63Zm-682.78,40.31c-7.56,2.53-7.56,5.05-5,10.08,0,2.52,5,5,5,5-5,2.52-5,17.63-12.59,12.6-22.67-12.6-40.31-20.16-68-20.16-15.11-2.51-47.85-12.59-60.46-20.15C954,563.46,964,566,976.64,566a89.3,89.3,0,0,0,30.23-5C1029.54,563.46,1044.66,568.5,1067.33,576.05Z"/><path class="cls-4" d="M966.56,591.17c2.51-2.51,12.59-5,22.68-2.51,17.63,2.51,27.72,5,42.83,15.12,25.19,7.56,47.87,27.72,75.59,35.28,2.51-2.53-2.52-5-5.05-5,17.64-12.59,35.28-25.2,55.42-32.74,12.61-15.13,30.23-30.24,50.39-27.72l2.52,5c2.51,12.6-10.08,22.68-10.08,37.8l-25.19,10.05-65.51,37.79c-17.64,15.13-25.19,0-42.83-12.59-20.15-10.08-40.31-20.16-57.95-37.79,0,0,5,0,2.52-2.52-7.56,0-15.12,5-25.2,7.56-2.52,0-10.08,2.52-12.59,0l2.51-2.51c5-2.52,5-10.08,15.13-12.6-7.57-7.56-20.16-10.08-27.72-10.08Zm730.65,5c-10.08,20.15-50.41,7.56-55.45,15.11-2.5,5,17.66,2.51,25.2,15.12-20.16,15.11-70.54-7.56-78.09,0-7.57,5,15.13,5,20.15,15.11-30.22,15.12-45.35,2.52-75.57-7.56-5-2.52-5,0-10.07-2.52,2.5,12.6,12.59,7.56,17.62,17.64-20.17,5-35.26-7.56-50.38-17.64,30.21-7.56,57.93-22.68,88.18-27.71,27.71,5,60.46-5,73.06-20.16,5-7.56,10.07-5,12.61-5,0,0,30.21,7.56,32.74,17.64ZM1447.78,639c15.12,0,25.2-5,37.79-7.56,7.55,5,2.5,20.16-5,20.16,2.51,7.56,10.08,17.62,7.55,27.71-5-2.51-27.71-12.59-27.71-12.59,5,10.08,12.62,25.19,10.07,35.26-7.54-7.56-25.17-7.56-32.74-12.59,2.52,12.59,12.59,30.23,0,42.84-10.08-7.56-15.1-17.64-25.18-27.72,2.5,12.61,5,32.75-2.53,42.84-5-7.56-30.22-15.12-27.71-22.68-2.51-2.52-10.08,25.2-17.63,27.72-7.55-10.08-15.12-25.21-27.72-32.75,2.51-2.52,7.55-2.52,7.55-7.57-7.55-10.07-17.62-10.07-27.71-17.63-12.6-5.05,2.52-12.6,2.52-12.6,17.63-7.56,20.15-27.71,22.68-45.35,7.54-15.11,27.71-10.07,42.83-10.07C1404.94,629,1427.61,634,1447.78,639Zm-262-2.51c0,5-5,7.56-7.56,12.6-5,12.6,0,25.19,12.59,32.75,5,5,10.08,7.56,15.12,12.6-17.64,12.59-27.71,35.26-30.24,40.31-5-7.57-7.56-20.16-7.56-30.24-5,5.05-15.13,10.08-20.17,10.08-2.52-5,5-17.64,5-22.68,0,0-17.64,0-22.68,2.51-2.52-10.07,5-15.12,10.08-20.15-2.52-5-20.16-2.52-22.69-5,17.64-10.07,45.36-25.18,63-32.75h5.09Z"/><path class="cls-5" d="M1296.63,699.51c-7.58-5-27.72-7.56-35.29-5-17.63,0-37.8-2.52-52.91,5H1211l-5,2.52c-5.05,5-2.53,5-7.57,10.07,0,2.52-12.59,17.63-10.07,20.16-2.52,5-5,10.08-5,12.59,5,7.56,10.08,5,15.11,7.56-5-5-5-7.56-5-10.07-2.51-7.56,10.08-25.19,15.12-32.75,2.52-2.52,5-5.05,7.57-5.05h2.51c-7.56,10.08-12.59,20.16-17.62,30.24,0,5,0,7.56,2.51,12.6,2.53,2.52,15.13,2.52,20.16,2.52-2.52-10.08,5-15.12,0-27.72,2.51,0,5,0,7.56,2.52,2.53,12.59-5,20.15,5,30.23,12.6,5,17.64-5,27.73-10.08,2.51-15.12,0-30.23-2.53-42.82,7.58,2.51,10.08,25.18,15.13,30.24,5,2.52,7.55,0,10.07-2.53,10.08-10.07,0-22.67-7.57-32.74,2.53,0,10.08,0,15.12,12.6,7.58,15.12,0,12.6,5.05,20.16,2.53-2.52,15.12-2.52,17.62-2.52,12.6-10.06,7.58-12.59,15.13-15.11C1321.8,707.06,1306.68,702,1296.63,699.51Z"/><path class="cls-6" d="M1296.63,699.51c-7.58-5-27.72-7.56-35.29-5-17.63,0-37.8-2.52-52.91,5H1211l-5,2.52c-5.05,5-2.53,5-7.57,10.07,0,2.52-12.59,17.63-10.07,20.16-2.52,5-5,10.08-5,12.59,5,7.56,10.08,5,15.11,7.56-5-5-5-7.56-5-10.07-2.51-7.56,10.08-25.19,15.12-32.75,2.52-2.52,7.57-5.05,7.57-5.05h2.51c-7.56,10.08-12.59,20.16-17.62,30.24,0,5,0,7.56,2.51,12.6,2.53,2.52,15.13,2.52,20.16,2.52-2.52-10.08,5-15.12,0-27.72,2.51,0,5,0,7.56,2.52,2.53,12.59-5,20.15,5,30.23,12.6,5,17.64-5,27.73-10.08,2.51-15.12,0-30.23-2.53-42.82,7.58,2.51,10.08,25.18,15.13,30.24,5,2.52,7.55,0,10.07-2.53,10.08-10.07,0-22.67-7.57-32.74,2.53,0,10.08,0,15.12,12.6,7.58,15.12,0,12.6,5.05,20.16,2.53-2.52,15.12-2.52,17.62-2.52,12.6-10.06,7.58-12.59,15.13-15.11C1321.8,707.06,1306.68,702,1296.63,699.51Z"/><path class="cls-4" d="M1190.79,951.45l35.28,50.39c15.12,30.23,35.27,60.46,52.9,88.18,10.08,20.15,22.7,35.28,35.3,58,15.09,15.12,20.14,17.64,27.71,30.24-22.67,15.11-17.62,40.31-40.3,52.91,0,0-63,20.14-85.67-10.08-17.64-27.72-27.72-78.11-20.16-115.9,12.59,22.67,32.75,50.39,45.36,57.95l2.51-2.52c-15.12-27.71-32.75-52.9-52.91-78.1-17.63-25.19-10.08-63-15.13-93.21a2.47,2.47,0,0,0,2.52-2.52c5,2.52,5,10.08,7.56,12.59a33.66,33.66,0,0,0,20.17,17.64l-10.08-20.15-20.15-50.39c-2.52-7.56-12.6-25.19-5-27.72l20.13,32.74Zm178.88-17.63Zm194,40.3c0,12.61-12.59,15.12-22.67,20.16h-2.5c0-10.08,0-22.68,10-27.71C1556.11,964,1561.16,969.09,1563.66,974.12ZM1536,1281.5c5,7.55,7.55,12.6,7.55,22.67-2.51,5-2.51,7.55-7.55,10.08-17.63-7.55-42.84-7.55-40.3-32.75C1495.65,1281.5,1515.79,1248.74,1536,1281.5Z"/><path class="cls-4" d="M1437.7,885.94c15.12,20.15,30.24,37.79,30.24,37.79-5-5-25.2-10.07-55.42-45.35-7.57-10.08-20.16-25.2-22.67-22.69-2.53,5,7.55,12.61,10.05,15.13,0,0,37.8,50.38,30.25,50.38-5.05,0-25.2-20.15-37.79-40.31-15.13-22.67-40.3-60.46-45.35-88.18,0,0,42.84,55.43,52.89,60.47,0,0-30.22-47.86-35.26-63s-22.67-55.42-35.29-68c0,0,2.53,5-12.59,12.59-12.6,5-15.1-2.51-30.22,2.52-12.62,5-10.08,7.56-17.63,15.12-10.08,7.56-30.25,22.69-42.84,2.52,0,0-17.64,12.59-32.75,5,0,0-27.71,88.18-22.67,108.35,0,0,10.07-10.08,20.16-5,7.56,5,15.12-10.07,27.71-5,10.08,5-5,32.75,0,35.28,5,5,10.08-7.56,20.16-2.52s2.51,20.16,12.59,20.16c7.56,0-2.52-45.36,10.08-45.36,0,0,0,30.23,12.59,37.79,0,0-15.09-68,7.58-123.44,0,0-5,80.62,2.5,113.37,0,0,12.62-30.24,30.25-17.64,15.09,10.08,0,32.75,7.54,35.28,10.08,2.51,25.2-12.6,30.25-17.64,7.55-5,15.1-7.56,20.14,0,7.58,17.64-10.08,12.59-7.55,22.68,5,10.08,12.6,5,22.67,10.08,15.13,7.56-25.2,15.11-7.54,25.19,12.59,10.07,40.29,12.59,63,10.07,0,0,42.84,17.64,58,27.72-2.53-7.56-10.08-12.61-10.08-22.67,17.62,7.55,25.17,20.15,27.71,35.26,2.51,0,7.55,0,10.08-7.56,2.51-12.59-5-22.67,5-30.23,7.55-5,17.62-5,25.17-5-22.68-15.11-108.36-68-120.94-73.06ZM1004.35,631.47c-5,5-10.07,2.52-27.71,7.56,2.51-5,17.64-15.12,25.18-15.12C1004.35,626.44,1004.35,629,1004.35,631.47ZM1027,646.59v10.08c-10.08-5-17.64-17.64-15.13-27.71C1019.48,631.47,1027,639,1027,646.59ZM1017,676.83c-2.52-7.56-12.61-10.08-12.61-17.64,0-2.52,2.52-7.56,2.52-10.08C1017,651.64,1024.51,669.27,1017,676.83Zm-10.09,0c2.51,7.56-2.52,20.15-5,22.68,0-5-12.59-15.12-5-25.2l2.53-7.56C1004.35,669.27,1006.87,674.31,1006.87,676.83Zm-17.63-10.08c-5,5-10.07,12.59-17.64,12.59-5,0-17.63,0-20.15-2.51,7.56,0,17.62-7.56,22.67-7.56Zm-5,40.31c-5.05,10.08-7.56,10.08-17.64,12.59,12.59-10.07,5-30.23,20.15-32.75C989.24,692,989.24,702,984.2,707.06ZM868.31,649.11c-5,12.59-2.51,15.12,5,22.67-2.52-17.62,15.12-22.67,7.56-37.79C875.86,636.52,868.31,644.08,868.31,649.11Zm100.76,40.31c0,2.52-12.59,7.56-15.1,7.56-7.57,2.53-22.69,2.53-22.69,0C951.45,692,943.89,681.87,969.07,689.42Zm30.25-45.34c0,5-10.08,10.08-15.12,12.61S964,664.25,964,659.2C984.2,651.64,971.6,641.55,999.32,644.08ZM875.86,621.41c-2.51-2.52-12.59,2.51-17.62,5s-17.64,12.6-15.13,17.63C863.27,631.47,863.27,644.08,875.86,621.41Zm37.8-45.36c10.07,2.53,15.12,10.08,20.15,10.08,7.56,0,10.08-2.52,10.08-5C941.37,573.54,923.73,573.54,913.66,576.05Zm42.83,42.83c0-10.08,2.52-15.12,2.52-22.67-2.52-5.05-5-7.56-7.56-7.56C943.89,593.69,948.93,611.32,956.49,618.88Zm-42.83-35.27c-7.57-2.51-22.68,2.52-25.19,7.56,10.08-2.51,15.12,10.08,27.71,5.05l7.57-5.05C921.22,588.65,916.17,586.13,913.66,583.61Zm15.1,20.16c-2.51,7.56,2.52,20.15,5,25.19,0-10.08,10.08-15.13,5.05-27.72l-2.52-7.56C931.29,596.21,928.76,598.72,928.76,603.77ZM959,717.14c-5,5-20.16,7.56-25.19,7.56,7.56-5.05,7.56-17.64,20.16-17.64L964,704.54A19.2,19.2,0,0,1,959,717.14ZM880.89,598.72c-12.59,5-12.59,7.56-15.11,17.64,10.07-12.59,27.71,0,32.75-12.59C896,598.72,885.94,598.72,880.89,598.72Zm25.2,25.2c0,10.08,5,12.6,10.08,17.63-5-15.11,10.08-27.72-2.51-37.79C908.61,608.8,906.09,616.36,906.09,623.92Zm-7.56,7.55c5.05,7.56,2.53,12.6,0,27.72C891,651.63,891,636.5,891,621.39,896,621.41,898.53,626.44,898.53,631.47Z"/><path class="cls-5" d="M1309.21,553.38c-22.67-7.56-15.13-32.75-17.63-50.39,0-2.51-5-5-7.57-2.51-7.55,0-15.1,10.06-20.15,2.51,2.51,0,7.55,0,10.06-2.51s5-5.05,5-10.08c-2.5-2.52-5-2.52-7.55-2.52,0,2.52-2.5,2.52-2.5,5.05-7.57,0-12.61-7.56-22.7-5.05-5,0-7.56-5-10.07-7.56-2.52-10.08-15.13-17.64-22.69-25.2-5,7.56-7.55,12.61-7.55,20.16,0,5,10.07,2.51,12.6,5,7.56,2.52-5,7.56-5,10.08-2.51,0-2.51-2.52,0-5s-2.51-2.52-5-5.05c0,10.08-5.05,17.64-5.05,25.19l7.57,2.52c2.51,2.51,0,5,0,7.56a7.79,7.79,0,0,0,5,2.51h2.51a2.46,2.46,0,0,1-2.51,2.52h-2.52c0,2.52,0,5,5,5,2.51,2.52-2.52,10.08,2.51,12.6,17.64,0,27.72-12.6,40.31-22.67-2.5,7.56-12.59,12.59-15.12,20.15s0,17.63-5,25.19c-2.52,10.08-17.64,5-20.16,15.11,0,10.08-5,22.68,5,30.24,15.12,0,27.71-2.51,40.31-10.07,20.17-7.56,35.29-27.72,52.91-40.31-5,0-7.56,0-10.07-2.52Z"/><path class="cls-6" d="M1309.21,553.38c-22.67-7.56-15.13-32.75-17.63-50.39,0-2.51-5-5-7.57-2.51-7.55,0-15.1,10.06-20.15,2.51,2.51,0,7.55,0,10.06-2.51s5-5.05,5-10.08c-2.5-2.52-7.55-2.52-7.55-2.52,0,2.52-2.5,5.05-2.5,5.05-7.57,0-12.61-7.56-22.7-5.05-5,0-7.56-5-10.07-7.56-2.52-10.08-15.13-17.64-22.69-25.2-5,7.56-7.55,12.61-7.55,20.16,0,5,10.07,2.51,12.6,5,7.56,2.52-5,7.56-5,10.08-2.51,0-2.51-2.52,0-5s-2.51-2.52-5-5.05c0,10.08-5.05,17.64-5.05,25.19l7.57,2.52c2.51,2.51,0,5,0,7.56l5,2.51h2.51l-2.51,2.52h-2.52s0,5,5,5c2.51,2.52-2.52,10.08,2.51,12.6,17.64,0,27.72-12.6,40.31-22.67-2.5,7.56-12.59,12.59-15.12,20.15s0,17.63-5,25.19c-2.52,10.08-17.64,5-20.16,15.11,0,10.08-5,22.68,5,30.24,15.12,0,27.71-2.51,40.31-10.07,20.17-7.56,35.29-27.72,52.91-40.31-5,0-7.56,0-10.07-2.52Z"/><path class="cls-3" d="M1422.6,1415c-58,20.17-115.92,47.87-166.3,85.66-50.38-37.79-105.82-65.51-163.77-88.18-219.18-65.51-340.13-267.06-330-423.27V923.73l10.08-68,20.16-123.45,5-42.84c2.52-68,0-143.6-47.87-194L792.73,440s-12.6-12.6-20.16-35.27C749.9,432.44,722.18,470.23,702,498c20.15,17.64,35.28,37.79,42.82,60.46,17.64,47.87,17.64,108.34,10.08,161.24l-15.12,93.23-10.08,70.54c-5,45.36-7.56,95.73-5,141.09,5,138.57,85.66,335.07,322.49,410.67,73.06,27.72,146.13,57.94,209.11,113.38,45.37-40.32,95.74-65.51,148.63-88.2l63-22.67c254.45-85.66,330-294.77,327.51-451l-2.5-68-7.55-58-20.17-131a396.44,396.44,0,0,1,0-133.53c2.5-15.12,15.12-63,55.42-93.22-20.17-32.75-2.5-12.61-55.42,27.71,0,0-5,30.24-35.26,52.91-10.08,42.84-12.62,100.79-2.53,146.13L1740,810.34l10.08,65.51c5,45.35,7.57,93.22,5,141.08-2.49,128.52-80.62,325-332.53,398.1Z"/><path class="cls-2" d="M276.23,1825.7v42.84c2.52,5,2.52,10.08,7.56,10.08h10.08v2.5H246a2.45,2.45,0,0,1,2.51-2.5h5.05c2.52,0,5-5,5-10.08,2.52-7.57,2.52-22.67,2.52-42.84v-80.63H230.87c-12.59,0-15.12,2.53-20.15,5,0,5.05-2.52,5.05-2.52,7.58a2.45,2.45,0,0,1-2.51,2.5v-2.5c0-2.53,5-17.63,5-20.17v-5c2.52,0,5.05,2.5,10.08,2.5,5.05,2.53,12.59,2.53,15.12,2.53H309c10.08,0,15.12-2.53,17.64-2.53v25.2c-2.52,0-2.52,0-2.52-2.5v-2.53c0-5.05-5-10.08-22.68-10.08H276.24v80.63Zm196.52,0c0,20.17,0,35.27,2.51,42.84,0,5,0,10.08,7.57,10.08h7.56l2.51,2.5H442.52a2.45,2.45,0,0,1,2.51-2.5h5.05c5,0,5-5,5-10.08,2.52-7.57,2.52-22.67,2.52-42.84v-20.17H372v20.17c0,20.17,0,35.27,2.52,42.84,0,5,0,10.08,7.56,10.08h7.56a2.45,2.45,0,0,1,2.52,2.5H341.75l2.52-2.5h5c5,0,5-5,7.56-10.08V1750.11c0-5-2.51-10-7.56-10h-7.56l-2.52-2.53H387.1a2.47,2.47,0,0,1-2.52,2.53h-5c-5.05,0-5.05,5-5.05,10C372,1757.69,372,1762.73,372,1793v2.53a2.46,2.46,0,0,0,2.51,2.51h80.62c2.52,0,2.52,0,2.52-2.51v-45.37c-2.52-5-2.52-10-10.08-10h-5a2.47,2.47,0,0,1-2.52-2.53h47.87l-2.51,2.53h-5.05c-5,0-7.56,5-7.56,10v75.59Zm58-32.76V1750.1c0-5-2.52-10-10.08-10h-5a2.47,2.47,0,0,1-2.51-2.53H583.6c2.52,0,5-2.53,7.56-2.53h2.52v10.08c0,2.53-2.52,10.08-2.52,12.62v2.5c-2.51,0-2.51,0-2.51-2.5v-7.58c-2.52-2.5-5-5-15.13-5h-27.7V1798c0,2.5,0,2.5,2.52,2.5h30.23c5,0,7.56,0,7.56-2.5,2.52-2.51,2.52-2.51,5-2.51V1798s0,2.5-2.51,10.07v15.13h-2.52v-7.58c-2.52-2.5-2.52-5-10.08-7.55H545.82v50.38c0,15.12,5,17.62,22.68,17.62,5,0,12.6,0,17.64-2.5s7.56-7.57,10.08-15.12c0-2.51,0-2.51,2.52-2.51v2.51c0,2.5-2.52,15.12-2.52,20.17s-2.53,5-10.08,5c-30.24,0-42.84-2.53-47.87-2.53H515.6a2.45,2.45,0,0,1,2.52-2.5h5c5.05,0,5.05-5,5.05-10.08,2.51-7.57,2.51-22.67,2.51-42.84v-32.76Zm168.8,0V1750.1c0-5-2.52-10-10.08-10h-5l-2.53-2.53h47.87a2.47,2.47,0,0,1-2.52,2.53H724.7c-7.56,0-7.56,5-7.56,10v68c0,27.72,5,40.3,12.59,47.85,10.08,10.07,20.16,12.62,30.23,12.62,12.6,0,22.69-7.58,30.24-15.13,7.56-10.07,10.07-27.71,10.07-47.87V1750.1c0-5-2.51-10-7.56-10h-7.56v-2.53H828l-2.52,2.53h-5c-5,0-7.56,5-7.56,10v63c0,20.14-2.52,42.84-17.63,57.93-12.59,12.62-27.72,12.62-40.31,12.62-5,0-25.2,0-37.79-12.62-10.08-10.07-17.64-22.67-17.64-50.38v-27.72Zm176.36,63c0,15.09,2.52,20.14,7.56,22.67H893.5v2.5H848.16a2.46,2.46,0,0,1,2.51-2.5h7.57c5-2.53,5-7.58,5-25.2V1742.57c0-7.58,2.52-10.08,2.52-10.08,2.51,0,5,5,7.56,7.57s30.23,35.27,60.46,65.49c20.16,20.17,40.31,45.37,47.87,50.41l-2.51-98.26c0-12.62-2.52-15.12-7.56-17.62H961.54l-2.52-2.53h45.36l-2.52,2.53h-5c-5,0-7.55,5-7.55,17.62v113.36c0,12.62,0,12.62-2.53,12.62l-12.59-12.62c-2.52-2.51-30.24-30.22-50.39-52.89-22.67-22.67-45.36-47.87-50.39-55.42l2.49,93.2Zm189-30.25c0,20.17,0,35.27,2.51,42.84,0,5,0,10.08,7.57,10.08h7.56l2.51,2.5h-50.38a2.45,2.45,0,0,1,2.51-2.5h5.05c5,0,5-5,5-10.08,2.52-7.57,2.52-22.67,2.52-42.84v-75.59c-2.52-5-2.52-10-7.56-10h-5.05a2.47,2.47,0,0,1-2.51-2.53h45.35l-2.53,2.53h-5c-5.05,0-5.05,5-7.56,10Zm110.85,32.75c10.08-25.2,37.79-93.23,40.31-105.81,2.52-5,2.52-7.57,2.52-7.57,0-2.5,0-5-2.52-5h-7.56a2.47,2.47,0,0,1-2.52-2.53h42.83l-2.52,2.53c-2.51,0-5,0-10.07,2.5-2.52,0-5.05,5-10.08,17.63-2.52,5-12.61,27.71-22.69,50.39-10.07,30.24-20.15,50.38-22.68,60.46-7.55,10.08-7.55,12.62-10.06,12.62s-2.52-2.53-5.05-10.08l-47.87-118.42c-5-10.08-7.56-12.6-15.12-15.1H1095v-2.53h50.39a2.47,2.47,0,0,1-2.51,2.53h-7.57c-2.52,0-2.51,2.5-2.51,5s2.51,7.57,5,15.12Zm100.79-65.51V1750.1c0-5-2.53-10-7.55-10h-7.57v-2.53h68c2.53,0,7.57-2.53,7.57-2.53h2.51c2.53,0,2.53,0,2.53,2.53,0,0-2.53,2.53-2.53,7.55v12.62a2.52,2.52,0,0,1-5,0v-7.58c-2.5-2.5-2.5-5-12.59-5h-27.72v55.42h30.25c5,0,7.55,0,10.05-2.5a2.47,2.47,0,0,1,2.53-2.51v12.58c0,2.51-2.53,10.08-2.53,12.6v2.53h-2.5v-7.58c0-2.5-2.53-5-10.08-7.55h-27.72v50.38c0,15.12,2.53,17.62,20.17,17.62,5,0,15.1,0,20.14-2.5s7.58-7.57,7.58-15.12a2.45,2.45,0,0,1,2.5-2.51v2.51c0,2.5,0,15.12-2.5,20.17,0,5-2.53,5-10.08,5-27.72,0-40.3-2.53-47.87-2.53h-20.13v-2.5h7.55c2.5,0,5-5,5-10.08v-75.6Zm128.48-47.87a2.47,2.47,0,0,0,2.53-2.5h12.59c20.17,0,32.75,15.12,32.75,37.79,0,15.12-5,25.17-10.08,30.22-5,2.53-10.08,5-15.12,5-7.55,0-17.63-2.5-20.14-5a2.47,2.47,0,0,1-2.53-2.5v-63Zm-15.1,80.63v42.84c0,5-2.53,10.08-5,10.08h-7.57v2.5h47.86a2.45,2.45,0,0,0-2.5-2.5H1415c-5,0-7.55-5-7.55-10.08-2.53-7.57-2.53-22.67-2.53-42.84v-5h27.71c5,5,15.12,17.62,22.67,30.24,10.08,12.6,17.65,22.67,25.2,27.72,5,2.5,10.08,2.5,20.17,2.5h20.14l-2.5-2.5h-7.55c-5,0-12.62-2.53-22.7-12.62-12.59-12.59-25.17-30.22-40.3-50.39q22.7-22.68,22.67-45.34c0-12.59-10.07-22.67-12.59-25.2-10.08-7.55-25.2-7.55-35.26-7.55H1374.7v2.53h7.55c5,0,7.58,5,7.58,10v75.6Zm138.57,52.92c-2.53,0-2.53,0-2.53-5,0-10.07,2.53-17.62,2.53-22.67v-2.53c2.5,0,2.5,0,2.5,2.53v7.55c2.53,15.12,15.12,20.17,27.72,20.17,20.17,0,27.71-15.12,27.71-27.72s-5-20.17-22.67-32.75l-7.54-7.57c-20.17-17.63-25.2-30.22-25.2-42.84,0-20.14,15.12-35.26,40.32-35.26,7.55,0,12.59,2.5,17.62,2.5,5.05,2.53,5.05,2.53,7.55,2.53v25.21c-2.5,0-2.5,0-2.5-2.53s0-7.55-2.53-10.08c0-2.5-5.05-10-25.17-10-12.62,0-22.7,7.55-22.7,22.67,0,10.06,5,17.63,22.7,32.75l7.54,5c22.68,17.65,27.72,27.74,27.72,45.37,0,7.55-5,22.67-17.63,30.22-7.57,7.57-17.62,7.57-27.71,7.57S1538.49,1883.65,1528.41,1878.62Zm136-52.92v42.84c0,5,2.5,10.08,7.55,10.08h10.08v2.5h-47.87v-2.5h7.54c2.53,0,5-5,5-10.08V1750.11c0-5-2.5-10-5-10h-7.54v-2.53H1677v2.53h-5c-5,0-7.55,5-7.55,10v75.59Zm105.81,0v42.84c0,5,2.5,10.08,7.55,10.08h10.08v2.5H1740v-2.5h7.58c2.5,0,5-5,5-10.08V1745.07h-27.71c-12.62,0-17.65,2.53-20.17,5-2.53,5.05-2.53,5.05-2.53,7.58a2.45,2.45,0,0,1-2.5,2.5v-2.5c0-2.53,2.5-17.63,5-20.17v-5c2.51,0,5,2.5,10.08,2.5,5,2.53,12.59,2.53,15.12,2.53h70.53c12.62,0,17.65-2.53,20.17-2.53v25.2c-2.5,0-2.5,0-2.5-2.5v-2.53c0-5.05-5.05-10.08-25.2-10.08H1770.3v80.63Zm120.93,7.55c0-12.59-2.53-15.1-5-20.14,0-5-25.2-47.87-32.74-55.42a95.49,95.49,0,0,0-12.6-15.12c-2.53-2.51-7.57-2.51-10.08-2.51v-2.53H1871a7.86,7.86,0,0,0-5,2.53l-2.5,2.51c0,2.5,2.5,5,2.5,7.54,5,5.05,32.75,55.42,37.8,60.47,2.53-7.55,27.71-50.39,30.24-55.42s5-7.55,5-10.08a5.43,5.43,0,0,0-5-5l-2.53-2.53h37.8l-2.51,2.53c-2.53,0-5,0-10.07,2.51-2.53,2.5-5,5-10.08,10.07-5,7.55-32.75,52.89-35.27,60.47s-2.52,12.59-2.52,20.14v35.29c0,5,2.52,10.08,7.54,10.08H1924a2.45,2.45,0,0,1,2.5,2.5h-47.83v-2.5h5c5,0,7.57-5,7.57-10.08v-35.29ZM2055,1803c0-40.3,25.17-63,55.42-63s60.46,25.18,60.46,70.53c0,58-37.79,68-52.91,68-35.26,0-63-30.26-63-75.6Zm-17.65,5c0,35.27,22.69,75.59,73.08,75.59,47.85,0,78.09-35.29,78.09-78.12,0-45.34-32.75-73-75.59-73-52.89,0-75.58,45.34-75.58,75.58Zm189-15.12V1750.1c-2.53-5-2.53-10-10.08-10h-5.05a2.47,2.47,0,0,1-2.5-2.53h73.05c2.5,0,5,0,7.54-2.53h2.53a2.46,2.46,0,0,1,2.51,2.53s-2.51,2.53-2.51,7.55v12.62a2.52,2.52,0,0,1-5,0v-7.58c-2.53-2.5-5-5-12.59-5h-32.75v55.42h35.25c5.05,0,7.55,0,7.55-2.5l2.53-2.51c2.5,0,2.5,0,2.5,2.51,0,0-2.5,2.5-2.5,10.07v12.6c0,2.53,0,2.53-2.53,2.53,0-2.53-2.5-5-2.5-7.58s-2.51-5-10.08-7.55h-27.72c-2.5,0-2.5,0-2.5,2.51v58c2.5,5,2.5,10.08,7.55,10.08H2259l2.5,2.5h-50.39a2.46,2.46,0,0,1,2.53-2.5h5c5,0,5-5,5-10.08,2.53-7.58,2.53-22.67,2.53-42.84v-32.75Zm-1751,413.19c0,10.08,2.51,27.72,15.12,32.75a80.74,80.74,0,0,0,20.15,2.53h2.52c0,2.5-2.52,5-7.56,5s-37.79-2.52-50.39-2.52c-5,0-7.56-2.51-7.56-2.51,0-2.53,0-2.53,2.53-2.53V2226.3L435,2072.61,361.91,2228.8c-7.56,12.62-7.56,15.13-10.08,15.13s-5-2.51-10.08-12.6c-7.56-15.12-32.75-68-35.27-70.54-2.52-5.05-37.8-78.09-40.31-85.67l-12.6,138.6v17.62c0,2.51,2.52,7.55,7.56,7.55a25,25,0,0,0,10.08,2.53h2.52c0,2.51,0,5-5.05,5-10.08,0-25.19-2.53-27.71-2.53s-17.64,2.53-25.19,2.53a5.47,5.47,0,0,1-5.05-5h12.6c10.07-2.53,10.07-15.12,12.6-25.2l20.16-199a5.41,5.41,0,0,1,5-5s2.52,2.51,2.52,5l93.21,188.94L445,2017.19c2.52-2.53,2.52-5,5-5s2.52,2.51,5,7.55l20.16,186.44Zm85.65-100.77v-65.51c-2.52-10.08-5-15.13-12.59-17.63h-12.6l-2.51-2.53c0-2.5,2.51-2.5,5-2.5h103.3c7.56,0,12.6,0,15.13-2.53h2.51c2.53,0,2.53,0,2.53,2.53s-2.53,5-2.53,15.12c0,2.5-2.51,15.1-2.51,20.14a2.47,2.47,0,0,1-2.52,2.53s-2.52-2.53-2.52-5v-10.08c-2.51-5-5-7.55-22.68-10.08H588.66c-2.52,0-2.52,0-2.52,2.53v83.14c0,2.5,0,2.5,2.52,2.5h47.87c7.56,0,10.08-2.5,12.61-5a7.8,7.8,0,0,1,5-2.5c2.52,0,2.52,0,2.52,2.5,0,0-2.52,5-2.52,15.13,0,7.55-2.52,17.62-2.52,20.17v5c-2.51,0-2.51,0-2.51-2.53s0-5-2.52-10.08c0-5-2.52-10.07-15.12-10.07-7.56,0-37.8-2.51-42.84-2.51a2.46,2.46,0,0,0-2.52,2.51v78.13c0,22.67,5,25.17,35.27,25.17,7.56,0,20.15,0,27.71-2.5,10.07-5.05,12.6-10.08,15.11-22.67,0-2.53,0-5.05,2.53-5.05s2.52,2.5,2.52,5.05-2.52,22.67-5,30.22-5,7.57-15.11,7.57c-47.87,0-68-2.53-75.58-2.53-2.52,0-20.16,2.53-30.24,2.53-2.51,0-5-2.53-5-2.53a2.47,2.47,0,0,1,2.53-2.5c2.51,0,7.56,0,10.07-2.53,5,0,7.57-7.55,7.57-15.12,2.51-12.6,2.51-37.77,2.51-65.49v-52.95Zm209.12,52.91c0,45.34,2.52,63,7.57,68s12.59,7.54,35.26,7.54c17.64,0,30.23,0,37.79-7.54,2.52-5.05,7.57-12.6,7.57-20.17,0-2.5,0-2.5,2.51-2.5s2.53,0,2.53,5c0,2.5-2.53,20.14-5,30.22-2.52,5-2.52,7.57-20.16,7.57-42.83,0-63-2.52-80.62-2.52-2.52,0-20.15,2.52-30.23,2.52-2.52,0-5-2.52-5-2.52a2.46,2.46,0,0,1,2.51-2.51c5,0,7.56,0,10.08-2.53,5,0,7.56-7.55,10.08-15.12V2039.86c0-10.09-2.52-15.12-12.6-17.63H722.2a2.47,2.47,0,0,1-2.52-2.53c0-2.5,0-2.5,5-2.5h65.5c2.52,0,5,0,5,2.5a2.47,2.47,0,0,1-2.51,2.53H782.66c-7.56,0-10.08,7.55-12.59,17.63v118.41Zm178.88-128.5c0-2.5,0-2.5,2.52-2.5,5-2.53,12.59-2.53,15.12-2.53,30.23,0,40.31,27.71,40.31,52.91,0,12.6-5,22.67-10.08,30.22-7.54,7.58-10.07,7.58-27.71,7.58H951.46c-2.51-2.53-2.51-2.53-2.51-5v-80.63Zm-25.2,128.5v65.49c-2.51,7.57-5,15.12-10.07,15.12-2.52,2.53-5,2.53-10.08,2.53v2.5a2.47,2.47,0,0,0,2.51,2.53c10.08,0,30.24-2.53,30.24-2.53,2.51,0,32.74,2.53,40.31,2.53,52.9,0,78.1-32.75,78.1-65.51,0-35.29-30.25-58-52.92-65.51,15.13-12.62,27.72-27.72,27.72-52.92,0-15.12-10.08-45.34-60.47-45.34H903.58c-5.05,0-5.05,0-5.05,2.5a2.48,2.48,0,0,0,2.53,2.53h10.07c10.07,2.51,12.6,7.55,12.6,17.63Zm25.2-32.75V2123c5.05,0,20.16,0,25.19,2.53,7.56,0,15.12,0,25.2,7.55,22.67,15.13,27.72,42.84,27.72,60.47,0,35.26-25.2,42.84-40.31,42.84-7.56,0-20.16,0-27.72-5.05-10.08-5-10.08-7.57-10.08-22.67v-83.14Zm183.91-2.53c0-68,37.8-100.77,88.19-100.77,47.88,0,90.69,40.3,90.69,113.36,0,85.66-55.42,103.3-83.13,103.3-55.42,0-95.75-45.34-95.75-115.89Zm-30.23,7.55c0,55.45,35.28,118.43,118.42,118.43,73,0,120.94-55.42,120.94-123.45,0-70.54-50.39-113.38-118.42-113.38-85.66,0-120.94,70.54-120.94,118.4Zm299.82-25.18v-65.51c0-10.09-2.53-15.13-12.59-17.63h-10.08a2.48,2.48,0,0,1-2.53-2.53c0-2.5,0-2.5,5-2.5h63c5,0,5,0,5,2.5a2.47,2.47,0,0,1-2.5,2.53h-7.55c-7.57,0-10.08,7.55-10.08,17.63v105.8c0,45.35,7.55,63,22.67,75.59,15.13,15.12,27.72,17.63,45.35,17.63s35.29-10.08,47.87-22.67c12.59-17.63,17.62-42.84,17.62-73.06v-37.8c0-47.87,0-55.42-2.5-65.51,0-10.07-2.53-15.12-12.62-17.62h-10l-2.53-2.53c0-2.51,2.53-2.51,5-2.51H1599c2.51,0,5,0,5,2.51l-2.53,2.53h-7.55c-7.57,0-10.08,7.55-12.62,17.62v95.73c0,32.75-2.5,70.55-27.71,90.71-22.67,20.17-45.35,22.67-63,22.67-10.08,0-40.32,0-60.47-20.16-15.12-15.1-27.71-35.27-27.71-80.61v-42.81Zm287.21-73.06c0-2.53,0-2.53,2.53-5h20.14c32.75,0,52.91,22.67,52.91,60.47,0,22.67-7.54,37.79-20.16,45.34-5,5-15.1,5-22.68,5-12.59,0-25.17,0-30.21-2.52-2.53-2.51-2.53-2.51-2.53-5V2032.3Zm-25.18,126v65.49c-2.53,7.57-2.53,15.12-10.08,15.12-2.52,2.53-5,2.53-7.57,2.53s-2.5,0-2.5,2.5c0,0,0,2.53,5,2.53,7.55,0,27.72-2.53,27.72-2.53,2.5,0,20.17,2.53,37.79,2.53,2.51,0,5.05-2.53,5.05-2.53a2.47,2.47,0,0,0-2.53-2.5c-2.5,0-10.08,0-15.12-2.53-7.55,0-10.06-7.55-10.06-15.12-2.52-12.6-2.52-37.77-2.52-65.49v-7.57c0-2.5,0-2.5,2.52-2.5H1730a2.45,2.45,0,0,1,2.5,2.5c7.55,7.57,20.17,27.71,32.75,45.34,17.63,22.7,27.72,37.79,40.3,42.84,10.07,5,17.65,7.57,32.75,7.57H1861c5,0,7.57-2.53,7.57-2.53a2.47,2.47,0,0,0-2.53-2.5h-12.59c-7.55-2.53-20.17-5-37.8-22.67-17.62-20.17-37.79-45.37-63-78.12,27.71-25.17,37.79-47.84,37.79-70.54,0-20.14-12.62-35.26-20.17-40.3-17.62-10.07-37.79-12.59-55.42-12.59h-70.54c-2.53,0-5,0-5,2.5a2.47,2.47,0,0,0,2.51,2.53h10.08c10.07,2.51,12.61,7.55,12.61,17.63v118.41Zm254.46,45.34c2.5,25.18,5,32.75,12.59,35.27,5,2.53,12.62,2.53,15.12,2.53s2.51,0,2.51,2.5c0,0-2.51,2.53-5,2.53-17.66,0-30.25-2.53-32.75-2.53s-15.13,2.53-27.75,2.53c-5,0-5-2.53-5-2.53,0-2.5,0-2.5,2.5-2.5s7.55,0,10.08-2.53c7.54-2.5,10.07-10.08,10.07-37.79V2027.27c0-12.62,2.51-15.13,2.51-15.13,2.53,0,7.57,7.55,12.59,10.08,5.05,5,47.87,52.89,95.76,103.3,30.22,32.75,63,70.53,73.05,78.09l-5-151.17c0-20.14-2.5-27.72-10.08-30.22H2055a2.47,2.47,0,0,1-2.52-2.53c0-2.5,2.52-2.5,5-2.5h58c2.5,0,5,0,5,2.5a2.47,2.47,0,0,1-2.5,2.53h-7.55c-10.08,2.5-12.62,7.55-12.62,27.72V2226.3c0,20.17,0,20.17-2.51,20.17s-5-2.53-22.67-17.66q-39.29-41.32-78.09-83.13c-35.29-37.8-68-75.59-78.11-85.65l2.53,143.58Zm259.49-98.25v-65.51c0-10.09-2.5-15.13-12.59-17.63h-10.08a2.48,2.48,0,0,1-2.53-2.53c0-2.5,2.53-2.5,5.05-2.5h103.29c5,0,10.08,0,12.62-2.53h5v2.53c0,2.5,0,5-2.53,15.12v20.14l-2.51,2.53c-2.53,0-2.53-2.53-2.53-5s0-7.55-2.5-10.08c-2.53-5-5-7.55-20.17-10.08h-42.84V2118H2254c7.54,0,12.59-2.5,15.12-5s2.5-2.5,5-2.5v2.5s0,5-2.53,15.13v20.17c0,2.5,0,5-2.5,5s-2.53,0-2.53-2.53v-10.08c-2.5-5-5-10.07-15.12-10.07s-40.3-2.51-45.34-2.51v30.25c0,10-2.51,45.34,0,50.39,0,22.67,5,25.17,32.75,25.17,10.07,0,22.67,0,30.24-2.5,7.55-5.05,12.6-10.08,12.6-22.67a7.87,7.87,0,0,0,2.5-5.05c2.53,0,2.53,2.5,2.53,5.05s-2.53,22.67-2.53,30.22c-2.5,7.57-5,7.57-17.63,7.57-45.34,0-65.51-2.53-75.59-2.53,0,0-20.14,2.53-27.71,2.53-5.05,0-5.05-2.53-5.05-2.53,0-2.5,0-2.5,2.53-2.5s5,0,7.55-2.53c7.57,0,7.57-7.55,10.08-15.12V2105.36ZM1462.9,1447.78c-78.09-52.89-186.44-75.59-287.23-57.94-52.92,10.05-98.26,30.22-143.6,57.94-15.12,7.57-32.75,20.16-47.87,30.24l-50.39,32.75c-85.65,55.42-194,83.14-302.34,57.94-22.68-5-47.87-12.6-65.51-32.75q-7.56-7.57-7.56-22.67l27.72-133.53c-30.25-20.17-65.51-27.71-103.31-30.24-17.62,0-35.28,0-50.39,2.53,45.36-40.33,57.95-98.26,42.83-156.21,73.06,0,141.09,10.08,204.08,40.31,17.63,10.06,42.83,27.71,42.83,50.39v143.6c63,0,113.38-27.72,163.75-60.47l58-40.3c108.34-70.54,234.31-108.34,372.88-90.71,78.09,10.08,151.18,40.3,219.19,83.14l60.47,40.32,15.12,10.06c50.39,32.74,100.77,63,163.77,63V1387.3l2.53-103.29c10.08-32.75,45.37-45.35,73.06-57.94,55.44-17.64,113.38-25.19,173.84-25.19-15.12,57.95,0,118.42,45.35,158.73-52.9-10.08-108.33-2.51-151.15,22.67-2.53,0-5.05,2.53-5.05,2.53l25.2,138.57c-2.53,25.2-30.24,37.79-52.92,42.84-103.3,32.74-219.18,10.07-304.86-42.84l-40.3-25.2-68-45.35Z"/><path class="cls-7" d="M1475.49,1445.27c-88.18-55.42-199-80.63-309.88-60.46-60.47,12.59-113.39,37.79-163.77,70.54l-83.14,52.89a370.59,370.59,0,0,1-264.54,58c-30.24-5-57.94-12.62-80.62-32.75-5-5-7.57-7.57-7.57-15.12l25.19-123.44c27.72,32.72,73.06,40.29,115.9,42.81,63,2.53,115.9-20.14,166.29-50.39L964,1329.37c100.78-65.51,219.19-98.27,347.68-80.63,75.59,7.55,141.1,35.27,206.61,73.06l57.94,35.29,58,37.8c55.42,37.76,120.93,55.42,194,42.81,27.74-5,60.46-12.6,80.63-40.3l22.67,126c-2.5,20.16-22.67,27.71-37.79,35.26-113.36,37.8-239.33,7.58-330-55.42Z"/><path class="cls-7" d="M714.62,1430.15c-42.83,0-83.14-7.55-113.37-35.26-5-7.58-10.08-15.13-5-22.7,10.06-22.67,37.79-25.18,57.94-32.75,22.68-5,42.82-10,60.46-27.72v118.43Zm1184.13-63c5,5,7.57,15.13,5,22.7-10.07,17.63-32.75,27.72-50.38,35.26-22.68,5.05-45.35,10.08-70.55,10.08V1316.76c32.75,30.24,80.64,25.21,115.89,50.38Z"/><path class="cls-7" d="M681.86,1246.21c15.12,10.08,35.28,22.7,32.75,42.84-2.52,27.72-32.75,35.29-55.43,40.32-25.19,10.06-60.47,12.6-73.06,42.82-37.8-25.18-85.67-32.75-136.06-30.22,35.27-37.8,45.36-90.71,35.27-138.57,70.55,2.52,138.58,10.06,196.53,42.81Zm1335.31-37.78c-10.07,50.4-2.52,100.79,30.22,141.09-47.84-2.51-95.73,5-136,27.71-5-20.14-25.2-27.71-40.33-32.75-27.71-10.07-60.46-12.59-83.13-35.26-5.05-7.55-5.05-20.17-2.51-30.25,22.68-32.74,60.47-42.81,95.73-52.9,42.83-12.61,88.17-17.64,136-17.64Z"/><path class="cls-2" d="M601.24,1525.87c2.52,0,2.52-2.51,5-5l7.56-57.93c0-2.53,0-2.53-2.51-5.05l32.75,2.5c15.11,2.53,22.68,15.13,20.15,25.2s-10.08,20.17-27.72,17.63l-15.12-2.5-2.51,22.67c0,2.5,0,5,2.51,5v2.51Zm22.67-37.77,12.59,2.5c10.08,2.51,12.61,0,15.13-7.55,0-7.57-2.52-10.07-12.61-10.07l-12.61-2.53Zm80.63-20.16c20.16,2.51,32.75,17.63,30.24,37.8,0,20.14-12.6,35.26-32.75,35.26s-32.75-17.62-30.24-37.79C671.78,1483.07,684.39,1467.94,704.54,1467.94Zm-2.53,63c12.6,0,20.16-10.08,20.16-25.17s-5-25.2-17.64-25.2-20.15,7.57-20.15,22.67C684.39,1520.83,689.42,1528.41,702,1530.91Zm58-12.59h2.52c0,5,12.61,7.55,17.64,5,12.59-2.53,17.64-7.54,15.12-15.12-2.51-12.59-42.84,5-47.87-20.14-2.52-10.08,2.52-20.17,20.15-25.2h17.63c2.52,0,5.05,2.5,7.56,0h2.52l-5.05,17.62h-2.51V1478c0-2.53-7.56-7.57-17.63-5-7.56,2.5-10.08,7.54-10.08,10.07,2.52,15.1,42.84-5,47.87,22.67,2.52,10.08-5,25.18-25.18,27.72-5,2.5-12.6,2.5-15.13,0H757.45v2.5h-2.52Zm88.2-5v-2.51c2.51,0,2.51-2.53,0-5L828,1457.87l-15.12,7.54c-2.52,0-5,0-2.52,2.53l-2.51,2.51-7.56-15.1,2.51-2.53c0,2.53,2.52,2.53,5,0l40.31-17.62c5-2.53,5-2.53,5-5l7.56,15.12h-2.52c0-2.53-2.51-2.53-5,0l-15.13,7.55,22.68,47.87c2.52,2.51,2.52,2.51,5,2.51v2.52Zm60.45-45.35,25.2-17.62c2.52-2.53,5.05-2.53,2.52-5h2.51l7.56,12.6v2.5c-2.51-2.5-2.51-2.5-5,0l-40.3,25.2h-2.53a7.77,7.77,0,0,0,2.53-5l-32.75-50.38c-2.51-2.53-2.51-2.53-5-2.53h-2.53l40.32-25.18c2.52-2.53,2.52-2.53,2.52-5v-2.5L913.66,1410h-7.57l-22.68,17.63,7.56,12.62,15.12-7.58c2.52-2.5,2.52-2.5,2.52-5h2.52l7.56,12.62c-2.52,0-2.52,0-5.05,2.5l-15.12,7.58Zm47.88-17.63v-7.58l-32.74-50.39c-2.52,0-2.52-2.5-5,0v-2.5l27.72-17.65c12.59-7.55,22.67-7.55,30.23,2.53,5,10.07,5,17.62-2.52,25.17l20.16,12.62c5,2.5,7.56,5,10.08,2.5l2.51,2.53-17.62,10v-2.5c0-2.5,0-2.5-2.53-2.5L964.06,1410,954,1415l12.59,20.17c2.52,2.51,2.52,2.51,5,2.51l2.51,2.52Zm-7.56-42.83,12.6-10.08c7.56-2.5,7.56-7.55,5-12.59-5-5-7.56-7.58-15.12-2.53l-12.59,7.57Zm60.47,7.55-2.52-2.51a2.47,2.47,0,0,0,2.52-2.53l-10.08-60.46v-5h-5V1342l20.15-10.08v2.51c-2.52,0-2.52,2.53,0,2.53a7.84,7.84,0,0,0,2.52,5l42.82,40.3c2.52,2.53,2.52,2.53,5,2.53l-15.11,10.08v-5l-2.52-2.53-7.56-7.54L1017,1389.85l2.52,12.6v2.5s2.51,2.53,5,0v2.53Zm22.67-42.84-22.69-20.14,7.57,27.71Zm95.74-78.11-5,20.17v-2.53c-2.52-5-10.08-7.55-17.63-5-10.08,5-17.64,12.6-10.08,30.22,2.52,15.13,12.61,22.67,25.2,17.63,7.56-2.5,12.6-7.55,10.08-12.59v-2.53l15.12,10.07H1143c-2.52,2.53-5,12.62-20.16,17.63-20.15,5-35.26-7.55-42.82-25.17-7.57-25.2,5-40.3,22.67-45.35a16,16,0,0,1,15.12,0h5c2.52,0,2.52,0,2.52-2.53Zm25.19,63v-2.53l2.52-2.5-10.08-60.47c0-2.53,0-2.53-2.52-2.53v-2.5l32.75-5c15.12-2.53,25.2,5,25.2,17.62,2.52,10.08-2.53,17.63-12.61,20.17l15.13,20.14c2.53,5,5,7.58,7.56,7.58v2.5l-20.16,2.53v-2.53a2.46,2.46,0,0,0,2.52-2.5l-2.52-2.53-15.12-20.14h-10.08l2.52,25.17c0,2.53,0,2.53,2.52,2.53v2.5Zm10.08-42.84,15.12-2.53c7.56,0,10.08-5,10.08-10,0-7.57-5-10.08-12.6-7.57l-15.12,2.53Zm73.07,22.67h30.23c2.53,0,5,0,5-2.53h2.5v15.13h-2.5s-2.51-2.51-5-2.51h-47.87c2.52,0,2.52-2.53,2.52-5V1281.5c0-2.53,0-2.53-2.52-2.53v-2.5h45.37c5,0,5,0,5-2.5h2.51v17.62h-2.51c0-2.53,0-2.53-5-2.53h-27.73v17.66h17.64c2.51,0,2.51,0,2.51-2.53h2.53v15.12h-2.53c0-2.53,0-2.53-2.51-2.53h-17.64Zm50.39-7.55h2.5v2.51c0,5,10.08,7.55,17.62,10.08,12.62,2.5,17.66-2.53,17.66-7.58,2.5-15.1-42.84-12.59-37.8-37.77,0-10.07,10.08-17.65,27.72-15.12,7.55,0,12.59,2.5,15.1,5,5,2.5,5,2.5,7.57,2.5h5l-12.62,15.12h-2.5v-2.5c0-2.53-5-10.08-15.12-10.08-7.55-2.53-12.6,2.5-12.6,5.05-2.5,15.09,42.84,10.07,37.8,37.76,0,10.08-12.6,20.17-32.75,17.66-7.55,0-12.59-2.53-15.12-5-5-2.53-5-2.53-7.55-2.53h-5ZM1410,1309.21l-12.59,12.59v-2.5c0-5-5.05-10.08-10.08-12.6-12.59-2.53-22.67,2.51-27.72,20.15-5,12.59,2.51,25.2,12.6,27.71,7.57,2.53,15.12,0,17.65-5V1347l7.55,17.63c-2.53,0-2.53,0-2.53-2.5-2.5,0-10,7.55-27.72,2.5S1342,1342,1347,1321.8c5-22.67,25.18-30.22,42.84-25.17,5,2.5,10.05,5,12.59,7.54s2.51,2.53,5,5l2.5-2.5Zm-17.62,63,2.5-2.5a2.48,2.48,0,0,0,2.53-2.53l40.3-45.35a2.45,2.45,0,0,0,2.52-2.5c2.51,0,0-2.53,0-2.53v-2.5l20.15,10.08c-2.51,0-2.51,0-5,2.5v5l-5,58c0,2.5,2.53,5,2.53,5v2.5l-17.63-7.54v-2.53h2.5a2.46,2.46,0,0,0,2.53-2.51v-12.62l-22.67-10-7.57,10h-2.51c0,2.53,0,2.53,2.51,5v2.53Zm47.87-10.07,2.5-30.24-17.63,22.67Zm12.59,35.27,2.5-2.5c0,2.5,2.53,0,2.53,0L1490.6,1342c2.51-2.53,2.51-2.53,0-2.53v-2.5l20.17,12.59v2.53h-2.53c-2.5,2.5-7.55,35.26-7.55,42.84,15.1-12.62,32.75-25.2,35.27-25.2,0-2.53,0-2.53-2.51-2.53l2.51-2.5,20.17,12.59h-2.53a2.46,2.46,0,0,0-2.51,2.53l-32.75,52.89c-2.52,0,0,2.53,0,2.53v2.5l-15.12-10.08v-2.5c2.53,2.5,2.53,2.5,5,0l25.2-42.84c-15.13,12.62-32.75,22.67-47.87,35.29v-2.53c2.5-17.62,5-37.79,10.07-55.42l-25.2,40.3c-2.5,2.53-2.5,5,0,5v2.52Zm138.56,10.09c0-2.53,0-2.53-2.51-5v-2.53l20.15,12.62-2.51,2.51c-2.5-2.51-2.5-2.51-5,0l-30.22,45.34,25.17,15.12c2.53,2.53,5,2.53,5,0L1604,1478l-10.08,12.6c0-2.51,0-2.51-2.53-5l-40.3-25.2,2.51-2.5c2.53,2.5,2.53,2.5,5,0Zm12.62,88.17v-2.53h5l42.84-45.34a2.47,2.47,0,0,1,2.52-2.51c0-2.53,0-2.53-2.52-2.53v-2.5l20.16,10.08c-2.5,0-2.5,0-2.5,2.5a7.8,7.8,0,0,1-2.53,5l-5,58v7.55l-17.63-7.55,2.5-2.53h2.53v-2.5l2.5-12.62-22.67-10.06-7.54,7.55a2.52,2.52,0,1,0,0,5l-2.53,2.5-15.11-7.56Zm47.84-7.55,5.05-30.25-20.17,22.67Zm58-25.2v2.5c-2.53,0-5,0-5,2.53l-10.08,37.79c-2.5,10.08,2.53,15.1,12.59,17.63,7.58,2.5,15.13-2.53,17.66-10.08l10-37.79c0-2.5,0-5-2.5-5v-2.5l17.62,5v2.5c-2.5,0-2.5,0-2.5,2.53l-10.08,37.79c-5,15.1-15.12,22.67-35.29,20.14-17.63-5-22.67-17.62-20.14-32.74l10.08-40.3c0-2.53,0-2.53-2.53-2.53v-2.5l20.16,5Zm50.39,15.12c0-2.53-2.5-2.53-5-2.53V1473h30.24c22.67,0,32.75,17.63,32.75,35.26,0,25.2-12.62,35.29-35.29,35.29h-27.72c2.53-2.52,2.53-2.52,2.53-5l2.53-60.48Zm12.6,55.42h7.57c17.63,0,22.67-5,25.17-25.2,0-17.62-7.54-22.67-25.17-22.67h-7.57Zm80.62-7.57,30.21-7.55c2.53,0,2.53,0,2.53-2.5h2.51l5,15.09h-2.5c0-2.5-2.53-2.5-5-2.5L1838.28,1541c2.53-2.5,2.53-2.5,2.53-5L1825.69,1478c0-2.53,0-2.53-5-2.53V1473l45.35-12.62c2.53,0,5,0,5-2.5l5,15.12h-2.51c0-2.53-2.53-2.53-5,0l-27.72,7.55,5,15.12,15.09-2.53c5-2.5,5-2.5,5-5h2.53l2.5,15.1h-5l-17.63,5,5.05,17.62Z"/><path class="cls-4" d="M1165.61,495.43l-5-5c-2.52-22.67-7.56-47.86-27.72-63-55.43-20.16-118.41-7.57-173.84-25.19,0,0-37.8-10.08-63-15.12s-40.31-7.57-60.47-12.6c-22.68-7.56-45.35-12.59-73.07-17.64,17.64,55.44,131,88.18,161.25,93.23,7.56,2.52,22.67,5,45.34,10.08,42.84,12.59,90.7,10.07,126,40.31l-83.14-20.16a328.89,328.89,0,0,0-37.79-7.56c2.52,20.16,15.12,35.28,27.72,40.31,42.84,12.59,57.95,15.12,83.15,30.23,5-7.54,17.63-2.51,25.18-10.06,0-12.61,2.52-22.69,25.2-20.16,2.52-7.56,17.64-15.12,20.16-15.12-5,7.56-10.08,15.12-10.08,22.67,0,0-17.64-2.51-25.19,2.52-5,5,2.52,15.12,2.52,22.68-7.56,0-25.19-5-27.72,5s5,15.13,10.08,17.64c-12.61,7.55-30.23-2.53-32.75,10.08s5,10.08,10.08,15.12l-15.12,15.11s22.67,12.61,37.79,17.64c17.63-20.15,30.23-27.71,50.39-32.75,12.6-22.68,30.23-30.23,50.4-30.23-27.73-20.18-40.32-35.29-40.32-68ZM991.76,435l-30.23-10.08c42.82,7.56,95.73,7.56,136,22.68,17.64,7.57,25.19,25.19,30.23,42.83C1092.53,447.56,1049.71,447.56,991.76,435Zm577,642.45L1518.32,1017c-7.55-2.52-10.08-12.59-10.08-12.59-35.26-5-55.42-32.75-93.23-25.2-32.74-2.52-65.51-20.16-45.34-40.31-7.57-2.52-12.59-5-15.12-12.6s5-12.61,5-17.64c-5,2.52-17.62,10.08-20.16,20.16-5,12.59,25.2,42.82,32.75,52.9l55.41,50.39c5.05,12.59,25.21,27.72,25.21,35.26a19.22,19.22,0,0,1-12.6-5c-42.84-35.28-85.66-75.59-110.88-123.46-2.5,2.52-5,0-7.55-2.51-12.59-7.57-7.54-25.19-15.12-37.8-2.5,0-5-2.51-7.55-2.51-5,0-5,7.56-7.55,12.59a170.37,170.37,0,0,0,2.51,25.2c5,15.11-25.18-12.61-32.75-20.17,0,7.56,5,20.17,7.57,27.72-2.53,2.51-5,0-10.07,0-15.13-2.52-25.2-30.23-32.77-32.75s-7.56,7.56-17.63,2.52c-5.05-7.57-5.05-10.08-2.52-17.64,7.55-5,7.55-15.13,0-12.61-5.05,2.53-7.56,5-22.68-2.52-10.08,2.52-17.64,7.57-7.57,37.8,10.08,15.12,20.16,27.7,30.25,42.82l40.3,60.47,52.91,85.65,22.67,32.75c7.55,17.64,50.39,37.79,32.75,50.39-35.26,47.87,10.08,57.93,10.08,57.93,37.79,7.58,37.79-15.11,50.39-30.22,5-7.56,22.67-5,17.62,10.08,0,0-5,10.08-10,12.61-37.79,25.2,17.63,10.08,30.22,7.55,0,0,12.6,0,0,17.65-7.55,17.62,27.72,12.59,37.8,7.55,32.74-17.63,25.17-30.24,45.34-40.31,30.24-15.13,52.92-20.16,50.39-57.95-25.18-15.12-88.19-78.11-88.19-78.11h2.53L1551,1130.3l32.75,25.2c5,2.52,15.12,10.08,17.63,15.13,0,20.15-7.55,42.82-27.72,52.9-12.59,7.56-42.84,10.08-47.87,32.75,5,10.08,27.71,10.08,47.87,5,35.26-12.59,35.26-27.7,50.39-63,5-15.12,17.62-15.12,32.75-12.59-27.67-27.71-60.42-80.62-88.13-108.33Zm-128.48,93.22c-7.58-15.12-27.72-37.8-40.33-52.91L1304.17,984.2c27.72,20.15,133.53,161.25,133.53,161.25C1442.73,1160.56,1442.73,1165.61,1440.23,1170.64Zm-131-594.59s-25.2,32.75-42.84,42.84c-17.64,7.56-32.75,10.08-40.31,7.56,20.15-5,25.19-5,40.31-20.15-17.64,7.56-25.19,7.56-37.8,7.56s-15.12-15.12-15.12-10.08c-2.51,10.08-10.08,20.16-10.08,20.16-5,15.12-25.18,27.71-12.59,45.34,5,10.08,15.12,12.61,25.19,12.61,0,2.51-5,5-2.52,7.56,7.56,2.51,20.17-10.08,85.67,0,37.79-17.64-5-93.22,25.2-120.93,2.53-2.55-10.07,2.49-15.11,7.53ZM1279,681.87c-15.1,2.52-17.62,0-27.7-2.51s-15.12-10.08-15.12-17.64c0,0,10.07,15.12,32.76,15.12,17.62,0,22.67-5.05,27.71-10.08C1296.63,666.75,1294.08,681.87,1279,681.87Z"/><path class="cls-8" d="M901.06,757.45l30.23-7.56-15.12,25.18,25.19,17.63-30.23,2.52c0,10.07,2.51,20.15,2.51,30.23L891,805.29c-7.56,7.56-15.12,12.6-22.67,20.16l2.52-27.72c-10.08-5-20.16-5-30.24-7.56l25.2-17.63-12.6-25.18,25.18,10.07c7.57-10.07,10.08-20.15,12.61-27.71C893.5,737.29,896,747.38,901.06,757.45Zm168.8,42.84c10.08,0,20.16-5,30.24-7.57L1085,817.93c10.08,5,17.64,12.59,25.19,20.15l-30.23,2.52c0,7.56,2.51,17.62,2.51,30.23l-22.68-20.16c-7.56,5-15.11,12.6-22.67,20.16,0-10.08,0-20.16,2.51-30.23-7.56-2.52-20.15-2.52-27.71-5.05l25.19-17.64L1022,792.71l27.72,7.56c5-7.56,5-17.62,10.06-27.71l10.13,27.73ZM868.31,974.12l30.24-7.55-15.13,25.19c7.56,5,17.64,10.08,25.19,17.62l-30.23,2.52c0,10.08,2.51,20.16,2.51,30.23-7.56-7.56-15.11-12.59-22.67-20.15-7.56,7.56-15.12,12.59-22.67,20.15l2.52-27.71c-7.56-5-20.16-5-27.72-7.56,7.56-5,17.64-10.08,25.2-17.63L820.43,964c10.08,2.53,17.64,7.56,27.71,10.08,2.52-10.08,7.57-17.63,10.08-27.72Zm199,10.08h27.72l-22.67,15.12,7.56,27.72-20.17-17.64L1037.1,1027l7.56-27.72c-5-5-12.59-10.08-20.17-15.12h25.2c5-7.56,5-17.63,10.07-25.19C1062.3,966.57,1064.82,976.64,1067.33,984.2Z"/><path class="cls-5" d="M1069.86,1163.08c10.08-2.52,17.64-7.56,27.72-10.08L1085,1178.2l22.68,20.15c-7.56,0-20.16,0-27.72,2.52v30.23L1059.79,1211l-22.68,20.15v-30.23c-7.56-2.52-17.63-2.52-27.71-5,7.56-7.57,17.64-12.6,25.19-17.63L1022,1153l25.2,10.08,12.6-27.72,10.07,27.72Z"/><path class="cls-9" d="M1069.86,1163.08c10.08-2.52,17.64-7.56,27.72-10.08L1085,1178.2l22.68,20.15c-7.56,0-20.16,0-27.72,2.52v30.23L1059.79,1211l-22.68,20.15v-30.23c-7.56-2.52-17.63-2.52-27.71-5,7.56-7.57,17.64-12.6,25.19-17.63L1022,1153l25.2,10.08,12.6-27.72,10.07,27.72Z"/><path class="cls-10" d="M208.2,1951.68H2294.3"/></svg>