<?xml version="1.0" encoding="utf-8"?>
<!-- Generator: Adobe Illustrator 24.3.0, SVG Export Plug-In . SVG Version: 6.00 Build 0)  -->
<svg version="1.1" id="Layer_1" xmlns="http://www.w3.org/2000/svg" xmlns:xlink="http://www.w3.org/1999/xlink" x="0px" y="0px"
	 viewBox="0 0 327.9 69" style="enable-background:new 0 0 327.9 69;" xml:space="preserve">
<style type="text/css">
	.st0{fill:#F5F5F5;}
	.st1{fill:#575756;}
	.st2{fill:#AD1820;}
	.st3{fill:#E5332A;}
	.st4{fill:#F6A723;}
	.st5{fill:#E84E1B;}
	.st6{fill:#FAA634;}
	.st7{fill:none;stroke:#9C9B9B;stroke-width:3;stroke-miterlimit:10;}
	.st8{fill:#9C9B9B;}
	.st9{fill:#1D1D1B;}
	.st10{clip-path:url(#SVGID_2_);}
	.st11{clip-path:url(#SVGID_4_);}
	.st12{clip-path:url(#SVGID_6_);}
	.st13{fill:none;stroke:#AD1820;stroke-width:2.7971;stroke-miterlimit:10;}
	.st14{fill:#FFFFFF;}
	.st15{fill:#C6C6C5;}
	.st16{fill:#868686;}
	.st17{fill:#3C3C3B;}
	.st18{opacity:0.52;fill:#AD1820;}
	.st19{fill:none;stroke:#AD1820;stroke-width:4.3435;stroke-miterlimit:10;}
	.st20{fill:none;stroke:#E5332A;stroke-width:4.3435;stroke-miterlimit:10;}
	.st21{fill:#B1B1B1;}
	.st22{fill:#DD4D02;}
	.st23{fill:#A4A4A4;}
</style>
<g>
	<rect x="66.9" y="32.9" class="st1" width="173.6" height="1"/>
	<path class="st3" d="M261.1,33.4c0-18.4,14.9-33.4,33.4-33.4v33.4H261.1z"/>
	<path class="st4" d="M294.5,0c18.4,0,33.4,14.9,33.4,33.4h-33.4V0z"/>
	<path class="st5" d="M327.9,33.4c0,18.4-14.9,33.4-33.4,33.4V33.4H327.9z"/>
	<path class="st2" d="M294.5,66.8c-18.4,0-33.4-14.9-33.4-33.4h33.4V66.8z"/>
	<path class="st4" d="M32.6,49.9c1-3.4,3-6.4,5.7-8.8c5.1-4.2,8.3-10.7,8.3-17.8c0-13.2-11-24-24.5-23.3C10.2,0.5,0.3,10.7,0,22.7
		c-0.2,7.4,3,14,8.3,18.4c2.9,2.4,4.9,5.4,5.9,8.8H32.6L32.6,49.9z"/>
	<path class="st17" d="M18.1,65.5c0.8,2,2.9,3.6,5.2,3.6c2.4,0,4.4-1.5,5.2-3.6H18.1z"/>
	<path class="st17" d="M29.6,65.6H17.3c-1.7,0-3-1.4-3-3V49.8h18.4v12.9C32.6,64.3,31.3,65.6,29.6,65.6z"/>
</g>
</svg>
