<?xml version="1.0" encoding="utf-8"?>
<!-- Generator: Adobe Illustrator 24.3.0, SVG Export Plug-In . SVG Version: 6.00 Build 0)  -->
<svg version="1.1" id="Layer_1" xmlns="http://www.w3.org/2000/svg" xmlns:xlink="http://www.w3.org/1999/xlink" x="0px" y="0px"
	 viewBox="0 0 61.5 81.5" style="enable-background:new 0 0 61.5 81.5;" xml:space="preserve">
<style type="text/css">
	.st0{fill:#F5F5F5;}
	.st1{fill:#575756;}
	.st2{fill:#AD1820;}
	.st3{fill:#E5332A;}
	.st4{fill:#F6A723;}
	.st5{fill:#E84E1B;}
	.st6{fill:#FAA634;}
	.st7{fill:none;stroke:#9C9B9B;stroke-width:3;stroke-miterlimit:10;}
	.st8{fill:#9C9B9B;}
	.st9{fill:#1D1D1B;}
	.st10{clip-path:url(#SVGID_2_);}
	.st11{clip-path:url(#SVGID_4_);}
	.st12{clip-path:url(#SVGID_6_);}
	.st13{fill:none;stroke:#AD1820;stroke-width:2.7971;stroke-miterlimit:10;}
	.st14{fill:#FFFFFF;}
	.st15{fill:#C6C6C5;}
	.st16{fill:#868686;}
	.st17{fill:#3C3C3B;}
	.st18{opacity:0.52;fill:#AD1820;}
	.st19{fill:none;stroke:#AD1820;stroke-width:4.3435;stroke-miterlimit:10;}
	.st20{fill:none;stroke:#E5332A;stroke-width:4.3435;stroke-miterlimit:10;}
	.st21{fill:#B1B1B1;}
	.st22{fill:#DD4D02;}
	.st23{fill:#A4A4A4;}
</style>
<g>
	<path class="st22" d="M61.3,19.7l-19-19c-0.1-0.3-0.3-0.6-0.7-0.6C41.5,0,41.4,0,41.3,0H0.7C0.3,0,0,0.3,0,0.7v80
		c0,0.4,0.3,0.8,0.8,0.8h60c0.4,0,0.8-0.3,0.8-0.8V20.2C61.5,20,61.4,19.8,61.3,19.7z M42.3,2.8L59,19.5H42.3V2.8z M60,80H1.5V1.5
		h39.3v18.8c0,0.4,0.3,0.8,0.8,0.8H60V80z"/>
	<path class="st22" d="M13.3,31.5c0,0.4,0.3,0.8,0.8,0.8h33.3c0.4,0,0.8-0.3,0.8-0.8s-0.3-0.8-0.8-0.8H14.1
		C13.7,30.7,13.3,31.1,13.3,31.5z"/>
	<path class="st22" d="M47.4,41.1H14.1c-0.4,0-0.8,0.3-0.8,0.8s0.3,0.8,0.8,0.8h33.3c0.4,0,0.8-0.3,0.8-0.8S47.8,41.1,47.4,41.1z"/>
	<path class="st22" d="M47.4,51.6H14.1c-0.4,0-0.8,0.3-0.8,0.8s0.3,0.8,0.8,0.8h33.3c0.4,0,0.8-0.3,0.8-0.8S47.8,51.6,47.4,51.6z"/>
	<path class="st22" d="M47.4,62H14.1c-0.4,0-0.8,0.3-0.8,0.8s0.3,0.8,0.8,0.8h33.3c0.4,0,0.8-0.3,0.8-0.8S47.8,62,47.4,62z"/>
</g>
</svg>
