<?xml version="1.0" encoding="utf-8"?>
<!-- Generator: Adobe Illustrator 24.3.0, SVG Export Plug-In . SVG Version: 6.00 Build 0)  -->
<svg version="1.1" id="Layer_1" xmlns="http://www.w3.org/2000/svg" xmlns:xlink="http://www.w3.org/1999/xlink" x="0px" y="0px"
	 viewBox="0 0 71.4 72" style="enable-background:new 0 0 71.4 72;" xml:space="preserve">
<style type="text/css">
	.st0{fill:#F5F5F5;}
	.st1{fill:#575756;}
	.st2{fill:#AD1820;}
	.st3{fill:#E5332A;}
	.st4{fill:#F6A723;}
	.st5{fill:#E84E1B;}
	.st6{fill:#FAA634;}
	.st7{fill:none;stroke:#9C9B9B;stroke-width:3;stroke-miterlimit:10;}
	.st8{fill:#9C9B9B;}
	.st9{fill:#1D1D1B;}
	.st10{clip-path:url(#SVGID_2_);}
	.st11{clip-path:url(#SVGID_4_);}
	.st12{clip-path:url(#SVGID_6_);}
	.st13{fill:none;stroke:#AD1820;stroke-width:2.7971;stroke-miterlimit:10;}
	.st14{fill:#FFFFFF;}
	.st15{fill:#C6C6C5;}
	.st16{fill:#868686;}
	.st17{fill:#3C3C3B;}
	.st18{opacity:0.52;fill:#AD1820;}
	.st19{fill:none;stroke:#AD1820;stroke-width:4.3435;stroke-miterlimit:10;}
	.st20{fill:none;stroke:#E5332A;stroke-width:4.3435;stroke-miterlimit:10;}
	.st21{fill:#B1B1B1;}
	.st22{fill:#DD4D02;}
	.st23{fill:#A4A4A4;}
</style>
<g>
	<polygon class="st22" points="35,2.9 35,41.8 36.5,41.8 36.5,2.9 42.6,9 43.7,8 35.7,0 27.7,8 28.8,9 	"/>
	<path class="st22" d="M63.5,25.2l-1.1,1.1l5.8,5.8c-4.9-0.5-16.4-1-24.6,5.8c-5.7,4.7-8.7,12-8.7,21.8V72h1.5V59.6
		c0-9.2,2.7-16.2,8.1-20.6c8.1-6.7,20.1-5.9,24.2-5.4L62.4,40l1.1,1.1l8-8L63.5,25.2z"/>
	<path class="st22" d="M3.2,32.1L9,26.2L8,25.2l-8,8l8,8L9,40l-6.4-6.4c5.2-0.6,23.2-1.8,29.8,12.7l1.4-0.6
		C27.1,31,9.5,31.4,3.2,32.1z"/>
</g>
</svg>
