<?xml version="1.0" encoding="utf-8"?>
<!-- Generator: Adobe Illustrator 24.3.0, SVG Export Plug-In . SVG Version: 6.00 Build 0)  -->
<svg version="1.1" id="Layer_1" xmlns="http://www.w3.org/2000/svg" xmlns:xlink="http://www.w3.org/1999/xlink" x="0px" y="0px"
	 viewBox="0 0 37.2 54.5" style="enable-background:new 0 0 37.2 54.5;" xml:space="preserve">
<style type="text/css">
	.st0{fill:#F5F5F5;}
	.st1{fill:#575756;}
	.st2{fill:#AD1820;}
	.st3{fill:#E5332A;}
	.st4{fill:#F6A723;}
	.st5{fill:#E84E1B;}
	.st6{fill:#FAA634;}
	.st7{fill:none;stroke:#9C9B9B;stroke-width:3;stroke-miterlimit:10;}
	.st8{fill:#9C9B9B;}
	.st9{fill:#1D1D1B;}
	.st10{clip-path:url(#SVGID_2_);}
	.st11{clip-path:url(#SVGID_4_);}
	.st12{clip-path:url(#SVGID_6_);}
	.st13{fill:none;stroke:#AD1820;stroke-width:2.7971;stroke-miterlimit:10;}
	.st14{fill:#FFFFFF;}
	.st15{fill:#C6C6C5;}
	.st16{fill:#868686;}
	.st17{fill:#3C3C3B;}
	.st18{opacity:0.52;fill:#AD1820;}
	.st19{fill:none;stroke:#AD1820;stroke-width:4.3435;stroke-miterlimit:10;}
	.st20{fill:none;stroke:#E5332A;stroke-width:4.3435;stroke-miterlimit:10;}
	.st21{fill:#B1B1B1;}
	.st22{fill:#DD4D02;}
	.st23{fill:#A4A4A4;}
	.st24{fill:#E94D00;}
	.st25{clip-path:url(#SVGID_8_);fill:#E74E1B;}
	.st26{clip-path:url(#SVGID_8_);}
	.st27{fill:#AC1820;}
	.st28{fill:#F19000;}
	.st29{opacity:0.52;fill:#AC1820;}
	.st30{fill:#E4332A;}
</style>
<g>
	<path class="st23" d="M33,6.6h-4.9V4.3c0-0.4-0.3-0.8-0.8-0.8h-3.7c-0.8-2.1-2.8-3.6-5-3.6c-2.3,0-4.3,1.4-5,3.6H9.8
		c-0.4,0-0.8,0.3-0.8,0.8v2.3H4.2C1.9,6.6,0,8.5,0,10.8v39.4c0,2.3,1.9,4.2,4.2,4.2H33c2.3,0,4.2-1.9,4.2-4.2V10.8
		C37.2,8.5,35.3,6.6,33,6.6z M10.6,5.1h3.5c0.3,0,0.6-0.2,0.7-0.6c0.4-1.8,2-3,3.8-3c1.8,0,3.3,1.2,3.8,3c0.1,0.3,0.4,0.6,0.7,0.6
		h3.5v5.2h-16V5.1z M35.7,50.2c0,1.5-1.2,2.7-2.7,2.7H4.2c-1.5,0-2.7-1.2-2.7-2.7V10.8c0-1.5,1.2-2.7,2.7-2.7h4.9V11
		c0,0.4,0.3,0.8,0.8,0.8h17.5c0.4,0,0.8-0.3,0.8-0.8V8.1H33c1.5,0,2.7,1.2,2.7,2.7V50.2z"/>
	<path class="st23" d="M30.7,19.5H17.4c-0.4,0-0.8,0.3-0.8,0.8S17,21,17.4,21h13.3c0.4,0,0.8-0.3,0.8-0.8S31.1,19.5,30.7,19.5z"/>
	<path class="st23" d="M13.8,17.1l-4.7,4.7l-2-2c-0.3-0.3-0.8-0.3-1.1,0s-0.3,0.8,0,1.1l2.6,2.6c0.1,0.1,0.3,0.2,0.5,0.2
		s0.4-0.1,0.5-0.2l5.2-5.2c0.3-0.3,0.3-0.8,0-1.1S14.1,16.8,13.8,17.1z"/>
	<path class="st23" d="M30.7,31.7H17.4c-0.4,0-0.8,0.3-0.8,0.7s0.3,0.8,0.8,0.8h13.3c0.4,0,0.8-0.3,0.8-0.8S31.1,31.7,30.7,31.7z"/>
	<path class="st23" d="M13.8,29.3L9.1,34l-2-2c-0.3-0.3-0.8-0.3-1.1,0c-0.3,0.3-0.3,0.8,0,1.1l2.6,2.6c0.1,0.1,0.3,0.2,0.5,0.2
		s0.4-0.1,0.5-0.2l5.2-5.2c0.3-0.3,0.3-0.8,0-1.1S14.1,29,13.8,29.3z"/>
	<path class="st23" d="M30.7,43.8H17.4c-0.4,0-0.8,0.3-0.8,0.8s0.3,0.8,0.8,0.8h13.3c0.4,0,0.8-0.3,0.8-0.8S31.1,43.8,30.7,43.8z"/>
	<path class="st23" d="M13.8,41.4l-4.7,4.7l-2-2c-0.3-0.3-0.8-0.3-1.1,0s-0.3,0.8,0,1.1l2.6,2.6c0.1,0.1,0.3,0.2,0.5,0.2
		s0.4-0.1,0.5-0.2l5.2-5.2c0.3-0.3,0.3-0.8,0-1.1S14.1,41.1,13.8,41.4z"/>
</g>
</svg>
