<?xml version="1.0" encoding="utf-8"?>
<!-- Generator: Adobe Illustrator 24.3.0, SVG Export Plug-In . SVG Version: 6.00 Build 0)  -->
<svg version="1.1" id="Layer_1" xmlns="http://www.w3.org/2000/svg" xmlns:xlink="http://www.w3.org/1999/xlink" x="0px" y="0px"
	 viewBox="0 0 102 51.1" style="enable-background:new 0 0 102 51.1;" xml:space="preserve">
<style type="text/css">
	.st0{fill:#F5F5F5;}
	.st1{fill:#575756;}
	.st2{fill:#AD1820;}
	.st3{fill:#E5332A;}
	.st4{fill:#F6A723;}
	.st5{fill:#E84E1B;}
	.st6{fill:#FAA634;}
	.st7{fill:none;stroke:#9C9B9B;stroke-width:3;stroke-miterlimit:10;}
	.st8{fill:#9C9B9B;}
	.st9{fill:#1D1D1B;}
	.st10{clip-path:url(#SVGID_2_);}
	.st11{clip-path:url(#SVGID_4_);}
	.st12{clip-path:url(#SVGID_6_);}
	.st13{fill:none;stroke:#AD1820;stroke-width:2.7971;stroke-miterlimit:10;}
	.st14{fill:#FFFFFF;}
	.st15{fill:#C6C6C5;}
	.st16{fill:#868686;}
	.st17{fill:#3C3C3B;}
	.st18{opacity:0.52;fill:#AD1820;}
	.st19{fill:none;stroke:#AD1820;stroke-width:4.3435;stroke-miterlimit:10;}
	.st20{fill:none;stroke:#E5332A;stroke-width:4.3435;stroke-miterlimit:10;}
	.st21{fill:#B1B1B1;}
	.st22{fill:#DD4D02;}
	.st23{fill:#A4A4A4;}
	.st24{fill:#E94D00;}
	.st25{clip-path:url(#SVGID_8_);fill:#E74E1B;}
	.st26{clip-path:url(#SVGID_8_);}
	.st27{fill:#AC1820;}
	.st28{fill:#F19000;}
	.st29{opacity:0.52;fill:#AC1820;}
	.st30{fill:#E4332A;}
</style>
<path class="st22" d="M70.4,13.1H102v-1.5H69.8L63.1,18L56.9,6.1H36V3.8C36,1.7,34.4,0,32.3,0H3.8C1.7,0,0,1.7,0,3.8v5.6
	c0,2.1,1.7,3.8,3.8,3.8h28.5c2.1,0,3.8-1.7,3.8-3.8V7.6H56L62,19l-5.9,5.7H36v-1.9c0-2.1-1.7-3.8-3.8-3.8H3.8C1.7,19,0,20.7,0,22.7
	v5.6c0,2.1,1.7,3.8,3.8,3.8h28.5c2.1,0,3.8-1.7,3.8-3.8v-2.1h20.7l6-5.8l5.3,10l-12,13H36v-1.8c0-2.1-1.7-3.8-3.8-3.8H3.8
	C1.7,38,0,39.7,0,41.7v5.6c0,2.1,1.7,3.8,3.8,3.8h28.5c2.1,0,3.8-1.7,3.8-3.8V45h20.7l12.2-13.3v0H102v-1.5H69.6l-5.7-10.9
	L70.4,13.1z M34.5,9.3c0,1.2-1,2.2-2.2,2.2H3.8c-1.2,0-2.2-1-2.2-2.2V3.8c0-1.2,1-2.2,2.2-2.2h28.5c1.2,0,2.2,1,2.2,2.2V9.3z
	 M34.5,28.3c0,1.2-1,2.2-2.2,2.2H3.8c-1.2,0-2.2-1-2.2-2.2v-5.6c0-1.2,1-2.2,2.2-2.2h28.5c1.2,0,2.2,1,2.2,2.2V28.3z M34.5,47.3
	c0,1.2-1,2.2-2.2,2.2H3.8c-1.2,0-2.2-1-2.2-2.2v-5.6c0-1.2,1-2.2,2.2-2.2h28.5c1.2,0,2.2,1,2.2,2.2V47.3z"/>
</svg>
