<?xml version="1.0" encoding="utf-8"?>
<!-- Generator: Adobe Illustrator 24.3.0, SVG Export Plug-In . SVG Version: 6.00 Build 0)  -->
<svg version="1.1" id="Layer_1" xmlns="http://www.w3.org/2000/svg" xmlns:xlink="http://www.w3.org/1999/xlink" x="0px" y="0px"
	 viewBox="0 0 81.7 80.3" style="enable-background:new 0 0 81.7 80.3;" xml:space="preserve">
<style type="text/css">
	.st0{fill:#F5F5F5;}
	.st1{fill:#575756;}
	.st2{fill:#AD1820;}
	.st3{fill:#E5332A;}
	.st4{fill:#F6A723;}
	.st5{fill:#E84E1B;}
	.st6{fill:#FAA634;}
	.st7{fill:none;stroke:#9C9B9B;stroke-width:3;stroke-miterlimit:10;}
	.st8{fill:#9C9B9B;}
	.st9{fill:#1D1D1B;}
	.st10{clip-path:url(#SVGID_2_);}
	.st11{clip-path:url(#SVGID_4_);}
	.st12{clip-path:url(#SVGID_6_);}
	.st13{fill:none;stroke:#AD1820;stroke-width:2.7971;stroke-miterlimit:10;}
	.st14{fill:#FFFFFF;}
	.st15{fill:#C6C6C5;}
	.st16{fill:#868686;}
	.st17{fill:#3C3C3B;}
	.st18{opacity:0.52;fill:#AD1820;}
	.st19{fill:none;stroke:#AD1820;stroke-width:4.3435;stroke-miterlimit:10;}
	.st20{fill:none;stroke:#E5332A;stroke-width:4.3435;stroke-miterlimit:10;}
	.st21{fill:#B1B1B1;}
	.st22{fill:#DD4D02;}
	.st23{fill:#A4A4A4;}
</style>
<g>
	<path class="st22" d="M40.9,0C18.3,0,0,18,0,40.1s18.3,40.1,40.9,40.1s40.9-18,40.9-40.1S63.4,0,40.9,0z M40.9,78.8
		c-21.7,0-39.4-17.3-39.4-38.6S19.2,1.5,40.9,1.5s39.4,17.3,39.4,38.6S62.6,78.8,40.9,78.8z"/>
	<path class="st22" d="M56.5,24.6L34.6,46.1l-9.3-9.1c-1.8-1.8-4.7-1.8-6.5,0c-0.9,0.9-1.4,2-1.4,3.2c0,1.2,0.5,2.4,1.4,3.2
		l12.6,12.4c0.9,0.9,2,1.3,3.3,1.3c1.2,0,2.4-0.5,3.3-1.3L63,31c0.9-0.9,1.4-2,1.4-3.2c0-1.2-0.5-2.4-1.4-3.2
		C61.2,22.8,58.3,22.8,56.5,24.6z M62,29.9L36.8,54.6c-1.2,1.2-3.2,1.2-4.4,0L19.8,42.3c-0.6-0.6-0.9-1.3-0.9-2.2
		c0-0.8,0.3-1.6,0.9-2.2c0.6-0.6,1.4-0.9,2.2-0.9c0.8,0,1.6,0.3,2.2,0.9l10.4,10.2l23-22.5c1.2-1.2,3.2-1.2,4.4,0
		c0.6,0.6,0.9,1.3,0.9,2.2C62.9,28.6,62.5,29.3,62,29.9z"/>
</g>
</svg>
