<?xml version="1.0" encoding="utf-8"?>
<!-- Generator: Adobe Illustrator 24.3.0, SVG Export Plug-In . SVG Version: 6.00 Build 0)  -->
<svg version="1.1" id="Layer_1" xmlns="http://www.w3.org/2000/svg" xmlns:xlink="http://www.w3.org/1999/xlink" x="0px" y="0px"
	 viewBox="0 0 134.3 48.9" style="enable-background:new 0 0 134.3 48.9;" xml:space="preserve">
<style type="text/css">
	.st0{fill:#F5F5F5;}
	.st1{fill:#575756;}
	.st2{fill:#AD1820;}
	.st3{fill:#E5332A;}
	.st4{fill:#F6A723;}
	.st5{fill:#E84E1B;}
	.st6{fill:#FAA634;}
	.st7{fill:none;stroke:#9C9B9B;stroke-width:3;stroke-miterlimit:10;}
	.st8{fill:#9C9B9B;}
	.st9{fill:#1D1D1B;}
	.st10{clip-path:url(#SVGID_2_);}
	.st11{clip-path:url(#SVGID_4_);}
	.st12{clip-path:url(#SVGID_6_);}
	.st13{fill:none;stroke:#AD1820;stroke-width:2.7971;stroke-miterlimit:10;}
	.st14{fill:#FFFFFF;}
	.st15{fill:#C6C6C5;}
	.st16{fill:#868686;}
	.st17{fill:#3C3C3B;}
	.st18{opacity:0.52;fill:#AD1820;}
	.st19{fill:none;stroke:#AD1820;stroke-width:4.3435;stroke-miterlimit:10;}
	.st20{fill:none;stroke:#E5332A;stroke-width:4.3435;stroke-miterlimit:10;}
	.st21{fill:#B1B1B1;}
	.st22{fill:#DD4D02;}
	.st23{fill:#A4A4A4;}
</style>
<g>
	<path class="st22" d="M122.6,0.5H96.6v47.8h37.8V12.2L122.6,0.5z M123.2,3.2l8.6,8.6h-8.6V3.2z M132.8,46.8H98.1V2h23.7v11.3h11.1
		V46.8z"/>
	<path class="st22" d="M78.5,17.5l6.2,6.2H53.2L32.1,5H11.4c-0.4-2.8-2.8-5-5.7-5C2.6,0,0,2.6,0,5.8s2.6,5.7,5.8,5.7
		c2.9,0,5.3-2.2,5.7-5h20.1l19.4,17.1H11.4c-0.4-2.8-2.8-5-5.7-5c-3.2,0-5.8,2.6-5.8,5.8s2.6,5.8,5.8,5.8c2.9,0,5.3-2.2,5.7-5h39.5
		L31.5,42.4H11.4c-0.4-2.8-2.8-5-5.7-5C2.6,37.4,0,40,0,43.2s2.6,5.8,5.8,5.8c2.9,0,5.3-2.2,5.7-5h20.7l21.1-18.8h31.4l-6.2,6.2
		l1.1,1.1l8-8l-8-8L78.5,17.5z M5.8,10c-2.3,0-4.2-1.9-4.2-4.2s1.9-4.2,4.2-4.2S10,3.4,10,5.8S8.1,10,5.8,10z M5.8,47.4
		c-2.3,0-4.2-1.9-4.2-4.2s1.9-4.2,4.2-4.2s4.3,1.9,4.3,4.2S8.1,47.4,5.8,47.4z M5.8,28.6c-2.3,0-4.2-1.9-4.2-4.2s1.9-4.2,4.2-4.2
		S10,22,10,24.4S8.1,28.6,5.8,28.6z"/>
</g>
</svg>
