<?xml version="1.0" encoding="utf-8"?>
<!-- Generator: Adobe Illustrator 24.3.0, SVG Export Plug-In . SVG Version: 6.00 Build 0)  -->
<svg version="1.1" id="Layer_1" xmlns="http://www.w3.org/2000/svg" xmlns:xlink="http://www.w3.org/1999/xlink" x="0px" y="0px"
	 viewBox="0 0 174 78.3" style="enable-background:new 0 0 174 78.3;" xml:space="preserve">
<style type="text/css">
	.st0{fill:#F5F5F5;}
	.st1{fill:#575756;}
	.st2{fill:#AD1820;}
	.st3{fill:#E5332A;}
	.st4{fill:#F6A723;}
	.st5{fill:#E84E1B;}
	.st6{fill:#FAA634;}
	.st7{fill:none;stroke:#9C9B9B;stroke-width:3;stroke-miterlimit:10;}
	.st8{fill:#9C9B9B;}
	.st9{fill:#1D1D1B;}
	.st10{clip-path:url(#SVGID_2_);}
	.st11{clip-path:url(#SVGID_4_);}
	.st12{clip-path:url(#SVGID_6_);}
	.st13{fill:none;stroke:#AD1820;stroke-width:2.7971;stroke-miterlimit:10;}
	.st14{fill:#FFFFFF;}
	.st15{fill:#C6C6C5;}
	.st16{fill:#868686;}
	.st17{fill:#3C3C3B;}
	.st18{opacity:0.52;fill:#AD1820;}
	.st19{fill:none;stroke:#AD1820;stroke-width:4.3435;stroke-miterlimit:10;}
	.st20{fill:none;stroke:#E5332A;stroke-width:4.3435;stroke-miterlimit:10;}
	.st21{fill:#B1B1B1;}
	.st22{fill:#DD4D02;}
	.st23{fill:#A4A4A4;}
</style>
<g>
	<path class="st22" d="M53.2,63.4l-13.9-5l0,0L38.8,58c-1.5-1.1-1.6-1.5-1.7-3.7l0,0c1-1.4,4.4-6.2,4.9-9.3c0-0.1,0.1-0.3,0.1-0.5
		c0,0,0-0.1,0-0.1l0.1-0.1l-0.1-0.1c0.6-1.5,0.6-2.5,0.6-3.9c0-0.3,0-0.6,0-0.9c0-7.6-5.9-13.8-13.1-13.8c-1.5,0-2.3,0.4-3.4,0.9
		c-0.2,0.1-0.4,0.2-0.7,0.3c-0.5,0.1-1,0.2-1.4,0.3c-3.2,0.9-4.8,3.2-6.3,6.4c-1.3,2.8-1.8,4.7-1.3,8c0.1,0.7,0.4,1.8,0.7,2.6
		c0.1,0.2,0.2,0.4,0.3,0.6c0.6,3.8,2.4,7.6,4.6,9.8c-0.1,1.7-0.6,2.5-2.2,3.6l-0.5,0.3L5.6,63.4c-2.2,0.8-3.8,2.7-4.2,5L0,78.1
		l1.5,0.2L3,68.6c0.3-1.8,1.5-3.2,3.2-3.8l14-5l6.6,9.2c0.6,0.9,1.6,1.4,2.7,1.5v0.1c1.2,0,2.2-0.5,2.9-1.5L39,58.9l-0.3,0.8l14,5
		c1.7,0.6,2.9,2.1,3.2,3.8l1.5,9.6l1.5-0.2l-1.5-9.7C57,66.1,55.4,64.2,53.2,63.4z M19.3,34.2c1.3-2.9,2.6-4.8,5.3-5.6
		c0.4-0.1,0.9-0.2,1.3-0.3l0.2-0.1c0.3-0.1,0.6-0.3,0.8-0.4c1-0.5,1.6-0.8,2.8-0.8c6.4,0,11.6,5.5,11.6,12.3c0,0.3,0,0.6,0,0.9
		c0,0.7,0,1.3-0.1,1.9c-0.8-1.5-2.7-2.9-5.1-2.7l-9.8,0c-0.7,0-1.7-0.2-2.5-0.4l-1.3-0.4l-0.8,1c-0.3,0.4-0.7,0.9-1.3,1.4l-0.2,0.2
		c-0.4,0.4-0.8,0.8-2.1,1.3c-0.1-0.4-0.2-0.9-0.3-1.3C17.6,38.4,18.1,36.7,19.3,34.2z M31.2,68.2c-0.4,0.5-0.9,0.8-1.5,0.8V69
		c-0.7,0-1.3-0.3-1.6-0.9L21.4,59c1.6-1.3,2.2-2.6,2.2-4.7l0-0.3l-0.2-0.2c-2.1-2-3.8-5.7-4.4-9.3l-0.1-0.2c0,0,0-0.1-0.1-0.1
		c1.6-0.6,2.2-1.3,2.7-1.7l0.2-0.2c0.6-0.6,1-1,1.4-1.6l0.1-0.2l0.3,0.1c0.9,0.3,2.1,0.5,2.9,0.5l9.8,0c1.9-0.1,3.3,1.1,3.8,2.2
		c0,0.1,0.3,0.5,0.5,1l0.1,0.2l-0.1,0.2c-0.4,2.5-3.2,6.8-4.8,9l-0.2,0.2l0,0.5c0,2.1,0.2,3.2,1.7,4.4L31.2,68.2z"/>
	<path class="st22" d="M161.1,24.8H148v-22l6.9,6.9l1.1-1.1L147.2,0l-8.7,8.7l1.1,1.1l6.9-6.9v22h-14v52.5H174V37.7L161.1,24.8z
		 M147.2,2.1l0.2,0.2H147L147.2,2.1z M161.7,27.6l9.7,9.7h-9.7V27.6z M172.5,75.9H134V26.3h12.5v12.8h1.5V26.3h12.2v12.5h12.2V75.9z
		"/>
	<path class="st22" d="M100.1,45l6.9,6.9H70.8v1.5h36.3l-6.9,6.9l1.1,1.1l8.7-8.7l-8.7-8.7L100.1,45z M107.6,52.9v-0.4l0.2,0.2
		L107.6,52.9z"/>
</g>
</svg>
