<?xml version="1.0" encoding="utf-8"?>
<!-- Generator: Adobe Illustrator 24.3.0, SVG Export Plug-In . SVG Version: 6.00 Build 0)  -->
<svg version="1.1" id="Layer_1" xmlns="http://www.w3.org/2000/svg" xmlns:xlink="http://www.w3.org/1999/xlink" x="0px" y="0px"
	 viewBox="0 0 49.3 76" style="enable-background:new 0 0 49.3 76;" xml:space="preserve">
<style type="text/css">
	.st0{fill:#F5F5F5;}
	.st1{fill:#575756;}
	.st2{fill:#AD1820;}
	.st3{fill:#E5332A;}
	.st4{fill:#F6A723;}
	.st5{fill:#E84E1B;}
	.st6{fill:#FAA634;}
	.st7{fill:none;stroke:#9C9B9B;stroke-width:3;stroke-miterlimit:10;}
	.st8{fill:#9C9B9B;}
	.st9{fill:#1D1D1B;}
	.st10{clip-path:url(#SVGID_2_);}
	.st11{clip-path:url(#SVGID_4_);}
	.st12{clip-path:url(#SVGID_6_);}
	.st13{fill:none;stroke:#AD1820;stroke-width:2.7971;stroke-miterlimit:10;}
	.st14{fill:#FFFFFF;}
	.st15{fill:#C6C6C5;}
	.st16{fill:#868686;}
	.st17{fill:#3C3C3B;}
	.st18{opacity:0.52;fill:#AD1820;}
	.st19{fill:none;stroke:#AD1820;stroke-width:4.3435;stroke-miterlimit:10;}
	.st20{fill:none;stroke:#E5332A;stroke-width:4.3435;stroke-miterlimit:10;}
	.st21{fill:#B1B1B1;}
	.st22{fill:#DD4D02;}
	.st23{fill:#A4A4A4;}
	.st24{fill:#E94D00;}
	.st25{clip-path:url(#SVGID_8_);fill:#E74E1B;}
	.st26{clip-path:url(#SVGID_8_);}
	.st27{fill:#AC1820;}
	.st28{fill:#F19000;}
	.st29{opacity:0.52;fill:#AC1820;}
	.st30{fill:#E4332A;}
</style>
<g>
	<path class="st22" d="M24.7,0C11.1,0,0,11.1,0,24.7c0,3.9,0.9,7.6,2.6,11l21,40.3l23.7-41.8c1.3-3,1.9-6.3,1.9-9.6
		C49.3,11.1,38.2,0,24.7,0z M46,33.6L23.7,72.9L3.9,35c-1.6-3.2-2.4-6.7-2.4-10.4c0-12.8,10.4-23.2,23.2-23.2s23.2,10.4,23.2,23.2
		C47.8,27.8,47.2,30.8,46,33.6z"/>
	<path class="st22" d="M24.7,10C16.6,10,10,16.6,10,24.7s6.6,14.7,14.7,14.7s14.7-6.6,14.7-14.7S32.8,10,24.7,10z M24.7,37.8
		c-7.3,0-13.2-5.9-13.2-13.2s5.9-13.2,13.2-13.2s13.2,5.9,13.2,13.2S31.9,37.8,24.7,37.8z"/>
</g>
</svg>
