<?xml version="1.0" encoding="utf-8"?>
<!-- Generator: Adobe Illustrator 24.3.0, SVG Export Plug-In . SVG Version: 6.00 Build 0)  -->
<svg version="1.1" id="Layer_1" xmlns="http://www.w3.org/2000/svg" xmlns:xlink="http://www.w3.org/1999/xlink" x="0px" y="0px"
	 viewBox="0 0 62 79.6" style="enable-background:new 0 0 62 79.6;" xml:space="preserve">
<style type="text/css">
	.st0{fill:#F5F5F5;}
	.st1{fill:#575756;}
	.st2{fill:#AD1820;}
	.st3{fill:#E5332A;}
	.st4{fill:#F6A723;}
	.st5{fill:#E84E1B;}
	.st6{fill:#FAA634;}
	.st7{fill:none;stroke:#9C9B9B;stroke-width:3;stroke-miterlimit:10;}
	.st8{fill:#9C9B9B;}
	.st9{fill:#1D1D1B;}
	.st10{clip-path:url(#SVGID_2_);}
	.st11{clip-path:url(#SVGID_4_);}
	.st12{clip-path:url(#SVGID_6_);}
	.st13{fill:none;stroke:#AD1820;stroke-width:2.7971;stroke-miterlimit:10;}
	.st14{fill:#FFFFFF;}
	.st15{fill:#C6C6C5;}
	.st16{fill:#868686;}
	.st17{fill:#3C3C3B;}
	.st18{opacity:0.52;fill:#AD1820;}
	.st19{fill:none;stroke:#AD1820;stroke-width:4.3435;stroke-miterlimit:10;}
	.st20{fill:none;stroke:#E5332A;stroke-width:4.3435;stroke-miterlimit:10;}
	.st21{fill:#B1B1B1;}
	.st22{fill:#DD4D02;}
	.st23{fill:#A4A4A4;}
	.st24{fill:#E94D00;}
	.st25{clip-path:url(#SVGID_8_);fill:#E74E1B;}
	.st26{clip-path:url(#SVGID_8_);}
	.st27{fill:#AC1820;}
	.st28{fill:#F19000;}
	.st29{opacity:0.52;fill:#AC1820;}
	.st30{fill:#E4332A;}
</style>
<g>
	<path class="st22" d="M56.1,32.9L56.1,32.9l0-7.9C56.1,11.2,44.8,0,31,0S5.9,11.2,5.9,25.1v7.9h0c-3.2,0-5.9,2.6-5.9,5.9v34.9
		c0,3.2,2.6,5.9,5.9,5.9h50.3c3.2,0,5.9-2.6,5.9-5.9V38.8C62,35.6,59.3,32.9,56.1,32.9z M7.4,25.1C7.4,12.1,18,1.5,31,1.5
		s23.6,10.6,23.6,23.6v7.9h-4.9v-7.9c0-10.3-8.4-18.7-18.7-18.7s-18.7,8.4-18.7,18.7v7.9H7.4V25.1z M13.8,32.9v-7.9
		c0-9.5,7.7-17.2,17.2-17.2s17.2,7.7,17.2,17.2v7.9H13.8z M60.5,73.7c0,2.4-2,4.4-4.4,4.4H5.9c-2.4,0-4.4-2-4.4-4.4V38.8
		c0-2.4,2-4.4,4.4-4.4h0.8H13H49h6.4h0.8c2.4,0,4.4,2,4.4,4.4V73.7z"/>
	<path class="st22" d="M31,41.7c-4.9,0-8.9,4-8.9,8.9c0,2.8,1.3,5.5,3.6,7.2v7.7c0,2.9,2.4,5.3,5.3,5.3c2.9,0,5.3-2.4,5.3-5.3v-7.6
		c2.3-1.7,3.7-4.3,3.7-7.2C39.9,45.7,35.9,41.7,31,41.7z M35.1,56.8c-0.2,0.1-0.3,0.4-0.3,0.6v8c0,2.1-1.7,3.8-3.8,3.8
		c-2.1,0-3.8-1.7-3.8-3.8v-8.1c0-0.2-0.1-0.5-0.3-0.6c-2.1-1.4-3.3-3.7-3.3-6.2c0-4.1,3.3-7.4,7.4-7.4c4.1,0,7.4,3.3,7.4,7.4
		C38.4,53.1,37.2,55.5,35.1,56.8z"/>
</g>
</svg>
