<?xml version="1.0" encoding="utf-8"?>
<!-- Generator: Adobe Illustrator 24.3.0, SVG Export Plug-In . SVG Version: 6.00 Build 0)  -->
<svg version="1.1" id="Layer_1" xmlns="http://www.w3.org/2000/svg" xmlns:xlink="http://www.w3.org/1999/xlink" x="0px" y="0px"
	 viewBox="0 0 84.3 63.6" style="enable-background:new 0 0 84.3 63.6;" xml:space="preserve">
<style type="text/css">
	.st0{fill:#F5F5F5;}
	.st1{fill:#575756;}
	.st2{fill:#AD1820;}
	.st3{fill:#E5332A;}
	.st4{fill:#F6A723;}
	.st5{fill:#E84E1B;}
	.st6{fill:#FAA634;}
	.st7{fill:none;stroke:#9C9B9B;stroke-width:3;stroke-miterlimit:10;}
	.st8{fill:#9C9B9B;}
	.st9{fill:#1D1D1B;}
	.st10{clip-path:url(#SVGID_2_);}
	.st11{clip-path:url(#SVGID_4_);}
	.st12{clip-path:url(#SVGID_6_);}
	.st13{fill:none;stroke:#AD1820;stroke-width:2.7971;stroke-miterlimit:10;}
	.st14{fill:#FFFFFF;}
	.st15{fill:#C6C6C5;}
	.st16{fill:#868686;}
	.st17{fill:#3C3C3B;}
	.st18{opacity:0.52;fill:#AD1820;}
	.st19{fill:none;stroke:#AD1820;stroke-width:4.3435;stroke-miterlimit:10;}
	.st20{fill:none;stroke:#E5332A;stroke-width:4.3435;stroke-miterlimit:10;}
	.st21{fill:#B1B1B1;}
	.st22{fill:#DD4D02;}
	.st23{fill:#A4A4A4;}
</style>
<path class="st22" d="M83.5,44.6l-0.4,0.6l-0.3,0.5c0,0,0,0,0,0l0.3-0.5L83.5,44.6l-2.9-1.8c-3.8-2.3-7.6-4.6-11.4-6.9
	C69,35.8,69,35.8,69,35.7c-0.1-0.4-0.1-0.8-0.2-1.2c-0.1-0.5-0.2-1.1-0.3-1.6c-0.2-1.2-0.5-2.1-1.1-2.9c-0.8-1-1.5-2.1-2.2-3.1
	c-0.4-0.6-0.9-0.9-1.6-0.9c-1.2-0.1-2.4-0.1-3.6-0.2l-1.6-0.1c-2.5-0.2-5-0.3-7.5-0.5l-0.4,0c-0.5,0-1-0.1-1.4-0.2
	c-2.5-1.1-5.1-1.9-8.1-2.6c-0.3-0.1-0.8-0.1-1.4,0.3c-0.3,0.2-0.6,0.4-0.9,0.7c-0.5,0.3-1,0.7-1.4,1c-0.5,0.4-0.7,0.4-1,0.2
	c-0.4-0.2-0.8-0.3-1.2-0.4L34.8,24c-0.1,0-0.1,0-0.2-0.2c-0.6-0.8-1.1-1.6-1.7-2.4c-0.5-0.7-1-1.5-1.5-2.2c-0.2-0.3-0.5-0.6-0.9-0.8
	L28.2,17c-1.6-1-3.1-2-4.7-3c-0.1-0.1-0.1-0.1-0.2-0.2c-0.3-1.5-0.7-3-1.2-4.7c-0.1-0.5-0.4-0.8-0.8-1c-0.8-0.4-1.7-0.8-2.5-1.3
	c-0.5-0.2-0.9-0.2-1.4,0.1c-0.3,0.2-0.6,0.4-0.9,0.6c-0.3,0.2-0.6,0.4-0.9,0.6c-1-1.4-2.1-2.7-3.1-4C11.7,3,10.9,1.9,10,0.8
	C9.7,0.4,9.3,0.2,8.8,0.2c-0.7,0-1.3,0-2,0L3.9,0.1C3,0,2.1,0,1.2,0C0.9,0,0.6,0.1,0.4,0.3C0.1,0.6,0.1,1,0.1,1.1c0,0.9,0,1.9,0,2.8
	c0,1.8-0.1,3.6,0,5.4c0,1.2,0,2.4,0,3.6c0,0.9,0,1.8,0,2.6c0,1.5,0,2.9,0,4.4c0,1,0,1.9,0,2.9c0,2.3,0,4.6,0,6.9c0,1.5,0,3,0,4.6
	l0,8.9c0,1.7,0,3.4,0,5.2l0,2.1c-0.1,0.5,0,1,0.8,1.5c0.9,0.5,1.9,1,2.8,1.6C4.3,54,4.9,54,5.4,53.7c0.2-0.1,0.5-0.2,0.9-0.2l0.5,0
	c0.7,0,1.5,0,2.2-0.1c1.2-0.2,2.1,0,2.8,0.7c0.1,0.1,0.2,0.2,0.4,0.2l0.1,0.1c2.4,1.4,4.8,2.8,7.2,4.1l2.1,1.2
	c0.3,0.2,0.8,0.4,1.4,0c3.7-2.6,7.5-5.1,11.2-7.7c0.3-0.2,0.5-0.5,0.5-0.8c0-0.5-0.3-0.8-0.4-0.9c-0.3-0.3-0.6-0.6-0.8-0.8l0,0
	c0.4-0.2,0.9-0.4,1.3-0.5c0.3-0.1,0.6-0.2,0.9-0.4c0.2,0.5,0.4,0.9,0.6,1.4c-0.3,0.3-0.5,0.7-0.8,1c-0.4,0.6-0.8,1.1-1.3,1.6
	c-0.8,0.9-0.4,1.7,0,2.2c0,0,0.1,0.1,0.1,0.2c0.2,0.3,0.4,0.7,1,0.9c0.8,0.2,1.7,0.6,2.7,1.2c1.1,0.7,2.2,0.9,3.3,0.7
	c0,0,0,0,0.1,0.1c1.5,1.5,3,2.9,4.6,4.3c0.4,0.4,0.9,0.8,1.3,1.2c0.1,0.1,0.4,0.4,0.8,0.4c0.1,0,0.2,0,0.2,0l0.2,0
	c0.5-0.1,1.2-0.3,1.7-1.1l0.1-0.1c0.5-0.9,0.5-1.3-0.1-2l0.4-0.1c0.5-0.2,1.1-0.3,1.6-0.5c0.6-0.1,1-0.4,1.5-0.8
	c1.7-1.4,3.4-2.9,5.1-4.3l0.5-0.4c0.2-0.1,0.4-0.3,0.5-0.5c0.4-0.3,0.7-0.7,1.1-0.8c1.2-0.6,2.2-0.9,3.2-1.1
	c1.4-0.3,2.8-0.5,4.2-0.7c0.6-0.1,1.2-0.2,1.8-0.3l1.6-0.3c1.9-0.3,3.8-0.6,5.7-0.9l0.3-0.1c0.7-0.1,1.5-0.2,2.2-0.8
	c0.8-0.6,1.6-1.1,2.4-1.6c0.4-0.2,0.7-0.5,1.1-0.7c0.4-0.2,0.7-0.5,0.7-1S83.9,44.9,83.5,44.6z M81.7,46c-0.8,0.5-1.7,1.1-2.5,1.7
	c-0.4,0.3-1,0.4-1.6,0.5l-0.4,0.1c-1.9,0.3-3.8,0.6-5.7,0.9L70,49.4c-0.6,0.1-1.2,0.2-1.8,0.3c-1.4,0.2-2.8,0.4-4.2,0.7
	c-1.1,0.2-2.2,0.6-3.5,1.2c-0.6,0.3-1,0.7-1.5,1.1c-0.2,0.1-0.3,0.3-0.5,0.4l-0.5,0.4c-1.7,1.4-3.4,2.8-5.1,4.3
	c-0.3,0.2-0.5,0.4-0.9,0.5c-0.6,0.1-1.1,0.3-1.7,0.5l-0.6,0.2c-0.1,0-0.3,0.1-0.4,0.1c-0.3,0.1-0.8,0.4-0.9,0.9
	c-0.1,0.6,0.3,0.9,0.6,1.2c0.1,0.1,0.2,0.2,0.3,0.2c0,0.1-0.1,0.2-0.1,0.2l-0.1,0.1C49,62,48.9,62,48.4,62.1c0,0,0,0,0,0
	c-0.4-0.4-0.9-0.8-1.3-1.2c-1.5-1.4-3.1-2.8-4.5-4.2c-0.3-0.4-0.7-0.5-1.2-0.5c-0.1,0-0.2,0-0.3,0c-0.7,0.1-1.4,0-2.2-0.5
	c-1.1-0.7-2.1-1.2-3.1-1.4c0,0-0.1-0.1-0.1-0.2c-0.1-0.1-0.2-0.3-0.3-0.4c0,0,0-0.1-0.1-0.1c0,0,0-0.1,0.1-0.1
	c0.5-0.6,0.9-1.1,1.3-1.7c0.3-0.4,0.5-0.7,0.8-1c0.3-0.4,0.4-0.9,0.2-1.4c-0.3-0.6-0.6-1.2-0.8-1.8c0-0.1-0.2-0.5-0.6-0.6
	c-0.4-0.2-0.7,0-0.8,0c-0.4,0.2-0.8,0.3-1.3,0.5c-0.5,0.2-0.9,0.4-1.4,0.6c-0.7,0.3-0.9,0.8-0.9,1c-0.1,0.3-0.1,0.8,0.4,1.3l0.1,0.1
	c0.2,0.2,0.3,0.4,0.5,0.6c-3.5,2.4-7.1,4.9-10.6,7.3l-2-1.1c-2.4-1.3-4.8-2.7-7.2-4.1c-0.1,0-0.1-0.1-0.2-0.1c0,0-0.1,0-0.1-0.1
	c-1.1-0.9-2.4-1.2-4-1C8.2,52,7.6,52,6.8,52l-0.5,0c-0.4,0-1,0.1-1.6,0.4c-0.1,0.1-0.1,0.1-0.3,0c-1-0.6-2-1.2-2.9-1.6
	c0,0,0,0-0.1,0c0,0,0,0,0,0l0-2.2c0-1.7,0-3.5,0-5.2l0-8.9c0-1.5,0-3.1,0-4.6c0-2.3,0-4.6,0-6.9c0-1,0-1.9,0-2.9c0-1.5,0-3,0-4.4
	c0-0.9,0-1.7,0-2.6c0-1.2,0-2.4,0-3.6c0-1.8,0-3.6,0-5.4c0-0.8,0-1.6,0-2.4c0.8,0,1.5,0,2.3,0.1l2.9,0.1c0.7,0,1.3,0,2.1,0.1
	c0.8,1.1,1.7,2.2,2.5,3.3c1.1,1.4,2.2,2.8,3.3,4.2c0.5,0.6,1.1,0.7,1.7,0.2c0.3-0.3,0.7-0.5,1-0.7c0.3-0.2,0.5-0.4,0.8-0.6
	c0.8,0.4,1.6,0.8,2.4,1.2L21,8.7l-0.3,0.8c0.5,1.6,0.8,3.1,1.2,4.6c0.1,0.5,0.4,0.9,0.8,1.2c1.6,1,3.1,2,4.7,3l2.3,1.5
	c0.2,0.1,0.3,0.3,0.5,0.4c0.5,0.7,1,1.5,1.6,2.2c0.6,0.8,1.1,1.6,1.7,2.4c0.3,0.4,0.6,0.6,1,0.7l0.2,0.1c0.3,0.1,0.6,0.2,0.9,0.3
	c1.2,0.6,2.1,0.1,2.6-0.4c0.4-0.3,0.9-0.7,1.3-1c0.3-0.2,0.7-0.5,1-0.7c0,0,0,0,0.1,0c2.9,0.7,5.5,1.5,7.9,2.5
	c0.7,0.3,1.3,0.3,1.9,0.4l0.4,0c2.5,0.2,5,0.4,7.6,0.5l1.6,0.1c1.2,0.1,2.4,0.2,3.6,0.2c0.3,0,0.3,0.1,0.4,0.2
	c0.7,1,1.4,2.1,2.3,3.2c0.4,0.6,0.7,1.2,0.8,2.1c0.1,0.6,0.2,1.1,0.3,1.7c0.1,0.4,0.1,0.8,0.2,1.2c0.1,0.6,0.4,1,0.9,1.3
	c3.8,2.3,7.6,4.6,11.4,6.9l2.4,1.5C82.1,45.7,81.9,45.9,81.7,46z"/>
</svg>
