<?xml version="1.0" encoding="utf-8"?>
<!-- Generator: Adobe Illustrator 24.3.0, SVG Export Plug-In . SVG Version: 6.00 Build 0)  -->
<svg version="1.1" id="Layer_1" xmlns="http://www.w3.org/2000/svg" xmlns:xlink="http://www.w3.org/1999/xlink" x="0px" y="0px"
	 viewBox="0 0 69.5 68.9" style="enable-background:new 0 0 69.5 68.9;" xml:space="preserve">
<style type="text/css">
	.st0{fill:#F5F5F5;}
	.st1{fill:#575756;}
	.st2{fill:#AD1820;}
	.st3{fill:#E5332A;}
	.st4{fill:#F6A723;}
	.st5{fill:#E84E1B;}
	.st6{fill:#FAA634;}
	.st7{fill:none;stroke:#9C9B9B;stroke-width:3;stroke-miterlimit:10;}
	.st8{fill:#9C9B9B;}
	.st9{fill:#1D1D1B;}
	.st10{clip-path:url(#SVGID_2_);}
	.st11{clip-path:url(#SVGID_4_);}
	.st12{clip-path:url(#SVGID_6_);}
	.st13{fill:none;stroke:#AD1820;stroke-width:2.7971;stroke-miterlimit:10;}
	.st14{fill:#FFFFFF;}
	.st15{fill:#C6C6C5;}
	.st16{fill:#868686;}
	.st17{fill:#3C3C3B;}
	.st18{opacity:0.52;fill:#AD1820;}
	.st19{fill:none;stroke:#AD1820;stroke-width:4.3435;stroke-miterlimit:10;}
	.st20{fill:none;stroke:#E5332A;stroke-width:4.3435;stroke-miterlimit:10;}
	.st21{fill:#B1B1B1;}
	.st22{fill:#DD4D02;}
	.st23{fill:#A4A4A4;}
	.st24{fill:#E94D00;}
</style>
<path class="st24" d="M52.4,68.9c-1.4,0-2.8-0.2-4.1-0.5c-6-1.6-11.7-4.1-16.8-7.5c-4.8-3-9.2-6.6-13.2-10.7c-3.7-3.6-7-7.7-9.9-12
	c-3.2-4.7-5.7-9.7-7.4-15.1C-1.2,16.7,0.5,9.6,5.4,4.8L9.2,1c0.7-0.7,1.5-1,2.5-1c0,0,0,0,0,0c0.9,0,1.8,0.4,2.5,1c0,0,0,0,0,0
	l12.1,12.1c0.7,0.7,1,1.5,1,2.5c0,0.9-0.4,1.8-1,2.5l-7.1,7.1c-1.8,1.7-2,4.6-0.5,6.6c2.5,3.5,5.4,6.8,8.4,9.8
	c3.4,3.4,7.1,6.6,11.1,9.3c2,1.4,4.7,1.2,6.5-0.6l6.9-7c0.7-0.7,1.5-1,2.5-1c0,0,0,0,0,0c0.9,0,1.8,0.4,2.5,1c0,0,0,0,0,0h0
	l12.1,12.1c0.7,0.7,1,1.5,1,2.5s-0.4,1.8-1,2.5l0,0l0,0c0,0-0.1,0.1-0.1,0.1l-3.2,3.1C61.8,67,57.1,68.9,52.4,68.9z M11.7,1.5
	C11.7,1.5,11.7,1.5,11.7,1.5c-0.5,0-1,0.2-1.4,0.6L6.4,5.9c-4.5,4.4-6,10.8-4.1,16.8C4,27.9,6.5,32.9,9.6,37.4
	c2.8,4.2,6.1,8.2,9.7,11.8c3.9,3.9,8.3,7.5,13,10.5c5,3.3,10.6,5.8,16.4,7.3c5.5,1.3,11.5-0.4,15.5-4.4l3.3-3.3c0,0,0.1-0.1,0.1-0.1
	c0.7-0.8,0.6-2-0.1-2.7L55.3,44.4c0,0,0,0,0,0c-0.4-0.4-0.9-0.6-1.4-0.6c0,0,0,0,0,0c-0.5,0-1,0.2-1.4,0.6l-6.9,7
	c-2.3,2.2-5.8,2.6-8.4,0.7c-4-2.8-7.8-6-11.3-9.5c-3.1-3.1-6-6.5-8.6-10c-1.9-2.6-1.6-6.2,0.7-8.5l7.1-7.1c0.4-0.4,0.6-0.9,0.6-1.4
	s-0.2-1-0.6-1.4L13.1,2.1c0,0,0,0,0,0C12.7,1.7,12.2,1.5,11.7,1.5z"/>
</svg>
