<?xml version="1.0" encoding="utf-8"?>
<!-- Generator: Adobe Illustrator 24.3.0, SVG Export Plug-In . SVG Version: 6.00 Build 0)  -->
<svg version="1.1" id="Layer_1" xmlns="http://www.w3.org/2000/svg" xmlns:xlink="http://www.w3.org/1999/xlink" x="0px" y="0px"
	 viewBox="0 0 400.4 79.6" style="enable-background:new 0 0 400.4 79.6;" xml:space="preserve">
<style type="text/css">
	.st0{fill:#F5F5F5;}
	.st1{fill:#575756;}
	.st2{fill:#AD1820;}
	.st3{fill:#E5332A;}
	.st4{fill:#F6A723;}
	.st5{fill:#E84E1B;}
	.st6{fill:#FAA634;}
	.st7{fill:none;stroke:#9C9B9B;stroke-width:3;stroke-miterlimit:10;}
	.st8{fill:#9C9B9B;}
	.st9{fill:#1D1D1B;}
	.st10{clip-path:url(#SVGID_2_);}
	.st11{clip-path:url(#SVGID_4_);}
	.st12{clip-path:url(#SVGID_6_);}
	.st13{fill:none;stroke:#AD1820;stroke-width:2.7971;stroke-miterlimit:10;}
	.st14{fill:#FFFFFF;}
	.st15{fill:#C6C6C5;}
	.st16{fill:#868686;}
	.st17{fill:#3C3C3B;}
	.st18{opacity:0.52;fill:#AD1820;}
	.st19{fill:none;stroke:#AD1820;stroke-width:4.3435;stroke-miterlimit:10;}
	.st20{fill:none;stroke:#E5332A;stroke-width:4.3435;stroke-miterlimit:10;}
	.st21{fill:#B1B1B1;}
	.st22{fill:#DD4D02;}
	.st23{fill:#A4A4A4;}
</style>
<g>
	<g>
		<path class="st9" d="M127.9,39.2c0-0.5,0.1-1,0.3-1.5c0.2-0.5,0.5-1,0.8-1.4c0.3-0.4,0.8-0.7,1.3-1s1.1-0.4,1.7-0.4
			c0.8,0,1.4,0.2,2,0.5c0.6,0.3,1,0.8,1.2,1.3l-1.3,0.9c-0.1-0.2-0.2-0.4-0.4-0.6c-0.2-0.2-0.3-0.3-0.5-0.4
			c-0.2-0.1-0.4-0.2-0.6-0.2c-0.2,0-0.4-0.1-0.6-0.1c-0.4,0-0.7,0.1-1,0.3s-0.5,0.4-0.7,0.7c-0.2,0.3-0.3,0.6-0.4,0.9
			c-0.1,0.3-0.2,0.7-0.2,1c0,0.4,0.1,0.7,0.2,1.1c0.1,0.3,0.3,0.7,0.5,0.9c0.2,0.3,0.5,0.5,0.8,0.6c0.3,0.2,0.6,0.2,1,0.2
			c0.2,0,0.4,0,0.6-0.1c0.2,0,0.4-0.1,0.6-0.2c0.2-0.1,0.3-0.2,0.5-0.4c0.2-0.2,0.3-0.4,0.4-0.6l1.4,0.8c-0.1,0.3-0.3,0.6-0.6,0.8
			c-0.2,0.2-0.5,0.4-0.8,0.6c-0.3,0.2-0.6,0.3-1,0.4s-0.7,0.1-1,0.1c-0.6,0-1.1-0.1-1.6-0.4c-0.5-0.3-0.9-0.6-1.3-1
			c-0.4-0.4-0.6-0.9-0.8-1.4C128,40.3,127.9,39.8,127.9,39.2z"/>
		<path class="st9" d="M141.1,43.6c-0.6,0-1.1-0.1-1.6-0.4s-0.9-0.6-1.3-1c-0.4-0.4-0.6-0.9-0.8-1.4c-0.2-0.5-0.3-1.1-0.3-1.6
			c0-0.6,0.1-1.1,0.3-1.6c0.2-0.5,0.5-1,0.9-1.4c0.4-0.4,0.8-0.7,1.3-1c0.5-0.2,1-0.4,1.6-0.4c0.6,0,1.1,0.1,1.6,0.4
			c0.5,0.3,0.9,0.6,1.3,1c0.4,0.4,0.6,0.9,0.8,1.4c0.2,0.5,0.3,1,0.3,1.6c0,0.6-0.1,1.1-0.3,1.6c-0.2,0.5-0.5,1-0.8,1.4
			c-0.4,0.4-0.8,0.7-1.3,0.9S141.6,43.6,141.1,43.6z M138.7,39.3c0,0.4,0.1,0.7,0.2,1.1c0.1,0.3,0.3,0.6,0.5,0.9
			c0.2,0.3,0.5,0.5,0.8,0.6c0.3,0.2,0.6,0.2,1,0.2c0.4,0,0.7-0.1,1-0.2c0.3-0.2,0.5-0.4,0.7-0.7c0.2-0.3,0.4-0.6,0.5-0.9
			c0.1-0.3,0.2-0.7,0.2-1c0-0.4-0.1-0.7-0.2-1.1c-0.1-0.3-0.3-0.6-0.5-0.9c-0.2-0.3-0.5-0.5-0.7-0.6s-0.6-0.2-1-0.2
			c-0.4,0-0.7,0.1-1,0.2c-0.3,0.2-0.5,0.4-0.7,0.6c-0.2,0.3-0.4,0.6-0.5,0.9C138.7,38.6,138.7,38.9,138.7,39.3z"/>
		<path class="st9" d="M149.2,38.1v5.5h-1.7V35h1.3l4.4,5.6v-5.6h1.7v8.5h-1.3L149.2,38.1z"/>
		<path class="st9" d="M164.3,36.5h-2.7v7.1H160v-7.1h-2.7V35h7.1V36.5z"/>
		<path class="st9" d="M166.6,43.6v-8.5h1.7v8.5H166.6z"/>
		<path class="st9" d="M172.9,38.1v5.5h-1.7V35h1.3l4.4,5.6v-5.6h1.7v8.5h-1.3L172.9,38.1z"/>
		<path class="st9" d="M185.2,42.2c0.4,0,0.7-0.1,1-0.2c0.3-0.2,0.5-0.4,0.6-0.6c0.2-0.3,0.3-0.6,0.3-0.9c0.1-0.3,0.1-0.7,0.1-1V35
			h1.6v4.3c0,0.6-0.1,1.1-0.2,1.6c-0.1,0.5-0.4,1-0.7,1.3c-0.3,0.4-0.7,0.7-1.2,0.9c-0.5,0.2-1,0.3-1.7,0.3c-0.7,0-1.3-0.1-1.7-0.4
			s-0.9-0.5-1.2-0.9c-0.3-0.4-0.5-0.8-0.6-1.3c-0.1-0.5-0.2-1-0.2-1.6V35h1.7v4.3c0,0.4,0,0.7,0.1,1c0.1,0.3,0.2,0.6,0.3,0.9
			c0.2,0.3,0.4,0.5,0.6,0.6C184.5,42.1,184.8,42.2,185.2,42.2z"/>
		<path class="st9" d="M190.6,43.6l3.4-8.5h1.3l3.3,8.5h-1.8l-0.8-2.1h-3l-0.8,2.1H190.6z M194.6,36.8l-1.2,3.4h2.4L194.6,36.8z"/>
		<path class="st9" d="M200.7,43.6V35h1.7v7.1h4.3v1.5H200.7z"/>
		<path class="st9" d="M212.7,43.6V35h3.8c0.4,0,0.8,0.1,1.1,0.2c0.3,0.2,0.6,0.4,0.9,0.6c0.2,0.3,0.4,0.6,0.6,0.9s0.2,0.7,0.2,1
			c0,0.6-0.1,1.1-0.4,1.5s-0.7,0.8-1.1,1l2,3.2h-1.9l-1.8-2.9h-1.6v2.9H212.7z M214.4,39.3h2.1c0.2,0,0.3,0,0.4-0.1s0.2-0.2,0.3-0.3
			c0.1-0.1,0.2-0.3,0.2-0.4c0.1-0.2,0.1-0.3,0.1-0.5c0-0.2,0-0.4-0.1-0.6c-0.1-0.2-0.1-0.3-0.3-0.4c-0.1-0.1-0.2-0.2-0.4-0.3
			c-0.1-0.1-0.3-0.1-0.4-0.1h-2V39.3z"/>
		<path class="st9" d="M227.9,42.1v1.5H222V35h5.8v1.5h-4.2v2.1h3.6v1.3h-3.6v2.2H227.9z"/>
		<path class="st9" d="M231.3,35l2.3,6.4l2.3-6.4h1.7l-3.3,8.5h-1.4l-3.3-8.5H231.3z"/>
		<path class="st9" d="M239.8,43.6v-8.5h1.7v8.5H239.8z"/>
		<path class="st9" d="M250.3,42.1v1.5h-5.9V35h5.8v1.5H246v2.1h3.6v1.3H246v2.2H250.3z"/>
		<path class="st9" d="M255.8,35.1h1.5l1,2.8l1-2.8h1.5l-1.5,3.9l1.1,2.7l2.4-6.6h1.8l-3.5,8.5h-1.4l-1.5-3.6l-1.5,3.6h-1.4
			l-3.5-8.5h1.8l2.4,6.6l1.1-2.7L255.8,35.1z"/>
		<path class="st9" d="M271.5,37.3c-0.1-0.1-0.2-0.1-0.3-0.2c-0.1-0.1-0.3-0.2-0.5-0.3s-0.4-0.2-0.7-0.2c-0.2-0.1-0.5-0.1-0.8-0.1
			c-0.5,0-0.8,0.1-1,0.3c-0.2,0.2-0.3,0.4-0.3,0.7c0,0.2,0,0.3,0.1,0.4c0.1,0.1,0.2,0.2,0.4,0.3c0.2,0.1,0.4,0.2,0.6,0.2
			c0.2,0.1,0.5,0.1,0.8,0.2c0.4,0.1,0.8,0.2,1.1,0.4c0.3,0.1,0.6,0.3,0.9,0.5c0.2,0.2,0.4,0.4,0.5,0.7c0.1,0.3,0.2,0.6,0.2,1
			c0,0.5-0.1,0.8-0.3,1.2c-0.2,0.3-0.4,0.6-0.7,0.8c-0.3,0.2-0.6,0.3-1,0.4s-0.8,0.1-1.2,0.1c-0.6,0-1.3-0.1-1.9-0.3
			c-0.6-0.2-1.2-0.5-1.7-0.8l0.7-1.4c0.1,0.1,0.2,0.2,0.4,0.3c0.2,0.1,0.4,0.2,0.7,0.3c0.3,0.1,0.5,0.2,0.9,0.3
			c0.3,0.1,0.6,0.1,1,0.1c0.9,0,1.4-0.3,1.4-0.9c0-0.2-0.1-0.4-0.2-0.5s-0.3-0.2-0.4-0.3c-0.2-0.1-0.4-0.2-0.7-0.3
			c-0.3-0.1-0.6-0.2-0.9-0.3c-0.4-0.1-0.8-0.2-1.1-0.4c-0.3-0.1-0.5-0.3-0.8-0.5c-0.2-0.2-0.3-0.4-0.4-0.6c-0.1-0.2-0.2-0.5-0.2-0.9
			c0-0.4,0.1-0.8,0.2-1.2s0.4-0.6,0.7-0.8c0.3-0.2,0.6-0.4,1-0.5c0.4-0.1,0.8-0.2,1.2-0.2c0.6,0,1.2,0.1,1.7,0.3
			c0.5,0.2,0.9,0.4,1.3,0.7L271.5,37.3z"/>
	</g>
	<g>
		<path class="st21" d="M400.3,42.3l-4.3-0.2c0-0.7,0.1-1.5,0.1-2.3h4.3C400.4,40.6,400.4,41.5,400.3,42.3z"/>
		<path class="st21" d="M374.9,79.2l-0.8-4.3c1.4-0.3,2.8-0.7,4.1-1.3l1.8,4C378.4,78.3,376.7,78.8,374.9,79.2z M381.6,76.8l-2-3.8
			c1.3-0.7,2.5-1.5,3.7-2.4l2.7,3.4C384.6,75,383.1,76,381.6,76.8z M387.3,72.8l-2.9-3.2c1.1-1,2.1-2.1,3.1-3.3l3.4,2.7
			C389.8,70.4,388.6,71.7,387.3,72.8z M391.9,67.6l-3.5-2.6c0.9-1.2,1.7-2.5,2.4-3.8l3.8,2.1C393.8,64.8,392.9,66.3,391.9,67.6z
			 M395.4,61.8l-3.9-1.9c0.7-1.3,1.3-2.8,1.8-4.2l4.1,1.5C396.9,58.7,396.2,60.3,395.4,61.8z M398,55.5l-4.1-1.3
			c0.5-1.4,0.9-2.9,1.2-4.5l4.2,0.9C398.9,52.3,398.5,53.9,398,55.5z M399.6,49l-4.3-0.8c0.3-1.5,0.5-3,0.6-4.6l4.3,0.3
			C400.1,45.6,399.9,47.3,399.6,49z"/>
		<path class="st21" d="M371.2,79.6h-2.4v-4.3h1.7c0.7,0,1.4,0,2.1-0.1l0.5,4.3C372.5,79.5,371.9,79.6,371.2,79.6L371.2,79.6z"/>
		<path class="st21" d="M367.3,79.6h-4.8v-4.3h4.8V79.6z M360.9,79.6h-4.8v-4.3h4.8V79.6z M354.6,79.6h-4.8v-4.3h4.8V79.6z
			 M348.3,79.6h-4.8v-4.3h4.8V79.6z M341.9,79.6h-4.8v-4.3h4.8V79.6z M335.6,79.6h-4.8v-4.3h4.8V79.6z M329.2,79.6h-4.8v-4.3h4.8
			V79.6z M322.9,79.6h-4.8v-4.3h4.8V79.6z M316.6,79.6h-4.8v-4.3h4.8V79.6z M310.2,79.6h-4.8v-4.3h4.8V79.6z M303.9,79.6h-4.8v-4.3
			h4.8V79.6z M297.6,79.6h-4.8v-4.3h4.8V79.6z M291.2,79.6h-4.8v-4.3h4.8V79.6z M284.9,79.6h-4.8v-4.3h4.8V79.6z M278.5,79.6h-4.8
			v-4.3h4.8V79.6z M272.2,79.6h-4.8v-4.3h4.8V79.6z M265.9,79.6h-4.8v-4.3h4.8V79.6z M259.5,79.6h-4.8v-4.3h4.8V79.6z M253.2,79.6
			h-4.8v-4.3h4.8V79.6z M246.8,79.6h-4.8v-4.3h4.8V79.6z M240.5,79.6h-4.8v-4.3h4.8V79.6z M234.2,79.6h-4.8v-4.3h4.8V79.6z
			 M227.8,79.6h-4.8v-4.3h4.8V79.6z M221.5,79.6h-4.8v-4.3h4.8V79.6z M215.2,79.6h-4.8v-4.3h4.8V79.6z M208.8,79.6h-4.8v-4.3h4.8
			V79.6z M202.5,79.6h-4.8v-4.3h4.8V79.6z M196.1,79.6h-4.8v-4.3h4.8V79.6z M189.8,79.6H185v-4.3h4.8V79.6z M183.5,79.6h-4.8v-4.3
			h4.8V79.6z M177.1,79.6h-4.8v-4.3h4.8V79.6z M170.8,79.6H166v-4.3h4.8V79.6z M164.4,79.6h-4.8v-4.3h4.8V79.6z M158.1,79.6h-4.8
			v-4.3h4.8V79.6z M151.8,79.6H147v-4.3h4.8V79.6z M145.4,79.6h-4.8v-4.3h4.8V79.6z M139.1,79.6h-4.8v-4.3h4.8V79.6z M132.8,79.6
			H128v-4.3h4.8V79.6z M126.4,79.6h-4.8v-4.3h4.8V79.6z M120.1,79.6h-4.8v-4.3h4.8V79.6z M113.7,79.6H109v-4.3h4.8V79.6z
			 M107.4,79.6h-4.8v-4.3h4.8V79.6z M101.1,79.6h-4.8v-4.3h4.8V79.6z M94.7,79.6H90v-4.3h4.8V79.6z M88.4,79.6h-4.8v-4.3h4.8V79.6z
			 M82,79.6h-4.8v-4.3H82V79.6z M75.7,79.6H71v-4.3h4.8V79.6z M69.4,79.6h-4.8v-4.3h4.8V79.6z M63,79.6h-4.8v-4.3H63V79.6z
			 M56.7,79.6h-4.8v-4.3h4.8V79.6z M50.4,79.6h-4.8v-4.3h4.8V79.6z M44,79.6h-4.8v-4.3H44V79.6z M37.7,79.6h-4.8v-4.3h4.8V79.6z
			 M31.3,79.6h-1.5c-1.2,0-2.4-0.1-3.6-0.3l0.7-4.3c1,0.2,1.9,0.2,2.9,0.2h1.5V79.6z M24.5,79c-1.7-0.4-3.3-1-4.9-1.8l1.9-3.9
			c1.3,0.6,2.7,1.1,4,1.4L24.5,79z M18.1,76.4c-1.5-0.8-2.9-1.8-4.2-2.9l2.8-3.3c1.1,1,2.3,1.8,3.6,2.5L18.1,76.4z M12.6,72.3
			c-1.2-1.1-2.4-2.4-3.4-3.8l3.4-2.7c0.9,1.2,1.9,2.3,3,3.3L12.6,72.3z M8.2,67.2c-1-1.3-1.8-2.8-2.6-4.3l3.8-2.1
			c0.7,1.3,1.5,2.6,2.4,3.8L8.2,67.2z M4.8,61.5c-0.7-1.5-1.4-3-1.9-4.6L7,55.4c0.5,1.4,1.1,2.8,1.7,4.2L4.8,61.5z M2.3,55.3
			c-0.5-1.6-0.9-3.2-1.3-4.8l4.3-0.9c0.3,1.5,0.7,3,1.1,4.4L2.3,55.3z M0.8,48.9c-0.3-1.6-0.5-3.3-0.6-4.9l4.3-0.3
			c0.1,1.5,0.3,3,0.6,4.5L0.8,48.9z"/>
		<path class="st21" d="M0.1,42.3C0,41.4,0,40.6,0,39.8h4.3c0,0.8,0,1.5,0.1,2.3L0.1,42.3z"/>
	</g>
	<path class="st5" d="M400.4,39.8h-4.3c0-19.6-11.4-35.5-25.5-35.5H29.9C15.8,4.3,4.3,20.3,4.3,39.8H0C0,17.9,13.4,0,29.9,0h340.7
		C387,0,400.4,17.9,400.4,39.8z"/>
</g>
</svg>
