<?xml version="1.0" encoding="utf-8"?>
<!-- Generator: Adobe Illustrator 28.2.0, SVG Export Plug-In . SVG Version: 6.00 Build 0)  -->
<svg version="1.1" id="Layer_1" xmlns="http://www.w3.org/2000/svg" xmlns:xlink="http://www.w3.org/1999/xlink" x="0px" y="0px"
	 viewBox="0 0 18.6 17.8" style="enable-background:new 0 0 18.6 17.8;" xml:space="preserve">
<style type="text/css">
	.st0{fill:#575756;}
</style>
<g>
	<path class="st0" d="M18.6,10.9v6.9h-4v-6.4c0-1.6-0.6-2.7-2-2.7c-1.1,0-1.8,0.7-2.1,1.5c-0.1,0.3-0.1,0.6-0.1,1v6.7h-4
		c0,0,0.1-10.9,0-12h4v1.7l0,0l0,0l0,0c0.5-0.8,1.5-2,3.6-2C16.7,5.5,18.6,7.2,18.6,10.9L18.6,10.9z M2.3,0C0.9,0,0,0.9,0,2.1
		s0.9,2.1,2.2,2.1l0,0c1.4,0,2.3-0.9,2.3-2.1S3.6,0,2.3,0L2.3,0z M0.2,17.8h4v-12h-4C0.2,5.8,0.2,17.8,0.2,17.8z"/>
</g>
</svg>
