<?xml version="1.0" encoding="utf-8"?>
<!-- Generator: Adobe Illustrator 24.3.0, SVG Export Plug-In . SVG Version: 6.00 Build 0)  -->
<svg version="1.1" id="Layer_1" xmlns="http://www.w3.org/2000/svg" xmlns:xlink="http://www.w3.org/1999/xlink" x="0px" y="0px"
	 viewBox="0 0 78.5 54.4" style="enable-background:new 0 0 78.5 54.4;" xml:space="preserve">
<style type="text/css">
	.st0{fill:#F5F5F5;}
	.st1{fill:#575756;}
	.st2{fill:#AD1820;}
	.st3{fill:#E5332A;}
	.st4{fill:#F6A723;}
	.st5{fill:#E84E1B;}
	.st6{fill:#FAA634;}
	.st7{fill:none;stroke:#9C9B9B;stroke-width:3;stroke-miterlimit:10;}
	.st8{fill:#9C9B9B;}
	.st9{fill:#1D1D1B;}
	.st10{clip-path:url(#SVGID_2_);}
	.st11{clip-path:url(#SVGID_4_);}
	.st12{clip-path:url(#SVGID_6_);}
	.st13{fill:none;stroke:#AD1820;stroke-width:2.7971;stroke-miterlimit:10;}
	.st14{fill:#FFFFFF;}
	.st15{fill:#C6C6C5;}
	.st16{fill:#868686;}
	.st17{fill:#3C3C3B;}
	.st18{opacity:0.52;fill:#AD1820;}
	.st19{fill:none;stroke:#AD1820;stroke-width:4.3435;stroke-miterlimit:10;}
	.st20{fill:none;stroke:#E5332A;stroke-width:4.3435;stroke-miterlimit:10;}
	.st21{fill:#B1B1B1;}
	.st22{fill:#DD4D02;}
	.st23{fill:#A4A4A4;}
	.st24{fill:#E94D00;}
</style>
<path class="st24" d="M72.9,0H5.6C2.4,0,0,2.4,0,5.6v43.3c0,3.1,2.5,5.6,5.6,5.6h67.4c3.1,0,5.6-2.5,5.6-5.6V5.6
	C78.5,2.4,76.1,0,72.9,0z M72.9,1.5c2.2,0,4.1,1.8,4.1,4.1c0,0.5-0.3,1-0.7,1.3L40.2,32.8c-0.6,0.4-1.4,0.4-1.9,0L2.2,6.9
	C1.8,6.6,1.5,6.1,1.5,5.6c0-2.2,1.8-4.1,4.1-4.1H72.9z M72.9,52.9H5.6c-2.2,0-4.1-1.8-4.1-4.1V8.3L37.4,34c0.6,0.4,1.2,0.6,1.8,0.6
	s1.3-0.2,1.8-0.6L77,8.3v40.6C77,51.1,75.2,52.9,72.9,52.9z"/>
</svg>
