<?xml version="1.0" encoding="utf-8"?>
<!-- Generator: Adobe Illustrator 28.2.0, SVG Export Plug-In . SVG Version: 6.00 Build 0)  -->
<svg version="1.1" id="Layer_1" xmlns="http://www.w3.org/2000/svg" xmlns:xlink="http://www.w3.org/1999/xlink" x="0px" y="0px"
	 viewBox="0 0 18.4 14.9" style="enable-background:new 0 0 18.4 14.9;" xml:space="preserve">
<style type="text/css">
	.st0{fill:#575756;}
</style>
<g>
	<path class="st0" d="M18.4,1.8c-0.7,0.3-1.4,0.5-2.2,0.6c0.8-0.5,1.4-1.2,1.7-2.1c-0.7,0.4-1.5,0.7-2.4,0.9C14.8,0.5,13.8,0,12.7,0
		C10.6,0,9,1.7,9,3.8c0,0.3,0,0.6,0,0.8C5.9,4.5,3.1,3,1.3,0.7C1,1.2,0.8,1.9,0.8,2.6c0,1.3,0.7,2.5,1.7,3.1c-0.6,0-1.2-0.2-1.7-0.5
		l0,0c0,1.8,1.3,3.4,3,3.7C3.5,9,3.1,9,2.8,9C2.6,9,2.3,9,2.1,8.9c0.5,1.5,1.9,2.6,3.5,2.6c-1.3,1-2.9,1.6-4.7,1.6
		c-0.3,0-0.6,0-0.9-0.1c1.7,1.1,3.7,1.7,5.8,1.7C12.7,14.7,16.5,9,16.5,4V3.5C17.2,3.2,17.9,2.5,18.4,1.8L18.4,1.8z"/>
</g>
</svg>
