<?xml version="1.0" encoding="utf-8"?>
<!-- Generator: Adobe Illustrator 24.3.0, SVG Export Plug-In . SVG Version: 6.00 Build 0)  -->
<svg version="1.1" id="Layer_1" xmlns="http://www.w3.org/2000/svg" xmlns:xlink="http://www.w3.org/1999/xlink" x="0px" y="0px"
	 viewBox="0 0 313.2 82.2" style="enable-background:new 0 0 313.2 82.2;" xml:space="preserve">
<style type="text/css">
	.st0{fill:#F5F5F5;}
	.st1{fill:#575756;}
	.st2{fill:#AD1820;}
	.st3{fill:#E5332A;}
	.st4{fill:#F6A723;}
	.st5{fill:#E84E1B;}
	.st6{fill:#FAA634;}
	.st7{fill:none;stroke:#9C9B9B;stroke-width:3;stroke-miterlimit:10;}
	.st8{fill:#9C9B9B;}
	.st9{fill:#1D1D1B;}
	.st10{clip-path:url(#SVGID_2_);}
	.st11{clip-path:url(#SVGID_4_);}
	.st12{clip-path:url(#SVGID_6_);}
	.st13{fill:none;stroke:#AD1820;stroke-width:2.7971;stroke-miterlimit:10;}
	.st14{fill:#FFFFFF;}
	.st15{fill:#C6C6C5;}
	.st16{fill:#868686;}
	.st17{fill:#3C3C3B;}
	.st18{opacity:0.52;fill:#AD1820;}
	.st19{fill:none;stroke:#AD1820;stroke-width:4.3435;stroke-miterlimit:10;}
	.st20{fill:none;stroke:#E5332A;stroke-width:4.3435;stroke-miterlimit:10;}
	.st21{fill:#B1B1B1;}
	.st22{fill:#DD4D02;}
	.st23{fill:#A4A4A4;}
</style>
<g>
	<g>
		<path class="st17" d="M26.2,12.1v1.6h-6.1v-1.6h2.3V6.5c-0.1,0.1-0.2,0.3-0.5,0.4s-0.4,0.3-0.7,0.4s-0.5,0.2-0.8,0.3
			s-0.5,0.1-0.7,0.1V6.1c0.2,0,0.5-0.1,0.7-0.2c0.3-0.1,0.6-0.3,0.8-0.4c0.3-0.2,0.5-0.3,0.7-0.5c0.2-0.2,0.3-0.3,0.4-0.4h1.8v7.6
			H26.2z"/>
	</g>
	<g>
		<path class="st17" d="M111.7,13.7c0-0.4,0-0.9,0.1-1.2c0.1-0.4,0.2-0.7,0.4-1.1c0.2-0.3,0.5-0.7,0.8-1c0.3-0.3,0.8-0.6,1.3-0.9
			c0.4-0.2,0.7-0.4,1.1-0.6c0.3-0.2,0.6-0.3,0.9-0.5s0.5-0.3,0.6-0.5c0.1-0.2,0.2-0.4,0.2-0.6c0-0.3-0.1-0.6-0.4-0.9
			c-0.3-0.3-0.7-0.4-1.3-0.4c-0.3,0-0.6,0-0.8,0.1c-0.2,0.1-0.5,0.2-0.7,0.3s-0.4,0.3-0.5,0.4c-0.1,0.1-0.3,0.3-0.4,0.4l-1.1-1.3
			c0.1-0.1,0.3-0.3,0.5-0.4s0.5-0.3,0.8-0.5s0.7-0.3,1.1-0.4c0.4-0.1,0.9-0.2,1.4-0.2c0.5,0,1,0.1,1.4,0.2c0.4,0.1,0.8,0.3,1,0.6
			c0.3,0.2,0.5,0.5,0.6,0.8c0.1,0.3,0.2,0.7,0.2,1c0,0.4-0.1,0.7-0.2,1c-0.2,0.3-0.4,0.6-0.6,0.8c-0.2,0.2-0.5,0.4-0.8,0.6
			s-0.5,0.3-0.8,0.4c-0.2,0.1-0.5,0.2-0.7,0.4c-0.3,0.1-0.5,0.3-0.8,0.5c-0.2,0.2-0.5,0.4-0.6,0.6s-0.3,0.5-0.4,0.7h5v1.6H111.7z"/>
	</g>
	<g>
		<path class="st17" d="M199.1,9.9c0.3,0.1,0.6,0.2,0.9,0.3c0.3,0.2,0.5,0.4,0.7,0.6c0.2,0.2,0.3,0.5,0.4,0.8c0.1,0.3,0.2,0.7,0.2,1
			c0,0.5-0.1,1-0.3,1.4s-0.5,0.7-0.8,1c-0.3,0.3-0.8,0.5-1.3,0.7c-0.5,0.2-1,0.2-1.6,0.2c-0.8,0-1.5-0.1-2.1-0.4
			c-0.6-0.3-1.1-0.7-1.5-1.2l1.1-1.2c0.2,0.4,0.6,0.7,1,0.9c0.4,0.2,0.9,0.3,1.5,0.3c0.7,0,1.2-0.2,1.6-0.4s0.6-0.7,0.6-1.3
			c0-0.6-0.2-1.1-0.6-1.5s-1.1-0.5-1.9-0.5h-0.4V9.3h0.5c0.7,0,1.3-0.2,1.6-0.5c0.4-0.3,0.6-0.8,0.6-1.3c0-0.5-0.2-0.9-0.5-1.1
			S197.9,6,197.4,6s-1,0.1-1.4,0.4s-0.7,0.6-1,1l-1.1-1.2c0.3-0.5,0.8-0.9,1.5-1.2s1.4-0.5,2.2-0.5c0.5,0,1,0.1,1.4,0.2
			s0.8,0.3,1.1,0.6c0.3,0.2,0.6,0.5,0.7,0.9c0.2,0.4,0.3,0.7,0.3,1.2c0,0.3,0,0.6-0.1,0.9c-0.1,0.3-0.2,0.6-0.4,0.8
			s-0.4,0.4-0.6,0.6S199.4,9.8,199.1,9.9z"/>
	</g>
	<g>
		<path class="st17" d="M291,15.7v-2.5h-4.9v-1.6l5.5-7.1h1.2v7h1.4v1.6h-1.4v2.5H291z M287.9,11.6h3.3V7.2L287.9,11.6z"/>
	</g>
	<path class="st3" d="M92.1,82.2c25.8,0,46.7-20.9,46.7-46.7H92.1V82.2z"/>
	<path class="st18" d="M266.5,35.5c25.8,0,46.7,20.9,46.7,46.7h-46.7V35.5z"/>
	<path class="st5" d="M0.3,82.2c0-25.8,20.9-46.7,46.7-46.7v46.7H0.3z"/>
	<path class="st4" d="M221.5,82.2c-25.8,0-46.7-20.9-46.7-46.7h46.7V82.2z"/>
</g>
</svg>
