<?xml version="1.0" encoding="utf-8"?>
<!-- Generator: Adobe Illustrator 24.3.0, SVG Export Plug-In . SVG Version: 6.00 Build 0)  -->
<svg version="1.1" id="Layer_1" xmlns="http://www.w3.org/2000/svg" xmlns:xlink="http://www.w3.org/1999/xlink" x="0px" y="0px"
	 viewBox="0 0 82.9 76" style="enable-background:new 0 0 82.9 76;" xml:space="preserve">
<style type="text/css">
	.st0{fill:#F5F5F5;}
	.st1{fill:#575756;}
	.st2{fill:#AD1820;}
	.st3{fill:#E5332A;}
	.st4{fill:#F6A723;}
	.st5{fill:#E84E1B;}
	.st6{fill:#FAA634;}
	.st7{fill:none;stroke:#9C9B9B;stroke-width:3;stroke-miterlimit:10;}
	.st8{fill:#9C9B9B;}
	.st9{fill:#1D1D1B;}
	.st10{clip-path:url(#SVGID_2_);}
	.st11{clip-path:url(#SVGID_4_);}
	.st12{clip-path:url(#SVGID_6_);}
	.st13{fill:none;stroke:#AD1820;stroke-width:2.7971;stroke-miterlimit:10;}
	.st14{fill:#FFFFFF;}
	.st15{fill:#C6C6C5;}
	.st16{fill:#868686;}
	.st17{fill:#3C3C3B;}
	.st18{opacity:0.52;fill:#AD1820;}
	.st19{fill:none;stroke:#AD1820;stroke-width:4.3435;stroke-miterlimit:10;}
	.st20{fill:none;stroke:#E5332A;stroke-width:4.3435;stroke-miterlimit:10;}
	.st21{fill:#B1B1B1;}
	.st22{fill:#DD4D02;}
	.st23{fill:#A4A4A4;}
	.st24{fill:#E94D00;}
	.st25{clip-path:url(#SVGID_8_);fill:#E74E1B;}
	.st26{clip-path:url(#SVGID_8_);}
	.st27{fill:#AC1820;}
	.st28{fill:#F19000;}
	.st29{opacity:0.52;fill:#AC1820;}
	.st30{fill:#E4332A;}
</style>
<g>
	<path class="st22" d="M82.9,42.3c0-0.4,0-0.8,0-1.1c0-1.3,0-2.5,0-3.8c0,0,0,0,0-0.1c0,0,0,0,0-0.1c0-0.2-0.1-0.5-0.2-0.7
		c-1.5-1.7-2.4-3.1-3-4.4c-0.1-0.2-0.1-0.2-0.1-0.5l0-0.2c0-0.1,0-0.2,0-0.2c0-0.1,0-0.2,0-0.2c0-0.5-0.1-1-0.2-1.4l0-0.1
		c0-0.1,0-0.2,0-0.3c0-0.1,0-0.3,0-0.4c-0.1-0.3-0.3-0.5-0.5-0.5c0,0-0.1-0.1-0.4-0.4c-0.1-0.1-0.3-0.4-0.7-0.5
		c-0.4-0.1-0.7,0-1,0.1c-0.1-0.8-0.1-1.6-0.3-2.4c-0.2-1.1-1.2-1.7-2-2.3c-0.1-0.1-0.3-0.2-0.4-0.3c-0.2-0.1-0.4-0.3-0.6-0.5
		c-0.3-0.3-0.7-0.6-1.1-0.8c-0.1-0.1-0.3-0.1-0.4-0.2c-0.4-0.2-0.6-0.3-0.8-0.6c-0.1-0.1-0.1-0.3-0.2-0.5c-0.4-0.7-0.7-1.3-1-1.7
		c0-0.1,0-0.4,0.1-0.5c0-0.2,0.1-0.4,0.1-0.5c0-0.5-0.1-1.1-0.1-1.5l0-0.1c-0.2-1.2-0.8-1.8-1.4-2.3c0-0.3,0.1-0.6,0.1-0.9l0.1-0.5
		c0-0.1,0-0.2,0.1-0.3c0-0.3,0.1-0.6,0.1-0.9c0-0.1,0.1-0.3,0-0.4c-0.1-0.5-0.3-0.9-0.8-1.3c-0.3-0.2-0.5-0.4-0.7-0.7l-0.2-0.2
		c-0.6-0.6-1.2-0.7-1.7-0.7c0-0.1,0-0.1-0.1-0.2c-0.1-0.3-0.2-0.6-0.3-0.9c-0.2-0.4-0.3-0.9-0.4-1.3c0-0.1,0-0.3-0.1-0.4
		c-0.1-0.4-0.1-0.8-0.3-1.1c-0.1-0.3-0.3-0.4-0.5-0.6c0-0.4-0.1-0.8-0.2-1.2l-0.1-0.3c-0.1-0.4-0.2-1-0.7-1.4
		c-0.4-0.3-0.9-0.2-1.2,0.2c-0.4,0.5-0.5,1.2-0.5,1.7L61,2.7c-0.1,0.4-0.1,0.8-0.2,1.2l-0.1,0c-0.1,0-0.2,0.1-0.3,0.2
		c0,0-0.1,0.1-0.1,0.1c-0.3,0-0.7,0.2-0.8,0.5c-0.1,0.2-0.1,0.4,0,0.5c0,0.6,0.1,1.1,0.2,1.7c0.1,0.3,0.1,0.6,0.2,0.9
		c0.1,0.5,0,1.1,0,1.7l0,0.4c0,0.3,0,0.6,0,1c0,0.5,0,1-0.1,1.4c-0.2,0.5-0.4,0.9-0.7,1.4c-0.1,0.1-0.1,0.3-0.2,0.4
		c-0.3,0.1-0.6,0.1-1,0.2c-0.4,0.1-0.7,0.2-1.1,0.3l-0.5,0.1c-0.2,0-0.4,0.1-0.7,0.3c-0.3-0.5-0.6-0.9-0.9-1.3
		c-0.2-0.2-0.4-0.3-0.6-0.4c-0.1-0.1-0.1-0.1-0.1-0.2c0-0.1-0.1-0.1-0.1-0.2c0-0.1-0.1-0.4-0.3-0.5c-0.2-0.2-0.5-0.2-0.8-0.3
		c-0.1,0-0.1,0-0.1,0c-0.5-0.2-1-0.4-1.5-0.7l-0.4-0.2c-0.2-0.1-0.5-0.3-0.8-0.4c-0.8-0.4-1.9-0.9-2.3-1.5c0-0.1-0.1-0.1-0.1-0.2
		c0-0.2,0.1-0.4,0.2-0.5c0.1-0.1,0.1-0.1,0.2-0.2c0.2-0.2,0.6-0.4,0.7-0.9c0.2-0.5,0.1-0.9,0.1-1.3c0-0.3-0.1-0.5,0-0.6
		c0.1-0.1,0.4-0.3,0.6-0.4c0.5-0.3,1-0.7,1.2-1.3c0.2-0.8-0.3-1.4-0.6-1.8c-0.1-0.1-0.2-0.3-0.3-0.3c-0.2-0.4-0.6-0.6-1-0.5
		c-0.2,0.1-0.4,0.2-0.5,0.4c0,0.1-0.1,0.1-0.1,0.2c0,0.1,0,0.1-0.1,0.2c0,0,0,0-0.2,0.1c-0.1,0-0.1,0.1-0.2,0.1c0,0-0.1,0-0.1-0.1
		c-0.1-0.1-0.5-0.4-1.1-0.3c-0.2,0.1-0.4,0.2-0.5,0.4c-0.7-0.7-1.8-1.2-2.4-1.4c-0.8-0.2-1.5-0.3-2.2-0.4c-0.1,0-0.2,0-0.3-0.1
		c-0.4-0.1-1-0.2-1.6,0.3c-0.2,0.2-0.3,0.5-0.4,0.8C39,1.9,38.9,2,38.9,2c-0.2,0.2-0.8,0.2-1,0.1c-0.6-0.1-1.4-0.1-2.1,0.5l-0.2,0.1
		C34.9,3.3,34,4,33.8,4.9c0,0.2,0,0.3,0,0.5c-0.5,0.3-1.1,0.7-1.3,1.3c-0.2,0.6,0.1,1.1,0.2,1.5l0.1,0.2c0,0,0,0.1,0,0.1
		c-1-0.4-2,0-2.7,0.3c-0.1,0-0.1,0.1-0.2,0.1c0,0,0,0,0,0c-0.6-1-1.7-2.8-3.4-2.1C26.3,7,26,7.2,25.7,7.4c-0.3,0.2-0.5,0.3-0.7,0.4
		c-0.1,0-0.2,0.1-0.3,0.1c-0.3,0-0.6,0.1-0.9,0.3c-0.4,0.2-0.6,0.5-0.8,0.8c-0.1,0.1-0.2,0.2-0.3,0.3c-0.2,0.2-0.4,0.3-0.6,0.5
		c-0.2,0.2-0.4,0.3-0.6,0.5c-0.1,0.1-0.2,0.3-0.3,0.5c0,0,0,0.1,0,0.1c-0.1,0.2-0.2,0.6,0,0.8c0.1,0.2,0.2,0.3,0.4,0.4
		c-0.1,0.1-0.2,0.1-0.3,0.2C21,12.6,21,12.9,21,13.1c0,0,0,0.1,0,0.1c0,0.1-0.2,0.2-0.3,0.4c-0.1,0.1-0.2,0.2-0.2,0.3
		c0,0-0.1-0.1-0.1-0.1l-0.1-0.1c-0.2-0.2-0.5-0.6-1-0.6c-0.3,0-0.5,0.1-0.7,0.1c-0.1,0-0.2,0-0.2,0.1c-0.3-0.1-0.6,0-0.9,0.1
		c-0.5,0.3-0.6,1-0.7,1.8l0,0.2c-0.2,0.9-0.3,1.9-0.3,2.9c-0.3,0.3-0.7,0.6-1.1,0.9c-0.3,0.2-0.6,0.4-0.8,0.6
		C13.9,20.5,13,21,12,21.7c-0.7,0.4-1.5,0.6-2.2,0.9c-0.3,0.1-0.7,0.2-1,0.3c-0.8,0.3-1.6,0.7-2.4,1.4c-0.2,0-0.4,0.2-0.5,0.4
		c-0.6,0.9-1.5,2-2.4,2.7l-0.4,0.4c-0.8,0.7-1.4,1.2-1.9,2.6l-0.2,0.5c-0.1,0.5-0.3,0.9-0.4,1.4c0,0.1-0.1,0.2-0.1,0.3
		c-0.1,0.4-0.3,0.7-0.3,1.1c0,0.5,0.2,1.1,0.4,1.5c0.2,0.4,0.3,0.8,0.5,1.1c-0.1,0-0.2,0-0.2,0c-0.1,0-0.2,0.1-0.3,0.1
		c-0.3,0.2-0.4,0.7-0.3,1c0.5,1.1,1.4,2.3,2.7,3.5c0.7,0.7,1.1,1.1,1.2,1.9c0,0.5-0.1,1-0.1,1.5c0,0.2-0.1,0.4-0.1,0.6
		c0,0,0,0.1,0,0.1c0,0.1,0,0.2,0,0.3c0.1,0.2,0.2,0.4,0.4,0.5c0.3,0.1,0.6,0.7,0.8,1.1c0.1,0.2,0.2,0.4,0.3,0.6l0.2,0.3
		c0.3,0.4,0.5,0.9,0.7,1.3c0.3,0.7,0.5,1.4,0.4,2.1c0,0.3-0.1,0.6-0.3,1C6.1,52.9,6,53.1,6,53.4c-0.1,0.2,0,0.5,0.1,0.7
		c0.1,0.4,0.3,0.8,0.5,1.1c0.1,0.1,0.1,0.3,0.2,0.4c0.1,0.2,0.1,0.3,0.2,0.5c0.1,0.2,0.1,0.5,0.2,0.7c0,0.1,0.1,0.3,0.3,0.5
		c0.3,0.3,0.8,0.5,1.7,0.6c0.4,0.1,1,0.1,1.6-0.1c0.4-0.2,0.7-0.4,1-0.7c0.2-0.1,0.3-0.3,0.5-0.4c0.4-0.2,0.7-0.5,1.1-0.7
		c0.2-0.2,0.5-0.3,0.7-0.5c0.1-0.1,0.3-0.2,0.4-0.3c0.5-0.3,0.8-0.6,1.3-0.7c0.6-0.2,1.4-0.3,2.1-0.4c0.7,0.2,1.5,0.4,2.4,0.4l0.3,0
		c0.5,0,1,0.1,1.5-0.1c0.4-0.2,0.7-0.5,0.9-0.7l0.1-0.1c0.7-0.9,1.6-1.6,2.5-2.1c0.7-0.4,1.4-0.9,1.8-1.7c0.9,0.3,1.6,0.3,2.2,0.2
		c0.4-0.1,0.8-0.4,1.1-0.6c0.2-0.2,0.4-0.3,0.6-0.4c0.7-0.3,1.5-0.4,2.3-0.6c0.5-0.1,1-0.2,1.5-0.3c0.5-0.1,1-0.2,1.4-0.3l0.6-0.1
		c0.1,0,0.1,0,0.2,0c0.1,0.1,0.1,0.2,0.2,0.2c0.3,0.3,0.7,0.5,1.1,0.6c0.1,0,0.2,0.1,0.3,0.1c0.3,0.1,0.6,0.3,0.9,0.5
		c0.7,0.4,1.5,0.9,2.3,1.1c0.2,0.5,0.5,1,0.8,1.5c0.2,0.2,0.3,0.5,0.4,0.7c0.2,0.4,0.4,0.8,0.6,1.3c0,0.1,0,0.2,0.1,0.3
		c0.1,0.4,0.2,0.9,0.5,1.2c0.5,0.5,1.6,0.5,2.2,0.3c0.7-0.3,1-1.1,1.2-1.8c0.5-0.1,0.9-0.3,0.9-0.3c0.4-0.2,0.6-0.5,0.8-0.8
		c0,0.1,0,0.1,0,0.2c0,0.1,0.1,0.2,0.1,0.3c0,0.1,0,0.1,0.1,0.2c0,0.1,0,0.2,0.1,0.4c0,0.2,0,0.4,0.1,0.6c0,0.1,0.1,0.4,0.4,0.7
		c0.4,0.3,1.1,0.3,1.4,0.2c0,0.1-0.1,0.2-0.1,0.4c-0.2,0.5-0.3,1-0.2,1.6c0.1,0.5,0.5,0.7,0.7,0.9c0,0,0.1,0,0.1,0
		c0.1,0.1,0.1,0.1,0.1,0.4c0,0.1,0,0.2,0,0.3c0,0.6,0.1,1.2,0.2,1.8l0,0.2c0,0,0,0.1,0,0.2c0,0.4,0.1,1,0.4,1.4
		c0.4,0.4,0.9,0.4,1.3,0.4c0,0,0,0,0,0c0.1,0,0.1,0,0.2,0c0.8,0.1,1.4,0.2,2,0.2c0.4,0.4,0.8,0.8,1.3,1.1c0.1,0.1,0.3,0.2,0.5,0.3
		c0.3,0.2,0.6,0.3,0.7,0.5c0.2,0.3,0.6,0.4,0.9,0.3c0.2-0.1,0.4-0.1,0.7-0.2c0.4-0.1,0.7-0.2,1.1-0.2c0.2,0,0.2,0,0.5,0.2
		c0.1,0.1,0.2,0.1,0.3,0.2c0.1,0,0.1,0.1,0.2,0.1c0,0,0.1,0,0.1,0c0.3,0.1,0.5,0.1,0.7,0l0.1,0c0.5,0,0.7,0.1,1.2,0.4
		c0.1,0,0.2,0.1,0.2,0.1c0.3,0.2,0.7,0.4,1.1,0.4c0.1,0,0.3,0,0.5-0.1c0.2-0.1,0.5-0.2,0.7-0.3c0.2-0.1,0.4-0.2,0.6-0.3
		c0.4-0.1,0.8-0.3,1.1-0.4c0.6-0.2,1.1-0.6,1.6-0.9c0.4-0.2,0.7-0.5,1.1-0.6l0.2-0.1c0.4-0.2,0.9-0.4,1.1-1.2c0.1-0.4,0.1-0.7,0.1-1
		l0-0.3c0-0.5,0.1-0.9,0.4-1.3c0.5-0.8,1.1-1.7,1.7-2.5l0.2-0.3c0.4-0.5,0.9-1.2,1.3-1.8c0.2-0.1,0.5-0.2,0.7-0.4l0.3-0.2
		c0.3-0.2,0.7-0.4,1-0.6c0.1,0,0.1-0.1,0.2-0.1c0.2-0.1,0.6-0.2,0.8-0.5c0.4-0.5,0.5-1.2,0.6-2c0-0.1,0-0.2,0.1-0.4
		c0.2-0.9,0.3-1.7,0.7-2.5c0.3-0.7,0.7-1.5,1.2-2.3c0.5-0.7,0.6-1.2,0.6-2.1C82.8,43.5,82.8,42.9,82.9,42.3z M77.8,28.3l-0.5,0.6
		c0,0-0.1,0-0.1-0.1L77.8,28.3z M81.4,44.2c0,0.5,0,0.7-0.3,1.2c-0.5,0.8-0.9,1.7-1.3,2.5c-0.4,1-0.6,1.9-0.8,3c0,0.1,0,0.2-0.1,0.4
		c0,0.3-0.2,1.1-0.3,1.2c0,0-0.2,0.1-0.2,0.1c-0.1,0-0.2,0.1-0.3,0.2c-0.4,0.2-0.7,0.4-1.1,0.6l-0.3,0.2c-0.3,0.2-0.6,0.3-0.9,0.5
		c-0.2,0.1-0.4,0.3-0.4,0.5c0,0.1,0,0.1,0,0.2c-0.3,0.4-0.6,0.9-1,1.3l-0.2,0.3c-0.7,0.9-1.3,1.8-1.9,2.7c-0.4,0.6-0.6,1.3-0.6,2
		l0,0.3c0,0.2,0,0.4,0,0.6c0,0.1,0,0.1,0,0.1c0,0-0.2,0.1-0.3,0.1l-0.2,0.1c-0.5,0.2-0.9,0.5-1.3,0.7c-0.5,0.3-0.9,0.5-1.3,0.7
		c-0.3,0.1-0.6,0.2-0.9,0.3c-0.4,0.1-0.7,0.3-1,0.4c-0.2,0.1-0.3,0.2-0.5,0.2c-0.1,0-0.2-0.1-0.3-0.2c-0.1-0.1-0.2-0.1-0.3-0.2
		c-0.6-0.3-1-0.5-1.8-0.5c-0.1,0-0.1,0-0.2,0c-0.1,0-0.2,0-0.2,0c0,0-0.1,0-0.1,0c0,0-0.1,0-0.1,0c0,0-0.1-0.1-0.1-0.1
		c-0.3-0.2-0.7-0.4-1.3-0.4c-0.6,0-1,0.2-1.5,0.3c-0.1,0-0.2,0-0.2,0.1c-0.3-0.2-0.6-0.4-0.9-0.6c-0.1-0.1-0.3-0.1-0.4-0.2
		c-0.4-0.2-0.7-0.6-1-0.9l-0.2-0.2c-0.2-0.2-0.4-0.2-0.6-0.2c-0.7,0-1.2,0-2-0.1c-0.1,0-0.3,0-0.5,0c-0.1,0-0.1,0-0.2,0
		c0-0.1,0-0.3,0-0.4c0-0.2,0-0.3,0-0.4l0-0.2c-0.1-0.5-0.2-1-0.2-1.5c0-0.1,0-0.2,0-0.3c0-0.4,0-0.8-0.4-1.3
		c-0.2-0.2-0.4-0.3-0.5-0.4c0,0,0,0-0.1,0c0-0.2,0.1-0.5,0.2-0.6c0.1-0.3,0.2-0.5,0.2-0.8c0-0.3,0.1-0.6,0.1-0.9
		c0.1-0.3,0.1-0.7,0.1-1c0-0.3-0.1-0.6-0.4-0.8c-0.3-0.1-0.6-0.1-0.9,0.2c-0.2,0.2-0.3,0.4-0.4,0.6c-0.1,0.2-0.3,0.4-0.3,0.4
		c0,0-0.1,0-0.2,0c0-0.1,0-0.1,0-0.2c0-0.2,0-0.4-0.1-0.7c0-0.1-0.1-0.2-0.1-0.3c0-0.1-0.1-0.1-0.1-0.2c-0.2-0.5-0.3-1-0.3-1.5
		c0-0.3-0.2-0.6-0.5-0.7c-0.3-0.1-0.7,0-0.8,0.3c-0.1,0.1-0.2,0.2-0.3,0.3c-0.1,0.1-0.3,0.3-0.4,0.4c-0.1,0.2-0.2,0.3-0.3,0.5
		c-0.1,0.2-0.2,0.4-0.3,0.4c-0.2,0.1-0.6,0.2-0.8,0.2c-0.4,0-0.7,0.2-0.8,0.5l0,0.1c-0.1,0.3-0.3,1.1-0.5,1.2c-0.1,0-0.3,0-0.5,0
		c-0.1-0.1-0.1-0.4-0.2-0.5c-0.1-0.2-0.1-0.4-0.1-0.5c-0.2-0.6-0.5-1-0.7-1.4c-0.1-0.3-0.3-0.5-0.5-0.8c-0.3-0.5-0.7-1.1-0.8-1.6
		c-0.1-0.3-0.4-0.5-0.7-0.5c-0.1,0-0.1,0-0.2,0c-0.6-0.2-1.2-0.5-1.8-0.9c-0.3-0.2-0.6-0.4-0.9-0.5c-0.2-0.1-0.3-0.1-0.5-0.2
		c-0.2-0.1-0.4-0.2-0.5-0.3c-0.1-0.1-0.1-0.2-0.2-0.3c-0.1-0.3-0.5-0.5-0.8-0.4c-0.1,0-0.2,0-0.3,0c-0.2,0-0.3,0-0.4,0.1l-0.6,0.1
		c-0.5,0.1-1,0.2-1.5,0.3c-0.4,0.1-0.9,0.2-1.4,0.3c-0.8,0.2-1.7,0.3-2.5,0.6c-0.4,0.1-0.7,0.4-1,0.6c-0.2,0.2-0.4,0.3-0.6,0.4
		c-0.3,0.1-0.9,0-1.9-0.4c-0.2-0.1-0.4-0.1-0.6,0c-0.2,0.1-0.3,0.3-0.4,0.5c-0.1,0.6-0.4,0.9-1.3,1.5c-1,0.6-2,1.4-2.9,2.4
		c-0.1,0.1-0.1,0.1-0.2,0.2c-0.1,0.1-0.1,0.2-0.2,0.2c-0.2,0.1-0.6,0-0.9,0c-0.1,0-0.2,0-0.3,0c-0.9-0.1-1.6-0.2-2.2-0.4
		c-0.1,0-0.2,0-0.3,0c-0.8,0.1-1.7,0.2-2.5,0.4c-0.7,0.2-1.3,0.6-1.8,0.9c-0.1,0.1-0.2,0.2-0.4,0.3c-0.2,0.2-0.5,0.3-0.7,0.5
		c-0.3,0.2-0.7,0.5-1,0.7c-0.2,0.1-0.4,0.3-0.6,0.5c-0.2,0.2-0.5,0.4-0.7,0.5c-0.1,0.1-0.4,0.1-0.7,0c-0.5-0.1-0.7-0.1-0.8-0.2
		c0,0,0,0,0-0.1c-0.1-0.1-0.1-0.3-0.2-0.5c-0.1-0.2-0.1-0.5-0.3-0.8C8,54.7,8,54.6,7.9,54.4c-0.2-0.3-0.3-0.6-0.4-0.8
		c0,0,0-0.1,0-0.1c0-0.1,0.1-0.3,0.1-0.4c0.1-0.4,0.3-0.8,0.3-1.3c0.1-1.1-0.2-2.1-0.5-2.8c-0.2-0.6-0.5-1.1-0.8-1.5l-0.2-0.3
		c-0.1-0.1-0.2-0.3-0.3-0.5c-0.3-0.5-0.6-1.1-1-1.5c0-0.1,0-0.2,0.1-0.3c0.1-0.6,0.2-1.2,0.2-1.9c-0.1-1.4-0.9-2.2-1.6-2.9
		c-0.7-0.7-1.2-1.3-1.7-1.9c0.2,0,0.4-0.1,0.5-0.3c0.2-0.2,0.2-0.4,0.1-0.7c-0.3-0.9-0.6-1.6-1-2.5c-0.1-0.2-0.3-0.6-0.2-0.8
		c0-0.1,0.1-0.4,0.2-0.7c0.1-0.2,0.1-0.3,0.2-0.4c0.2-0.5,0.3-1,0.4-1.5l0.2-0.5c0.3-1,0.6-1.2,1.4-1.9l0.5-0.4
		c0.9-0.8,1.8-1.8,2.5-2.8c0.1,0,0.1-0.1,0.2-0.1c0.8-0.7,1.5-1.1,2.2-1.3c0.3-0.1,0.6-0.2,1-0.3c0.9-0.3,1.7-0.6,2.5-1
		c1.1-0.7,2-1.3,2.7-1.9c0.2-0.2,0.5-0.4,0.7-0.6c0.5-0.4,1-0.8,1.4-1.2c0.2-0.2,0.3-0.4,0.3-0.7c-0.1-0.9,0.1-1.9,0.3-2.8
		c0-0.1,0-0.1,0-0.3c0-0.1,0.1-0.4,0.1-0.6c0.2,0,0.4-0.1,0.6-0.1c0.1,0,0.1,0,0.2,0c0,0,0,0,0,0c0,0.1,0.1,0.1,0.1,0.1
		c0.1,0.1,0.2,0.2,0.3,0.3c0.1,0.1,0.2,0.2,0.3,0.3c0.2,0.2,0.5,0.3,0.7,0.3c0,0,0,0,0,0c0.1,0,0.3,0,0.4-0.1
		c0.2-0.1,0.3-0.3,0.3-0.5c0.1-0.2,0.3-0.5,0.5-0.6c0.3-0.4,0.4-0.5,0.5-0.7c0.1-0.2,0.1-0.4,0.1-0.6c0.3-0.1,0.5-0.3,0.6-0.6
		c0.2-0.3,0.1-0.8-0.1-1.2c0-0.1-0.1-0.2-0.2-0.2c0,0-0.1-0.1-0.1-0.1c0,0,0,0,0,0c0.1-0.1,0.1-0.1,0.2-0.2c0.3-0.2,0.5-0.4,0.8-0.7
		c0.1-0.1,0.2-0.3,0.4-0.4c0.1-0.2,0.3-0.4,0.4-0.4c0.1,0,0.2-0.1,0.4-0.1c0.2,0,0.4-0.1,0.6-0.1c0.4-0.2,0.8-0.4,1.1-0.6
		c0.2-0.1,0.4-0.3,0.6-0.4C27.6,8,28,8.6,28.7,9.7c0.1,0.2,0.3,0.4,0.4,0.6c0.2,0.3,0.5,0.4,0.8,0.3c0.3-0.1,0.6-0.2,0.9-0.4
		c1.1-0.5,1.4-0.5,1.8-0.1c0.2,0.3,0.5,0.4,0.8,0.3c0.3,0,0.5-0.3,0.6-0.5c0-0.1,0.1-0.2,0.1-0.3c0.2-0.4,0.4-0.9,0.1-1.7l-0.1-0.2
		C34.1,7.5,34,7.3,34,7.2c0.1-0.1,0.5-0.5,1.1-0.7c0.2-0.1,0.4-0.3,0.4-0.5c0.1-0.2,0-0.5-0.1-0.6c-0.1-0.1-0.1-0.2-0.1-0.2
		c0.1-0.4,0.8-0.9,1.2-1.2l0.2-0.1c0.3-0.2,0.5-0.2,1.1-0.2c0.6,0.1,1.5,0.1,2.1-0.5c0.3-0.3,0.4-0.6,0.5-0.9c0-0.1,0.1-0.2,0-0.2
		c0.1,0,0.2,0,0.3,0c0.2,0,0.3,0.1,0.5,0.1c0.8,0.1,1.3,0.2,2,0.4c0.8,0.2,1.8,0.8,2,1.3c0.1,0.2,0.3,0.4,0.5,0.4
		c0.2,0,0.4,0,0.5-0.1c0.2,0,0.4-0.2,0.5-0.4c0,0,0.1-0.1,0.1-0.1c0.2,0.2,0.5,0.3,0.9,0.3c0.4,0,0.7-0.3,0.8-0.4
		c0,0,0.1-0.1,0.1-0.1c0.1-0.1,0.2-0.1,0.3-0.2c0.1,0.1,0.2,0.2,0.2,0.2c0,0.1-0.4,0.3-0.6,0.5c-0.4,0.2-0.8,0.5-1,0.9
		c-0.3,0.6-0.3,1.1-0.2,1.6c0,0.2,0.1,0.4,0,0.5c0,0.1-0.2,0.2-0.3,0.2c-0.1,0.1-0.3,0.2-0.4,0.3c-0.4,0.4-1,1.7-0.4,2.5
		c0.1,0.1,0.2,0.2,0.3,0.3c0.7,0.8,1.8,1.3,2.7,1.8c0.3,0.1,0.5,0.2,0.7,0.4l0.4,0.2c0.5,0.3,1.1,0.6,1.7,0.8c0.1,0,0.2,0.1,0.3,0.1
		c0,0,0,0,0,0c0,0,0,0,0,0c0,0.1,0.1,0.1,0.1,0.2c0.1,0.2,0.2,0.4,0.5,0.6c0.2,0.1,0.3,0.2,0.4,0.2c0.4,0.5,0.9,1.3,1.1,1.8
		c0.1,0.3,0.4,0.4,0.7,0.5c0.3,0,0.6-0.1,0.7-0.4c0.1-0.1,0.4-0.3,0.6-0.4l0.5-0.1c0.4-0.1,0.8-0.2,1.2-0.3c0.4-0.1,0.8-0.2,1.1-0.2
		c0.3,0,0.5-0.2,0.6-0.4c0.1-0.2,0.2-0.5,0.4-0.7c0.2-0.5,0.5-1,0.7-1.5c0.3-0.8,0.3-1.5,0.3-2.1c0-0.3,0-0.5,0-0.8l0-0.4
		c0-0.6,0.1-1.3,0-2c0-0.4-0.1-0.7-0.2-1.1c-0.1-0.4-0.2-0.8-0.2-1.1c0.1,0,0.1-0.1,0.2-0.1c0,0,0.1-0.1,0.1-0.1l0.2-0.1
		c0.1,0,0.2-0.1,0.3-0.1c0.3-0.1,0.5-0.4,0.5-0.7c0-0.2,0-0.4,0-0.6c0.1,0.1,0.1,0.2,0.2,0.3l0.2,0.1c0.1,0,0.2,0.1,0.2,0.1
		C62.9,4.4,63,4.8,63,5c0,0.2,0.1,0.4,0.1,0.6c0.1,0.5,0.3,1,0.5,1.4c0.1,0.3,0.2,0.6,0.3,0.9C63.9,8,64,8.3,64,8.5
		c0.1,0.4,0.4,0.7,0.8,0.6l0.1,0c0.6-0.1,0.8-0.1,1,0.2l0.2,0.2c0.3,0.3,0.5,0.6,0.9,0.8c0.1,0.1,0.1,0.1,0.2,0.2c0,0.1,0,0.1,0,0.2
		c0,0.2,0,0.5-0.1,0.7c0,0.1,0,0.3-0.1,0.4l-0.1,0.5c-0.2,1.4-0.3,1.7,0,1.9c0.1,0.1,0.1,0.2,0.2,0.3c0.7,0.5,1,0.8,1.1,1.5l0,0.1
		c0.1,0.4,0.1,0.9,0.1,1.3c0,0.1,0,0.2,0,0.3c-0.1,0.5-0.2,1.1,0.1,1.6c0.1,0.1,0.1,0.2,0.3,0.2c0.2,0.2,0.5,0.9,0.7,1.2
		c0.1,0.3,0.3,0.6,0.4,0.7c0.4,0.6,0.9,0.9,1.4,1.1c0.1,0.1,0.2,0.1,0.4,0.2c0.3,0.2,0.6,0.4,0.8,0.6c0.2,0.2,0.5,0.4,0.7,0.6
		c0.1,0.1,0.3,0.2,0.4,0.3c0.6,0.4,1.3,0.9,1.4,1.3c0.2,0.8,0.2,1.5,0.3,2.3c0,0.3,0,0.5,0.1,0.8c0,0.2,0.1,0.4,0.3,0.6
		c0.2,0.1,0.4,0.2,0.7,0.1c0.1-0.1,0.3-0.1,0.4-0.1l0.2-0.1c0.1,0,0.2-0.1,0.3-0.1c0,0,0,0,0.1,0c0.2,0.2,0.3,0.4,0.6,0.6
		c0,0.1,0,0.1,0,0.2l0,0.1c0.1,0.4,0.1,0.9,0.1,1.3c0,0,0,0.1,0,0.1c0,0.1,0,0.1,0,0.2l0,0.2c0,0.3,0,0.7,0.2,1.2
		c0.6,1.3,1.6,2.8,3,4.5c0,0,0,0,0,0c0,0.1,0,0.2,0.1,0.2c0,1.2,0,2.4,0,3.6c0,0.4,0,0.7,0,1.1C81.3,42.9,81.3,43.5,81.4,44.2z"/>
	<path class="st22" d="M69.1,67.7c-0.3-0.1-0.6-0.2-1-0.2l-0.2,0c-0.1,0-0.3,0-0.4,0c0,0-0.1,0-0.1,0c-0.1,0-0.2-0.1-0.3-0.1
		c-0.1,0-0.3-0.1-0.6,0c-0.4,0.1-0.6,0.3-0.8,0.6c-0.1,0.1-0.1,0.1-0.2,0.2c-0.1-0.1-0.1-0.1-0.2-0.2c-0.4-0.4-0.8-0.5-1.1-0.6
		c-0.1,0-0.1,0-0.2-0.1c-0.2,0-0.3-0.1-0.5-0.4c-0.1-0.1-0.3-0.3-0.6-0.3c-0.7-0.1-1.1,0.3-1.2,0.5c0,0,0,0.1-0.1,0.1
		c0,0,0,0-0.1,0.1c-0.2,0.2-0.4,0.4-0.4,0.7c0,0.7,0.3,1.4,0.6,1.9c0.1,0.3,0.1,0.4,0.1,0.9c0,0.1,0,0.2,0,0.4
		c-0.1,0.1-0.1,0.4,0,0.7c0.1,0.4,0.4,0.8,0.6,1.1c0.1,0.1,0.1,0.2,0.2,0.2l0.2,0.3c0.2,0.3,0.4,0.7,0.7,1c0.1,0.5,0.3,0.8,0.5,1.2
		c0.2,0.2,0.4,0.4,0.7,0.4c0,0,0,0,0.1,0c0.3,0,0.6-0.2,0.7-0.5c0.2-0.4,0.5-0.8,0.7-1.1l0.2-0.2c0.2,0,0.3,0.1,0.5,0.2l0.2,0.1
		c0.2,0.1,0.5,0.1,0.7-0.1c0.2-0.1,0.4-0.4,0.4-0.6c0.1-0.3,0-0.7,0-1c0-0.1,0-0.3,0-0.4l0-0.3c0-0.2,0-0.4,0-0.6
		c0.2-0.6,0.5-1.2,0.9-1.8c0,0,0.1-0.1,0.1-0.1c0.2-0.3,0.5-0.7,0.3-1.2C69.6,68,69.4,67.8,69.1,67.7z M66.9,71.1c0,0.1,0,0.2,0,0.3
		c0,0.2,0,0.4,0,0.6l0,0.3c0,0.1,0,0.3,0,0.4c-0.2,0-0.3-0.1-0.5-0.1c-0.7-0.1-1,0.2-1.2,0.6L65,73.5c-0.1,0.1-0.1,0.2-0.2,0.2
		c0-0.1-0.1-0.1-0.2-0.2c-0.2-0.2-0.5-0.6-0.7-0.9l-0.2-0.3c-0.1-0.1-0.1-0.2-0.2-0.3c-0.1-0.2-0.3-0.4-0.3-0.5c0-0.1,0-0.2,0-0.2
		c0-0.1,0-0.3,0-0.4c0-0.5,0.1-1-0.3-1.7c-0.2-0.3-0.3-0.6-0.4-1c0,0,0,0,0-0.1c0.2,0.2,0.5,0.4,0.9,0.5c0.1,0,0.2,0.1,0.3,0.1
		c0.2,0.1,0.2,0.1,0.3,0.1c0.2,0.2,0.4,0.4,0.5,0.6c0.2,0.3,0.6,0.5,0.9,0.3c0.5-0.2,0.9-0.6,1.2-0.9c0,0,0,0,0,0
		c0.2,0.1,0.4,0.1,0.6,0.1c0.1,0,0.3,0,0.3,0C67.5,69.7,67.1,70.4,66.9,71.1z"/>
</g>
</svg>
