<?xml version="1.0" encoding="utf-8"?>
<!-- Generator: Adobe Illustrator 24.3.0, SVG Export Plug-In . SVG Version: 6.00 Build 0)  -->
<svg version="1.1" id="Layer_1" xmlns="http://www.w3.org/2000/svg" xmlns:xlink="http://www.w3.org/1999/xlink" x="0px" y="0px"
	 viewBox="0 0 71.4 68.9" style="enable-background:new 0 0 71.4 68.9;" xml:space="preserve">
<style type="text/css">
	.st0{fill:#F5F5F5;}
	.st1{fill:#575756;}
	.st2{fill:#AD1820;}
	.st3{fill:#E5332A;}
	.st4{fill:#F6A723;}
	.st5{fill:#E84E1B;}
	.st6{fill:#FAA634;}
	.st7{fill:none;stroke:#9C9B9B;stroke-width:3;stroke-miterlimit:10;}
	.st8{fill:#9C9B9B;}
	.st9{fill:#1D1D1B;}
	.st10{clip-path:url(#SVGID_2_);}
	.st11{clip-path:url(#SVGID_4_);}
	.st12{clip-path:url(#SVGID_6_);}
	.st13{fill:none;stroke:#AD1820;stroke-width:2.7971;stroke-miterlimit:10;}
	.st14{fill:#FFFFFF;}
	.st15{fill:#C6C6C5;}
	.st16{fill:#868686;}
	.st17{fill:#3C3C3B;}
	.st18{opacity:0.52;fill:#AD1820;}
	.st19{fill:none;stroke:#AD1820;stroke-width:4.3435;stroke-miterlimit:10;}
	.st20{fill:none;stroke:#E5332A;stroke-width:4.3435;stroke-miterlimit:10;}
	.st21{fill:#B1B1B1;}
	.st22{fill:#DD4D02;}
	.st23{fill:#A4A4A4;}
	.st24{fill:#E94D00;}
</style>
<path class="st24" d="M70.1,0.6C70.1,0.6,70.1,0.6,70.1,0.6C70.1,0.6,70.1,0.6,70.1,0.6C70.1,0.6,70.1,0.6,70.1,0.6
	c-0.9-0.7-2.1-0.8-3.2-0.4L2,30.2c-1.2,0.5-1.9,1.7-2,2.9c0,1.3,0.7,2.5,1.9,3l23.5,11.8l-0.2,0.2C25,48.3,25,48.4,25,48.6v19.5
	c0,0.3,0.2,0.6,0.5,0.7c0.1,0,0.2,0.1,0.3,0.1c0.2,0,0.4-0.1,0.5-0.2L38.9,55c0,0,0.1-0.1,0.1-0.1l0.1-0.1l22.7,11.4
	c0.4,0.2,0.9,0.3,1.4,0.3c0.6,0,1.1-0.2,1.6-0.4c0.9-0.5,1.5-1.5,1.6-2.5l5-59.9C71.5,2.4,71,1.3,70.1,0.6z M2.5,34.8
	c-0.6-0.3-1-0.9-1-1.6c0-0.7,0.4-1.3,1.1-1.6l64.9-30c0.3-0.1,0.6-0.2,0.9-0.1L26.4,46.7L2.5,34.8z M26.5,66.2V48.9l0.6-0.7
	c0,0,0,0,0,0L65.5,6.8L38.1,53.4c0,0,0,0,0,0c0,0,0,0,0,0L37.8,54L26.5,66.2z M64.9,63.3c0,0.6-0.4,1.1-0.9,1.4
	c-0.5,0.3-1.1,0.3-1.6,0.1L39.9,53.5l29.9-51c0.1,0.3,0.2,0.6,0.2,0.9L64.9,63.3z"/>
</svg>
