<?xml version="1.0" encoding="utf-8"?>
<!-- Generator: Adobe Illustrator 24.3.0, SVG Export Plug-In . SVG Version: 6.00 Build 0)  -->
<svg version="1.1" id="Layer_1" xmlns="http://www.w3.org/2000/svg" xmlns:xlink="http://www.w3.org/1999/xlink" x="0px" y="0px"
	 viewBox="0 0 18.6 17.8" style="enable-background:new 0 0 18.6 17.8;" xml:space="preserve">
<style type="text/css">
	.st0{fill:#F5F5F5;}
	.st1{fill:#575756;}
	.st2{fill:#AD1820;}
	.st3{fill:#E5332A;}
	.st4{fill:#F6A723;}
	.st5{fill:#E84E1B;}
	.st6{fill:#FAA634;}
	.st7{fill:none;stroke:#9C9B9B;stroke-width:3;stroke-miterlimit:10;}
	.st8{fill:#9C9B9B;}
	.st9{fill:#1D1D1B;}
	.st10{clip-path:url(#SVGID_2_);}
	.st11{clip-path:url(#SVGID_4_);}
	.st12{clip-path:url(#SVGID_6_);}
	.st13{fill:none;stroke:#AD1820;stroke-width:2.7971;stroke-miterlimit:10;}
	.st14{fill:#FFFFFF;}
	.st15{fill:#C6C6C5;}
	.st16{fill:#868686;}
	.st17{fill:#3C3C3B;}
	.st18{opacity:0.52;fill:#AD1820;}
	.st19{fill:none;stroke:#AD1820;stroke-width:4.3435;stroke-miterlimit:10;}
	.st20{fill:none;stroke:#E5332A;stroke-width:4.3435;stroke-miterlimit:10;}
	.st21{fill:#B1B1B1;}
	.st22{fill:#DD4D02;}
	.st23{fill:#A4A4A4;}
	.st24{fill:#E94D00;}
	.st25{clip-path:url(#SVGID_8_);fill:#E74E1B;}
	.st26{clip-path:url(#SVGID_8_);}
	.st27{fill:#AC1820;}
	.st28{fill:#F19000;}
	.st29{opacity:0.52;fill:#AC1820;}
	.st30{fill:#E4332A;}
	.st31{fill:#9A9999;}
</style>
<g>
	<path class="st31" d="M18.6,10.9v6.9h-4v-6.4c0-1.6-0.6-2.7-2-2.7c-1.1,0-1.8,0.7-2.1,1.5c-0.1,0.3-0.1,0.6-0.1,1v6.7h-4
		c0,0,0.1-10.9,0-12h4v1.7c0,0,0,0,0,0h0v0c0.5-0.8,1.5-2,3.6-2C16.7,5.5,18.6,7.2,18.6,10.9L18.6,10.9z M2.3,0C0.9,0,0,0.9,0,2.1
		c0,1.2,0.9,2.1,2.2,2.1h0c1.4,0,2.3-0.9,2.3-2.1C4.5,0.9,3.6,0,2.3,0L2.3,0z M0.2,17.8h4v-12h-4V17.8z M0.2,17.8"/>
</g>
</svg>
