<?xml version="1.0" encoding="utf-8"?>
<!-- Generator: Adobe Illustrator 24.3.0, SVG Export Plug-In . SVG Version: 6.00 Build 0)  -->
<svg version="1.1" id="Layer_1" xmlns="http://www.w3.org/2000/svg" xmlns:xlink="http://www.w3.org/1999/xlink" x="0px" y="0px"
	 viewBox="0 0 18.4 14.9" style="enable-background:new 0 0 18.4 14.9;" xml:space="preserve">
<style type="text/css">
	.st0{fill:#F5F5F5;}
	.st1{fill:#575756;}
	.st2{fill:#AD1820;}
	.st3{fill:#E5332A;}
	.st4{fill:#F6A723;}
	.st5{fill:#E84E1B;}
	.st6{fill:#FAA634;}
	.st7{fill:none;stroke:#9C9B9B;stroke-width:3;stroke-miterlimit:10;}
	.st8{fill:#9C9B9B;}
	.st9{fill:#1D1D1B;}
	.st10{clip-path:url(#SVGID_2_);}
	.st11{clip-path:url(#SVGID_4_);}
	.st12{clip-path:url(#SVGID_6_);}
	.st13{fill:none;stroke:#AD1820;stroke-width:2.7971;stroke-miterlimit:10;}
	.st14{fill:#FFFFFF;}
	.st15{fill:#C6C6C5;}
	.st16{fill:#868686;}
	.st17{fill:#3C3C3B;}
	.st18{opacity:0.52;fill:#AD1820;}
	.st19{fill:none;stroke:#AD1820;stroke-width:4.3435;stroke-miterlimit:10;}
	.st20{fill:none;stroke:#E5332A;stroke-width:4.3435;stroke-miterlimit:10;}
	.st21{fill:#B1B1B1;}
	.st22{fill:#DD4D02;}
	.st23{fill:#A4A4A4;}
	.st24{fill:#E94D00;}
	.st25{clip-path:url(#SVGID_8_);fill:#E74E1B;}
	.st26{clip-path:url(#SVGID_8_);}
	.st27{fill:#AC1820;}
	.st28{fill:#F19000;}
	.st29{opacity:0.52;fill:#AC1820;}
	.st30{fill:#E4332A;}
	.st31{fill:#9A9999;}
</style>
<g>
	<path class="st31" d="M18.4,1.8c-0.7,0.3-1.4,0.5-2.2,0.6c0.8-0.5,1.4-1.2,1.7-2.1c-0.7,0.4-1.5,0.7-2.4,0.9
		C14.8,0.5,13.8,0,12.7,0C10.6,0,9,1.7,9,3.8C9,4.1,9,4.4,9,4.6C5.9,4.5,3.1,3,1.3,0.7C1,1.2,0.8,1.9,0.8,2.6c0,1.3,0.7,2.5,1.7,3.1
		c-0.6,0-1.2-0.2-1.7-0.5v0c0,1.8,1.3,3.4,3,3.7c-0.3,0.1-0.7,0.1-1,0.1c-0.2,0-0.5,0-0.7-0.1c0.5,1.5,1.9,2.6,3.5,2.6
		c-1.3,1-2.9,1.6-4.7,1.6c-0.3,0-0.6,0-0.9-0.1c1.7,1.1,3.7,1.7,5.8,1.7c6.9,0,10.7-5.7,10.7-10.7l0-0.5C17.2,3.2,17.9,2.5,18.4,1.8
		L18.4,1.8z M18.4,1.8"/>
</g>
</svg>
