<?xml version="1.0" encoding="utf-8"?>
<!-- Generator: Adobe Illustrator 24.3.0, SVG Export Plug-In . SVG Version: 6.00 Build 0)  -->
<svg version="1.1" id="Layer_1" xmlns="http://www.w3.org/2000/svg" xmlns:xlink="http://www.w3.org/1999/xlink" x="0px" y="0px"
	 viewBox="0 0 155.5 51.8" style="enable-background:new 0 0 155.5 51.8;" xml:space="preserve">
<style type="text/css">
	.st0{fill:#F5F5F5;}
	.st1{fill:#575756;}
	.st2{fill:#AD1820;}
	.st3{fill:#E5332A;}
	.st4{fill:#F6A723;}
	.st5{fill:#E84E1B;}
	.st6{fill:#FAA634;}
	.st7{fill:none;stroke:#9C9B9B;stroke-width:3;stroke-miterlimit:10;}
	.st8{fill:#9C9B9B;}
	.st9{fill:#1D1D1B;}
	.st10{clip-path:url(#SVGID_2_);}
	.st11{clip-path:url(#SVGID_4_);}
	.st12{clip-path:url(#SVGID_6_);}
	.st13{fill:none;stroke:#AD1820;stroke-width:2.7971;stroke-miterlimit:10;}
	.st14{fill:#FFFFFF;}
	.st15{fill:#C6C6C5;}
	.st16{fill:#868686;}
	.st17{fill:#3C3C3B;}
	.st18{opacity:0.52;fill:#AD1820;}
	.st19{fill:none;stroke:#AD1820;stroke-width:4.3435;stroke-miterlimit:10;}
	.st20{fill:none;stroke:#E5332A;stroke-width:4.3435;stroke-miterlimit:10;}
	.st21{fill:#B1B1B1;}
	.st22{fill:#DD4D02;}
	.st23{fill:#A4A4A4;}
</style>
<path class="st22" d="M154.1,39.3c-0.4-2.1-1.8-3.9-3.9-4.6l-12.6-4.6c-1-1-1.9-2.2-2.1-3.3c0.6,0.1,1.3,0.2,2,0.2
	c2.7,0,5.8-0.8,6.2-1.4l0.4-0.6l-0.4-0.4c-2.6-2.7-3-4.8-3.2-8.3c0.3-1,0.3-1.8,0.2-2.8c0-0.3,0-0.5,0-0.8c0-7-5.4-12.8-12.1-12.8
	c-1.4,0-2.2,0.4-3.2,0.9c-0.2,0.1-0.4,0.2-0.6,0.3c-0.4,0.1-0.9,0.2-1.3,0.3c-3,0.9-4.5,3-5.8,5.9c-1.2,2.6-1.6,4.3-1.2,7.4
	c0.1,0.4,0.2,1,0.4,1.6c-0.2,3.8-0.5,6-3.2,8.8l-0.1,1c0.5,0.6,3.5,1.4,6.2,1.4c0.6,0,1.2-0.1,1.8-0.2c-0.2,1.3-1.1,2-2.3,2.8
	l-12.8,4.5c-2,0.7-3.5,2.5-3.9,4.6l-0.6,4l-0.5-3.5c-0.4-2.3-1.9-4.1-4.1-4.9l-13.2-4.8c-0.3-0.5-0.4-1.1-0.4-2.2
	c0.2-0.2,0.4-0.3,0.6-0.5l0.1,0c1.4-0.9,3.8-3.3,4.3-8.6c0-0.1,0-0.1,0-0.2v-2c0.4-0.7,0.9-2.1,0.9-2.9V8.6l0-0.2
	c0-0.1-0.3-2.6-2.6-3.8c0-0.5-0.1-1-0.3-1.4c-0.5-0.9-1.4-1.5-2.6-1.8c-0.1,0-0.2,0-0.3,0h-9.6c-4.3,0-7.8,3.5-7.8,7.8v3.8
	c0,0.6,0.1,2.5,0.9,3.6v2.2v0l0,0.1c0,0.6,0.2,6,4.3,8.7l0.1,0c0.1,0.1,0.2,0.2,0.3,0.2l-0.1,0c0,1.2-0.2,1.9-0.8,2.6l-12.8,4.5
	c-2.2,0.8-3.7,2.7-4.1,4.9l-0.7,4.6l-0.8-5.1c-0.4-2.1-1.8-3.9-3.9-4.6l-12.7-4.6l-0.6-0.4c-1.4-1-1.5-1.4-1.5-3.3
	c0.9-1.3,4-5.7,4.5-8.6c0-0.1,0.1-0.2,0.1-0.4c0-0.1,0-0.1,0-0.2l0.1,0l0-0.1c0.5-1.4,0.5-2.3,0.5-3.5c0-0.3,0-0.5,0-0.8
	C39.4,5.7,34,0,27.3,0c-1.4,0-2.2,0.4-3.2,0.9C24,0.9,23.8,1,23.5,1.1c-0.4,0.1-0.9,0.2-1.3,0.3c-3,0.9-4.5,3-5.8,5.9
	c-1.2,2.6-1.6,4.3-1.2,7.4c0.1,0.7,0.4,1.7,0.6,2.3c0,0.1,0.2,0.4,0.3,0.6c0.6,3.5,2.2,6.9,4.2,9c-0.1,1.5-0.5,2.2-2,3.3l-0.4,0.3
	L5.2,34.7c-2,0.7-3.5,2.5-3.9,4.6L0,48.2l1.5,0.2l1.4-8.8c0.3-1.6,1.4-2.9,2.9-3.5l12.9-4.5l6,8.4c0.6,0.8,1.5,1.3,2.6,1.4v0.1
	c1.1,0,2.1-0.5,2.7-1.4l5.9-9.1l-0.2,0.6l12.8,4.6c1.5,0.5,2.6,1.9,2.9,3.5l1.4,8.9l0.3,0l-0.1,0.9l1.5,0.2l1.5-9.5
	c0.3-1.7,1.5-3.2,3.1-3.7l9.6-3.4l0.2,0.5l3.2,8l1.1,2.7l1.6-2.4c0.1-0.2,0.3-0.5,0.6-0.9l0.8,0.6l-1.6,5l0,0.1
	c-0.1,0.3,0,0.7,0.2,1l1.9,3.4c0.3,0.5,0.8,0.8,1.4,0.8c0.3,0,0.6-0.1,0.8-0.2h0c0.2-0.1,0.4-0.3,0.5-0.6l1.9-3.4
	c0.1-0.2,0.2-0.5,0.2-0.8c0-0.1,0-0.2,0-0.2l-1.7-5.1l1-0.6c0.2,0.4,0.4,0.7,0.6,0.9l1.6,2.4l1.1-2.7l3.2-8l0.2-0.6l9.7,3.5
	c1.6,0.6,2.8,2,3.1,3.7l1.5,9.5l1.5-0.2l-0.2-1.1l1.3-8.7c0.3-1.6,1.4-2.9,2.9-3.5l9.3-3.3c1.6,5,6.3,8.4,11.7,8.4
	c5.4,0,10.2-3.6,11.7-8.7l9.9,3.6c1.5,0.5,2.6,1.9,2.9,3.5l1.4,8.9l1.5-0.2L154.1,39.3z M17.8,7.9c1.2-2.6,2.4-4.4,4.8-5.1
	c0.4-0.1,0.8-0.2,1.2-0.3L24,2.6c0.3-0.1,0.5-0.2,0.8-0.4c0.9-0.4,1.5-0.7,2.5-0.7c5.8,0,10.6,5.1,10.6,11.3c0,0.3,0,0.6,0,0.9
	c0,0.6,0,1.1,0,1.5c-0.8-1.3-2.5-2.5-4.6-2.4l-9,0c-0.6,0-1.6-0.1-2.3-0.4L20.8,12L20.1,13c-0.3,0.4-0.7,0.8-1.2,1.3l-0.1,0.2
	c-0.3,0.3-0.7,0.7-1.8,1.2c-0.1-0.4-0.2-0.8-0.2-1.1C16.3,11.8,16.7,10.3,17.8,7.9z M28.6,39.1c-0.3,0.4-0.8,0.7-1.3,0.7v-0.1
	c-0.6,0-1.1-0.3-1.5-0.8l-6.1-8.4c1.5-1.2,2-2.4,2-4.3l0-0.3l-0.2-0.2c-1.9-1.8-3.5-5.2-4-8.5l-0.1-0.2c0,0,0,0,0-0.1
	c1.5-0.6,2-1.1,2.4-1.5l0.1-0.1c0.5-0.5,0.9-1,1.3-1.4l0.1-0.1l0.2,0.1c0.8,0.3,1.9,0.4,2.7,0.4l9,0c1.7-0.1,3,1,3.5,2
	c0,0.1,0.3,0.5,0.5,1l0.1,0.1l-0.1,0.2c-0.4,2.2-3,6.2-4.4,8.2l-0.2,0.2l0,0.5c0,2,0.2,2.9,1.6,4.1L28.6,39.1z M78,34.5l-0.1,0.1
	l-0.1,0l-5-3.5l-0.1-0.1c0.4-0.6,0.7-1.3,0.8-2.1c1.2,0.8,2.7,1.6,4.1,1.6c0.1,0,0.3,0,0.5,0c0.9,0,2.6-0.2,4.3-1.4
	c0.1,0.8,0.2,1.4,0.6,1.9l-0.1,0L78,34.5z M74.3,2.8h9.6c0.8,0.2,1.3,0.5,1.6,1c0.2,0.3,0.2,0.7,0.1,1l-0.1,0.6l0.5,0.2
	c1.9,0.8,2.2,2.8,2.2,2.9v2.1c-0.6-1.1-1.6-2.3-3.4-3l-3.4-1.2c-0.5-0.2-1.1-0.3-1.7-0.3h0c-0.6,0-1.2,0.1-1.8,0.3
	c-1.2,0.4-1.8,0.7-2.1,0.7c-0.1,0-0.1,0-0.2,0h-3.2c-0.1,0-0.2,0-0.3,0c-1.2,0.2-3.3,1.1-4.4,3.3V9.2C68,5.7,70.8,2.8,74.3,2.8z
	 M68.9,18.8C68.9,18.8,68.9,18.7,68.9,18.8l0-6.2c0-0.1,0-0.1,0-0.2c0.7-3.2,3.6-3.6,3.7-3.6c0,0,0.1,0,0.1,0h3.2
	c0.2,0,0.4,0,0.6-0.1c0.4-0.1,1.2-0.4,2.1-0.8c0.4-0.2,0.8-0.2,1.2-0.2c0.4,0,0.8,0.1,1.2,0.2l3.3,1.2c0,0,0,0,0,0
	c2.6,1,2.9,3.4,2.9,3.5c0,0,0,0.1,0,0.1v5.9c0,0,0,0,0,0.1c-0.4,4.7-2.4,6.7-3.6,7.5c0,0,0,0-0.1,0l-0.1,0c-0.4,0.3-0.7,0.5-1,0.8
	c-1.8,1.7-3.6,1.9-4.5,1.9c-0.2,0-0.3,0-0.4,0c0,0,0,0,0,0c-1.5,0-3.4-1.3-4.4-2.1c-0.2-0.2-0.4-0.3-0.6-0.4c0,0,0,0,0,0l0,0
	C69.1,24,68.9,19,68.9,18.8z M70.1,32.9l0.8-0.3l0,0c0,0,0,0,0,0l1.1-0.4l4.8,3.4c-0.1,0.1-0.2,0.2-0.3,0.3
	c-0.8,1.2-1.3,2.1-1.6,2.7c-0.6,0.9-1.2,1.9-1.5,2.3L70.1,32.9z M79.8,46.8l-1.9,3.4c0,0,0,0,0,0l0.4,0.6l-0.5-0.7l-1.9-3.4l1.9-5.9
	L79.8,46.8z M79.5,39.7l-1.7,1.1l-1.7-1.2c0-0.1,0.1-0.2,0.2-0.3c0.6-0.9,1.3-1.8,1.7-2.4c0.1,0.1,0.2,0.3,0.3,0.4
	C78.7,38.3,79.2,39.2,79.5,39.7z M82.4,40.9c-0.5-0.8-2-3-2.9-4.3c-0.1-0.2-0.3-0.4-0.4-0.7c0-0.1-0.1-0.1-0.1-0.1l0.1-0.1l4.8-3.4
	l1.8,0.7L82.4,40.9z M136.2,25.5c0.9-1.4,2.4-3.6,3.2-5.7c0.4,1.8,1,3.4,2.5,5.1C140.6,25.3,138,25.8,136.2,25.5z M119.1,7.9
	c1.2-2.6,2.4-4.4,4.8-5.1c0.4-0.1,0.8-0.2,1.2-0.3l0.2-0.1c0.3-0.1,0.5-0.2,0.8-0.4c0.9-0.4,1.5-0.7,2.5-0.7
	c5.8,0,10.6,5.1,10.6,11.3c0,0.3,0,0.6,0,0.9c0,0.6,0,1.1,0,1.5c-0.8-1.3-2.5-2.5-4.6-2.4l-9,0c-0.6,0-1.6-0.1-2.3-0.4l-1.2-0.4
	l-0.7,0.9c-0.3,0.4-0.7,0.8-1.2,1.3l-0.1,0.2c-0.3,0.3-0.7,0.7-1.8,1.2c-0.1-0.4-0.2-0.8-0.2-1.1C117.7,11.8,118.1,10.3,119.1,7.9z
	 M115.5,25.4c1.5-1.8,2.2-3.4,2.6-5.3c0.7,2.2,1.8,4.3,3,5.9C119.3,26.2,116.7,25.7,115.5,25.4z M128.1,39.7c-4.7,0-8.8-3-10.2-7.4
	l1.7-0.6l0.1,0.1c0.1-0.1,0.3-0.2,0.4-0.3l0,0l0,0c1.5-1,3.2-2.3,3.1-5.2l0-0.3l-0.2-0.2c-1.9-1.8-3.5-5.2-4-8.5l-0.1-0.2
	c0,0,0,0,0-0.1c1.5-0.6,2-1.1,2.4-1.5l0.1-0.1c0.5-0.5,0.9-1,1.3-1.4l0.1-0.1l0.2,0.1c0.8,0.3,1.9,0.4,2.7,0.4l9,0
	c1.7-0.1,3,1,3.5,2c0,0.1,0.3,0.5,0.5,1l0.1,0.1l-0.1,0.2c-0.4,2.2-3,6.2-4.4,8.2l-0.2,0.2l0,0.5c0,2.5,2.6,5,4.1,6l0.3-0.4l0,0
	C137.1,36.5,132.9,39.7,128.1,39.7z"/>
</svg>
