<?xml version="1.0" encoding="utf-8"?>
<!-- Generator: Adobe Illustrator 24.3.0, SVG Export Plug-In . SVG Version: 6.00 Build 0)  -->
<svg version="1.1" id="Layer_1" xmlns="http://www.w3.org/2000/svg" xmlns:xlink="http://www.w3.org/1999/xlink" x="0px" y="0px"
	 viewBox="0 0 96 49" style="enable-background:new 0 0 96 49;" xml:space="preserve">
<style type="text/css">
	.st0{fill:#F5F5F5;}
	.st1{fill:#575756;}
	.st2{fill:#AD1820;}
	.st3{fill:#E5332A;}
	.st4{fill:#F6A723;}
	.st5{fill:#E84E1B;}
	.st6{fill:#FAA634;}
	.st7{fill:none;stroke:#9C9B9B;stroke-width:3;stroke-miterlimit:10;}
	.st8{fill:#9C9B9B;}
	.st9{fill:#1D1D1B;}
	.st10{clip-path:url(#SVGID_2_);}
	.st11{clip-path:url(#SVGID_4_);}
	.st12{clip-path:url(#SVGID_6_);}
	.st13{fill:none;stroke:#AD1820;stroke-width:2.7971;stroke-miterlimit:10;}
	.st14{fill:#FFFFFF;}
	.st15{fill:#C6C6C5;}
	.st16{fill:#868686;}
	.st17{fill:#3C3C3B;}
	.st18{opacity:0.52;fill:#AD1820;}
	.st19{fill:none;stroke:#AD1820;stroke-width:4.3435;stroke-miterlimit:10;}
	.st20{fill:none;stroke:#E5332A;stroke-width:4.3435;stroke-miterlimit:10;}
	.st21{fill:#B1B1B1;}
	.st22{fill:#DD4D02;}
	.st23{fill:#A4A4A4;}
</style>
<g>
	<polygon class="st22" points="32.2,19.2 30.7,19.2 30.7,29.1 37.6,29.1 37.6,27.7 32.2,27.7 	"/>
	<path class="st22" d="M44.5,22.8c-0.3-0.3-0.7-0.6-1.2-0.8c-0.5-0.2-1-0.3-1.5-0.3c-0.6,0-1.1,0.1-1.5,0.3
		c-0.5,0.2-0.9,0.5-1.2,0.8c-0.3,0.3-0.6,0.7-0.8,1.2C38.1,24.5,38,25,38,25.5c0,0.5,0.1,1,0.3,1.4c0.2,0.5,0.4,0.9,0.8,1.2
		c0.3,0.3,0.7,0.6,1.2,0.8c0.5,0.2,1,0.3,1.6,0.3c0.6,0,1.1-0.1,1.5-0.3s0.9-0.5,1.2-0.8c0.3-0.3,0.6-0.7,0.8-1.2
		c0.2-0.5,0.3-0.9,0.3-1.4c0-0.5-0.1-1-0.3-1.4C45.1,23.6,44.9,23.2,44.5,22.8z M43.8,26.4c-0.1,0.3-0.3,0.6-0.5,0.8
		c-0.2,0.2-0.4,0.4-0.7,0.5c-0.3,0.1-0.6,0.2-0.9,0.2c-0.3,0-0.6-0.1-0.9-0.2c-0.3-0.1-0.5-0.3-0.7-0.5c-0.2-0.2-0.4-0.5-0.5-0.8
		c-0.1-0.3-0.2-0.6-0.2-1c0-0.3,0.1-0.7,0.2-1c0.1-0.3,0.3-0.6,0.5-0.8c0.2-0.2,0.4-0.4,0.7-0.5c0.3-0.1,0.5-0.2,0.8-0.2
		c0.3,0,0.6,0.1,0.9,0.2s0.5,0.3,0.7,0.5c0.2,0.2,0.3,0.5,0.5,0.8s0.2,0.6,0.2,1C44,25.8,43.9,26.1,43.8,26.4z"/>
	<path class="st22" d="M52.5,23.2c-0.3-0.4-0.7-0.8-1.1-1.1c-0.4-0.3-1-0.4-1.6-0.4c-0.5,0-1,0.1-1.4,0.3c-0.4,0.2-0.8,0.5-1.1,0.8
		c-0.3,0.3-0.5,0.7-0.7,1.2c-0.2,0.5-0.2,1-0.2,1.5c0,0.5,0.1,1,0.2,1.4c0.2,0.4,0.4,0.8,0.7,1.2c0.3,0.3,0.6,0.6,1.1,0.8
		c0.4,0.2,0.9,0.3,1.4,0.3c0.5,0,1-0.1,1.4-0.4c0.5-0.2,0.8-0.6,1.1-1v1.1c0,0.4-0.1,0.7-0.2,1s-0.3,0.5-0.5,0.7
		c-0.2,0.2-0.5,0.3-0.7,0.4c-0.3,0.1-0.6,0.1-0.9,0.1c-0.5,0-1-0.1-1.4-0.3c-0.4-0.2-0.8-0.5-1.1-0.9l-0.9,0.8
		c0.4,0.5,0.8,0.9,1.4,1.2c0.5,0.3,1.2,0.4,2,0.4c0.5,0,1.1-0.1,1.5-0.2s0.9-0.4,1.2-0.7c0.4-0.3,0.6-0.6,0.8-1
		c0.2-0.4,0.3-0.9,0.3-1.4v-7.1h-1.4V23.2z M52.3,26.5c-0.1,0.2-0.2,0.4-0.3,0.6c-0.1,0.2-0.3,0.3-0.5,0.5c-0.2,0.1-0.4,0.2-0.6,0.3
		s-0.4,0.1-0.7,0.1c-0.3,0-0.6-0.1-0.9-0.2c-0.3-0.1-0.5-0.3-0.7-0.5s-0.4-0.5-0.5-0.8c-0.1-0.3-0.2-0.6-0.2-0.9
		c0-0.3,0.1-0.6,0.2-0.9c0.1-0.3,0.2-0.6,0.4-0.8c0.2-0.2,0.4-0.4,0.7-0.6c0.3-0.1,0.6-0.2,0.9-0.2c0.4,0,0.9,0.1,1.3,0.4
		c0.4,0.3,0.7,0.7,0.9,1.1V26.5z"/>
	<rect x="55.7" y="18.9" class="st22" width="1.5" height="1.7"/>
	<rect x="55.7" y="21.8" class="st22" width="1.5" height="7.3"/>
	<path class="st22" d="M65.2,22.6c-0.2-0.3-0.4-0.5-0.7-0.7s-0.6-0.2-1.1-0.2c-0.6,0-1.2,0.1-1.8,0.4s-0.9,0.7-1.2,1.2v-1.5H59v7.3
		h1.5v-4.4c0.1-0.3,0.2-0.5,0.4-0.7c0.2-0.2,0.3-0.4,0.5-0.5c0.2-0.2,0.4-0.3,0.6-0.4s0.5-0.1,0.7-0.1c0.4,0,0.7,0.2,1,0.5
		c0.2,0.3,0.3,0.8,0.3,1.5v4.1h1.5v-4.5c0-0.4,0-0.8-0.1-1.1C65.4,23.2,65.3,22.8,65.2,22.6z"/>
	<path class="st22" d="M85.2,0H10.8C4.8,0,0,4.8,0,10.8v27.5C0,44.2,4.8,49,10.8,49h74.5C91.2,49,96,44.2,96,38.3V10.8
		C96,4.8,91.2,0,85.2,0z M94.5,38.3c0,5.1-4.1,9.2-9.2,9.2H10.8c-5.1,0-9.2-4.1-9.2-9.2V10.8c0-5.1,4.1-9.2,9.2-9.2h74.5
		c5.1,0,9.2,4.1,9.2,9.2V38.3z"/>
</g>
</svg>
