<?xml version="1.0" encoding="utf-8"?>
<!-- Generator: Adobe Illustrator 24.3.0, SVG Export Plug-In . SVG Version: 6.00 Build 0)  -->
<svg version="1.1" id="Layer_1" xmlns="http://www.w3.org/2000/svg" xmlns:xlink="http://www.w3.org/1999/xlink" x="0px" y="0px"
	 viewBox="0 0 85.2 65.4" style="enable-background:new 0 0 85.2 65.4;" xml:space="preserve">
<style type="text/css">
	.st0{fill:#F5F5F5;}
	.st1{fill:#575756;}
	.st2{fill:#AD1820;}
	.st3{fill:#E5332A;}
	.st4{fill:#F6A723;}
	.st5{fill:#E84E1B;}
	.st6{fill:#FAA634;}
	.st7{fill:none;stroke:#9C9B9B;stroke-width:3;stroke-miterlimit:10;}
	.st8{fill:#9C9B9B;}
	.st9{fill:#1D1D1B;}
	.st10{clip-path:url(#SVGID_2_);}
	.st11{clip-path:url(#SVGID_4_);}
	.st12{clip-path:url(#SVGID_6_);}
	.st13{fill:none;stroke:#AD1820;stroke-width:2.7971;stroke-miterlimit:10;}
	.st14{fill:#FFFFFF;}
	.st15{fill:#C6C6C5;}
	.st16{fill:#868686;}
	.st17{fill:#3C3C3B;}
	.st18{opacity:0.52;fill:#AD1820;}
	.st19{fill:none;stroke:#AD1820;stroke-width:4.3435;stroke-miterlimit:10;}
	.st20{fill:none;stroke:#E5332A;stroke-width:4.3435;stroke-miterlimit:10;}
	.st21{fill:#B1B1B1;}
	.st22{fill:#DD4D02;}
	.st23{fill:#A4A4A4;}
</style>
<g>
	<path class="st22" d="M77.5,0H7.7C3.5,0,0,3.5,0,7.7v49.9c0,4.3,3.5,7.7,7.7,7.7h69.8c4.3,0,7.7-3.5,7.7-7.7V7.7
		C85.2,3.5,81.7,0,77.5,0z M83.7,57.7c0,3.4-2.8,6.2-6.2,6.2H7.7c-3.4,0-6.2-2.8-6.2-6.2V7.7c0-3.4,2.8-6.2,6.2-6.2h69.8
		c3.4,0,6.2,2.8,6.2,6.2V57.7z"/>
	<path class="st22" d="M14.8,38.1l9.5-5.9c0.2,0.1,0.5,0.2,0.8,0.2c0.4,0,0.7-0.1,1-0.3l9.4,6.2L46,22.6c0,0,0.1,0,0.1,0
		c0,0,0,0,0.1,0l10.6,15.9L64.6,27c0.1,0,0.2,0,0.2,0c1.1,0,1.9-0.9,1.9-1.9c0-1.1-0.9-1.9-1.9-1.9c-1.1,0-1.9,0.9-1.9,1.9
		c0,0.4,0.2,0.8,0.4,1.2l-6.5,9.6L47.6,22c0.3-0.3,0.5-0.8,0.5-1.3c0-1.1-0.9-1.9-1.9-1.9s-1.9,0.9-1.9,1.9c0,0.5,0.2,0.9,0.5,1.3
		L35,36.1l-8.1-5.3c0-0.1,0.1-0.3,0.1-0.4c0-1.1-0.9-1.9-1.9-1.9s-1.9,0.9-1.9,1.9c0,0.2,0,0.4,0.1,0.6L14,36.8L14.8,38.1z"/>
	<rect x="12.9" y="42.2" class="st22" width="54.8" height="1.5"/>
</g>
</svg>
