<?xml version="1.0" encoding="utf-8"?>
<!-- Generator: Adobe Illustrator 24.3.0, SVG Export Plug-In . SVG Version: 6.00 Build 0)  -->
<svg version="1.1" id="Layer_1" xmlns="http://www.w3.org/2000/svg" xmlns:xlink="http://www.w3.org/1999/xlink" x="0px" y="0px"
	 viewBox="0 0 285.7 165.8" style="enable-background:new 0 0 285.7 165.8;" xml:space="preserve">
<style type="text/css">
	.st0{fill:#F5F5F5;}
	.st1{fill:#575756;}
	.st2{fill:#AD1820;}
	.st3{fill:#E5332A;}
	.st4{fill:#F6A723;}
	.st5{fill:#E84E1B;}
	.st6{fill:#FAA634;}
	.st7{fill:none;stroke:#9C9B9B;stroke-width:3;stroke-miterlimit:10;}
	.st8{fill:#9C9B9B;}
	.st9{fill:#1D1D1B;}
	.st10{clip-path:url(#SVGID_2_);}
	.st11{clip-path:url(#SVGID_4_);}
	.st12{clip-path:url(#SVGID_6_);}
	.st13{fill:none;stroke:#AD1820;stroke-width:2.7971;stroke-miterlimit:10;}
	.st14{fill:#FFFFFF;}
	.st15{fill:#C6C6C5;}
	.st16{fill:#868686;}
	.st17{fill:#3C3C3B;}
	.st18{opacity:0.52;fill:#AD1820;}
	.st19{fill:none;stroke:#AD1820;stroke-width:4.3435;stroke-miterlimit:10;}
	.st20{fill:none;stroke:#E5332A;stroke-width:4.3435;stroke-miterlimit:10;}
	.st21{fill:#B1B1B1;}
	.st22{fill:#DD4D02;}
	.st23{fill:#A4A4A4;}
</style>
<g>
	<g>
		<g>
			<path class="st9" d="M32.9,146.7c-0.5,0-1,0.1-1.5,0.2c-0.4-1.9-1.6-3.5-3.3-4.4c-1.7-0.9-3.7-0.9-5.5-0.1
				c-1.6-4.4-6.4-6.6-10.8-5c-4.4,1.6-6.6,6.4-5,10.8c-3.8,0.1-6.8,3.3-6.8,7.1c0.1,3.8,3.2,6.9,7,6.9h25.9c4.3,0,7.7-3.5,7.7-7.7
				C40.7,150.1,37.2,146.7,32.9,146.7L32.9,146.7z M32.9,146.7"/>
		</g>
	</g>
	<g>
		<path d="M113.7,145.2h-13.4c-0.3,0-0.5,0.2-0.5,0.5c0,0.3,0.2,0.5,0.5,0.5h13.4c0.3,0,0.5-0.2,0.5-0.5
			C114.2,145.4,114,145.2,113.7,145.2L113.7,145.2z M113.7,145.2"/>
		<path d="M100.3,141.9h5.4c0.3,0,0.5-0.2,0.5-0.5c0-0.3-0.2-0.5-0.5-0.5h-5.4c-0.3,0-0.5,0.2-0.5,0.5
			C99.7,141.7,100,141.9,100.3,141.9L100.3,141.9z M100.3,141.9"/>
		<path d="M113.7,149.5h-13.4c-0.3,0-0.5,0.2-0.5,0.5c0,0.3,0.2,0.5,0.5,0.5h13.4c0.3,0,0.5-0.2,0.5-0.5
			C114.2,149.7,114,149.5,113.7,149.5L113.7,149.5z M113.7,149.5"/>
		<path d="M113.7,153.7h-13.4c-0.3,0-0.5,0.2-0.5,0.5c0,0.3,0.2,0.5,0.5,0.5h13.4c0.3,0,0.5-0.2,0.5-0.5
			C114.2,154,114,153.7,113.7,153.7L113.7,153.7z M113.7,153.7"/>
		<path d="M113.7,158h-13.4c-0.3,0-0.5,0.2-0.5,0.5c0,0.3,0.2,0.5,0.5,0.5h13.4c0.3,0,0.5-0.2,0.5-0.5
			C114.2,158.3,114,158,113.7,158L113.7,158z M113.7,158"/>
		<path d="M111.7,133.4H94.4v32.2h25.2v-24.4L111.7,133.4z M112.1,135.2l5.7,5.7h-5.7V135.2z M95.4,164.5v-30H111v7.5h7.5v22.5H95.4
			z M95.4,164.5"/>
	</g>
	<g>
		<g>
			<defs>
				<rect id="SVGID_1_" x="240.5" y="1.1" width="45.2" height="30.2"/>
			</defs>
			<clipPath id="SVGID_2_">
				<use xlink:href="#SVGID_1_"  style="overflow:visible;"/>
			</clipPath>
			<path class="st10" d="M285.6,26.4c0,0-0.1-0.1-0.2-0.1h-44.7c-0.1,0-0.1,0-0.2,0.1c0,0.1-0.1,0.1-0.1,0.2c0,0,0.7,4.2,5.9,4.2
				h33.3c5.2,0,5.9-4.1,5.9-4.2C285.7,26.5,285.7,26.4,285.6,26.4L285.6,26.4z M266.5,29.3h-6.7v-1.5h6.7V29.3z M266.5,29.3"/>
		</g>
		<path d="M245.4,24.7h35.4c0.5,0,0.9-0.4,0.9-0.9V2c0-0.5-0.4-0.9-0.9-0.9h-35.4c-0.5,0-0.9,0.4-0.9,0.9v21.8
			C244.5,24.3,244.9,24.7,245.4,24.7L245.4,24.7z M247.7,4.3h30.8v17.1h-30.8V4.3z M247.7,4.3"/>
	</g>
	<g>
		<g>
			<path d="M107,29.2c-2.7,0-5.3-0.6-7.5-1.8c-0.6,0.5-3.3,2.4-5.9,1.5c1.6-1.5,1.9-3.3,1.9-4.5c-2.1-2.3-3.4-5.1-3.4-8.3
				c0-7.2,6.7-13.1,15-13.1s15,5.9,15,13.1S115.3,29.2,107,29.2L107,29.2z M107,29.2"/>
		</g>
	</g>
	<path class="st3" d="M274.7,137.9c-3.1-3.1-7.2-4.8-11.6-4.8c-4.4,0-8.5,1.7-11.6,4.8c-3.1,3.1-4.8,7.2-4.8,11.6
		c0,4.4,1.7,8.5,4.8,11.6c3.1,3.1,7.2,4.8,11.6,4.8c4.4,0,8.5-1.7,11.6-4.8c3.1-3.1,4.8-7.2,4.8-11.6
		C279.5,145.1,277.8,141,274.7,137.9z M270.9,145.6l-9.1,9.1c-0.2,0.2-0.4,0.3-0.7,0.3c-0.2,0-0.5-0.1-0.7-0.3l-5.1-5.1
		c-0.4-0.4-0.4-1,0-1.4c0.4-0.4,1-0.4,1.4,0l4.5,4.5l8.5-8.5c0.4-0.4,1-0.4,1.4,0C271.3,144.6,271.3,145.2,270.9,145.6z"/>
	<g>
		<path d="M98.1,80.7c-0.5,0.5-0.5,1.4,0,2c0.5,0.5,1.4,0.5,2,0c3.8-3.8,9.9-3.8,13.7,0c0.3,0.3,0.6,0.4,1,0.4s0.7-0.1,1-0.4
			c0.5-0.5,0.5-1.4,0-2C110.9,75.8,103,75.8,98.1,80.7L98.1,80.7z M98.1,80.7"/>
		<path d="M101.9,84.5c-0.5,0.5-0.5,1.4,0,2c0.5,0.5,1.4,0.5,2,0c1.7-1.7,4.4-1.7,6.1,0c0.3,0.3,0.6,0.4,1,0.4c0.4,0,0.7-0.1,1-0.4
			c0.5-0.5,0.5-1.4,0-2C109.2,81.7,104.7,81.7,101.9,84.5L101.9,84.5z M101.9,84.5"/>
		<g>
			<defs>
				<rect id="SVGID_3_" x="93.9" y="71.6" width="26.2" height="19.8"/>
			</defs>
			<clipPath id="SVGID_4_">
				<use xlink:href="#SVGID_3_"  style="overflow:visible;"/>
			</clipPath>
			<path class="st11" d="M108.8,89.5c0,1-0.8,1.9-1.9,1.9c-1,0-1.9-0.8-1.9-1.9c0-1,0.8-1.9,1.9-1.9C108,87.7,108.8,88.5,108.8,89.5
				L108.8,89.5z M108.8,89.5"/>
			<path class="st11" d="M119.6,76.9c-7-7-18.4-7-25.4,0c-0.5,0.5-0.5,1.4,0,2c0.5,0.5,1.4,0.5,2,0c5.9-5.9,15.5-5.9,21.4,0
				c0.3,0.3,0.6,0.4,1,0.4c0.4,0,0.7-0.1,1-0.4C120.2,78.3,120.2,77.4,119.6,76.9L119.6,76.9z M119.6,76.9"/>
		</g>
	</g>
	<g>
		<path d="M181,82.7c-0.9,0-1.6,0.7-1.6,1.6c0,0.6,0.3,1.1,0.8,1.4v1.8h1.6v-1.8c0.5-0.3,0.8-0.8,0.8-1.4
			C182.6,83.4,181.9,82.7,181,82.7L181,82.7z M181,82.7"/>
		<g>
			<path d="M181,75c-1.3,0-2.4,1.1-2.4,2.4V80h4.8v-2.6C183.5,76.1,182.4,75,181,75L181,75z M181,75"/>
			<path d="M181,66.3c-8.4,0-15.3,6.8-15.3,15.3c0,8.4,6.8,15.3,15.3,15.3c8.4,0,15.3-6.8,15.3-15.3C196.3,73.1,189.5,66.3,181,66.3
				L181,66.3z M185.7,89.4h-9.4c-1,0-1.8-0.8-1.8-1.8v-5.8c0-0.9,0.6-1.6,1.4-1.8v-2.6c0-2.8,2.3-5.1,5.1-5.1c2.8,0,5.1,2.3,5.1,5.1
				v2.6c0.8,0.2,1.4,0.9,1.4,1.8v5.8C187.5,88.6,186.7,89.4,185.7,89.4L185.7,89.4z M185.7,89.4"/>
		</g>
	</g>
	<g>
		<path d="M263.1,95.2c-1.8,0-3.2-1.4-3.2-3.2h6.4C266.3,93.7,264.9,95.2,263.1,95.2L263.1,95.2z M273.9,88.8L273.9,88.8
			c0,1.2-1,1.3-2.1,1.3h-17.3c-1.2,0-2.1-0.1-2.1-1.3v-0.2c0-0.9,0.5-1.6,1.2-1.9l0.7-5.9c0-4.3,3-7.9,7.1-8.7v-2.3
			c0-1,0.8-1.8,1.8-1.8c1,0,1.8,0.8,1.8,1.8V72c4,0.8,7.1,4.4,7.1,8.7l0.7,5.9c0.7,0.3,1.2,1.1,1.2,1.9V88.8z M273.9,88.8"/>
	</g>
	<g>
		<path d="M178.5,16.1c0,0.5-0.1,0.9-0.2,1.4l6.4,3.1c0.7-0.8,1.8-1.3,3-1.3c2.2,0,4,1.8,4,4c0,2.2-1.8,4-4,4c-2.2,0-4-1.8-4-4
			c0-0.2,0-0.4,0.1-0.6l-6.8-3.3c-0.7,0.5-1.5,0.8-2.4,0.8c-2.2,0-4-1.8-4-4c0-2.2,1.8-4,4-4c0.9,0,1.7,0.3,2.4,0.8l6.8-3.3
			c0-0.2-0.1-0.4-0.1-0.6c0-2.2,1.8-4,4-4c2.2,0,4,1.8,4,4c0,2.2-1.8,4-4,4c-1.2,0-2.2-0.5-3-1.3l-6.4,3.1
			C178.4,15.2,178.5,15.7,178.5,16.1L178.5,16.1z M178.5,16.1"/>
	</g>
	<g>
		<circle cx="181" cy="141.8" r="7.8"/>
		<path d="M199.1,164.9c-1.6-8.5-9-15-18-15c-9,0-16.5,6.5-18,15H199.1z"/>
	</g>
	<g>
		<path d="M33.9,5c-0.6-2.5-5.3-5-13.5-5C12.1,0,7.4,2.5,6.8,5c0,0.1-0.1,0.2-0.1,0.3V27c0,0.1,0,0.2,0.1,0.3c0.6,2.9,6.4,5,13.5,5
			c7.1,0,12.9-2.1,13.5-5c0-0.1,0.1-0.2,0.1-0.3V5.3C33.9,5.2,33.9,5.1,33.9,5L33.9,5z M32.8,20c0,0.1,0,0.1-0.1,0.2
			c0,0.1,0,0.1-0.1,0.2c0,0.1-0.1,0.1-0.1,0.2c0,0.1-0.1,0.1-0.1,0.2c-0.1,0.1-0.1,0.2-0.2,0.2c0,0-0.1,0.1-0.1,0.1
			c-0.1,0.1-0.2,0.2-0.3,0.2c0,0-0.1,0.1-0.1,0.1c-0.1,0.1-0.3,0.2-0.4,0.3c0,0-0.1,0-0.1,0.1c-0.2,0.1-0.3,0.2-0.5,0.3
			c0,0,0,0-0.1,0c-0.2,0.1-0.4,0.2-0.6,0.3c0,0,0,0,0,0c-1.2,0.5-2.8,1-4.7,1.3c0,0,0,0,0,0c-0.4,0.1-0.7,0.1-1.1,0.2
			c-0.1,0-0.1,0-0.2,0c-0.3,0-0.7,0.1-1,0.1c-0.2,0-0.3,0-0.5,0c-0.3,0-0.5,0-0.8,0c-0.4,0-0.9,0-1.3,0s-0.9,0-1.3,0
			c-0.3,0-0.5,0-0.8,0c-0.2,0-0.3,0-0.5,0c-0.3,0-0.7-0.1-1-0.1c-0.1,0-0.1,0-0.2,0c-0.4,0-0.7-0.1-1.1-0.2c0,0,0,0,0,0
			c-1.8-0.3-3.4-0.7-4.7-1.3c0,0,0,0,0,0c-0.2-0.1-0.4-0.2-0.6-0.3c0,0,0,0-0.1,0c-0.2-0.1-0.4-0.2-0.5-0.3c0,0-0.1,0-0.1-0.1
			c-0.1-0.1-0.3-0.2-0.4-0.3c0,0-0.1-0.1-0.1-0.1c-0.1-0.1-0.2-0.2-0.3-0.2c0,0-0.1-0.1-0.1-0.1c-0.1-0.1-0.1-0.2-0.2-0.2
			c0-0.1-0.1-0.1-0.1-0.2c0-0.1-0.1-0.1-0.1-0.2c0-0.1-0.1-0.1-0.1-0.2c0-0.1,0-0.1-0.1-0.2c0-0.1,0-0.2,0-0.3c0-0.1,0-0.1,0-0.2
			c0-0.1,0-0.2,0-0.3v-4.4c0,0,0,0,0,0C8,15,8.1,15.1,8.2,15.2c2,1.7,6.1,3,12.1,3c5.9,0,10-1.3,12.1-3c0.2-0.1,0.3-0.3,0.5-0.4v4.4
			c0,0.1,0,0.2,0,0.3c0,0.1,0,0.1,0,0.2C32.8,19.8,32.8,19.9,32.8,20L32.8,20z M32.8,7.8v4.4c0,0.1,0,0.2,0,0.3c0,0.1,0,0.1,0,0.2
			c0,0.1,0,0.2,0,0.3c0,0.1,0,0.1-0.1,0.2c0,0.1,0,0.1-0.1,0.2c0,0.1-0.1,0.1-0.1,0.2c0,0.1-0.1,0.1-0.1,0.2
			c-0.1,0.1-0.1,0.2-0.2,0.2c0,0-0.1,0.1-0.1,0.1c-0.1,0.1-0.2,0.2-0.3,0.2c0,0-0.1,0.1-0.1,0.1c-0.1,0.1-0.3,0.2-0.4,0.3
			c0,0-0.1,0-0.1,0.1c-0.2,0.1-0.3,0.2-0.5,0.3c0,0,0,0-0.1,0c-0.2,0.1-0.4,0.2-0.6,0.3c0,0,0,0,0,0c-1.2,0.5-2.8,1-4.7,1.3
			c0,0,0,0,0,0c-0.4,0.1-0.7,0.1-1.1,0.2c-0.1,0-0.1,0-0.2,0c-0.3,0-0.7,0.1-1,0.1c-0.2,0-0.3,0-0.5,0c-0.3,0-0.5,0-0.8,0
			c-0.4,0-0.9,0-1.3,0s-0.9,0-1.3,0c-0.3,0-0.5,0-0.8,0c-0.2,0-0.3,0-0.5,0c-0.3,0-0.7-0.1-1-0.1c-0.1,0-0.1,0-0.2,0
			c-0.4,0-0.7-0.1-1.1-0.2c0,0,0,0,0,0c-1.8-0.3-3.4-0.7-4.7-1.3c0,0,0,0,0,0c-0.2-0.1-0.4-0.2-0.6-0.3c0,0,0,0-0.1,0
			c-0.2-0.1-0.4-0.2-0.5-0.3c0,0-0.1,0-0.1-0.1c-0.1-0.1-0.3-0.2-0.4-0.3c0,0-0.1-0.1-0.1-0.1c-0.1-0.1-0.2-0.2-0.3-0.2
			c0,0-0.1-0.1-0.1-0.1c-0.1-0.1-0.1-0.2-0.2-0.2c0-0.1-0.1-0.1-0.1-0.2c0-0.1-0.1-0.1-0.1-0.2c0-0.1-0.1-0.1-0.1-0.2
			c0-0.1,0-0.1-0.1-0.2c0-0.1,0-0.2,0-0.3c0-0.1,0-0.1,0-0.2c0-0.1,0-0.2,0-0.3V7.8C7.9,7.9,7.9,7.9,8,8c0,0,0.1,0.1,0.1,0.1
			c0.2,0.1,0.3,0.3,0.5,0.4c0,0,0.1,0.1,0.1,0.1C9,8.7,9.1,8.8,9.3,8.9C9.4,8.9,9.4,9,9.5,9c0.2,0.1,0.4,0.2,0.6,0.3
			c0,0,0.1,0,0.1,0c0.3,0.1,0.5,0.2,0.8,0.3c0.1,0,0.2,0.1,0.2,0.1C11.5,9.9,11.7,10,12,10c0.1,0,0.2,0.1,0.3,0.1
			c0.3,0.1,0.6,0.2,1,0.3c0,0,0.1,0,0.1,0c0.3,0.1,0.6,0.1,0.9,0.2c0.1,0,0.2,0,0.3,0.1c0.3,0.1,0.6,0.1,1,0.1c0.1,0,0.2,0,0.2,0
			c0.4,0.1,0.8,0.1,1.3,0.1c0.1,0,0.2,0,0.3,0c0.3,0,0.7,0,1.1,0.1c0.1,0,0.3,0,0.4,0c0.5,0,0.9,0,1.4,0c0.5,0,1,0,1.4,0
			c0.1,0,0.3,0,0.4,0c0.4,0,0.7,0,1.1-0.1c0.1,0,0.2,0,0.3,0c0.4,0,0.9-0.1,1.3-0.1c0.1,0,0.2,0,0.2,0c0.3,0,0.6-0.1,1-0.1
			c0.1,0,0.2,0,0.3-0.1c0.3-0.1,0.6-0.1,0.9-0.2c0,0,0.1,0,0.1,0c0.3-0.1,0.7-0.2,1-0.3c0.1,0,0.2-0.1,0.3-0.1
			c0.2-0.1,0.5-0.2,0.7-0.2c0.1,0,0.2-0.1,0.2-0.1c0.3-0.1,0.6-0.2,0.8-0.3c0,0,0.1,0,0.1,0C30.7,9.2,31,9.1,31.2,9
			c0.1,0,0.1-0.1,0.2-0.1c0.2-0.1,0.3-0.2,0.5-0.3c0,0,0.1-0.1,0.1-0.1c0.2-0.1,0.4-0.3,0.5-0.4c0,0,0.1-0.1,0.1-0.1
			C32.7,7.9,32.8,7.9,32.8,7.8L32.8,7.8z M20.3,1.2c7.4,0,12.5,2.3,12.5,4.4c0,2.1-5.1,4.4-12.5,4.4C12.9,10,7.8,7.7,7.8,5.6
			C7.8,3.5,12.9,1.2,20.3,1.2L20.3,1.2z M32.8,26.8C32.8,26.9,32.8,26.9,32.8,26.8c-0.3,2.1-5.4,4.3-12.5,4.3
			c-7.1,0-12.2-2.2-12.5-4.2c0,0,0-0.1,0-0.1v-4.9c0,0,0,0,0,0c0.1,0.1,0.2,0.2,0.4,0.3c2,1.7,6.1,3,12.1,3c5.9,0,10-1.3,12.1-3
			c0.2-0.1,0.3-0.3,0.5-0.4V26.8z M32.8,26.8"/>
	</g>
	<g>
		<g>
			<defs>
				<rect id="SVGID_5_" x="8.3" y="63.9" width="24.1" height="35.2"/>
			</defs>
			<clipPath id="SVGID_6_">
				<use xlink:href="#SVGID_5_"  style="overflow:visible;"/>
			</clipPath>
			<path class="st12" d="M28.4,63.8H11.3c-1.6,0-3,1.2-3,2.6v30.2c0,1.4,1.3,2.6,3,2.6h17.2c1.6,0,3-1.1,3-2.6V66.3
				C31.4,64.9,30.1,63.8,28.4,63.8L28.4,63.8z M15.6,65.3h8.5c0.2,0,0.4,0.3,0.4,0.6c0,0.3-0.2,0.6-0.4,0.6h-8.5
				c-0.2,0-0.4-0.3-0.4-0.6C15.2,65.6,15.4,65.3,15.6,65.3L15.6,65.3z M19.8,96.5c-1,0-1.9-0.7-1.9-1.6c0-0.9,0.9-1.6,1.9-1.6
				c1,0,1.9,0.7,1.9,1.6C21.7,95.8,20.9,96.5,19.8,96.5L19.8,96.5z M29.2,90.9H10.5V68.1h18.7V90.9z M29.2,90.9"/>
		</g>
	</g>
</g>
</svg>
