<?xml version="1.0" encoding="utf-8"?>
<!-- Generator: Adobe Illustrator 24.3.0, SVG Export Plug-In . SVG Version: 6.00 Build 0)  -->
<svg version="1.1" id="Layer_1" xmlns="http://www.w3.org/2000/svg" xmlns:xlink="http://www.w3.org/1999/xlink" x="0px" y="0px"
	 viewBox="0 0 52.4 54.4" style="enable-background:new 0 0 52.4 54.4;" xml:space="preserve">
<style type="text/css">
	.st0{fill:#F5F5F5;}
	.st1{fill:#575756;}
	.st2{fill:#AD1820;}
	.st3{fill:#E5332A;}
	.st4{fill:#F6A723;}
	.st5{fill:#E84E1B;}
	.st6{fill:#FAA634;}
	.st7{fill:none;stroke:#9C9B9B;stroke-width:3;stroke-miterlimit:10;}
	.st8{fill:#9C9B9B;}
	.st9{fill:#1D1D1B;}
	.st10{clip-path:url(#SVGID_2_);}
	.st11{clip-path:url(#SVGID_4_);}
	.st12{clip-path:url(#SVGID_6_);}
	.st13{fill:none;stroke:#AD1820;stroke-width:2.7971;stroke-miterlimit:10;}
	.st14{fill:#FFFFFF;}
	.st15{fill:#C6C6C5;}
	.st16{fill:#868686;}
	.st17{fill:#3C3C3B;}
	.st18{opacity:0.52;fill:#AD1820;}
	.st19{fill:none;stroke:#AD1820;stroke-width:4.3435;stroke-miterlimit:10;}
	.st20{fill:none;stroke:#E5332A;stroke-width:4.3435;stroke-miterlimit:10;}
	.st21{fill:#B1B1B1;}
	.st22{fill:#DD4D02;}
	.st23{fill:#A4A4A4;}
	.st24{fill:#E94D00;}
	.st25{clip-path:url(#SVGID_8_);fill:#E74E1B;}
	.st26{clip-path:url(#SVGID_8_);}
	.st27{fill:#AC1820;}
	.st28{fill:#F19000;}
	.st29{opacity:0.52;fill:#AC1820;}
	.st30{fill:#E4332A;}
</style>
<g>
	<path class="st23" d="M49.6,48.7c-0.7-0.9-1.7-1.4-2.8-1.4s-2.2,0.5-2.8,1.4c-1.6,0-2.8,1.3-2.8,2.9c0,0.2,0,0.3,0,0.5
		c0.1,0.3,0.2,0.6,0.3,0.9h-4.6v-7.2h6.1c0.4,0,0.8-0.3,0.8-0.8V10.3c0-0.4-0.3-0.8-0.8-0.8H15.6c-0.4,0-0.8,0.3-0.8,0.8v43.4
		c0,0.4,0.3,0.8,0.8,0.8h28.3h5.6h0.4c0.1,0,0.2,0,0.4-0.1c1.1-0.3,1.9-1.1,2.1-2.3c0-0.2,0.1-0.3,0.1-0.5
		C52.4,50,51.1,48.7,49.6,48.7z M36.8,11h5.3v7.2h-5.3V11z M36.8,19.7h5.3v7.2h-5.3V19.7z M36.8,28.4h5.3v7.2h-5.3V28.4z M36.8,37.1
		h5.3v7.2h-5.3V37.1z M21.7,52.9h-5.3v-7.2h5.3V52.9z M21.7,44.3h-5.3v-7.2h5.3V44.3z M21.7,35.6h-5.3v-7.2h5.3V35.6z M21.7,26.9
		h-5.3v-7.2h5.3V26.9z M21.7,18.2h-5.3V11h5.3V18.2z M28.5,52.9h-5.3v-7.2h5.3V52.9z M28.5,44.3h-5.3v-7.2h5.3V44.3z M28.5,35.6
		h-5.3v-7.2h5.3V35.6z M28.5,26.9h-5.3v-7.2h5.3V26.9z M28.5,18.2h-5.3V11h5.3V18.2z M35.3,52.9H30v-7.2h5.3V52.9z M35.3,44.3H30
		v-7.2h5.3V44.3z M35.3,35.6H30v-7.2h5.3V35.6z M35.3,26.9H30v-7.2h5.3V26.9z M35.3,18.2H30V11h5.3V18.2z M50.9,51.8
		c-0.1,0.7-0.7,1.1-1.3,1.1h-5.6c-0.7,0-1.2-0.5-1.3-1.1c0-0.1,0-0.1,0-0.2c0-0.8,0.6-1.4,1.4-1.4c0.1,0,0.2,0,0.2,0
		c0.3,0.1,0.6-0.1,0.8-0.4c0.4-0.7,1.1-1.1,1.8-1.1c0.8,0,1.4,0.4,1.8,1.1c0.2,0.3,0.5,0.4,0.8,0.4c0.8-0.1,1.6,0.5,1.6,1.3
		C50.9,51.6,50.9,51.7,50.9,51.8z"/>
	<path class="st23" d="M19.7,6.5V3.6h6.8c0.4,0,0.8-0.3,0.8-0.8V1.5h3.9v1.4c0,0.4,0.3,0.8,0.8,0.8h6.7v2.1H22.5
		c-0.4,0-0.8,0.3-0.8,0.8s0.3,0.8,0.8,0.8H46V45c0,0.4,0.3,0.8,0.8,0.8s0.8-0.3,0.8-0.8V6.5c0-0.4-0.3-0.8-0.8-0.8h-6.6V2.9
		c0-0.4-0.3-0.8-0.8-0.8h-6.7V0.8c0-0.4-0.3-0.8-0.8-0.8h-5.4c-0.4,0-0.8,0.3-0.8,0.8v1.4H19c-0.4,0-0.8,0.3-0.8,0.8v2.9H12
		c-0.4,0-0.8,0.3-0.8,0.8v46.5H5.4v-4c0,0,0.1,0,0.1,0c2.2-0.3,3.8-2.9,3.8-5.1c0-1.1-0.1-11-4.7-11S0,42.7,0,43.8
		c0,2.2,1.6,4.9,3.8,5.1c0,0,0.1,0,0.1,0v4H0.8c-0.4,0-0.8,0.3-0.8,0.8s0.3,0.8,0.8,0.8H12c0.4,0,0.8-0.3,0.8-0.8V7.2H19
		C19.4,7.2,19.7,6.9,19.7,6.5z M4.7,47.5C4.7,47.5,4.7,47.5,4.7,47.5C4.7,47.5,4.7,47.5,4.7,47.5c-0.3,0-0.5,0-0.7,0
		c-1.4-0.1-2.5-2.1-2.5-3.6c0-3.1,0.8-9.5,3.2-9.5s3.2,6.4,3.2,9.5c0,1.5-1.1,3.5-2.5,3.6C5.2,47.5,5,47.5,4.7,47.5z"/>
</g>
</svg>
