<?xml version="1.0" encoding="utf-8"?>
<!-- Generator: Adobe Illustrator 28.2.0, SVG Export Plug-In . SVG Version: 6.00 Build 0)  -->
<svg version="1.1" id="Layer_1" xmlns="http://www.w3.org/2000/svg" xmlns:xlink="http://www.w3.org/1999/xlink" x="0px" y="0px"
	 viewBox="0 0 149.8 140.9" style="enable-background:new 0 0 149.8 140.9;" xml:space="preserve">
<style type="text/css">
	.st0{fill:#C6C6C5;}
	.st1{fill:#E84E1B;}
	.st2{fill:#AD1820;}
	.st3{fill:#E5332A;}
	.st4{fill:#F6A723;}
</style>
<path class="st0" d="M87.3,58.3L69.8,74.8l-7.6-7.6c-1.9-2.4-5.2-2.4-7.6-0.5c-1.9,2.4-1.9,5.7,0,8l11.3,11.3
	c0.9,0.9,2.4,1.9,3.8,1.4c1.4,0,2.8-0.5,3.8-1.4l21.2-20.3c1.9-1.9,2.4-5.2,0.5-7.1c0,0,0,0-0.5-0.5C92.5,56.4,89.2,56.4,87.3,58.3z
	"/>
<path class="st1" d="M72,120.2l-7.5,7.5v12.1h21.2C85.7,130.9,80,123.3,72,120.2z"/>
<path class="st2" d="M12.1,59.8H0v21.2c9.1,0,16.8-5.6,19.8-13.6L12.1,59.8z"/>
<path class="st3" d="M85.7,12.1L85.7,12.1V0H64.4c0,9.1,5.6,16.8,13.6,19.8L85.7,12.1z"/>
<path class="st4" d="M130,73.5l7.5,7.5h12.1V59.8C140.8,59.8,133.1,65.5,130,73.5z"/>
</svg>
