<?xml version="1.0" encoding="utf-8"?>
<!-- Generator: Adobe Illustrator 26.3.1, SVG Export Plug-In . SVG Version: 6.00 Build 0)  -->
<svg version="1.1" id="Layer_1" xmlns="http://www.w3.org/2000/svg" xmlns:xlink="http://www.w3.org/1999/xlink" x="0px" y="0px"
	 viewBox="0 0 1206.5 600" style="enable-background:new 0 0 1206.5 600;" xml:space="preserve">
<g id="B_Corp_logo">
	<g>
		<path d="M170,342.2h54.1c18.6,0,30.4-11.4,30.4-29.1c0-21.1-17-27-35.2-27H170V342.2z M170,268h43.2c24.5,0,34.5-8.9,34.5-25.9
			c0-22.5-15.9-25.7-34.5-25.7H170V268z M148.4,198.2h58.8c14.3,0,33.2,0,42.9,5.9c10.7,6.4,19.1,17.9,19.1,33.8
			c0,17.3-9.1,30.2-24.1,36.3v0.5c20,4.1,30.9,19.1,30.9,39.1c0,23.8-17,46.6-49.3,46.6h-78.4L148.4,198.2L148.4,198.2z"/>
		<path d="M207.9,137.2c-78.5,0-142.1,63.6-142.1,142.1s63.6,142.1,142.1,142.1c78.5,0,142.1-63.6,142.1-142.1
			C350,200.9,286.4,137.2,207.9,137.2 M331.3,279.4c0,68.1-55.2,123.4-123.4,123.4c-68.1,0-123.3-55.2-123.3-123.4
			c0-68.1,55.2-123.3,123.3-123.3C276,156.1,331.3,211.3,331.3,279.4"/>
		<rect x="66.1" y="451.4" width="283.6" height="18.6"/>
		<path d="M332,428c0.5-1,1.1-1.9,1.8-2.7c0.8-0.8,1.7-1.3,2.7-1.8c1-0.4,2.1-0.6,3.3-0.6c1.2,0,2.3,0.2,3.3,0.6
			c1,0.4,1.9,1,2.6,1.8c0.8,0.8,1.4,1.6,1.8,2.7c0.5,1,0.7,2.1,0.7,3.4c0,1.2-0.2,2.3-0.7,3.4c-0.4,1-1.1,1.9-1.8,2.7
			c-0.8,0.8-1.6,1.4-2.6,1.8c-1,0.4-2.1,0.6-3.3,0.6c-1.1,0-2.2-0.2-3.3-0.6c-1-0.4-1.9-1-2.7-1.8c-0.8-0.8-1.4-1.6-1.8-2.7
			c-0.5-1-0.7-2.1-0.7-3.4S331.5,429.1,332,428 M333.4,434.2c0.3,0.9,0.8,1.7,1.5,2.3c0.6,0.6,1.4,1.2,2.2,1.5
			c0.8,0.4,1.8,0.5,2.7,0.5c1,0,1.9-0.2,2.7-0.5c0.8-0.4,1.6-0.9,2.2-1.5c0.6-0.6,1.1-1.4,1.5-2.3c0.4-0.9,0.5-1.8,0.5-2.9
			c0-1-0.2-2-0.5-2.8c-0.3-0.9-0.8-1.6-1.5-2.3c-0.6-0.6-1.4-1.1-2.2-1.5c-0.8-0.4-1.8-0.5-2.7-0.5c-1,0-1.9,0.2-2.7,0.5
			c-0.9,0.4-1.6,0.9-2.2,1.5c-0.6,0.6-1.1,1.4-1.5,2.3c-0.4,0.9-0.5,1.8-0.5,2.8C332.9,432.4,333.1,433.4,333.4,434.2 M340.4,426.5
			c1.2,0,2,0.2,2.6,0.7c0.6,0.5,0.9,1.2,0.9,2.1c0,0.9-0.3,1.5-0.8,2c-0.5,0.4-1.1,0.6-1.9,0.7l2.8,4.4h-1.6l-2.7-4.3h-1.6v4.3h-1.5
			v-9.9L340.4,426.5L340.4,426.5z M339.7,430.9c0.4,0,0.7,0,1,0c0.3,0,0.6-0.1,0.8-0.2c0.2-0.1,0.4-0.3,0.6-0.5
			c0.1-0.2,0.2-0.5,0.2-0.9c0-0.3-0.1-0.6-0.2-0.8c-0.1-0.2-0.3-0.4-0.5-0.5c-0.2-0.1-0.4-0.2-0.7-0.2c-0.3,0-0.5,0-0.8,0h-2v3.1
			L339.7,430.9L339.7,430.9z"/>
		<path d="M100.5,74.8c-0.7-1.1-1.5-2-2.5-2.8c-1-0.8-2.1-1.4-3.4-1.9c-1.3-0.4-2.6-0.7-4-0.7c-2.5,0-4.7,0.5-6.5,1.5
			c-1.8,1-3.2,2.3-4.3,3.9c-1.1,1.7-1.9,3.5-2.4,5.6s-0.8,4.3-0.8,6.5c0,2.2,0.2,4.2,0.8,6.3c0.5,2,1.3,3.9,2.4,5.5
			c1.1,1.6,2.5,2.9,4.3,3.9s3.9,1.5,6.5,1.5c3.4,0,6.1-1.1,8.1-3.2s3.1-4.9,3.6-8.3h10.9c-0.3,3.2-1,6.1-2.2,8.7
			c-1.2,2.6-2.8,4.8-4.7,6.6s-4.3,3.2-6.9,4.2c-2.6,1-5.5,1.4-8.7,1.4c-3.9,0-7.5-0.7-10.6-2.1c-3.1-1.4-5.8-3.2-7.9-5.6
			c-2.2-2.4-3.8-5.2-5-8.4s-1.7-6.7-1.7-10.4c0-3.8,0.6-7.4,1.7-10.7s2.8-6.1,5-8.6c2.2-2.4,4.8-4.4,7.9-5.8s6.7-2.1,10.6-2.1
			c2.8,0,5.5,0.4,8,1.2c2.5,0.8,4.8,2,6.8,3.6c2,1.6,3.6,3.5,4.9,5.8c1.3,2.3,2.1,4.9,2.4,7.9h-10.9C101.6,77,101.1,75.8,100.5,74.8
			"/>
		<path d="M139.3,83.9c-1.2-1.3-3.1-2-5.6-2c-1.6,0-3,0.3-4.1,0.8s-1.9,1.2-2.6,2.1c-0.7,0.8-1.1,1.7-1.4,2.6
			c-0.3,0.9-0.4,1.7-0.5,2.4h16.6C141.4,87.2,140.6,85.3,139.3,83.9 M127.8,103.4c1.5,1.5,3.7,2.2,6.6,2.2c2.1,0,3.8-0.5,5.3-1.6
			c1.5-1,2.4-2.1,2.7-3.3h9c-1.4,4.4-3.6,7.6-6.6,9.6s-6.6,2.9-10.8,2.9c-2.9,0-5.6-0.5-7.9-1.4c-2.3-0.9-4.3-2.3-6-4
			c-1.6-1.7-2.9-3.8-3.8-6.2c-0.9-2.4-1.3-5-1.3-7.9c0-2.8,0.5-5.4,1.4-7.8c0.9-2.4,2.2-4.5,3.9-6.2c1.7-1.8,3.7-3.1,6-4.1
			c2.3-1,4.9-1.5,7.7-1.5c3.2,0,5.9,0.6,8.3,1.8c2.3,1.2,4.3,2.9,5.8,4.9s2.6,4.4,3.3,7s0.9,5.4,0.7,8.3h-26.8
			C125.4,99.6,126.3,102,127.8,103.4"/>
		<path d="M166.4,75.2v6.9h0.1c0.5-1.2,1.1-2.2,1.9-3.2c0.8-1,1.8-1.8,2.8-2.5c1.1-0.7,2.2-1.2,3.4-1.6c1.2-0.4,2.4-0.6,3.7-0.6
			c0.7,0,1.4,0.1,2.2,0.4v9.5c-0.5-0.1-1.1-0.2-1.7-0.2s-1.3-0.1-1.9-0.1c-1.9,0-3.4,0.3-4.7,0.9c-1.3,0.6-2.3,1.5-3.1,2.6
			c-0.8,1.1-1.4,2.3-1.7,3.8c-0.3,1.4-0.5,3-0.5,4.7v16.7h-10.2V75.2H166.4z"/>
		<path d="M207.9,75.2v6.8h-7.5v18.4c0,1.7,0.3,2.9,0.9,3.4c0.6,0.6,1.7,0.9,3.4,0.9c0.6,0,1.1,0,1.6-0.1c0.5-0.1,1-0.1,1.5-0.2v7.9
			c-0.9,0.1-1.8,0.2-2.9,0.3c-1.1,0.1-2.1,0.1-3.1,0.1c-1.6,0-3.1-0.1-4.5-0.3s-2.6-0.6-3.7-1.2s-1.9-1.5-2.6-2.7
			c-0.6-1.2-0.9-2.7-0.9-4.5V82.1H184v-6.8h6.2V64.1h10.2v11.1L207.9,75.2L207.9,75.2z"/>
		<path d="M224,112.4h-10.2V75.2H224V112.4z M213.8,61.1H224v8.4h-10.2V61.1z"/>
		<path d="M228.1,82.1v-6.8h6.1v-2.9c0-3.3,1-6,3.1-8.1c2.1-2.1,5.2-3.2,9.3-3.2c0.9,0,1.8,0,2.7,0.1c0.9,0.1,1.8,0.1,2.6,0.2V69
			c-1.2-0.2-2.4-0.2-3.7-0.2c-1.4,0-2.4,0.3-3,1c-0.6,0.7-0.9,1.7-0.9,3.3v2.2h7v6.8h-7v30.3h-10.2V82.1H228.1z"/>
		<path d="M268.5,112.4h-10.2V75.2h10.2V112.4z M258.3,61.1h10.2v8.4h-10.2V61.1z"/>
		<path d="M296.1,83.9c-1.2-1.3-3.1-2-5.6-2c-1.6,0-3,0.3-4.1,0.8s-1.9,1.2-2.6,2.1s-1.1,1.7-1.4,2.6c-0.3,0.9-0.4,1.7-0.5,2.4h16.6
			C298.2,87.2,297.4,85.3,296.1,83.9 M284.6,103.4c1.5,1.5,3.7,2.2,6.6,2.2c2.1,0,3.8-0.5,5.3-1.6c1.5-1,2.4-2.1,2.7-3.3h9
			c-1.4,4.4-3.6,7.6-6.6,9.6c-3,1.9-6.6,2.9-10.8,2.9c-2.9,0-5.6-0.5-7.9-1.4c-2.4-0.9-4.3-2.3-6-4c-1.6-1.7-2.9-3.8-3.8-6.2
			c-0.9-2.4-1.3-5-1.3-7.9c0-2.8,0.5-5.4,1.4-7.8s2.2-4.5,3.9-6.2c1.7-1.8,3.7-3.1,6-4.1c2.3-1,4.9-1.5,7.7-1.5
			c3.2,0,5.9,0.6,8.3,1.8s4.3,2.9,5.8,4.9s2.6,4.4,3.3,7c0.7,2.6,0.9,5.4,0.7,8.3h-26.8C282.3,99.6,283.1,102,284.6,103.4"/>
		<path d="M339.4,89.3c-0.3-1.4-0.8-2.7-1.5-3.7s-1.6-1.9-2.7-2.6c-1.1-0.7-2.5-1-4.2-1c-1.7,0-3.1,0.3-4.2,1s-2.1,1.6-2.8,2.7
			c-0.7,1.1-1.2,2.4-1.5,3.8c-0.3,1.4-0.5,2.9-0.5,4.4c0,1.4,0.2,2.9,0.5,4.3c0.3,1.4,0.9,2.7,1.6,3.8c0.8,1.1,1.7,2,2.8,2.7
			c1.1,0.7,2.5,1,4.1,1c1.7,0,3.1-0.3,4.2-1c1.1-0.7,2-1.6,2.7-2.7s1.1-2.4,1.4-3.8c0.3-1.4,0.4-2.9,0.4-4.4
			C339.9,92.2,339.7,90.7,339.4,89.3 M339.9,107.6c-1.2,2-2.8,3.5-4.7,4.3s-4.1,1.3-6.6,1.3c-2.8,0-5.2-0.5-7.3-1.6
			c-2.1-1.1-3.9-2.5-5.2-4.4c-1.4-1.8-2.4-4-3.1-6.4c-0.7-2.4-1-4.9-1-7.5c0-2.5,0.3-4.9,1-7.2c0.7-2.3,1.7-4.4,3.1-6.1
			c1.4-1.8,3.1-3.2,5.1-4.3c2.1-1.1,4.5-1.6,7.2-1.6c2.2,0,4.3,0.5,6.3,1.4c2,0.9,3.6,2.3,4.7,4.1h0.1V61.1h10.2v51.3H340v-4.7
			L339.9,107.6L339.9,107.6z"/>
		<path d="M91,506.6c-0.5-3.6-3.9-6.3-7.9-6.3c-7.1,0-9.8,6.1-9.8,12.4c0,6,2.7,12.1,9.8,12.1c4.8,0,7.6-3.3,8.2-8.1H99
			c-0.8,9-7,14.8-15.9,14.8c-11.2,0-17.8-8.3-17.8-18.8c0-10.7,6.6-19.1,17.8-19.1c7.9,0,14.6,4.7,15.6,13L91,506.6L91,506.6z"/>
		<path d="M115.6,525.9c4.9,0,6.4-4.2,6.4-8.3c0-4.2-1.5-8.4-6.4-8.4c-4.8,0-6.3,4.2-6.3,8.4C109.2,521.7,110.7,525.9,115.6,525.9
			 M115.6,503.8c8.2,0,13.6,5.5,13.6,13.8c0,8.3-5.3,13.8-13.6,13.8c-8.2,0-13.5-5.5-13.5-13.8C102.1,509.2,107.4,503.8,115.6,503.8
			"/>
		<path d="M133.5,504.4h6.8v4.9h0.1c1.3-3.3,4.9-5.6,8.4-5.6c0.5,0,1.1,0.1,1.6,0.2v6.7c-0.7-0.1-1.7-0.2-2.6-0.2
			c-5.3,0-7.1,3.8-7.1,8.4v11.8h-7.2L133.5,504.4L133.5,504.4z"/>
		<path d="M172.6,517.6c0-4.2-1.7-8.5-6.3-8.5c-4.7,0-6.2,4.2-6.2,8.5c0,4.2,1.6,8.3,6.3,8.3C171.1,525.9,172.6,521.8,172.6,517.6
			 M153.2,504.5h6.8v3.3h0.1c1.7-2.8,4.6-4,7.8-4c8.2,0,11.9,6.6,11.9,14.1c0,7-3.8,13.5-11.5,13.5c-3.1,0-6.1-1.4-7.8-3.9h-0.1
			v12.4h-7.2L153.2,504.5L153.2,504.5z"/>
		<path d="M195.6,525.9c4.9,0,6.4-4.2,6.4-8.3c0-4.2-1.5-8.4-6.4-8.4c-4.9,0-6.3,4.2-6.3,8.4C189.2,521.7,190.7,525.9,195.6,525.9
			 M195.6,503.8c8.2,0,13.6,5.5,13.6,13.8c0,8.3-5.3,13.8-13.6,13.8c-8.2,0-13.5-5.5-13.5-13.8C182.1,509.2,187.4,503.8,195.6,503.8
			"/>
		<path d="M213.6,504.4h6.8v4.9h0.1c1.3-3.3,4.9-5.6,8.3-5.6c0.5,0,1.1,0.1,1.6,0.2v6.7c-0.7-0.1-1.7-0.2-2.6-0.2
			c-5.3,0-7.1,3.8-7.1,8.4v11.8h-7.2L213.6,504.4L213.6,504.4z"/>
		<path d="M249.1,517.8c-1.2,1.1-3.7,1.1-6,1.5c-2.2,0.5-4.2,1.2-4.2,3.8c0,2.7,2.1,3.3,4.4,3.3c5.6,0,5.8-4.5,5.8-6L249.1,517.8
			L249.1,517.8z M232.5,512.5c0.4-6.7,6.4-8.8,12.3-8.8c5.2,0,11.5,1.2,11.5,7.4v13.6c0,2.4,0.2,4.8,0.9,5.8h-7.3
			c-0.2-0.8-0.5-1.7-0.5-2.5c-2.3,2.4-5.6,3.2-8.8,3.2c-5,0-8.9-2.5-8.9-7.8c0-5.9,4.5-7.3,8.9-7.9c4.4-0.7,8.5-0.5,8.5-3.4
			c0-3.1-2.1-3.5-4.7-3.5c-2.7,0-4.5,1.1-4.8,3.9L232.5,512.5L232.5,512.5z"/>
		<path d="M270.8,504.5h5.3v4.8h-5.3v12.9c0,2.4,0.6,3,3,3c0.8,0,1.5,0,2.2-0.2v5.6c-1.2,0.2-2.8,0.2-4.2,0.2c-4.4,0-8.2-1-8.2-6.2
			v-15.4h-4.4v-4.8h4.4v-7.8h7.2V504.5z"/>
		<path d="M281.5,504.5h7.2v26.1h-7.2V504.5z M288.6,500.4h-7.2v-5.9h7.2V500.4z"/>
		<path d="M307,525.9c4.9,0,6.4-4.2,6.4-8.3c0-4.2-1.5-8.4-6.4-8.4c-4.9,0-6.3,4.2-6.3,8.4C300.6,521.7,302.1,525.9,307,525.9
			 M307,503.8c8.2,0,13.6,5.5,13.6,13.8c0,8.3-5.3,13.8-13.6,13.8c-8.2,0-13.5-5.5-13.5-13.8C293.5,509.2,298.8,503.8,307,503.8"/>
		<path d="M325.2,504.5h6.8v3.6h0.1c1.8-2.9,5-4.4,8-4.4c7.6,0,9.5,4.3,9.5,10.8v16.1h-7.2v-14.8c0-4.3-1.3-6.4-4.6-6.4
			c-3.9,0-5.6,2.2-5.6,7.5v13.7h-7.2L325.2,504.5L325.2,504.5z"/>
		<path d="M170,342.2h54.1c18.6,0,30.4-11.4,30.4-29.1c0-21.1-17-27-35.2-27H170V342.2z M170,268h43.2c24.5,0,34.5-8.9,34.5-25.9
			c0-22.5-15.9-25.7-34.5-25.7H170V268z M148.4,198.2h58.8c14.3,0,33.2,0,42.9,5.9c10.7,6.4,19.1,17.9,19.1,33.8
			c0,17.3-9.1,30.2-24.1,36.3v0.5c20,4.1,30.9,19.1,30.9,39.1c0,23.8-17,46.6-49.3,46.6h-78.4L148.4,198.2L148.4,198.2z"/>
		<path d="M207.9,137.2c-78.5,0-142.1,63.6-142.1,142.1s63.6,142.1,142.1,142.1c78.5,0,142.1-63.6,142.1-142.1
			C350,200.9,286.4,137.2,207.9,137.2 M331.3,279.4c0,68.1-55.2,123.4-123.4,123.4c-68.1,0-123.3-55.2-123.3-123.4
			c0-68.1,55.2-123.3,123.3-123.3C276,156.1,331.3,211.3,331.3,279.4"/>
		<rect x="66.1" y="451.4" width="283.6" height="18.6"/>
		<path d="M332,428c0.5-1,1.1-1.9,1.8-2.7c0.8-0.8,1.7-1.3,2.7-1.8c1-0.4,2.1-0.6,3.3-0.6c1.2,0,2.3,0.2,3.3,0.6
			c1,0.4,1.9,1,2.6,1.8c0.8,0.8,1.4,1.6,1.8,2.7c0.5,1,0.7,2.1,0.7,3.4c0,1.2-0.2,2.3-0.7,3.4c-0.4,1-1.1,1.9-1.8,2.7
			c-0.8,0.8-1.6,1.4-2.6,1.8c-1,0.4-2.1,0.6-3.3,0.6c-1.1,0-2.2-0.2-3.3-0.6c-1-0.4-1.9-1-2.7-1.8c-0.8-0.8-1.4-1.6-1.8-2.7
			c-0.5-1-0.7-2.1-0.7-3.4S331.5,429.1,332,428 M333.4,434.2c0.3,0.9,0.8,1.7,1.5,2.3c0.6,0.6,1.4,1.2,2.2,1.5
			c0.8,0.4,1.8,0.5,2.7,0.5c1,0,1.9-0.2,2.7-0.5c0.8-0.4,1.6-0.9,2.2-1.5c0.6-0.6,1.1-1.4,1.5-2.3c0.4-0.9,0.5-1.8,0.5-2.9
			c0-1-0.2-2-0.5-2.8c-0.3-0.9-0.8-1.6-1.5-2.3c-0.6-0.6-1.4-1.1-2.2-1.5c-0.8-0.4-1.8-0.5-2.7-0.5c-1,0-1.9,0.2-2.7,0.5
			c-0.9,0.4-1.6,0.9-2.2,1.5c-0.6,0.6-1.1,1.4-1.5,2.3c-0.4,0.9-0.5,1.8-0.5,2.8C332.9,432.4,333.1,433.4,333.4,434.2 M340.4,426.5
			c1.2,0,2,0.2,2.6,0.7c0.6,0.5,0.9,1.2,0.9,2.1c0,0.9-0.3,1.5-0.8,2c-0.5,0.4-1.1,0.6-1.9,0.7l2.8,4.4h-1.6l-2.7-4.3h-1.6v4.3h-1.5
			v-9.9L340.4,426.5L340.4,426.5z M339.7,430.9c0.4,0,0.7,0,1,0c0.3,0,0.6-0.1,0.8-0.2c0.2-0.1,0.4-0.3,0.6-0.5
			c0.1-0.2,0.2-0.5,0.2-0.9c0-0.3-0.1-0.6-0.2-0.8c-0.1-0.2-0.3-0.4-0.5-0.5c-0.2-0.1-0.4-0.2-0.7-0.2c-0.3,0-0.5,0-0.8,0h-2v3.1
			L339.7,430.9L339.7,430.9z"/>
		<path d="M100.5,74.8c-0.7-1.1-1.5-2-2.5-2.8c-1-0.8-2.1-1.4-3.4-1.9c-1.3-0.4-2.6-0.7-4-0.7c-2.5,0-4.7,0.5-6.5,1.5
			c-1.8,1-3.2,2.3-4.3,3.9c-1.1,1.7-1.9,3.5-2.4,5.6s-0.8,4.3-0.8,6.5c0,2.2,0.2,4.2,0.8,6.3c0.5,2,1.3,3.9,2.4,5.5
			c1.1,1.6,2.5,2.9,4.3,3.9s3.9,1.5,6.5,1.5c3.4,0,6.1-1.1,8.1-3.2s3.1-4.9,3.6-8.3h10.9c-0.3,3.2-1,6.1-2.2,8.7
			c-1.2,2.6-2.8,4.8-4.7,6.6s-4.3,3.2-6.9,4.2c-2.6,1-5.5,1.4-8.7,1.4c-3.9,0-7.5-0.7-10.6-2.1c-3.1-1.4-5.8-3.2-7.9-5.6
			c-2.2-2.4-3.8-5.2-5-8.4s-1.7-6.7-1.7-10.4c0-3.8,0.6-7.4,1.7-10.7s2.8-6.1,5-8.6c2.2-2.4,4.8-4.4,7.9-5.8s6.7-2.1,10.6-2.1
			c2.8,0,5.5,0.4,8,1.2c2.5,0.8,4.8,2,6.8,3.6c2,1.6,3.6,3.5,4.9,5.8c1.3,2.3,2.1,4.9,2.4,7.9h-10.9C101.6,77,101.1,75.8,100.5,74.8
			"/>
		<path d="M139.3,83.9c-1.2-1.3-3.1-2-5.6-2c-1.6,0-3,0.3-4.1,0.8s-1.9,1.2-2.6,2.1c-0.7,0.8-1.1,1.7-1.4,2.6
			c-0.3,0.9-0.4,1.7-0.5,2.4h16.6C141.4,87.2,140.6,85.3,139.3,83.9 M127.8,103.4c1.5,1.5,3.7,2.2,6.6,2.2c2.1,0,3.8-0.5,5.3-1.6
			c1.5-1,2.4-2.1,2.7-3.3h9c-1.4,4.4-3.6,7.6-6.6,9.6s-6.6,2.9-10.8,2.9c-2.9,0-5.6-0.5-7.9-1.4c-2.3-0.9-4.3-2.3-6-4
			c-1.6-1.7-2.9-3.8-3.8-6.2c-0.9-2.4-1.3-5-1.3-7.9c0-2.8,0.5-5.4,1.4-7.8c0.9-2.4,2.2-4.5,3.9-6.2c1.7-1.8,3.7-3.1,6-4.1
			c2.3-1,4.9-1.5,7.7-1.5c3.2,0,5.9,0.6,8.3,1.8c2.3,1.2,4.3,2.9,5.8,4.9s2.6,4.4,3.3,7s0.9,5.4,0.7,8.3h-26.8
			C125.4,99.6,126.3,102,127.8,103.4"/>
		<path d="M166.4,75.2v6.9h0.1c0.5-1.2,1.1-2.2,1.9-3.2c0.8-1,1.8-1.8,2.8-2.5c1.1-0.7,2.2-1.2,3.4-1.6c1.2-0.4,2.4-0.6,3.7-0.6
			c0.7,0,1.4,0.1,2.2,0.4v9.5c-0.5-0.1-1.1-0.2-1.7-0.2s-1.3-0.1-1.9-0.1c-1.9,0-3.4,0.3-4.7,0.9c-1.3,0.6-2.3,1.5-3.1,2.6
			c-0.8,1.1-1.4,2.3-1.7,3.8c-0.3,1.4-0.5,3-0.5,4.7v16.7h-10.2V75.2H166.4z"/>
		<path d="M207.9,75.2v6.8h-7.5v18.4c0,1.7,0.3,2.9,0.9,3.4c0.6,0.6,1.7,0.9,3.4,0.9c0.6,0,1.1,0,1.6-0.1c0.5-0.1,1-0.1,1.5-0.2v7.9
			c-0.9,0.1-1.8,0.2-2.9,0.3c-1.1,0.1-2.1,0.1-3.1,0.1c-1.6,0-3.1-0.1-4.5-0.3s-2.6-0.6-3.7-1.2s-1.9-1.5-2.6-2.7
			c-0.6-1.2-0.9-2.7-0.9-4.5V82.1H184v-6.8h6.2V64.1h10.2v11.1L207.9,75.2L207.9,75.2z"/>
		<path d="M224,112.4h-10.2V75.2H224V112.4z M213.8,61.1H224v8.4h-10.2V61.1z"/>
		<path d="M228.1,82.1v-6.8h6.1v-2.9c0-3.3,1-6,3.1-8.1c2.1-2.1,5.2-3.2,9.3-3.2c0.9,0,1.8,0,2.7,0.1c0.9,0.1,1.8,0.1,2.6,0.2V69
			c-1.2-0.2-2.4-0.2-3.7-0.2c-1.4,0-2.4,0.3-3,1c-0.6,0.7-0.9,1.7-0.9,3.3v2.2h7v6.8h-7v30.3h-10.2V82.1H228.1z"/>
		<path d="M268.5,112.4h-10.2V75.2h10.2V112.4z M258.3,61.1h10.2v8.4h-10.2V61.1z"/>
		<path d="M296.1,83.9c-1.2-1.3-3.1-2-5.6-2c-1.6,0-3,0.3-4.1,0.8s-1.9,1.2-2.6,2.1s-1.1,1.7-1.4,2.6c-0.3,0.9-0.4,1.7-0.5,2.4h16.6
			C298.2,87.2,297.4,85.3,296.1,83.9 M284.6,103.4c1.5,1.5,3.7,2.2,6.6,2.2c2.1,0,3.8-0.5,5.3-1.6c1.5-1,2.4-2.1,2.7-3.3h9
			c-1.4,4.4-3.6,7.6-6.6,9.6c-3,1.9-6.6,2.9-10.8,2.9c-2.9,0-5.6-0.5-7.9-1.4c-2.4-0.9-4.3-2.3-6-4c-1.6-1.7-2.9-3.8-3.8-6.2
			c-0.9-2.4-1.3-5-1.3-7.9c0-2.8,0.5-5.4,1.4-7.8s2.2-4.5,3.9-6.2c1.7-1.8,3.7-3.1,6-4.1c2.3-1,4.9-1.5,7.7-1.5
			c3.2,0,5.9,0.6,8.3,1.8s4.3,2.9,5.8,4.9s2.6,4.4,3.3,7c0.7,2.6,0.9,5.4,0.7,8.3h-26.8C282.3,99.6,283.1,102,284.6,103.4"/>
		<path d="M339.4,89.3c-0.3-1.4-0.8-2.7-1.5-3.7s-1.6-1.9-2.7-2.6c-1.1-0.7-2.5-1-4.2-1c-1.7,0-3.1,0.3-4.2,1s-2.1,1.6-2.8,2.7
			c-0.7,1.1-1.2,2.4-1.5,3.8c-0.3,1.4-0.5,2.9-0.5,4.4c0,1.4,0.2,2.9,0.5,4.3c0.3,1.4,0.9,2.7,1.6,3.8c0.8,1.1,1.7,2,2.8,2.7
			c1.1,0.7,2.5,1,4.1,1c1.7,0,3.1-0.3,4.2-1c1.1-0.7,2-1.6,2.7-2.7s1.1-2.4,1.4-3.8c0.3-1.4,0.4-2.9,0.4-4.4
			C339.9,92.2,339.7,90.7,339.4,89.3 M339.9,107.6c-1.2,2-2.8,3.5-4.7,4.3s-4.1,1.3-6.6,1.3c-2.8,0-5.2-0.5-7.3-1.6
			c-2.1-1.1-3.9-2.5-5.2-4.4c-1.4-1.8-2.4-4-3.1-6.4c-0.7-2.4-1-4.9-1-7.5c0-2.5,0.3-4.9,1-7.2c0.7-2.3,1.7-4.4,3.1-6.1
			c1.4-1.8,3.1-3.2,5.1-4.3c2.1-1.1,4.5-1.6,7.2-1.6c2.2,0,4.3,0.5,6.3,1.4c2,0.9,3.6,2.3,4.7,4.1h0.1V61.1h10.2v51.3H340v-4.7
			L339.9,107.6L339.9,107.6z"/>
		<path d="M91,506.6c-0.5-3.6-3.9-6.3-7.9-6.3c-7.1,0-9.8,6.1-9.8,12.4c0,6,2.7,12.1,9.8,12.1c4.8,0,7.6-3.3,8.2-8.1H99
			c-0.8,9-7,14.8-15.9,14.8c-11.2,0-17.8-8.3-17.8-18.8c0-10.7,6.6-19.1,17.8-19.1c7.9,0,14.6,4.7,15.6,13L91,506.6L91,506.6z"/>
		<path d="M115.6,525.9c4.9,0,6.4-4.2,6.4-8.3c0-4.2-1.5-8.4-6.4-8.4c-4.8,0-6.3,4.2-6.3,8.4C109.2,521.7,110.7,525.9,115.6,525.9
			 M115.6,503.8c8.2,0,13.6,5.5,13.6,13.8c0,8.3-5.3,13.8-13.6,13.8c-8.2,0-13.5-5.5-13.5-13.8C102.1,509.2,107.4,503.8,115.6,503.8
			"/>
		<path d="M133.5,504.4h6.8v4.9h0.1c1.3-3.3,4.9-5.6,8.4-5.6c0.5,0,1.1,0.1,1.6,0.2v6.7c-0.7-0.1-1.7-0.2-2.6-0.2
			c-5.3,0-7.1,3.8-7.1,8.4v11.8h-7.2L133.5,504.4L133.5,504.4z"/>
		<path d="M172.6,517.6c0-4.2-1.7-8.5-6.3-8.5c-4.7,0-6.2,4.2-6.2,8.5c0,4.2,1.6,8.3,6.3,8.3C171.1,525.9,172.6,521.8,172.6,517.6
			 M153.2,504.5h6.8v3.3h0.1c1.7-2.8,4.6-4,7.8-4c8.2,0,11.9,6.6,11.9,14.1c0,7-3.8,13.5-11.5,13.5c-3.1,0-6.1-1.4-7.8-3.9h-0.1
			v12.4h-7.2L153.2,504.5L153.2,504.5z"/>
		<path d="M195.6,525.9c4.9,0,6.4-4.2,6.4-8.3c0-4.2-1.5-8.4-6.4-8.4c-4.9,0-6.3,4.2-6.3,8.4C189.2,521.7,190.7,525.9,195.6,525.9
			 M195.6,503.8c8.2,0,13.6,5.5,13.6,13.8c0,8.3-5.3,13.8-13.6,13.8c-8.2,0-13.5-5.5-13.5-13.8C182.1,509.2,187.4,503.8,195.6,503.8
			"/>
		<path d="M213.6,504.4h6.8v4.9h0.1c1.3-3.3,4.9-5.6,8.3-5.6c0.5,0,1.1,0.1,1.6,0.2v6.7c-0.7-0.1-1.7-0.2-2.6-0.2
			c-5.3,0-7.1,3.8-7.1,8.4v11.8h-7.2L213.6,504.4L213.6,504.4z"/>
		<path d="M249.1,517.8c-1.2,1.1-3.7,1.1-6,1.5c-2.2,0.5-4.2,1.2-4.2,3.8c0,2.7,2.1,3.3,4.4,3.3c5.6,0,5.8-4.5,5.8-6L249.1,517.8
			L249.1,517.8z M232.5,512.5c0.4-6.7,6.4-8.8,12.3-8.8c5.2,0,11.5,1.2,11.5,7.4v13.6c0,2.4,0.2,4.8,0.9,5.8h-7.3
			c-0.2-0.8-0.5-1.7-0.5-2.5c-2.3,2.4-5.6,3.2-8.8,3.2c-5,0-8.9-2.5-8.9-7.8c0-5.9,4.5-7.3,8.9-7.9c4.4-0.7,8.5-0.5,8.5-3.4
			c0-3.1-2.1-3.5-4.7-3.5c-2.7,0-4.5,1.1-4.8,3.9L232.5,512.5L232.5,512.5z"/>
		<path d="M270.8,504.5h5.3v4.8h-5.3v12.9c0,2.4,0.6,3,3,3c0.8,0,1.5,0,2.2-0.2v5.6c-1.2,0.2-2.8,0.2-4.2,0.2c-4.4,0-8.2-1-8.2-6.2
			v-15.4h-4.4v-4.8h4.4v-7.8h7.2V504.5z"/>
		<path d="M281.5,504.5h7.2v26.1h-7.2V504.5z M288.6,500.4h-7.2v-5.9h7.2V500.4z"/>
		<path d="M307,525.9c4.9,0,6.4-4.2,6.4-8.3c0-4.2-1.5-8.4-6.4-8.4c-4.9,0-6.3,4.2-6.3,8.4C300.6,521.7,302.1,525.9,307,525.9
			 M307,503.8c8.2,0,13.6,5.5,13.6,13.8c0,8.3-5.3,13.8-13.6,13.8c-8.2,0-13.5-5.5-13.5-13.8C293.5,509.2,298.8,503.8,307,503.8"/>
		<path d="M325.2,504.5h6.8v3.6h0.1c1.8-2.9,5-4.4,8-4.4c7.6,0,9.5,4.3,9.5,10.8v16.1h-7.2v-14.8c0-4.3-1.3-6.4-4.6-6.4
			c-3.9,0-5.6,2.2-5.6,7.5v13.7h-7.2L325.2,504.5L325.2,504.5z"/>
	</g>
</g>
<g id="Lockup">
	<rect x="409.6" y="451.9" width="713.2" height="17.5"/>
	<g>
		<path d="M410.3,203.9v-6.6h29.2v6.6h-10.7V233H421v-29.1H410.3z"/>
		<path d="M449.5,197.3v13.5h0.2c0.9-1.5,2-2.6,3.4-3.3c1.4-0.7,2.8-1,4.1-1c1.9,0,3.5,0.3,4.7,0.8c1.2,0.5,2.2,1.2,2.9,2.2
			c0.7,0.9,1.2,2,1.5,3.3c0.3,1.3,0.4,2.8,0.4,4.4V233h-7.1v-14.6c0-2.1-0.3-3.7-1-4.8c-0.7-1-1.9-1.6-3.6-1.6
			c-1.9,0-3.3,0.6-4.2,1.7c-0.9,1.2-1.3,3-1.3,5.7V233h-7.1v-35.7H449.5z"/>
		<path d="M472,203.2v-5.8h7.1v5.8H472z M479.1,207.2V233H472v-25.9H479.1z"/>
		<path d="M490.4,226.6c0.3,0.5,0.7,1,1.2,1.3s1.1,0.6,1.7,0.8s1.3,0.2,2,0.2c0.5,0,1-0.1,1.6-0.2c0.5-0.1,1-0.3,1.5-0.5
			c0.4-0.2,0.8-0.6,1.1-1c0.3-0.4,0.4-0.9,0.4-1.6c0-1.1-0.7-1.9-2.1-2.4c-1.4-0.5-3.4-1.1-5.9-1.6c-1-0.2-2-0.5-3-0.8
			c-1-0.3-1.9-0.7-2.6-1.2c-0.8-0.5-1.4-1.2-1.9-2c-0.5-0.8-0.7-1.7-0.7-2.9c0-1.7,0.3-3,1-4.1c0.6-1.1,1.5-1.9,2.6-2.5
			c1.1-0.6,2.3-1,3.6-1.3c1.3-0.2,2.7-0.4,4.1-0.4c1.4,0,2.8,0.1,4.1,0.4c1.3,0.3,2.5,0.7,3.5,1.4c1,0.6,1.9,1.5,2.6,2.5
			c0.7,1,1.1,2.4,1.2,4h-6.8c-0.1-1.4-0.6-2.3-1.6-2.8c-0.9-0.5-2-0.7-3.3-0.7c-0.4,0-0.8,0-1.3,0.1c-0.5,0.1-0.9,0.2-1.3,0.3
			c-0.4,0.2-0.7,0.4-1,0.7c-0.3,0.3-0.4,0.7-0.4,1.3c0,0.6,0.2,1.2,0.7,1.5c0.5,0.4,1.1,0.7,1.8,1s1.6,0.5,2.6,0.7
			c1,0.2,2,0.4,3,0.7c1,0.2,2,0.5,3,0.8c1,0.3,1.9,0.8,2.6,1.3c0.8,0.5,1.4,1.2,1.9,2c0.5,0.8,0.7,1.8,0.7,3c0,1.7-0.3,3.1-1,4.3
			c-0.7,1.2-1.6,2.1-2.7,2.8c-1.1,0.7-2.4,1.2-3.8,1.5c-1.4,0.3-2.9,0.4-4.3,0.4c-1.5,0-3-0.1-4.4-0.4c-1.4-0.3-2.7-0.8-3.8-1.5
			c-1.1-0.7-2-1.6-2.8-2.8c-0.7-1.2-1.1-2.6-1.2-4.3h6.8C490,225.4,490.1,226,490.4,226.6z"/>
		<path d="M537.4,211.8c-1.1,0-2.1,0.3-2.8,0.8c-0.8,0.5-1.4,1.2-1.9,2c-0.5,0.8-0.8,1.7-1,2.7c-0.2,1-0.3,2-0.3,2.9
			c0,0.9,0.1,1.9,0.3,2.8c0.2,1,0.5,1.8,1,2.6s1.1,1.4,1.8,1.9c0.8,0.5,1.7,0.8,2.8,0.8c1.7,0,3-0.5,3.9-1.4c0.9-1,1.5-2.2,1.7-3.8
			h6.8c-0.5,3.4-1.8,6-4,7.9c-2.2,1.8-5,2.7-8.4,2.7c-1.9,0-3.7-0.3-5.3-1s-3-1.6-4.1-2.7c-1.1-1.2-2-2.6-2.6-4.2
			c-0.6-1.6-1-3.4-1-5.3c0-2,0.3-3.9,0.9-5.6c0.6-1.7,1.4-3.2,2.6-4.5s2.5-2.2,4.2-2.9s3.5-1,5.6-1c1.5,0,3,0.2,4.4,0.6
			c1.4,0.4,2.7,1,3.8,1.8c1.1,0.8,2,1.8,2.7,3c0.7,1.2,1.1,2.7,1.2,4.3h-6.9C542.2,213.3,540.4,211.8,537.4,211.8z"/>
		<path d="M553.5,214.5c0.6-1.7,1.5-3.1,2.7-4.3c1.2-1.2,2.6-2.1,4.2-2.8c1.6-0.7,3.5-1,5.5-1s3.9,0.3,5.5,1
			c1.6,0.7,3.1,1.6,4.2,2.8c1.2,1.2,2.1,2.6,2.7,4.3c0.6,1.7,1,3.6,1,5.6c0,2.1-0.3,3.9-1,5.6c-0.6,1.7-1.5,3.1-2.7,4.3
			c-1.2,1.2-2.6,2.1-4.2,2.7c-1.7,0.6-3.5,0.9-5.5,0.9s-3.9-0.3-5.5-0.9c-1.6-0.6-3-1.5-4.2-2.7c-1.2-1.2-2.1-2.6-2.7-4.3
			s-0.9-3.5-0.9-5.6C552.5,218,552.8,216.2,553.5,214.5z M559.9,223.1c0.2,1,0.5,1.9,1,2.6c0.5,0.8,1.1,1.4,1.9,1.9
			c0.8,0.5,1.8,0.7,3,0.7s2.2-0.2,3-0.7c0.8-0.5,1.5-1.1,1.9-1.9c0.5-0.8,0.8-1.7,1-2.6s0.3-2,0.3-3c0-1-0.1-2-0.3-3s-0.5-1.9-1-2.7
			c-0.5-0.8-1.1-1.4-1.9-1.9c-0.8-0.5-1.8-0.7-3-0.7s-2.2,0.2-3,0.7c-0.8,0.5-1.4,1.1-1.9,1.9c-0.5,0.8-0.8,1.7-1,2.7s-0.3,2-0.3,3
			C559.6,221.1,559.7,222.2,559.9,223.1z"/>
		<path d="M590.3,207.2v3.5h0.1c0.9-1.3,2.1-2.4,3.4-3.1c1.3-0.7,2.8-1.1,4.5-1.1c1.6,0,3.1,0.3,4.5,0.9c1.4,0.6,2.4,1.8,3.1,3.4
			c0.8-1.1,1.8-2.1,3.1-3c1.3-0.9,2.9-1.3,4.7-1.3c1.4,0,2.6,0.2,3.8,0.5c1.2,0.3,2.2,0.9,3,1.6c0.8,0.7,1.5,1.7,2,2.9
			c0.5,1.2,0.7,2.6,0.7,4.3V233H616v-14.7c0-0.9,0-1.7-0.1-2.5c-0.1-0.8-0.2-1.4-0.5-2c-0.3-0.6-0.7-1-1.3-1.3
			c-0.6-0.3-1.4-0.5-2.4-0.5s-1.8,0.2-2.4,0.6c-0.6,0.4-1.1,0.9-1.5,1.5c-0.4,0.6-0.6,1.3-0.7,2.1c-0.1,0.8-0.2,1.6-0.2,2.4V233
			h-7.1v-14.5c0-0.8,0-1.5,0-2.3s-0.2-1.4-0.4-2.1c-0.2-0.6-0.7-1.1-1.2-1.5c-0.6-0.4-1.4-0.6-2.6-0.6c-0.3,0-0.8,0.1-1.3,0.2
			c-0.5,0.2-1.1,0.4-1.6,0.9c-0.5,0.4-1,1-1.3,1.8c-0.4,0.8-0.5,1.8-0.5,3.1v15h-7.1v-25.9H590.3z"/>
		<path d="M635.2,207.2v3.3h0.1c0.9-1.4,2-2.4,3.3-3.1c1.3-0.6,2.8-0.9,4.4-0.9c2,0,3.8,0.4,5.2,1.1c1.5,0.8,2.7,1.8,3.7,3
			c1,1.3,1.7,2.7,2.1,4.4s0.7,3.4,0.7,5.3c0,1.7-0.2,3.4-0.7,5c-0.5,1.6-1.2,3-2.1,4.2c-1,1.2-2.1,2.2-3.5,3c-1.4,0.7-3.1,1.1-5,1.1
			c-1.6,0-3.1-0.3-4.4-1c-1.3-0.7-2.5-1.6-3.3-2.9h-0.1v12.2h-7.1v-34.9H635.2z M644.4,227.7c0.8-0.5,1.4-1.1,1.9-1.8
			c0.5-0.8,0.8-1.6,1-2.6c0.2-1,0.3-2,0.3-3.1c0-1-0.1-2-0.3-3c-0.2-1-0.6-1.9-1.1-2.7s-1.1-1.4-1.9-1.9c-0.8-0.5-1.7-0.7-2.9-0.7
			c-1.2,0-2.1,0.2-2.9,0.7c-0.8,0.5-1.4,1.1-1.9,1.9c-0.5,0.8-0.8,1.7-1,2.7c-0.2,1-0.3,2-0.3,3.1c0,1,0.1,2.1,0.3,3.1
			s0.6,1.9,1,2.6s1.1,1.4,1.9,1.8c0.8,0.5,1.8,0.7,2.9,0.7C642.6,228.4,643.6,228.1,644.4,227.7z"/>
		<path d="M658.2,215.1c0.1-1.7,0.5-3,1.2-4.1c0.7-1.1,1.7-2,2.8-2.7c1.1-0.7,2.4-1.1,3.8-1.4c1.4-0.3,2.8-0.4,4.3-0.4
			c1.3,0,2.6,0.1,4,0.3c1.3,0.2,2.5,0.5,3.7,1.1c1.1,0.5,2,1.3,2.7,2.2c0.7,1,1.1,2.2,1.1,3.8v13.5c0,1.2,0.1,2.3,0.2,3.3
			c0.1,1.1,0.4,1.9,0.7,2.4h-7.2c-0.1-0.4-0.2-0.8-0.3-1.2c-0.1-0.4-0.1-0.8-0.2-1.3c-1.1,1.2-2.5,2-4,2.5c-1.5,0.5-3.1,0.7-4.7,0.7
			c-1.2,0-2.4-0.1-3.5-0.4c-1.1-0.3-2-0.8-2.8-1.4c-0.8-0.6-1.4-1.4-1.9-2.4c-0.5-1-0.7-2.1-0.7-3.4c0-1.5,0.3-2.7,0.8-3.6
			c0.5-1,1.2-1.7,2-2.3c0.8-0.6,1.8-1,2.8-1.3c1-0.3,2.1-0.5,3.2-0.7c1.1-0.2,2.1-0.3,3.2-0.4c1-0.1,2-0.2,2.8-0.5s1.4-0.5,1.9-0.9
			c0.5-0.4,0.7-0.9,0.6-1.7c0-0.8-0.1-1.4-0.4-1.8s-0.6-0.8-1-1s-0.9-0.4-1.5-0.5c-0.5-0.1-1.1-0.1-1.8-0.1c-1.4,0-2.5,0.3-3.3,0.9
			c-0.8,0.6-1.3,1.6-1.4,3H658.2z M674.6,220.4c-0.3,0.3-0.7,0.5-1.1,0.6c-0.5,0.2-0.9,0.3-1.5,0.4c-0.5,0.1-1.1,0.2-1.6,0.2
			c-0.6,0.1-1.1,0.2-1.7,0.2c-0.5,0.1-1.1,0.2-1.6,0.4c-0.5,0.2-1,0.4-1.4,0.7s-0.7,0.6-0.9,1.1c-0.2,0.4-0.3,1-0.3,1.6
			c0,0.6,0.1,1.2,0.3,1.6c0.2,0.4,0.5,0.8,1,1s0.9,0.4,1.4,0.5c0.5,0.1,1.1,0.2,1.6,0.2c1.4,0,2.5-0.2,3.2-0.7s1.3-1,1.7-1.7
			c0.4-0.7,0.6-1.3,0.7-2c0.1-0.7,0.1-1.2,0.1-1.6V220.4z"/>
		<path d="M693.8,207.2v3.6h0.1c0.9-1.5,2.1-2.6,3.5-3.3c1.4-0.7,2.9-1,4.4-1c1.9,0,3.5,0.3,4.7,0.8c1.2,0.5,2.2,1.2,2.9,2.2
			s1.2,2,1.5,3.3c0.3,1.3,0.4,2.8,0.4,4.4V233h-7.1v-14.6c0-2.1-0.3-3.7-1-4.8s-1.8-1.6-3.5-1.6c-1.9,0-3.3,0.6-4.2,1.7
			c-0.9,1.2-1.3,3-1.3,5.7V233h-7.1v-25.9H693.8z"/>
		<path d="M725.3,240.7c-1.4,0.9-3.3,1.3-5.7,1.3c-0.7,0-1.5,0-2.2-0.1s-1.4-0.1-2.2-0.2V236c0.7,0.1,1.3,0.1,2,0.2s1.4,0.1,2.1,0.1
			c0.9-0.1,1.6-0.5,2.1-1.1c0.5-0.6,0.7-1.3,0.7-2.1c0-0.6-0.1-1.1-0.3-1.6l-9-24.2h7.5l5.9,17.7h0.1l5.7-17.7h7.3l-10.8,29.1
			C727.7,238.3,726.6,239.8,725.3,240.7z"/>
		<path d="M755.6,203.2v-5.8h7.1v5.8H755.6z M762.7,207.2V233h-7.1v-25.9H762.7z"/>
		<path d="M774,226.6c0.3,0.5,0.7,1,1.2,1.3s1.1,0.6,1.7,0.8s1.3,0.2,2,0.2c0.5,0,1-0.1,1.6-0.2c0.6-0.1,1.1-0.3,1.5-0.5
			c0.5-0.2,0.8-0.6,1.1-1c0.3-0.4,0.5-0.9,0.5-1.6c0-1.1-0.7-1.9-2.1-2.4s-3.4-1.1-5.9-1.6c-1-0.2-2-0.5-3-0.8s-1.9-0.7-2.6-1.2
			s-1.4-1.2-1.8-2s-0.7-1.7-0.7-2.9c0-1.7,0.3-3,1-4.1c0.6-1.1,1.5-1.9,2.6-2.5c1.1-0.6,2.3-1,3.6-1.3c1.3-0.2,2.7-0.4,4.1-0.4
			c1.4,0,2.8,0.1,4.1,0.4c1.3,0.3,2.5,0.7,3.5,1.4c1,0.6,1.9,1.5,2.6,2.5s1.1,2.4,1.2,4h-6.8c-0.1-1.4-0.6-2.3-1.5-2.8
			c-0.9-0.5-2-0.7-3.3-0.7c-0.4,0-0.8,0-1.3,0.1c-0.5,0.1-0.9,0.2-1.3,0.3c-0.4,0.2-0.7,0.4-1,0.7s-0.4,0.7-0.4,1.3
			c0,0.6,0.2,1.2,0.7,1.5c0.5,0.4,1.1,0.7,1.8,1s1.6,0.5,2.6,0.7s2,0.4,3,0.7c1,0.2,2,0.5,3,0.8c1,0.3,1.9,0.8,2.6,1.3
			s1.4,1.2,1.9,2c0.5,0.8,0.7,1.8,0.7,3c0,1.7-0.3,3.1-1,4.3c-0.7,1.2-1.6,2.1-2.7,2.8c-1.1,0.7-2.4,1.2-3.8,1.5
			c-1.4,0.3-2.9,0.4-4.3,0.4c-1.5,0-3-0.1-4.4-0.4c-1.4-0.3-2.7-0.8-3.8-1.5c-1.1-0.7-2-1.6-2.8-2.8s-1.1-2.6-1.2-4.3h6.8
			C773.5,225.4,773.6,226,774,226.6z"/>
		<path d="M820.9,211.8c-1.1,0-2.1,0.3-2.8,0.8c-0.8,0.5-1.4,1.2-1.9,2c-0.5,0.8-0.8,1.7-1,2.7c-0.2,1-0.3,2-0.3,2.9
			c0,0.9,0.1,1.9,0.3,2.8s0.5,1.8,1,2.6c0.4,0.8,1.1,1.4,1.8,1.9s1.7,0.8,2.8,0.8c1.7,0,3-0.5,3.9-1.4c0.9-1,1.5-2.2,1.7-3.8h6.9
			c-0.5,3.4-1.8,6-4,7.9c-2.2,1.8-5,2.7-8.5,2.7c-1.9,0-3.7-0.3-5.3-1c-1.6-0.7-3-1.6-4.1-2.7c-1.1-1.2-2-2.6-2.7-4.2
			c-0.6-1.6-0.9-3.4-0.9-5.3c0-2,0.3-3.9,0.9-5.6c0.6-1.7,1.4-3.2,2.6-4.5s2.5-2.2,4.2-2.9c1.6-0.7,3.5-1,5.6-1c1.5,0,3,0.2,4.4,0.6
			c1.4,0.4,2.7,1,3.8,1.8c1.1,0.8,2,1.8,2.7,3s1.1,2.7,1.2,4.3h-7C825.7,213.3,823.9,211.8,820.9,211.8z"/>
		<path d="M837,214.5c0.6-1.7,1.5-3.1,2.7-4.3c1.2-1.2,2.6-2.1,4.2-2.8c1.6-0.7,3.5-1,5.5-1s3.9,0.3,5.5,1c1.6,0.7,3.1,1.6,4.2,2.8
			c1.2,1.2,2.1,2.6,2.7,4.3c0.6,1.7,1,3.6,1,5.6c0,2.1-0.3,3.9-1,5.6c-0.6,1.7-1.5,3.1-2.7,4.3c-1.2,1.2-2.6,2.1-4.2,2.7
			c-1.7,0.6-3.5,0.9-5.5,0.9s-3.9-0.3-5.5-0.9c-1.6-0.6-3-1.5-4.2-2.7c-1.2-1.2-2.1-2.6-2.7-4.3s-0.9-3.5-0.9-5.6
			C836,218,836.3,216.2,837,214.5z M843.4,223.1c0.2,1,0.5,1.9,1,2.6c0.5,0.8,1.1,1.4,1.9,1.9c0.8,0.5,1.8,0.7,3,0.7s2.2-0.2,3-0.7
			c0.8-0.5,1.5-1.1,1.9-1.9c0.5-0.8,0.8-1.7,1-2.6s0.3-2,0.3-3c0-1-0.1-2-0.3-3s-0.5-1.9-1-2.7c-0.5-0.8-1.1-1.4-1.9-1.9
			c-0.8-0.5-1.8-0.7-3-0.7s-2.2,0.2-3,0.7c-0.8,0.5-1.4,1.1-1.9,1.9c-0.5,0.8-0.8,1.7-1,2.7s-0.3,2-0.3,3
			C843.1,221.1,843.2,222.2,843.4,223.1z"/>
		<path d="M873.8,207.2v3.5h0.1c0.9-1.3,2.1-2.4,3.4-3.1c1.3-0.7,2.8-1.1,4.5-1.1c1.6,0,3.1,0.3,4.5,0.9c1.3,0.6,2.4,1.8,3.1,3.4
			c0.8-1.1,1.8-2.1,3.1-3c1.3-0.9,2.9-1.3,4.7-1.3c1.4,0,2.6,0.2,3.8,0.5c1.2,0.3,2.2,0.9,3,1.6c0.8,0.7,1.5,1.7,2,2.9
			c0.5,1.2,0.7,2.6,0.7,4.3V233h-7.1v-14.7c0-0.9,0-1.7-0.1-2.5c-0.1-0.8-0.2-1.4-0.5-2c-0.3-0.6-0.7-1-1.3-1.3
			c-0.6-0.3-1.4-0.5-2.4-0.5s-1.8,0.2-2.4,0.6c-0.6,0.4-1.1,0.9-1.5,1.5c-0.4,0.6-0.6,1.3-0.7,2.1c-0.1,0.8-0.2,1.6-0.2,2.4V233
			h-7.1v-14.5c0-0.8,0-1.5,0-2.3s-0.2-1.4-0.4-2.1c-0.2-0.6-0.7-1.1-1.2-1.5c-0.6-0.4-1.4-0.6-2.6-0.6c-0.3,0-0.8,0.1-1.3,0.2
			c-0.5,0.2-1.1,0.4-1.6,0.9c-0.5,0.4-1,1-1.3,1.8c-0.4,0.8-0.5,1.8-0.5,3.1v15h-7.1v-25.9H873.8z"/>
		<path d="M918.7,207.2v3.5h0.1c0.9-1.3,2.1-2.4,3.4-3.1c1.3-0.7,2.8-1.1,4.5-1.1c1.6,0,3.1,0.3,4.5,0.9c1.3,0.6,2.4,1.8,3.1,3.4
			c0.8-1.1,1.8-2.1,3.1-3c1.3-0.9,2.9-1.3,4.7-1.3c1.4,0,2.6,0.2,3.8,0.5c1.2,0.3,2.2,0.9,3,1.6c0.8,0.7,1.5,1.7,2,2.9
			c0.5,1.2,0.7,2.6,0.7,4.3V233h-7.1v-14.7c0-0.9,0-1.7-0.1-2.5c-0.1-0.8-0.2-1.4-0.5-2c-0.3-0.6-0.7-1-1.3-1.3
			c-0.6-0.3-1.4-0.5-2.4-0.5s-1.8,0.2-2.4,0.6c-0.6,0.4-1.1,0.9-1.5,1.5c-0.4,0.6-0.6,1.3-0.7,2.1c-0.1,0.8-0.2,1.6-0.2,2.4V233
			h-7.1v-14.5c0-0.8,0-1.5,0-2.3s-0.2-1.4-0.4-2.1c-0.2-0.6-0.7-1.1-1.2-1.5c-0.6-0.4-1.4-0.6-2.6-0.6c-0.3,0-0.8,0.1-1.3,0.2
			c-0.5,0.2-1.1,0.4-1.6,0.9c-0.5,0.4-1,1-1.3,1.8c-0.4,0.8-0.5,1.8-0.5,3.1v15H912v-25.9H918.7z"/>
		<path d="M957,203.2v-5.8h7.1v5.8H957z M964.1,207.2V233H957v-25.9H964.1z"/>
		<path d="M983.5,207.2v4.8h-5.2v12.8c0,1.2,0.2,2,0.6,2.4c0.4,0.4,1.2,0.6,2.4,0.6c0.4,0,0.8,0,1.1-0.1c0.4,0,0.7-0.1,1.1-0.1v5.5
			c-0.6,0.1-1.3,0.2-2,0.2c-0.7,0-1.5,0-2.2,0c-1.1,0-2.1-0.1-3.1-0.2c-1-0.1-1.8-0.4-2.6-0.9c-0.8-0.4-1.3-1-1.8-1.8
			c-0.4-0.8-0.7-1.8-0.7-3.2v-15.2h-4.3v-4.8h4.3v-7.8h7.1v7.8H983.5z"/>
		<path d="M1001.9,207.2v4.8h-5.2v12.8c0,1.2,0.2,2,0.6,2.4c0.4,0.4,1.2,0.6,2.4,0.6c0.4,0,0.8,0,1.1-0.1c0.4,0,0.7-0.1,1.1-0.1v5.5
			c-0.6,0.1-1.3,0.2-2,0.2c-0.7,0-1.5,0-2.2,0c-1.1,0-2.1-0.1-3.1-0.2c-1-0.1-1.8-0.4-2.6-0.9c-0.8-0.4-1.3-1-1.8-1.8
			c-0.4-0.8-0.7-1.8-0.7-3.2v-15.2h-4.3v-4.8h4.3v-7.8h7.1v7.8H1001.9z"/>
		<path d="M1012.4,226.8c1.1,1,2.6,1.5,4.6,1.5c1.4,0,2.7-0.4,3.7-1.1c1-0.7,1.7-1.5,1.9-2.3h6.2c-1,3.1-2.5,5.3-4.6,6.6
			c-2.1,1.3-4.6,2-7.5,2c-2,0-3.9-0.3-5.5-1c-1.6-0.7-3-1.6-4.2-2.8c-1.1-1.2-2-2.6-2.6-4.3c-0.6-1.7-0.9-3.5-0.9-5.5
			c0-1.9,0.3-3.7,1-5.4c0.6-1.7,1.5-3.1,2.7-4.3s2.6-2.2,4.2-2.9c1.6-0.7,3.4-1,5.4-1c2.2,0,4.1,0.4,5.8,1.3c1.6,0.9,3,2,4,3.4
			c1,1.4,1.8,3.1,2.3,4.9c0.5,1.8,0.6,3.8,0.5,5.8h-18.7C1010.7,224.1,1011.3,225.8,1012.4,226.8z M1020.4,213.2
			c-0.9-0.9-2.1-1.4-3.9-1.4c-1.1,0-2.1,0.2-2.8,0.6c-0.8,0.4-1.3,0.9-1.8,1.4c-0.5,0.6-0.8,1.2-1,1.8c-0.2,0.6-0.3,1.2-0.3,1.7
			h11.5C1021.8,215.5,1021.3,214.1,1020.4,213.2z"/>
		<path d="M1051.5,229.7c-0.8,1.4-1.9,2.4-3.3,3c-1.4,0.6-2.9,0.9-4.6,0.9c-1.9,0-3.6-0.4-5.1-1.1s-2.7-1.8-3.6-3
			c-0.9-1.3-1.7-2.8-2.1-4.4c-0.5-1.7-0.7-3.4-0.7-5.2c0-1.7,0.2-3.4,0.7-5c0.5-1.6,1.2-3,2.1-4.3c1-1.2,2.1-2.2,3.6-3
			c1.4-0.8,3.1-1.1,5-1.1c1.5,0,3,0.3,4.4,1c1.4,0.7,2.5,1.6,3.3,2.9h0.1v-13h7.1V233h-6.8v-3.3H1051.5z M1051.2,216.9
			c-0.2-1-0.5-1.8-1-2.6s-1.1-1.4-1.9-1.8s-1.7-0.7-2.9-0.7c-1.2,0-2.2,0.2-3,0.7s-1.4,1.1-1.9,1.8c-0.5,0.8-0.8,1.6-1,2.6
			c-0.2,1-0.3,2-0.3,3.1c0,1,0.1,2,0.3,3s0.6,1.9,1.1,2.7c0.5,0.8,1.2,1.4,2,1.9s1.7,0.7,2.8,0.7c1.2,0,2.1-0.2,2.9-0.7
			c0.8-0.5,1.4-1.1,1.9-1.9c0.5-0.8,0.8-1.7,1-2.7s0.3-2,0.3-3.1C1051.5,218.9,1051.4,217.9,1051.2,216.9z"/>
		<path d="M1091.6,207.2v4.8h-5.2v12.8c0,1.2,0.2,2,0.6,2.4c0.4,0.4,1.2,0.6,2.4,0.6c0.4,0,0.8,0,1.1-0.1c0.4,0,0.7-0.1,1.1-0.1v5.5
			c-0.6,0.1-1.3,0.2-2,0.2c-0.7,0-1.5,0-2.2,0c-1.1,0-2.1-0.1-3.1-0.2c-1-0.1-1.8-0.4-2.6-0.9c-0.8-0.4-1.3-1-1.8-1.8
			c-0.4-0.8-0.7-1.8-0.7-3.2v-15.2h-4.3v-4.8h4.3v-7.8h7.1v7.8H1091.6z"/>
		<path d="M1094.4,214.5c0.6-1.7,1.5-3.1,2.7-4.3c1.2-1.2,2.6-2.1,4.2-2.8c1.6-0.7,3.5-1,5.5-1s3.9,0.3,5.5,1
			c1.6,0.7,3.1,1.6,4.2,2.8c1.2,1.2,2.1,2.6,2.7,4.3c0.6,1.7,1,3.6,1,5.6c0,2.1-0.3,3.9-1,5.6c-0.6,1.7-1.5,3.1-2.7,4.3
			c-1.2,1.2-2.6,2.1-4.2,2.7c-1.7,0.6-3.5,0.9-5.5,0.9s-3.9-0.3-5.5-0.9c-1.6-0.6-3-1.5-4.2-2.7c-1.2-1.2-2.1-2.6-2.7-4.3
			s-0.9-3.5-0.9-5.6C1093.4,218,1093.7,216.2,1094.4,214.5z M1100.8,223.1c0.2,1,0.5,1.9,1,2.6c0.5,0.8,1.1,1.4,1.9,1.9
			c0.8,0.5,1.8,0.7,3,0.7s2.2-0.2,3-0.7c0.8-0.5,1.5-1.1,1.9-1.9c0.5-0.8,0.8-1.7,1-2.6s0.3-2,0.3-3c0-1-0.1-2-0.3-3s-0.5-1.9-1-2.7
			c-0.5-0.8-1.1-1.4-1.9-1.9c-0.8-0.5-1.8-0.7-3-0.7s-2.2,0.2-3,0.7c-0.8,0.5-1.4,1.1-1.9,1.9c-0.5,0.8-0.8,1.7-1,2.7s-0.3,2-0.3,3
			C1100.5,221.1,1100.6,222.2,1100.8,223.1z"/>
		<path d="M412,275.1c0.1-1.7,0.5-3,1.2-4.1c0.7-1.1,1.7-2,2.8-2.7c1.1-0.7,2.4-1.1,3.8-1.4c1.4-0.3,2.8-0.4,4.3-0.4
			c1.3,0,2.6,0.1,4,0.3c1.3,0.2,2.5,0.5,3.6,1.1s2,1.3,2.7,2.2c0.7,1,1,2.2,1,3.8v13.5c0,1.2,0.1,2.3,0.2,3.3
			c0.1,1.1,0.4,1.9,0.7,2.4h-7.2c-0.1-0.4-0.2-0.8-0.3-1.2c-0.1-0.4-0.1-0.8-0.2-1.3c-1.1,1.2-2.5,2-4,2.5c-1.5,0.5-3.1,0.7-4.7,0.7
			c-1.2,0-2.4-0.1-3.4-0.4c-1.1-0.3-2-0.8-2.8-1.4c-0.8-0.6-1.4-1.4-1.9-2.4c-0.4-1-0.7-2.1-0.7-3.4c0-1.5,0.3-2.7,0.8-3.6
			c0.5-1,1.2-1.7,2-2.3c0.8-0.6,1.8-1,2.8-1.3c1.1-0.3,2.1-0.5,3.2-0.7c1.1-0.2,2.1-0.3,3.1-0.4c1-0.1,2-0.2,2.8-0.5
			s1.4-0.5,1.9-0.9c0.5-0.4,0.7-0.9,0.6-1.7c0-0.8-0.1-1.4-0.4-1.8s-0.6-0.8-1-1c-0.4-0.2-0.9-0.4-1.4-0.5c-0.6-0.1-1.1-0.1-1.8-0.1
			c-1.4,0-2.5,0.3-3.3,0.9c-0.8,0.6-1.3,1.6-1.4,3H412z M428.4,280.4c-0.3,0.3-0.7,0.5-1.1,0.6c-0.4,0.2-0.9,0.3-1.4,0.4
			c-0.5,0.1-1.1,0.2-1.6,0.2c-0.6,0.1-1.1,0.2-1.7,0.2c-0.5,0.1-1.1,0.2-1.6,0.4c-0.5,0.2-1,0.4-1.4,0.7c-0.4,0.3-0.7,0.6-0.9,1.1
			c-0.2,0.4-0.3,1-0.3,1.6c0,0.6,0.1,1.2,0.3,1.6c0.2,0.4,0.6,0.8,1,1s0.9,0.4,1.4,0.5c0.5,0.1,1.1,0.2,1.6,0.2
			c1.4,0,2.5-0.2,3.2-0.7c0.8-0.5,1.3-1,1.7-1.7c0.4-0.7,0.6-1.3,0.7-2c0.1-0.7,0.1-1.2,0.1-1.6V280.4z"/>
		<path d="M452.8,271.8c-1.1,0-2.1,0.3-2.8,0.8c-0.8,0.5-1.4,1.2-1.9,2c-0.5,0.8-0.8,1.7-1,2.7c-0.2,1-0.3,2-0.3,2.9
			c0,0.9,0.1,1.9,0.3,2.8c0.2,1,0.5,1.8,1,2.6c0.5,0.8,1.1,1.4,1.8,1.9c0.8,0.5,1.7,0.8,2.8,0.8c1.7,0,3-0.5,3.9-1.4
			c0.9-1,1.5-2.2,1.7-3.8h6.9c-0.5,3.4-1.8,6-4,7.9c-2.2,1.8-5,2.7-8.4,2.7c-1.9,0-3.7-0.3-5.3-1c-1.6-0.7-3-1.6-4.1-2.7
			c-1.1-1.2-2-2.6-2.6-4.2c-0.6-1.6-1-3.4-1-5.3c0-2,0.3-3.9,0.9-5.6c0.6-1.7,1.4-3.2,2.6-4.5c1.1-1.2,2.5-2.2,4.1-2.9
			c1.6-0.7,3.5-1,5.6-1c1.5,0,3,0.2,4.4,0.6c1.4,0.4,2.7,1,3.8,1.8c1.1,0.8,2,1.8,2.7,3c0.7,1.2,1.1,2.7,1.2,4.3h-7
			C457.6,273.3,455.8,271.8,452.8,271.8z"/>
		<path d="M481.2,271.8c-1.1,0-2.1,0.3-2.8,0.8c-0.8,0.5-1.4,1.2-1.9,2c-0.5,0.8-0.8,1.7-1,2.7c-0.2,1-0.3,2-0.3,2.9
			c0,0.9,0.1,1.9,0.3,2.8c0.2,1,0.5,1.8,1,2.6c0.5,0.8,1.1,1.4,1.8,1.9c0.8,0.5,1.7,0.8,2.8,0.8c1.7,0,3-0.5,3.9-1.4
			c0.9-1,1.5-2.2,1.7-3.8h6.9c-0.5,3.4-1.8,6-4,7.9c-2.2,1.8-5,2.7-8.4,2.7c-1.9,0-3.7-0.3-5.3-1c-1.6-0.7-3-1.6-4.1-2.7
			c-1.1-1.2-2-2.6-2.6-4.2c-0.6-1.6-1-3.4-1-5.3c0-2,0.3-3.9,0.9-5.6c0.6-1.7,1.4-3.2,2.6-4.5c1.1-1.2,2.5-2.2,4.1-2.9
			c1.6-0.7,3.5-1,5.6-1c1.5,0,3,0.2,4.4,0.6c1.4,0.4,2.7,1,3.8,1.8c1.1,0.8,2,1.8,2.7,3c0.7,1.2,1.1,2.7,1.2,4.3h-7
			C486,273.3,484.2,271.8,481.2,271.8z"/>
		<path d="M497.4,274.5c0.6-1.7,1.5-3.1,2.7-4.3c1.2-1.2,2.6-2.1,4.2-2.8c1.6-0.7,3.5-1,5.5-1c2,0,3.9,0.3,5.5,1s3.1,1.6,4.2,2.8
			c1.2,1.2,2.1,2.6,2.7,4.3c0.6,1.7,0.9,3.6,0.9,5.6c0,2.1-0.3,3.9-0.9,5.6c-0.6,1.7-1.5,3.1-2.7,4.3c-1.2,1.2-2.6,2.1-4.2,2.7
			s-3.5,0.9-5.5,0.9c-2,0-3.9-0.3-5.5-0.9c-1.6-0.6-3-1.5-4.2-2.7c-1.2-1.2-2.1-2.6-2.7-4.3c-0.6-1.7-1-3.5-1-5.6
			C496.4,278,496.7,276.2,497.4,274.5z M503.8,283.1c0.2,1,0.5,1.9,1,2.6c0.5,0.8,1.1,1.4,1.9,1.9c0.8,0.5,1.8,0.7,3,0.7
			s2.2-0.2,3-0.7c0.8-0.5,1.5-1.1,2-1.9c0.5-0.8,0.8-1.7,1-2.6s0.3-2,0.3-3c0-1-0.1-2-0.3-3s-0.5-1.9-1-2.7c-0.5-0.8-1.1-1.4-2-1.9
			c-0.8-0.5-1.8-0.7-3-0.7s-2.2,0.2-3,0.7c-0.8,0.5-1.4,1.1-1.9,1.9c-0.5,0.8-0.8,1.7-1,2.7c-0.2,1-0.3,2-0.3,3
			C503.5,281.1,503.6,282.2,503.8,283.1z"/>
		<path d="M544.9,293v-3.6h-0.2c-0.9,1.5-2.1,2.6-3.5,3.2c-1.4,0.7-2.9,1-4.4,1c-1.9,0-3.5-0.2-4.7-0.8s-2.2-1.2-2.9-2.1
			c-0.7-0.9-1.2-2-1.5-3.3c-0.3-1.3-0.4-2.8-0.4-4.4v-15.9h7.1v14.6c0,2.1,0.3,3.7,1,4.8c0.7,1.1,1.9,1.6,3.6,1.6
			c1.9,0,3.3-0.6,4.2-1.7c0.9-1.2,1.3-3,1.3-5.7v-13.6h7.1V293H544.9z"/>
		<path d="M563.8,267.2v3.6h0.1c0.9-1.5,2.1-2.6,3.5-3.3c1.4-0.7,2.9-1,4.4-1c1.9,0,3.5,0.3,4.7,0.8c1.2,0.5,2.2,1.2,2.9,2.2
			s1.2,2,1.5,3.3c0.3,1.3,0.4,2.8,0.4,4.4V293h-7.1v-14.6c0-2.1-0.3-3.7-1-4.8s-1.8-1.6-3.5-1.6c-1.9,0-3.3,0.6-4.2,1.7
			c-0.9,1.2-1.3,3-1.3,5.7V293h-7.1v-25.9H563.8z"/>
		<path d="M600.5,267.2v4.8h-5.2v12.8c0,1.2,0.2,2,0.6,2.4c0.4,0.4,1.2,0.6,2.4,0.6c0.4,0,0.8,0,1.1-0.1c0.4,0,0.7-0.1,1.1-0.1v5.5
			c-0.6,0.1-1.3,0.2-2,0.2c-0.7,0-1.5,0-2.2,0c-1.1,0-2.1-0.1-3.1-0.2c-1-0.1-1.8-0.4-2.6-0.9c-0.8-0.4-1.3-1-1.8-1.8
			c-0.4-0.8-0.7-1.8-0.7-3.2v-15.2h-4.3v-4.8h4.3v-7.8h7.1v7.8H600.5z"/>
		<path d="M603.8,275.1c0.1-1.7,0.5-3,1.2-4.1c0.7-1.1,1.7-2,2.8-2.7c1.1-0.7,2.4-1.1,3.8-1.4c1.4-0.3,2.8-0.4,4.3-0.4
			c1.3,0,2.6,0.1,4,0.3c1.3,0.2,2.5,0.5,3.7,1.1c1.1,0.5,2,1.3,2.7,2.2c0.7,1,1.1,2.2,1.1,3.8v13.5c0,1.2,0.1,2.3,0.2,3.3
			c0.1,1.1,0.4,1.9,0.7,2.4H621c-0.1-0.4-0.2-0.8-0.3-1.2c-0.1-0.4-0.1-0.8-0.2-1.3c-1.1,1.2-2.5,2-4,2.5c-1.5,0.5-3.1,0.7-4.7,0.7
			c-1.2,0-2.4-0.1-3.5-0.4c-1.1-0.3-2-0.8-2.8-1.4c-0.8-0.6-1.4-1.4-1.9-2.4c-0.5-1-0.7-2.1-0.7-3.4c0-1.5,0.3-2.7,0.8-3.6
			c0.5-1,1.2-1.7,2-2.3c0.8-0.6,1.8-1,2.8-1.3c1-0.3,2.1-0.5,3.2-0.7c1.1-0.2,2.1-0.3,3.2-0.4c1-0.1,2-0.2,2.8-0.5s1.4-0.5,1.9-0.9
			c0.5-0.4,0.7-0.9,0.6-1.7c0-0.8-0.1-1.4-0.4-1.8s-0.6-0.8-1-1s-0.9-0.4-1.5-0.5c-0.5-0.1-1.1-0.1-1.8-0.1c-1.4,0-2.5,0.3-3.3,0.9
			c-0.8,0.6-1.3,1.6-1.4,3H603.8z M620.2,280.4c-0.3,0.3-0.7,0.5-1.1,0.6c-0.5,0.2-0.9,0.3-1.5,0.4c-0.5,0.1-1.1,0.2-1.6,0.2
			c-0.6,0.1-1.1,0.2-1.7,0.2c-0.5,0.1-1.1,0.2-1.6,0.4c-0.5,0.2-1,0.4-1.4,0.7s-0.7,0.6-0.9,1.1c-0.2,0.4-0.3,1-0.3,1.6
			c0,0.6,0.1,1.2,0.3,1.6c0.2,0.4,0.5,0.8,1,1s0.9,0.4,1.4,0.5c0.5,0.1,1.1,0.2,1.6,0.2c1.4,0,2.5-0.2,3.2-0.7s1.3-1,1.7-1.7
			c0.4-0.7,0.6-1.3,0.7-2c0.1-0.7,0.1-1.2,0.1-1.6V280.4z"/>
		<path d="M639.9,257.3v13h0.1c0.9-1.3,2-2.3,3.5-2.9c1.5-0.6,3-0.9,4.6-0.9c1.3,0,2.6,0.3,3.9,0.8c1.3,0.5,2.4,1.3,3.4,2.5
			c1,1.1,1.8,2.5,2.5,4.2c0.6,1.7,1,3.8,1,6.1c0,2.4-0.3,4.4-1,6.1c-0.6,1.7-1.5,3.1-2.5,4.2c-1,1.1-2.2,1.9-3.4,2.5
			c-1.3,0.5-2.6,0.8-3.9,0.8c-1.9,0-3.6-0.3-5.1-0.9c-1.5-0.6-2.6-1.6-3.4-3h-0.1v3.3h-6.8v-35.7H639.9z M651.4,277
			c-0.2-1-0.6-1.9-1.1-2.7c-0.5-0.8-1.1-1.4-1.9-1.8s-1.7-0.7-2.7-0.7c-1,0-1.9,0.2-2.7,0.7c-0.8,0.5-1.4,1.1-1.9,1.8
			c-0.5,0.8-0.9,1.7-1.1,2.7c-0.2,1-0.4,2-0.4,3.1c0,1.1,0.1,2.1,0.4,3.1c0.2,1,0.6,1.9,1.1,2.6c0.5,0.8,1.1,1.4,1.9,1.8
			c0.8,0.5,1.7,0.7,2.7,0.7c1.1,0,2-0.2,2.7-0.7s1.4-1.1,1.9-1.8c0.5-0.8,0.9-1.6,1.1-2.6s0.4-2,0.4-3.1
			C651.7,279,651.6,278,651.4,277z"/>
		<path d="M663.4,263.2v-5.8h7.1v5.8H663.4z M670.5,267.2V293h-7.1v-25.9H670.5z"/>
		<path d="M683.1,257.3V293H676v-35.7H683.1z"/>
		<path d="M688.7,263.2v-5.8h7.1v5.8H688.7z M695.8,267.2V293h-7.1v-25.9H695.8z"/>
		<path d="M715.3,267.2v4.8h-5.2v12.8c0,1.2,0.2,2,0.6,2.4c0.4,0.4,1.2,0.6,2.4,0.6c0.4,0,0.8,0,1.1-0.1c0.4,0,0.7-0.1,1.1-0.1v5.5
			c-0.6,0.1-1.3,0.2-2,0.2c-0.7,0-1.5,0-2.2,0c-1.1,0-2.1-0.1-3.1-0.2c-1-0.1-1.8-0.4-2.6-0.9c-0.8-0.4-1.3-1-1.8-1.8
			c-0.4-0.8-0.7-1.8-0.7-3.2v-15.2h-4.3v-4.8h4.3v-7.8h7.1v7.8H715.3z"/>
		<path d="M729.5,300.7c-1.4,0.9-3.3,1.3-5.7,1.3c-0.7,0-1.5,0-2.2-0.1s-1.4-0.1-2.2-0.2V296c0.7,0.1,1.3,0.1,2,0.2s1.4,0.1,2.1,0.1
			c0.9-0.1,1.6-0.5,2.1-1.1c0.5-0.6,0.7-1.3,0.7-2.1c0-0.6-0.1-1.1-0.3-1.6l-9-24.2h7.5l5.9,17.7h0.1l5.7-17.7h7.3l-10.8,29.1
			C731.9,298.3,730.8,299.8,729.5,300.7z"/>
		<path d="M751.2,285.3v7.7c0,1.1-0.2,2.2-0.6,3.1c-0.4,1-1,1.8-1.7,2.5c-0.7,0.7-1.5,1.3-2.5,1.7c-1,0.4-2,0.8-3,0.9v-3.6
			c0.5-0.1,1-0.3,1.4-0.6c0.4-0.3,0.8-0.7,1.2-1.1c0.3-0.4,0.6-0.9,0.8-1.4c0.2-0.5,0.2-1,0.2-1.6h-3.6v-7.7H751.2z"/>
		<path d="M785,267.2v4.8h-5.2v12.8c0,1.2,0.2,2,0.6,2.4c0.4,0.4,1.2,0.6,2.4,0.6c0.4,0,0.8,0,1.1-0.1c0.4,0,0.7-0.1,1.1-0.1v5.5
			c-0.6,0.1-1.3,0.2-2,0.2c-0.7,0-1.5,0-2.2,0c-1.1,0-2.1-0.1-3.1-0.2c-1-0.1-1.8-0.4-2.6-0.9c-0.8-0.4-1.3-1-1.8-1.8
			c-0.4-0.8-0.7-1.8-0.7-3.2v-15.2h-4.3v-4.8h4.3v-7.8h7.1v7.8H785z"/>
		<path d="M795.4,267.2v4.8h0.1c0.3-0.8,0.8-1.5,1.4-2.2c0.6-0.7,1.2-1.3,1.9-1.8c0.7-0.5,1.5-0.9,2.4-1.1c0.8-0.3,1.7-0.4,2.6-0.4
			c0.5,0,1,0.1,1.5,0.2v6.6c-0.3-0.1-0.7-0.1-1.2-0.2c-0.5,0-0.9-0.1-1.4-0.1c-1.3,0-2.4,0.2-3.3,0.7s-1.6,1-2.2,1.8
			s-0.9,1.6-1.2,2.6c-0.2,1-0.4,2.1-0.4,3.2V293h-7.1v-25.9H795.4z"/>
		<path d="M807.9,275.1c0.1-1.7,0.5-3,1.2-4.1c0.7-1.1,1.7-2,2.8-2.7c1.1-0.7,2.4-1.1,3.8-1.4c1.4-0.3,2.8-0.4,4.3-0.4
			c1.3,0,2.6,0.1,4,0.3c1.3,0.2,2.5,0.5,3.7,1.1c1.1,0.5,2,1.3,2.7,2.2c0.7,1,1.1,2.2,1.1,3.8v13.5c0,1.2,0.1,2.3,0.2,3.3
			c0.1,1.1,0.4,1.9,0.7,2.4h-7.2c-0.1-0.4-0.2-0.8-0.3-1.2c-0.1-0.4-0.1-0.8-0.2-1.3c-1.1,1.2-2.5,2-4,2.5c-1.5,0.5-3.1,0.7-4.7,0.7
			c-1.2,0-2.4-0.1-3.5-0.4c-1.1-0.3-2-0.8-2.8-1.4c-0.8-0.6-1.4-1.4-1.9-2.4c-0.5-1-0.7-2.1-0.7-3.4c0-1.5,0.3-2.7,0.8-3.6
			c0.5-1,1.2-1.7,2-2.3c0.8-0.6,1.8-1,2.8-1.3c1-0.3,2.1-0.5,3.2-0.7c1.1-0.2,2.1-0.3,3.2-0.4c1-0.1,2-0.2,2.8-0.5s1.4-0.5,1.9-0.9
			c0.5-0.4,0.7-0.9,0.6-1.7c0-0.8-0.1-1.4-0.4-1.8s-0.6-0.8-1-1s-0.9-0.4-1.5-0.5c-0.5-0.1-1.1-0.1-1.8-0.1c-1.4,0-2.5,0.3-3.3,0.9
			c-0.8,0.6-1.3,1.6-1.4,3H807.9z M824.3,280.4c-0.3,0.3-0.7,0.5-1.1,0.6c-0.5,0.2-0.9,0.3-1.5,0.4c-0.5,0.1-1.1,0.2-1.6,0.2
			c-0.6,0.1-1.1,0.2-1.7,0.2c-0.5,0.1-1.1,0.2-1.6,0.4c-0.5,0.2-1,0.4-1.4,0.7s-0.7,0.6-0.9,1.1c-0.2,0.4-0.3,1-0.3,1.6
			c0,0.6,0.1,1.2,0.3,1.6c0.2,0.4,0.5,0.8,1,1s0.9,0.4,1.4,0.5c0.5,0.1,1.1,0.2,1.6,0.2c1.4,0,2.5-0.2,3.2-0.7s1.3-1,1.7-1.7
			c0.4-0.7,0.6-1.3,0.7-2c0.1-0.7,0.1-1.2,0.1-1.6V280.4z"/>
		<path d="M843.6,267.2v3.6h0.1c0.9-1.5,2.1-2.6,3.5-3.3c1.4-0.7,2.9-1,4.4-1c1.9,0,3.5,0.3,4.7,0.8c1.2,0.5,2.2,1.2,2.9,2.2
			s1.2,2,1.5,3.3c0.3,1.3,0.4,2.8,0.4,4.4V293H854v-14.6c0-2.1-0.3-3.7-1-4.8s-1.8-1.6-3.5-1.6c-1.9,0-3.3,0.6-4.2,1.7
			c-0.9,1.2-1.3,3-1.3,5.7V293h-7.1v-25.9H843.6z"/>
		<path d="M872.2,286.6c0.3,0.5,0.7,1,1.2,1.3s1.1,0.6,1.7,0.8s1.3,0.2,2,0.2c0.5,0,1-0.1,1.6-0.2c0.6-0.1,1.1-0.3,1.5-0.5
			c0.5-0.2,0.8-0.6,1.1-1c0.3-0.4,0.5-0.9,0.5-1.6c0-1.1-0.7-1.9-2.1-2.4s-3.4-1.1-5.9-1.6c-1-0.2-2-0.5-3-0.8s-1.9-0.7-2.6-1.2
			s-1.4-1.2-1.8-2s-0.7-1.7-0.7-2.9c0-1.7,0.3-3,1-4.1c0.6-1.1,1.5-1.9,2.6-2.5c1.1-0.6,2.3-1,3.6-1.3c1.3-0.2,2.7-0.4,4.1-0.4
			c1.4,0,2.8,0.1,4.1,0.4c1.3,0.3,2.5,0.7,3.5,1.4c1,0.6,1.9,1.5,2.6,2.5s1.1,2.4,1.2,4h-6.8c-0.1-1.4-0.6-2.3-1.5-2.8
			c-0.9-0.5-2-0.7-3.3-0.7c-0.4,0-0.8,0-1.3,0.1c-0.5,0.1-0.9,0.2-1.3,0.3c-0.4,0.2-0.7,0.4-1,0.7s-0.4,0.7-0.4,1.3
			c0,0.6,0.2,1.2,0.7,1.5c0.5,0.4,1.1,0.7,1.8,1s1.6,0.5,2.6,0.7s2,0.4,3,0.7c1,0.2,2,0.5,3,0.8c1,0.3,1.9,0.8,2.6,1.3
			s1.4,1.2,1.9,2c0.5,0.8,0.7,1.8,0.7,3c0,1.7-0.3,3.1-1,4.3c-0.7,1.2-1.6,2.1-2.7,2.8c-1.1,0.7-2.4,1.2-3.8,1.5
			c-1.4,0.3-2.9,0.4-4.3,0.4c-1.5,0-3-0.1-4.4-0.4c-1.4-0.3-2.7-0.8-3.8-1.5c-1.1-0.7-2-1.6-2.8-2.8s-1.1-2.6-1.2-4.3h6.8
			C871.8,285.4,871.9,286,872.2,286.6z"/>
		<path d="M899.8,267.2v3.3h0.1c0.9-1.4,2-2.4,3.3-3.1c1.3-0.6,2.8-0.9,4.4-0.9c2,0,3.8,0.4,5.2,1.1c1.5,0.8,2.7,1.8,3.7,3
			c1,1.3,1.7,2.7,2.1,4.4s0.7,3.4,0.7,5.3c0,1.7-0.2,3.4-0.7,5c-0.5,1.6-1.2,3-2.1,4.2c-1,1.2-2.1,2.2-3.5,3c-1.4,0.7-3.1,1.1-5,1.1
			c-1.6,0-3.1-0.3-4.4-1c-1.3-0.7-2.5-1.6-3.3-2.9h-0.1v12.2h-7.1v-34.9H899.8z M909.1,287.7c0.8-0.5,1.4-1.1,1.9-1.8
			c0.5-0.8,0.8-1.6,1-2.6c0.2-1,0.3-2,0.3-3.1c0-1-0.1-2-0.3-3c-0.2-1-0.6-1.9-1.1-2.7s-1.1-1.4-1.9-1.9c-0.8-0.5-1.7-0.7-2.9-0.7
			c-1.2,0-2.1,0.2-2.9,0.7c-0.8,0.5-1.4,1.1-1.9,1.9c-0.5,0.8-0.8,1.7-1,2.7c-0.2,1-0.3,2-0.3,3.1c0,1,0.1,2.1,0.3,3.1
			s0.6,1.9,1,2.6s1.1,1.4,1.9,1.8c0.8,0.5,1.8,0.7,2.9,0.7C907.3,288.4,908.3,288.1,909.1,287.7z"/>
		<path d="M923,275.1c0.1-1.7,0.5-3,1.2-4.1c0.7-1.1,1.7-2,2.8-2.7c1.1-0.7,2.4-1.1,3.8-1.4c1.4-0.3,2.8-0.4,4.3-0.4
			c1.3,0,2.6,0.1,4,0.3c1.3,0.2,2.5,0.5,3.7,1.1c1.1,0.5,2,1.3,2.7,2.2c0.7,1,1.1,2.2,1.1,3.8v13.5c0,1.2,0.1,2.3,0.2,3.3
			c0.1,1.1,0.4,1.9,0.7,2.4h-7.2c-0.1-0.4-0.2-0.8-0.3-1.2c-0.1-0.4-0.1-0.8-0.2-1.3c-1.1,1.2-2.5,2-4,2.5c-1.5,0.5-3.1,0.7-4.7,0.7
			c-1.2,0-2.4-0.1-3.5-0.4c-1.1-0.3-2-0.8-2.8-1.4c-0.8-0.6-1.4-1.4-1.9-2.4c-0.5-1-0.7-2.1-0.7-3.4c0-1.5,0.3-2.7,0.8-3.6
			c0.5-1,1.2-1.7,2-2.3c0.8-0.6,1.8-1,2.8-1.3c1-0.3,2.1-0.5,3.2-0.7c1.1-0.2,2.1-0.3,3.2-0.4c1-0.1,2-0.2,2.8-0.5s1.4-0.5,1.9-0.9
			c0.5-0.4,0.7-0.9,0.6-1.7c0-0.8-0.1-1.4-0.4-1.8s-0.6-0.8-1-1s-0.9-0.4-1.5-0.5c-0.5-0.1-1.1-0.1-1.8-0.1c-1.4,0-2.5,0.3-3.3,0.9
			c-0.8,0.6-1.3,1.6-1.4,3H923z M939.4,280.4c-0.3,0.3-0.7,0.5-1.1,0.6c-0.5,0.2-0.9,0.3-1.5,0.4c-0.5,0.1-1.1,0.2-1.6,0.2
			c-0.6,0.1-1.1,0.2-1.7,0.2c-0.5,0.1-1.1,0.2-1.6,0.4c-0.5,0.2-1,0.4-1.4,0.7s-0.7,0.6-0.9,1.1c-0.2,0.4-0.3,1-0.3,1.6
			c0,0.6,0.1,1.2,0.3,1.6c0.2,0.4,0.5,0.8,1,1s0.9,0.4,1.4,0.5c0.5,0.1,1.1,0.2,1.6,0.2c1.4,0,2.5-0.2,3.2-0.7s1.3-1,1.7-1.7
			c0.4-0.7,0.6-1.3,0.7-2c0.1-0.7,0.1-1.2,0.1-1.6V280.4z"/>
		<path d="M958.7,267.2v4.8h0.1c0.3-0.8,0.8-1.5,1.4-2.2c0.6-0.7,1.2-1.3,1.9-1.8c0.7-0.5,1.5-0.9,2.4-1.1c0.8-0.3,1.7-0.4,2.6-0.4
			c0.5,0,1,0.1,1.5,0.2v6.6c-0.3-0.1-0.7-0.1-1.2-0.2c-0.5,0-0.9-0.1-1.4-0.1c-1.3,0-2.4,0.2-3.3,0.7s-1.6,1-2.2,1.8
			s-0.9,1.6-1.2,2.6c-0.2,1-0.4,2.1-0.4,3.2V293H952v-25.9H958.7z"/>
		<path d="M979,286.8c1.1,1,2.6,1.5,4.6,1.5c1.4,0,2.7-0.4,3.7-1.1c1-0.7,1.7-1.5,1.9-2.3h6.2c-1,3.1-2.5,5.3-4.6,6.6
			c-2.1,1.3-4.6,2-7.5,2c-2,0-3.9-0.3-5.5-1c-1.6-0.7-3-1.6-4.2-2.8c-1.1-1.2-2-2.6-2.6-4.3c-0.6-1.7-0.9-3.5-0.9-5.5
			c0-1.9,0.3-3.7,1-5.4c0.6-1.7,1.5-3.1,2.7-4.3s2.6-2.2,4.2-2.9c1.6-0.7,3.4-1,5.4-1c2.2,0,4.1,0.4,5.8,1.3c1.6,0.9,3,2,4,3.4
			c1,1.4,1.8,3.1,2.3,4.9c0.5,1.8,0.6,3.8,0.5,5.8h-18.7C977.4,284.1,977.9,285.8,979,286.8z M987,273.2c-0.9-0.9-2.1-1.4-3.9-1.4
			c-1.1,0-2.1,0.2-2.8,0.6c-0.8,0.4-1.3,0.9-1.8,1.4c-0.5,0.6-0.8,1.2-1,1.8c-0.2,0.6-0.3,1.2-0.3,1.7h11.5
			C988.5,275.5,987.9,274.1,987,273.2z"/>
		<path d="M1006.7,267.2v3.6h0.1c0.9-1.5,2.1-2.6,3.5-3.3c1.4-0.7,2.9-1,4.4-1c1.9,0,3.5,0.3,4.7,0.8c1.2,0.5,2.2,1.2,2.9,2.2
			s1.2,2,1.5,3.3c0.3,1.3,0.4,2.8,0.4,4.4V293h-7.1v-14.6c0-2.1-0.3-3.7-1-4.8s-1.8-1.6-3.5-1.6c-1.9,0-3.3,0.6-4.2,1.7
			c-0.9,1.2-1.3,3-1.3,5.7V293h-7.1v-25.9H1006.7z"/>
		<path d="M1041.6,271.8c-1.1,0-2.1,0.3-2.8,0.8c-0.8,0.5-1.4,1.2-1.9,2c-0.5,0.8-0.8,1.7-1,2.7c-0.2,1-0.3,2-0.3,2.9
			c0,0.9,0.1,1.9,0.3,2.8s0.5,1.8,1,2.6c0.4,0.8,1.1,1.4,1.8,1.9s1.7,0.8,2.8,0.8c1.7,0,3-0.5,3.9-1.4c0.9-1,1.5-2.2,1.7-3.8h6.9
			c-0.5,3.4-1.8,6-4,7.9c-2.2,1.8-5,2.7-8.5,2.7c-1.9,0-3.7-0.3-5.3-1c-1.6-0.7-3-1.6-4.1-2.7c-1.1-1.2-2-2.6-2.7-4.2
			c-0.6-1.6-0.9-3.4-0.9-5.3c0-2,0.3-3.9,0.9-5.6c0.6-1.7,1.4-3.2,2.6-4.5s2.5-2.2,4.2-2.9c1.6-0.7,3.5-1,5.6-1c1.5,0,3,0.2,4.4,0.6
			c1.4,0.4,2.7,1,3.8,1.8c1.1,0.8,2,1.8,2.7,3s1.1,2.7,1.2,4.3h-7C1046.4,273.3,1044.6,271.8,1041.6,271.8z"/>
		<path d="M1067,300.7c-1.4,0.9-3.3,1.3-5.7,1.3c-0.7,0-1.5,0-2.2-0.1s-1.4-0.1-2.2-0.2V296c0.7,0.1,1.3,0.1,2,0.2s1.4,0.1,2.1,0.1
			c0.9-0.1,1.6-0.5,2.1-1.1c0.5-0.6,0.7-1.3,0.7-2.1c0-0.6-0.1-1.1-0.3-1.6l-9-24.2h7.5l5.9,17.7h0.1l5.7-17.7h7.3l-10.8,29.1
			C1069.4,298.3,1068.4,299.8,1067,300.7z"/>
		<path d="M1088.7,285.3v7.7c0,1.1-0.2,2.2-0.6,3.1c-0.4,1-1,1.8-1.7,2.5c-0.7,0.7-1.5,1.3-2.5,1.7c-1,0.4-2,0.8-3,0.9v-3.6
			c0.5-0.1,1-0.3,1.4-0.6c0.4-0.3,0.8-0.7,1.2-1.1c0.3-0.4,0.6-0.9,0.8-1.4c0.2-0.5,0.2-1,0.2-1.6h-3.6v-7.7H1088.7z"/>
		<path d="M412,335.1c0.1-1.7,0.5-3,1.2-4.1c0.7-1.1,1.7-2,2.8-2.7c1.1-0.7,2.4-1.1,3.8-1.4c1.4-0.3,2.8-0.4,4.3-0.4
			c1.3,0,2.6,0.1,4,0.3c1.3,0.2,2.5,0.5,3.6,1.1s2,1.3,2.7,2.2c0.7,1,1,2.2,1,3.8v13.5c0,1.2,0.1,2.3,0.2,3.3
			c0.1,1.1,0.4,1.9,0.7,2.4h-7.2c-0.1-0.4-0.2-0.8-0.3-1.2c-0.1-0.4-0.1-0.8-0.2-1.3c-1.1,1.2-2.5,2-4,2.5c-1.5,0.5-3.1,0.7-4.7,0.7
			c-1.2,0-2.4-0.1-3.4-0.4c-1.1-0.3-2-0.8-2.8-1.4c-0.8-0.6-1.4-1.4-1.9-2.4c-0.4-1-0.7-2.1-0.7-3.4c0-1.5,0.3-2.7,0.8-3.6
			c0.5-1,1.2-1.7,2-2.3c0.8-0.6,1.8-1,2.8-1.3c1.1-0.3,2.1-0.5,3.2-0.7c1.1-0.2,2.1-0.3,3.1-0.4c1-0.1,2-0.2,2.8-0.5
			s1.4-0.5,1.9-0.9c0.5-0.4,0.7-0.9,0.6-1.7c0-0.8-0.1-1.4-0.4-1.8s-0.6-0.8-1-1c-0.4-0.2-0.9-0.4-1.4-0.5c-0.6-0.1-1.1-0.1-1.8-0.1
			c-1.4,0-2.5,0.3-3.3,0.9c-0.8,0.6-1.3,1.6-1.4,3H412z M428.4,340.4c-0.3,0.3-0.7,0.5-1.1,0.6c-0.4,0.2-0.9,0.3-1.4,0.4
			c-0.5,0.1-1.1,0.2-1.6,0.2c-0.6,0.1-1.1,0.2-1.7,0.2c-0.5,0.1-1.1,0.2-1.6,0.4c-0.5,0.2-1,0.4-1.4,0.7c-0.4,0.3-0.7,0.6-0.9,1.1
			c-0.2,0.4-0.3,1-0.3,1.6c0,0.6,0.1,1.2,0.3,1.6c0.2,0.4,0.6,0.8,1,1s0.9,0.4,1.4,0.5c0.5,0.1,1.1,0.2,1.6,0.2
			c1.4,0,2.5-0.2,3.2-0.7c0.8-0.5,1.3-1,1.7-1.7c0.4-0.7,0.6-1.3,0.7-2c0.1-0.7,0.1-1.2,0.1-1.6V340.4z"/>
		<path d="M447.7,327.2v3.6h0.1c0.9-1.5,2.1-2.6,3.5-3.3c1.4-0.7,2.9-1,4.4-1c1.9,0,3.5,0.3,4.7,0.8c1.2,0.5,2.2,1.2,2.9,2.2
			c0.7,0.9,1.2,2,1.5,3.3c0.3,1.3,0.4,2.8,0.4,4.4V353h-7.1v-14.6c0-2.1-0.3-3.7-1-4.8c-0.7-1-1.9-1.6-3.6-1.6
			c-1.9,0-3.3,0.6-4.2,1.7c-0.9,1.2-1.3,3-1.3,5.7V353H441v-25.9H447.7z"/>
		<path d="M488.8,349.7c-0.8,1.4-1.9,2.4-3.3,3s-2.9,0.9-4.6,0.9c-1.9,0-3.6-0.4-5.1-1.1c-1.5-0.8-2.7-1.8-3.6-3
			c-1-1.3-1.7-2.8-2.1-4.4c-0.5-1.7-0.7-3.4-0.7-5.2c0-1.7,0.2-3.4,0.7-5c0.5-1.6,1.2-3,2.1-4.3c0.9-1.2,2.1-2.2,3.6-3
			c1.4-0.8,3.1-1.1,5-1.1c1.5,0,3,0.3,4.4,1c1.4,0.7,2.5,1.6,3.3,2.9h0.1v-13h7.1V353h-6.8v-3.3H488.8z M488.5,336.9
			c-0.2-1-0.5-1.8-1-2.6c-0.5-0.8-1.1-1.4-1.9-1.8c-0.8-0.5-1.7-0.7-2.9-0.7c-1.2,0-2.2,0.2-3,0.7s-1.4,1.1-1.9,1.8
			c-0.5,0.8-0.8,1.6-1.1,2.6c-0.2,1-0.3,2-0.3,3.1c0,1,0.1,2,0.3,3c0.2,1,0.6,1.9,1.1,2.7c0.5,0.8,1.2,1.4,2,1.9
			c0.8,0.5,1.7,0.7,2.8,0.7c1.2,0,2.1-0.2,2.9-0.7c0.8-0.5,1.4-1.1,1.9-1.9c0.5-0.8,0.8-1.7,1-2.7s0.3-2,0.3-3.1
			C488.8,338.9,488.7,337.9,488.5,336.9z"/>
		<path d="M527.2,331.8c-1.1,0-2.1,0.3-2.9,0.8c-0.8,0.5-1.4,1.2-1.9,2c-0.5,0.8-0.8,1.7-1,2.7c-0.2,1-0.3,2-0.3,2.9
			c0,0.9,0.1,1.9,0.3,2.8c0.2,1,0.5,1.8,1,2.6c0.5,0.8,1.1,1.4,1.8,1.9c0.8,0.5,1.7,0.8,2.8,0.8c1.7,0,3-0.5,3.9-1.4
			c0.9-1,1.5-2.2,1.7-3.8h6.8c-0.5,3.4-1.8,6-4,7.9c-2.2,1.8-5,2.7-8.4,2.7c-1.9,0-3.7-0.3-5.3-1c-1.6-0.7-3-1.6-4.1-2.7
			c-1.1-1.2-2-2.6-2.6-4.2c-0.6-1.6-1-3.4-1-5.3c0-2,0.3-3.9,0.9-5.6c0.6-1.7,1.4-3.2,2.6-4.5c1.1-1.2,2.5-2.2,4.1-2.9
			c1.6-0.7,3.5-1,5.6-1c1.5,0,3,0.2,4.4,0.6c1.4,0.4,2.7,1,3.8,1.8c1.1,0.8,2,1.8,2.7,3c0.7,1.2,1.1,2.7,1.2,4.3h-6.9
			C532,333.3,530.3,331.8,527.2,331.8z"/>
		<path d="M543.4,334.5c0.6-1.7,1.5-3.1,2.7-4.3c1.2-1.2,2.6-2.1,4.2-2.8c1.6-0.7,3.5-1,5.5-1s3.9,0.3,5.5,1
			c1.6,0.7,3.1,1.6,4.2,2.8c1.2,1.2,2.1,2.6,2.7,4.3c0.6,1.7,1,3.6,1,5.6c0,2.1-0.3,3.9-1,5.6c-0.6,1.7-1.5,3.1-2.7,4.3
			c-1.2,1.2-2.6,2.1-4.2,2.7c-1.7,0.6-3.5,0.9-5.5,0.9s-3.9-0.3-5.5-0.9c-1.6-0.6-3-1.5-4.2-2.7c-1.2-1.2-2.1-2.6-2.7-4.3
			s-0.9-3.5-0.9-5.6C542.5,338,542.8,336.2,543.4,334.5z M549.9,343.1c0.2,1,0.5,1.9,1,2.6c0.5,0.8,1.1,1.4,1.9,1.9
			c0.8,0.5,1.8,0.7,3,0.7s2.2-0.2,3-0.7c0.8-0.5,1.5-1.1,1.9-1.9c0.5-0.8,0.8-1.7,1-2.6s0.3-2,0.3-3c0-1-0.1-2-0.3-3s-0.5-1.9-1-2.7
			c-0.5-0.8-1.1-1.4-1.9-1.9c-0.8-0.5-1.8-0.7-3-0.7s-2.2,0.2-3,0.7c-0.8,0.5-1.4,1.1-1.9,1.9c-0.5,0.8-0.8,1.7-1,2.7s-0.3,2-0.3,3
			C549.6,341.1,549.7,342.2,549.9,343.1z"/>
		<path d="M580.3,327.2v3.6h0.1c0.9-1.5,2.1-2.6,3.5-3.3c1.4-0.7,2.9-1,4.4-1c1.9,0,3.5,0.3,4.7,0.8c1.2,0.5,2.2,1.2,2.9,2.2
			s1.2,2,1.5,3.3c0.3,1.3,0.4,2.8,0.4,4.4V353h-7.1v-14.6c0-2.1-0.3-3.7-1-4.8s-1.8-1.6-3.5-1.6c-1.9,0-3.3,0.6-4.2,1.7
			c-0.9,1.2-1.3,3-1.3,5.7V353h-7.1v-25.9H580.3z"/>
		<path d="M617,327.2v4.8h-5.2v12.8c0,1.2,0.2,2,0.6,2.4c0.4,0.4,1.2,0.6,2.4,0.6c0.4,0,0.8,0,1.1-0.1c0.4,0,0.7-0.1,1.1-0.1v5.5
			c-0.6,0.1-1.3,0.2-2,0.2c-0.7,0-1.5,0-2.2,0c-1.1,0-2.1-0.1-3.1-0.2c-1-0.1-1.8-0.4-2.6-0.9c-0.8-0.4-1.3-1-1.8-1.8
			c-0.4-0.8-0.7-1.8-0.7-3.2v-15.2h-4.3v-4.8h4.3v-7.8h7.1v7.8H617z"/>
		<path d="M620.8,323.2v-5.8h7.1v5.8H620.8z M627.9,327.2V353h-7.1v-25.9H627.9z"/>
		<path d="M640.2,327.2v3.6h0.1c0.9-1.5,2.1-2.6,3.5-3.3c1.4-0.7,2.9-1,4.4-1c1.9,0,3.5,0.3,4.7,0.8c1.2,0.5,2.2,1.2,2.9,2.2
			s1.2,2,1.5,3.3c0.3,1.3,0.4,2.8,0.4,4.4V353h-7.1v-14.6c0-2.1-0.3-3.7-1-4.8s-1.8-1.6-3.5-1.6c-1.9,0-3.3,0.6-4.2,1.7
			c-0.9,1.2-1.3,3-1.3,5.7V353h-7.1v-25.9H640.2z"/>
		<path d="M680.3,353v-3.6h-0.2c-0.9,1.5-2.1,2.6-3.5,3.2c-1.4,0.7-2.9,1-4.4,1c-1.9,0-3.5-0.2-4.7-0.8s-2.2-1.2-2.9-2.1
			c-0.7-0.9-1.2-2-1.5-3.3c-0.3-1.3-0.4-2.8-0.4-4.4v-15.9h7.1v14.6c0,2.1,0.3,3.7,1,4.8c0.7,1.1,1.9,1.6,3.5,1.6
			c1.9,0,3.3-0.6,4.2-1.7c0.9-1.2,1.3-3,1.3-5.7v-13.6h7.1V353H680.3z"/>
		<path d="M692.4,334.5c0.6-1.7,1.5-3.1,2.7-4.3c1.2-1.2,2.6-2.1,4.2-2.8c1.6-0.7,3.5-1,5.5-1s3.9,0.3,5.5,1
			c1.6,0.7,3.1,1.6,4.2,2.8c1.2,1.2,2.1,2.6,2.7,4.3c0.6,1.7,1,3.6,1,5.6c0,2.1-0.3,3.9-1,5.6c-0.6,1.7-1.5,3.1-2.7,4.3
			c-1.2,1.2-2.6,2.1-4.2,2.7c-1.7,0.6-3.5,0.9-5.5,0.9s-3.9-0.3-5.5-0.9c-1.6-0.6-3-1.5-4.2-2.7c-1.2-1.2-2.1-2.6-2.7-4.3
			s-0.9-3.5-0.9-5.6C691.4,338,691.7,336.2,692.4,334.5z M698.8,343.1c0.2,1,0.5,1.9,1,2.6c0.5,0.8,1.1,1.4,1.9,1.9
			c0.8,0.5,1.8,0.7,3,0.7s2.2-0.2,3-0.7c0.8-0.5,1.5-1.1,1.9-1.9c0.5-0.8,0.8-1.7,1-2.6s0.3-2,0.3-3c0-1-0.1-2-0.3-3s-0.5-1.9-1-2.7
			c-0.5-0.8-1.1-1.4-1.9-1.9c-0.8-0.5-1.8-0.7-3-0.7s-2.2,0.2-3,0.7c-0.8,0.5-1.4,1.1-1.9,1.9c-0.5,0.8-0.8,1.7-1,2.7s-0.3,2-0.3,3
			C698.5,341.1,698.6,342.2,698.8,343.1z"/>
		<path d="M739.9,353v-3.6h-0.2c-0.9,1.5-2.1,2.6-3.5,3.2c-1.4,0.7-2.9,1-4.4,1c-1.9,0-3.5-0.2-4.7-0.8s-2.2-1.2-2.9-2.1
			c-0.7-0.9-1.2-2-1.5-3.3c-0.3-1.3-0.4-2.8-0.4-4.4v-15.9h7.1v14.6c0,2.1,0.3,3.7,1,4.8c0.7,1.1,1.9,1.6,3.5,1.6
			c1.9,0,3.3-0.6,4.2-1.7c0.9-1.2,1.3-3,1.3-5.7v-13.6h7.1V353H739.9z"/>
		<path d="M758,346.6c0.3,0.5,0.7,1,1.2,1.3s1.1,0.6,1.7,0.8s1.3,0.2,2,0.2c0.5,0,1-0.1,1.6-0.2c0.6-0.1,1.1-0.3,1.5-0.5
			c0.5-0.2,0.8-0.6,1.1-1c0.3-0.4,0.5-0.9,0.5-1.6c0-1.1-0.7-1.9-2.1-2.4s-3.4-1.1-5.9-1.6c-1-0.2-2-0.5-3-0.8s-1.9-0.7-2.6-1.2
			s-1.4-1.2-1.8-2s-0.7-1.7-0.7-2.9c0-1.7,0.3-3,1-4.1c0.6-1.1,1.5-1.9,2.6-2.5c1.1-0.6,2.3-1,3.6-1.3c1.3-0.2,2.7-0.4,4.1-0.4
			c1.4,0,2.8,0.1,4.1,0.4c1.3,0.3,2.5,0.7,3.5,1.4c1,0.6,1.9,1.5,2.6,2.5s1.1,2.4,1.2,4h-6.8c-0.1-1.4-0.6-2.3-1.5-2.8
			c-0.9-0.5-2-0.7-3.3-0.7c-0.4,0-0.8,0-1.3,0.1c-0.5,0.1-0.9,0.2-1.3,0.3c-0.4,0.2-0.7,0.4-1,0.7s-0.4,0.7-0.4,1.3
			c0,0.6,0.2,1.2,0.7,1.5c0.5,0.4,1.1,0.7,1.8,1s1.6,0.5,2.6,0.7s2,0.4,3,0.7c1,0.2,2,0.5,3,0.8c1,0.3,1.9,0.8,2.6,1.3
			s1.4,1.2,1.9,2c0.5,0.8,0.7,1.8,0.7,3c0,1.7-0.3,3.1-1,4.3c-0.7,1.2-1.6,2.1-2.7,2.8c-1.1,0.7-2.4,1.2-3.8,1.5
			c-1.4,0.3-2.9,0.4-4.3,0.4c-1.5,0-3-0.1-4.4-0.4c-1.4-0.3-2.7-0.8-3.8-1.5c-1.1-0.7-2-1.6-2.8-2.8s-1.1-2.6-1.2-4.3h6.8
			C757.5,345.4,757.7,346,758,346.6z"/>
		<path d="M793,323.2v-5.8h7.1v5.8H793z M800.1,327.2V353H793v-25.9H800.1z"/>
		<path d="M812.4,327.2v3.5h0.1c0.9-1.3,2.1-2.4,3.4-3.1c1.3-0.7,2.8-1.1,4.5-1.1c1.6,0,3.1,0.3,4.5,0.9c1.3,0.6,2.4,1.8,3.1,3.4
			c0.8-1.1,1.8-2.1,3.1-3c1.3-0.9,2.9-1.3,4.7-1.3c1.4,0,2.6,0.2,3.8,0.5c1.2,0.3,2.2,0.9,3,1.6c0.8,0.7,1.5,1.7,2,2.9
			c0.5,1.2,0.7,2.6,0.7,4.3V353h-7.1v-14.7c0-0.9,0-1.7-0.1-2.5c-0.1-0.8-0.2-1.4-0.5-2c-0.3-0.6-0.7-1-1.3-1.3
			c-0.6-0.3-1.4-0.5-2.4-0.5s-1.8,0.2-2.4,0.6c-0.6,0.4-1.1,0.9-1.5,1.5c-0.4,0.6-0.6,1.3-0.7,2.1c-0.1,0.8-0.2,1.6-0.2,2.4V353
			h-7.1v-14.5c0-0.8,0-1.5,0-2.3s-0.2-1.4-0.4-2.1c-0.2-0.6-0.7-1.1-1.2-1.5c-0.6-0.4-1.4-0.6-2.6-0.6c-0.3,0-0.8,0.1-1.3,0.2
			c-0.5,0.2-1.1,0.4-1.6,0.9c-0.5,0.4-1,1-1.3,1.8c-0.4,0.8-0.5,1.8-0.5,3.1v15h-7.1v-25.9H812.4z"/>
		<path d="M857.4,327.2v3.3h0.1c0.9-1.4,2-2.4,3.3-3.1c1.3-0.6,2.8-0.9,4.4-0.9c2,0,3.8,0.4,5.2,1.1c1.5,0.8,2.7,1.8,3.7,3
			c1,1.3,1.7,2.7,2.1,4.4s0.7,3.4,0.7,5.3c0,1.7-0.2,3.4-0.7,5c-0.5,1.6-1.2,3-2.1,4.2c-1,1.2-2.1,2.2-3.5,3c-1.4,0.7-3.1,1.1-5,1.1
			c-1.6,0-3.1-0.3-4.4-1c-1.3-0.7-2.5-1.6-3.3-2.9h-0.1v12.2h-7.1v-34.9H857.4z M866.6,347.7c0.8-0.5,1.4-1.1,1.9-1.8
			c0.5-0.8,0.8-1.6,1-2.6c0.2-1,0.3-2,0.3-3.1c0-1-0.1-2-0.3-3c-0.2-1-0.6-1.9-1.1-2.7s-1.1-1.4-1.9-1.9c-0.8-0.5-1.7-0.7-2.9-0.7
			c-1.2,0-2.1,0.2-2.9,0.7c-0.8,0.5-1.4,1.1-1.9,1.9c-0.5,0.8-0.8,1.7-1,2.7c-0.2,1-0.3,2-0.3,3.1c0,1,0.1,2.1,0.3,3.1
			s0.6,1.9,1,2.6s1.1,1.4,1.9,1.8c0.8,0.5,1.8,0.7,2.9,0.7C864.8,348.4,865.8,348.1,866.6,347.7z"/>
		<path d="M887.8,327.2v4.8h0.1c0.3-0.8,0.8-1.5,1.4-2.2c0.6-0.7,1.2-1.3,1.9-1.8c0.7-0.5,1.5-0.9,2.4-1.1c0.8-0.3,1.7-0.4,2.6-0.4
			c0.5,0,1,0.1,1.5,0.2v6.6c-0.3-0.1-0.7-0.1-1.2-0.2c-0.5,0-0.9-0.1-1.4-0.1c-1.3,0-2.4,0.2-3.3,0.7s-1.6,1-2.2,1.8
			s-0.9,1.6-1.2,2.6c-0.2,1-0.4,2.1-0.4,3.2V353h-7.1v-25.9H887.8z"/>
		<path d="M900.5,334.5c0.6-1.7,1.5-3.1,2.7-4.3c1.2-1.2,2.6-2.1,4.2-2.8c1.6-0.7,3.5-1,5.5-1s3.9,0.3,5.5,1
			c1.6,0.7,3.1,1.6,4.2,2.8c1.2,1.2,2.1,2.6,2.7,4.3c0.6,1.7,1,3.6,1,5.6c0,2.1-0.3,3.9-1,5.6c-0.6,1.7-1.5,3.1-2.7,4.3
			c-1.2,1.2-2.6,2.1-4.2,2.7c-1.7,0.6-3.5,0.9-5.5,0.9s-3.9-0.3-5.5-0.9c-1.6-0.6-3-1.5-4.2-2.7c-1.2-1.2-2.1-2.6-2.7-4.3
			s-0.9-3.5-0.9-5.6C899.6,338,899.9,336.2,900.5,334.5z M907,343.1c0.2,1,0.5,1.9,1,2.6c0.5,0.8,1.1,1.4,1.9,1.9
			c0.8,0.5,1.8,0.7,3,0.7s2.2-0.2,3-0.7c0.8-0.5,1.5-1.1,1.9-1.9c0.5-0.8,0.8-1.7,1-2.6s0.3-2,0.3-3c0-1-0.1-2-0.3-3s-0.5-1.9-1-2.7
			c-0.5-0.8-1.1-1.4-1.9-1.9c-0.8-0.5-1.8-0.7-3-0.7s-2.2,0.2-3,0.7c-0.8,0.5-1.4,1.1-1.9,1.9c-0.5,0.8-0.8,1.7-1,2.7s-0.3,2-0.3,3
			C906.7,341.1,906.8,342.2,907,343.1z"/>
		<path d="M936,353l-8.8-25.9h7.5l5.5,17.7h0.1l5.5-17.7h7l-8.8,25.9H936z"/>
		<path d="M962.1,346.8c1.1,1,2.6,1.5,4.6,1.5c1.4,0,2.7-0.4,3.7-1.1c1-0.7,1.7-1.5,1.9-2.3h6.2c-1,3.1-2.5,5.3-4.6,6.6
			c-2.1,1.3-4.6,2-7.5,2c-2,0-3.9-0.3-5.5-1c-1.6-0.7-3-1.6-4.2-2.8c-1.1-1.2-2-2.6-2.6-4.3c-0.6-1.7-0.9-3.5-0.9-5.5
			c0-1.9,0.3-3.7,1-5.4c0.6-1.7,1.5-3.1,2.7-4.3s2.6-2.2,4.2-2.9c1.6-0.7,3.4-1,5.4-1c2.2,0,4.1,0.4,5.8,1.3c1.6,0.9,3,2,4,3.4
			c1,1.4,1.8,3.1,2.3,4.9c0.5,1.8,0.6,3.8,0.5,5.8h-18.7C960.4,344.1,961,345.8,962.1,346.8z M970.1,333.2c-0.9-0.9-2.1-1.4-3.9-1.4
			c-1.1,0-2.1,0.2-2.8,0.6c-0.8,0.4-1.3,0.9-1.8,1.4c-0.5,0.6-0.8,1.2-1,1.8c-0.2,0.6-0.3,1.2-0.3,1.7h11.5
			C971.5,335.5,971,334.1,970.1,333.2z"/>
		<path d="M989.8,327.2v3.5h0.1c0.9-1.3,2.1-2.4,3.4-3.1c1.3-0.7,2.8-1.1,4.5-1.1c1.6,0,3.1,0.3,4.5,0.9c1.3,0.6,2.4,1.8,3.1,3.4
			c0.8-1.1,1.8-2.1,3.1-3c1.3-0.9,2.9-1.3,4.7-1.3c1.4,0,2.6,0.2,3.8,0.5c1.2,0.3,2.2,0.9,3,1.6c0.8,0.7,1.5,1.7,2,2.9
			c0.5,1.2,0.7,2.6,0.7,4.3V353h-7.1v-14.7c0-0.9,0-1.7-0.1-2.5c-0.1-0.8-0.2-1.4-0.5-2c-0.3-0.6-0.7-1-1.3-1.3
			c-0.6-0.3-1.4-0.5-2.4-0.5s-1.8,0.2-2.4,0.6c-0.6,0.4-1.1,0.9-1.5,1.5c-0.4,0.6-0.6,1.3-0.7,2.1c-0.1,0.8-0.2,1.6-0.2,2.4V353
			h-7.1v-14.5c0-0.8,0-1.5,0-2.3s-0.2-1.4-0.4-2.1c-0.2-0.6-0.7-1.1-1.2-1.5c-0.6-0.4-1.4-0.6-2.6-0.6c-0.3,0-0.8,0.1-1.3,0.2
			c-0.5,0.2-1.1,0.4-1.6,0.9c-0.5,0.4-1,1-1.3,1.8c-0.4,0.8-0.5,1.8-0.5,3.1v15h-7.1v-25.9H989.8z"/>
		<path d="M1035.6,346.8c1.1,1,2.6,1.5,4.6,1.5c1.4,0,2.7-0.4,3.7-1.1c1-0.7,1.7-1.5,1.9-2.3h6.2c-1,3.1-2.5,5.3-4.6,6.6
			c-2.1,1.3-4.6,2-7.5,2c-2,0-3.9-0.3-5.5-1c-1.6-0.7-3-1.6-4.2-2.8c-1.1-1.2-2-2.6-2.6-4.3c-0.6-1.7-0.9-3.5-0.9-5.5
			c0-1.9,0.3-3.7,1-5.4c0.6-1.7,1.5-3.1,2.7-4.3s2.6-2.2,4.2-2.9c1.6-0.7,3.4-1,5.4-1c2.2,0,4.1,0.4,5.8,1.3c1.6,0.9,3,2,4,3.4
			c1,1.4,1.8,3.1,2.3,4.9c0.5,1.8,0.6,3.8,0.5,5.8h-18.7C1033.9,344.1,1034.5,345.8,1035.6,346.8z M1043.6,333.2
			c-0.9-0.9-2.1-1.4-3.9-1.4c-1.1,0-2.1,0.2-2.8,0.6c-0.8,0.4-1.3,0.9-1.8,1.4c-0.5,0.6-0.8,1.2-1,1.8c-0.2,0.6-0.3,1.2-0.3,1.7
			h11.5C1045.1,335.5,1044.5,334.1,1043.6,333.2z"/>
		<path d="M1063.3,327.2v3.6h0.1c0.9-1.5,2.1-2.6,3.5-3.3c1.4-0.7,2.9-1,4.4-1c1.9,0,3.5,0.3,4.7,0.8c1.2,0.5,2.2,1.2,2.9,2.2
			s1.2,2,1.5,3.3c0.3,1.3,0.4,2.8,0.4,4.4V353h-7.1v-14.6c0-2.1-0.3-3.7-1-4.8s-1.8-1.6-3.5-1.6c-1.9,0-3.3,0.6-4.2,1.7
			c-0.9,1.2-1.3,3-1.3,5.7V353h-7.1v-25.9H1063.3z"/>
		<path d="M1100,327.2v4.8h-5.2v12.8c0,1.2,0.2,2,0.6,2.4c0.4,0.4,1.2,0.6,2.4,0.6c0.4,0,0.8,0,1.1-0.1c0.4,0,0.7-0.1,1.1-0.1v5.5
			c-0.6,0.1-1.3,0.2-2,0.2c-0.7,0-1.5,0-2.2,0c-1.1,0-2.1-0.1-3.1-0.2c-1-0.1-1.8-0.4-2.6-0.9c-0.8-0.4-1.3-1-1.8-1.8
			c-0.4-0.8-0.7-1.8-0.7-3.2v-15.2h-4.3v-4.8h4.3v-7.8h7.1v7.8H1100z"/>
		<path d="M1112.3,345.3v7.7h-7.8v-7.7H1112.3z"/>
	</g>
</g>
<g id="Guides">
</g>
</svg>
