<?xml version="1.0" encoding="utf-8"?>
<!-- Generator: Adobe Illustrator 24.3.0, SVG Export Plug-In . SVG Version: 6.00 Build 0)  -->
<svg version="1.1" id="Layer_1" xmlns="http://www.w3.org/2000/svg" xmlns:xlink="http://www.w3.org/1999/xlink" x="0px" y="0px"
	 viewBox="0 0 257.3 85.1" style="enable-background:new 0 0 257.3 85.1;" xml:space="preserve">
<style type="text/css">
	.st0{fill:#F5F5F5;}
	.st1{fill:#575756;}
	.st2{fill:#AD1820;}
	.st3{fill:#E5332A;}
	.st4{fill:#F6A723;}
	.st5{fill:#E84E1B;}
	.st6{fill:#FAA634;}
	.st7{fill:none;stroke:#9C9B9B;stroke-width:3;stroke-miterlimit:10;}
	.st8{fill:#9C9B9B;}
	.st9{fill:#1D1D1B;}
	.st10{clip-path:url(#SVGID_2_);}
	.st11{clip-path:url(#SVGID_4_);}
	.st12{clip-path:url(#SVGID_6_);}
	.st13{fill:none;stroke:#AD1820;stroke-width:2.7971;stroke-miterlimit:10;}
	.st14{fill:#FFFFFF;}
	.st15{fill:#C6C6C5;}
	.st16{fill:#868686;}
	.st17{fill:#3C3C3B;}
	.st18{opacity:0.52;fill:#AD1820;}
	.st19{fill:none;stroke:#AD1820;stroke-width:4.3435;stroke-miterlimit:10;}
	.st20{fill:none;stroke:#E5332A;stroke-width:4.3435;stroke-miterlimit:10;}
	.st21{fill:#B1B1B1;}
	.st22{fill:#DD4D02;}
	.st23{fill:#A4A4A4;}
</style>
<g>
	<g>
		<path class="st1" d="M69.6,46.6v-9.2H73c0.8,0,1.4,0.1,2,0.4c0.6,0.2,1,0.6,1.4,1c0.4,0.4,0.7,0.9,0.9,1.5
			c0.2,0.6,0.3,1.2,0.3,1.8c0,0.7-0.1,1.3-0.3,1.9c-0.2,0.6-0.5,1.1-0.9,1.5s-0.9,0.7-1.4,0.9c-0.6,0.2-1.2,0.3-1.9,0.3H69.6z
			 M75.7,42c0-0.4-0.1-0.8-0.2-1.2c-0.1-0.4-0.3-0.7-0.5-1c-0.2-0.3-0.5-0.5-0.9-0.6C73.8,39.1,73.4,39,73,39h-1.6v6.1H73
			c0.4,0,0.8-0.1,1.2-0.2c0.3-0.2,0.6-0.4,0.9-0.6c0.2-0.3,0.4-0.6,0.5-1C75.7,42.8,75.7,42.4,75.7,42z"/>
		<path class="st1" d="M80.3,46.6v-9.2h1.8v9.2H80.3z"/>
		<path class="st1" d="M91.5,45.6c-0.7,0.7-1.5,1.1-2.5,1.1c-0.6,0-1.1-0.1-1.7-0.4c-0.5-0.3-1-0.6-1.4-1c-0.4-0.4-0.7-0.9-0.9-1.5
			c-0.2-0.6-0.3-1.2-0.3-1.8c0-0.6,0.1-1.2,0.3-1.8c0.2-0.6,0.5-1,0.9-1.5c0.4-0.4,0.9-0.8,1.4-1s1.1-0.4,1.7-0.4
			c0.8,0,1.6,0.2,2.2,0.5c0.6,0.4,1,0.9,1.4,1.5l-1.3,1c-0.2-0.5-0.5-0.8-0.9-1.1c-0.4-0.2-0.8-0.4-1.3-0.4c-0.4,0-0.7,0.1-1,0.2
			c-0.3,0.2-0.6,0.4-0.8,0.7s-0.4,0.6-0.5,1s-0.2,0.8-0.2,1.2c0,0.4,0.1,0.8,0.2,1.2c0.1,0.4,0.3,0.7,0.5,1c0.2,0.3,0.5,0.5,0.8,0.7
			c0.3,0.2,0.7,0.2,1,0.2c0.8,0,1.6-0.4,2.3-1.3v-0.6h-1.9v-1.3H93v4.7h-1.5V45.6z"/>
		<path class="st1" d="M95.8,46.6v-9.2h1.8v9.2H95.8z"/>
		<path class="st1" d="M107.7,39h-2.9v7.7H103V39h-3v-1.6h7.7V39z"/>
		<path class="st1" d="M108.4,46.6l3.6-9.2h1.5l3.6,9.2h-1.9l-0.8-2.3h-3.2l-0.8,2.3H108.4z M112.8,39.3l-1.3,3.7h2.6L112.8,39.3z"
			/>
		<path class="st1" d="M119.4,46.6v-9.2h1.8v7.7h4.7v1.6H119.4z"/>
		<path class="st1" d="M137.9,39.8c-0.1-0.1-0.2-0.1-0.3-0.2c-0.2-0.1-0.4-0.2-0.6-0.3s-0.5-0.2-0.7-0.3s-0.5-0.1-0.8-0.1
			c-0.5,0-0.9,0.1-1.1,0.3c-0.2,0.2-0.4,0.4-0.4,0.8c0,0.2,0,0.3,0.1,0.5c0.1,0.1,0.2,0.2,0.4,0.3c0.2,0.1,0.4,0.2,0.7,0.3
			c0.3,0.1,0.6,0.2,0.9,0.2c0.5,0.1,0.9,0.3,1.2,0.4s0.7,0.3,0.9,0.5c0.3,0.2,0.5,0.5,0.6,0.7c0.1,0.3,0.2,0.6,0.2,1.1
			c0,0.5-0.1,0.9-0.3,1.3c-0.2,0.4-0.4,0.6-0.7,0.9c-0.3,0.2-0.7,0.4-1.1,0.5s-0.8,0.1-1.3,0.1c-0.7,0-1.4-0.1-2.1-0.3
			s-1.3-0.5-1.8-0.9l0.8-1.5c0.1,0.1,0.2,0.2,0.4,0.3c0.2,0.1,0.4,0.3,0.7,0.4c0.3,0.1,0.6,0.2,0.9,0.3s0.7,0.1,1,0.1
			c1,0,1.5-0.3,1.5-0.9c0-0.2-0.1-0.4-0.2-0.5c-0.1-0.1-0.3-0.3-0.5-0.4c-0.2-0.1-0.5-0.2-0.8-0.3c-0.3-0.1-0.6-0.2-1-0.3
			c-0.4-0.1-0.8-0.3-1.2-0.4c-0.3-0.1-0.6-0.3-0.8-0.5s-0.4-0.4-0.5-0.7c-0.1-0.3-0.2-0.6-0.2-0.9c0-0.5,0.1-0.9,0.3-1.2
			c0.2-0.4,0.4-0.7,0.7-0.9c0.3-0.2,0.7-0.4,1.1-0.6c0.4-0.1,0.8-0.2,1.3-0.2c0.7,0,1.2,0.1,1.8,0.3c0.5,0.2,1,0.4,1.4,0.7
			L137.9,39.8z"/>
		<path class="st1" d="M142.4,37.4l2.3,4.4l2.3-4.4h1.9l-3.4,6v3.2h-1.8v-3.2l-3.3-6H142.4z"/>
		<path class="st1" d="M156.3,39.8c-0.1-0.1-0.2-0.1-0.3-0.2c-0.2-0.1-0.4-0.2-0.6-0.3s-0.5-0.2-0.7-0.3s-0.5-0.1-0.8-0.1
			c-0.5,0-0.9,0.1-1.1,0.3c-0.2,0.2-0.4,0.4-0.4,0.8c0,0.2,0,0.3,0.1,0.5c0.1,0.1,0.2,0.2,0.4,0.3c0.2,0.1,0.4,0.2,0.7,0.3
			c0.3,0.1,0.6,0.2,0.9,0.2c0.5,0.1,0.9,0.3,1.2,0.4s0.7,0.3,0.9,0.5c0.3,0.2,0.5,0.5,0.6,0.7c0.1,0.3,0.2,0.6,0.2,1.1
			c0,0.5-0.1,0.9-0.3,1.3c-0.2,0.4-0.4,0.6-0.7,0.9c-0.3,0.2-0.7,0.4-1.1,0.5s-0.8,0.1-1.3,0.1c-0.7,0-1.4-0.1-2.1-0.3
			s-1.3-0.5-1.8-0.9l0.8-1.5c0.1,0.1,0.2,0.2,0.4,0.3c0.2,0.1,0.4,0.3,0.7,0.4c0.3,0.1,0.6,0.2,0.9,0.3s0.7,0.1,1,0.1
			c1,0,1.5-0.3,1.5-0.9c0-0.2-0.1-0.4-0.2-0.5c-0.1-0.1-0.3-0.3-0.5-0.4c-0.2-0.1-0.5-0.2-0.8-0.3c-0.3-0.1-0.6-0.2-1-0.3
			c-0.4-0.1-0.8-0.3-1.2-0.4c-0.3-0.1-0.6-0.3-0.8-0.5s-0.4-0.4-0.5-0.7c-0.1-0.3-0.2-0.6-0.2-0.9c0-0.5,0.1-0.9,0.3-1.2
			c0.2-0.4,0.4-0.7,0.7-0.9c0.3-0.2,0.7-0.4,1.1-0.6c0.4-0.1,0.8-0.2,1.3-0.2c0.7,0,1.2,0.1,1.8,0.3c0.5,0.2,1,0.4,1.4,0.7
			L156.3,39.8z"/>
		<path class="st1" d="M166.9,39H164v7.7h-1.8V39h-3v-1.6h7.7V39z"/>
		<path class="st1" d="M175.8,45.1v1.6h-6.4v-9.2h6.3V39h-4.5v2.2h3.9v1.5h-3.9v2.4H175.8z"/>
		<path class="st1" d="M186.1,46.6v-6.1l-2.4,4.6h-1l-2.4-4.6v6.1h-1.8v-9.2h1.9l2.7,5.3l2.8-5.3h1.9v9.2H186.1z"/>
	</g>
	<path class="st2" d="M42.2,82C22,82,5.3,66.7,3,47.1H0C2.3,68.4,20.4,85,42.2,85h80.7v-3H42.2z"/>
	<path class="st3" d="M254.2,46c-1.8,20.1-18.7,36-39.3,36h-37.3v0.1l-44.1,0v3l44.8,0V85h37.6v0c21.8-0.5,39.6-17.5,41.3-38.9
		H254.2z"/>
	<path class="st4" d="M122.9,0H42.2C20.8,0,3.1,15.9,0.2,36.5h3C6.1,17.6,22.5,3,42.2,3h80.7V0z"/>
	<path class="st5" d="M215.9,0L215.9,0l-82.4,0v3h81.4c19.4,0,35.5,14,38.9,32.5h3C253.5,15.7,236.5,0.5,215.9,0z"/>
</g>
</svg>
