<?xml version="1.0" encoding="utf-8"?>
<!-- Generator: Adobe Illustrator 24.3.0, SVG Export Plug-In . SVG Version: 6.00 Build 0)  -->
<svg version="1.1" id="Layer_1" xmlns="http://www.w3.org/2000/svg" xmlns:xlink="http://www.w3.org/1999/xlink" x="0px" y="0px"
	 viewBox="0 0 59.7 55.7" style="enable-background:new 0 0 59.7 55.7;" xml:space="preserve">
<style type="text/css">
	.st0{fill:#F5F5F5;}
	.st1{fill:#575756;}
	.st2{fill:#AD1820;}
	.st3{fill:#E5332A;}
	.st4{fill:#F6A723;}
	.st5{fill:#E84E1B;}
	.st6{fill:#FAA634;}
	.st7{fill:none;stroke:#9C9B9B;stroke-width:3;stroke-miterlimit:10;}
	.st8{fill:#9C9B9B;}
	.st9{fill:#1D1D1B;}
	.st10{clip-path:url(#SVGID_2_);}
	.st11{clip-path:url(#SVGID_4_);}
	.st12{clip-path:url(#SVGID_6_);}
	.st13{fill:none;stroke:#AD1820;stroke-width:2.7971;stroke-miterlimit:10;}
	.st14{fill:#FFFFFF;}
	.st15{fill:#C6C6C5;}
	.st16{fill:#868686;}
	.st17{fill:#3C3C3B;}
	.st18{opacity:0.52;fill:#AD1820;}
	.st19{fill:none;stroke:#AD1820;stroke-width:4.3435;stroke-miterlimit:10;}
	.st20{fill:none;stroke:#E5332A;stroke-width:4.3435;stroke-miterlimit:10;}
	.st21{fill:#B1B1B1;}
	.st22{fill:#DD4D02;}
	.st23{fill:#A4A4A4;}
</style>
<g>
	<path class="st5" d="M42,49.8c-0.5-0.1-1.1,0.2-1.2,0.7l-1,4c-0.1,0.5,0.2,1.1,0.7,1.2c0.1,0,0.2,0,0.2,0c0.4,0,0.9-0.3,1-0.8l1-4
		C42.9,50.5,42.6,49.9,42,49.8L42,49.8z M42,49.8"/>
	<path class="st5" d="M29.9,29.9c0.1,0,0.3,0,0.4-0.1l10.9-4.5c0.5-0.2,0.7-0.8,0.5-1.3c-0.2-0.5-0.8-0.7-1.3-0.5l-10.6,4.4L2,16.3
		v-0.3c0-0.5-0.4-1-1-1c-0.5,0-1,0.4-1,1v1c0,0.4,0.2,0.8,0.6,0.9l28.9,11.9C29.6,29.8,29.7,29.9,29.9,29.9L29.9,29.9z M29.9,29.9"
		/>
	<path class="st5" d="M41.7,40.1c-0.2-0.5-0.8-0.7-1.3-0.5c-1.9,0.9-5,2-9.5,2.2v-8.9c0-0.5-0.4-1-1-1c-0.5,0-1,0.4-1,1v8.9
		c-12.4-0.4-16.3-7.9-16.9-9.1v-6.8c0-0.5-0.4-1-1-1c-0.5,0-1,0.4-1,1v7c0,0.1,0,0.3,0.1,0.4c0.2,0.4,4.4,10.6,19.8,10.6
		c5.4,0,9.2-1.3,11.4-2.4C41.7,41.1,41.9,40.5,41.7,40.1L41.7,40.1z M41.7,40.1"/>
	<path class="st5" d="M44.8,50.8c-0.6,0-1,0.4-1,1v3c0,0.5,0.4,1,1,1c0.6,0,1-0.4,1-1v-3C45.8,51.2,45.3,50.8,44.8,50.8L44.8,50.8z
		 M44.8,50.8"/>
	<path class="st5" d="M58.7,14.9c-0.6,0-1,0.4-1,1v0.3l-11.9,4.9v-1.8l13.3-5.5c0.4-0.2,0.6-0.5,0.6-0.9c0-0.4-0.2-0.8-0.6-0.9
		L30.2,0.1C30,0,29.7,0,29.5,0.1L0.6,12C0.2,12.2,0,12.5,0,12.9c0,0.4,0.2,0.8,0.6,0.9l28.9,11.9c0.1,0.1,0.3,0.1,0.4,0.1
		s0.3,0,0.4-0.1l10.4-4.3c0.5-0.2,0.7-0.8,0.5-1.3c-0.2-0.5-0.8-0.7-1.3-0.5l-10.1,4.2L3.6,12.9L29.9,2.1l26.3,10.9l-11.4,4.7
		l-10.9-4.1c0.1-0.2,0.1-0.4,0.1-0.6c0-1.7-1.7-3-4-3c-2.2,0-4,1.3-4,3c0,1.7,1.7,3,4,3c1,0,1.9-0.3,2.6-0.7l11.4,4.2V44
		c-1.2,0.4-2,1.5-2,2.8c0,1.6,1.3,3,3,3c1.6,0,3-1.3,3-3c0-1.3-0.8-2.4-2-2.8v-5.6c2.9-2.2,3.9-5,3.9-5.2c0-0.1,0.1-0.2,0.1-0.3v-7
		c0-0.5-0.4-1-1-1c-0.6,0-1,0.4-1,1v6.8c-0.2,0.4-0.8,1.7-2,3V23.3l13.3-5.5c0.4-0.2,0.6-0.5,0.6-0.9v-1
		C59.7,15.4,59.3,14.9,58.7,14.9L58.7,14.9z M29.9,13.9c-1.2,0-2-0.6-2-1c0-0.4,0.8-1,2-1c1.2,0,2,0.6,2,1
		C31.9,13.3,31.1,13.9,29.9,13.9L29.9,13.9z M44.8,47.8c-0.5,0-1-0.4-1-1c0-0.5,0.4-1,1-1c0.5,0,1,0.4,1,1
		C45.8,47.3,45.3,47.8,44.8,47.8L44.8,47.8z M44.8,47.8"/>
	<path class="st5" d="M48.7,50.5c-0.1-0.5-0.7-0.9-1.2-0.7c-0.5,0.1-0.9,0.7-0.7,1.2l1,4c0.1,0.5,0.5,0.8,1,0.8c0.1,0,0.2,0,0.2,0
		c0.5-0.1,0.9-0.7,0.7-1.2L48.7,50.5z M48.7,50.5"/>
</g>
</svg>
