<?xml version="1.0" encoding="utf-8"?>
<!-- Generator: Adobe Illustrator 24.3.0, SVG Export Plug-In . SVG Version: 6.00 Build 0)  -->
<svg version="1.1" id="Layer_1" xmlns="http://www.w3.org/2000/svg" xmlns:xlink="http://www.w3.org/1999/xlink" x="0px" y="0px"
	 viewBox="0 0 58.8 56.7" style="enable-background:new 0 0 58.8 56.7;" xml:space="preserve">
<style type="text/css">
	.st0{fill:#F5F5F5;}
	.st1{fill:#575756;}
	.st2{fill:#AD1820;}
	.st3{fill:#E5332A;}
	.st4{fill:#F6A723;}
	.st5{fill:#E84E1B;}
	.st6{fill:#FAA634;}
	.st7{fill:none;stroke:#9C9B9B;stroke-width:3;stroke-miterlimit:10;}
	.st8{fill:#9C9B9B;}
	.st9{fill:#1D1D1B;}
	.st10{clip-path:url(#SVGID_2_);}
	.st11{clip-path:url(#SVGID_4_);}
	.st12{clip-path:url(#SVGID_6_);}
	.st13{fill:none;stroke:#AD1820;stroke-width:2.7971;stroke-miterlimit:10;}
	.st14{fill:#FFFFFF;}
	.st15{fill:#C6C6C5;}
	.st16{fill:#868686;}
	.st17{fill:#3C3C3B;}
	.st18{opacity:0.52;fill:#AD1820;}
	.st19{fill:none;stroke:#AD1820;stroke-width:4.3435;stroke-miterlimit:10;}
	.st20{fill:none;stroke:#E5332A;stroke-width:4.3435;stroke-miterlimit:10;}
	.st21{fill:#B1B1B1;}
	.st22{fill:#DD4D02;}
	.st23{fill:#A4A4A4;}
</style>
<g>
	<path class="st5" d="M28,2.1c1.6,0,3.2,0.7,4.4,1.8l0.7,0.7l1.5,1.5L36,4.6l0.7-0.7c1.2-1.2,2.8-1.8,4.4-1.8c1.4,0,2.8,0.5,3.8,1.5
		c1.1,1.1,1.8,2.5,1.8,4.1c0,1.6-0.6,3-1.7,4.1L34.5,22.2L24.1,11.8c-1.1-1.1-1.7-2.6-1.7-4.1s0.7-3,1.8-4.1
		C25.2,2.6,26.5,2.1,28,2.1 M28,0c-1.9,0-3.8,0.7-5.2,2c-3.2,3-3.3,8.1-0.2,11.2l12,12l12-12c3.1-3.1,3-8.2-0.2-11.2
		c-1.5-1.4-3.3-2-5.2-2c-2.1,0-4.3,0.8-5.9,2.4l-0.7,0.7l-0.7-0.7C32.3,0.8,30.1,0,28,0z"/>
	<path class="st5" d="M20,31.5c1.7,0,3.3,0.4,4.7,1.1c1.7,0.9,3.6,1,5.5,1c0,0,0.8,0,4.8,0c0,0,2.8,0,2.8,2.1c0,1.4-1.7,2.1-2.8,2.1
		h-6.8c-1.5,0-3,1.1-3,3.3c0,1.7,1.3,3,3,3l11.8,0c0,0,12.4-10.3,13.4-10.9s2.2-0.9,3.2-0.4l-14.2,16c-1.2,1-2.7,1.6-4.3,1.6
		l-22.3,0l-3.2,3.3L3,44.1l9.8-9.7C14.6,32.6,17.2,31.5,20,31.5 M20,29.4c-3.5,0-6.6,1.4-8.7,3.6L0,44.1l12.6,12.6l4.2-4.2h21.3
		c2.1,0,4.2-0.8,5.7-2.2l14.4-16.1c0.9-0.8,0.8-2.2-0.1-2.9c-1.8-1.2-4-0.9-5.9,0.2C50.2,32.6,39.2,42,39.2,42l-10.8,0
		c-0.5,0-1-0.6-1-1.1c0-0.6,0.5-1,1-1H35c2.3,0,4.9-1.5,4.9-4.2c0-2.9-2.6-4.2-4.9-4.2c-4,0-4.8,0-4.8,0c-1.6,0-3.2-0.1-4.5-0.8
		C24,29.9,22.1,29.4,20,29.4z"/>
</g>
</svg>
