<?xml version="1.0" encoding="utf-8"?>
<!-- Generator: Adobe Illustrator 24.3.0, SVG Export Plug-In . SVG Version: 6.00 Build 0)  -->
<svg version="1.1" id="Layer_1" xmlns="http://www.w3.org/2000/svg" xmlns:xlink="http://www.w3.org/1999/xlink" x="0px" y="0px"
	 viewBox="0 0 61.5 55.2" style="enable-background:new 0 0 61.5 55.2;" xml:space="preserve">
<style type="text/css">
	.st0{fill:#DD4D02;}
	.st1{fill:#A4A4A4;}
</style>
<g>
	<path class="st0" d="M61,12L31,0.1c-0.2-0.1-0.4-0.1-0.6,0L0.5,12C0.2,12.1,0,12.3,0,12.7c0,0.3,0.2,0.6,0.5,0.7l30,11.9
		c0.1,0,0.2,0.1,0.3,0.1c0.1,0,0.2,0,0.3-0.1l10.3-4.4c0.4-0.2,0.6-0.6,0.4-1s-0.6-0.6-1-0.4l-10,4.3l-28-11.1l28-11.1l27.9,11.1
		l-13.2,4.9c-0.1,0-0.1,0.1-0.2,0.1l-10.8-4.2c0.1-0.2,0.2-0.5,0.2-0.8c0-1.6-1.7-2.8-3.8-2.8s-3.8,1.2-3.8,2.8s1.7,2.8,3.8,2.8
		c1.1,0,2-0.3,2.7-0.8l11.5,4.5v3.6c0,0,0,0,0,0v14.4c-3.4,2.7-8.2,4.3-13.4,4.5v-9.1c0-0.4-0.3-0.8-0.8-0.8S30,32.1,30,32.5v9.1
		c-7.8-0.2-14.6-3.8-17.3-9l-0.1-8.1c0-0.4-0.3-0.7-0.8-0.7c0,0,0,0,0,0c-0.4,0-0.7,0.3-0.7,0.8l0.1,8.2c0,0.1,0,0.2,0.1,0.3
		c2.9,6,10.7,10,19.4,10c5.4,0,10.4-1.5,14.2-4.1v4.6c-1.3,0.3-2.2,1.5-2.2,2.9c0,1.6,1.3,3,3,3s3-1.3,3-3c0-1.4-0.9-2.5-2.2-2.9
		v-5.7c1.8-1.5,3.2-3.3,4-5.3c0-0.1,0.1-0.2,0.1-0.3l-0.1-7.7c0-0.4-0.3-0.7-0.8-0.7c0,0,0,0,0,0c-0.4,0-0.7,0.3-0.7,0.8l0.1,7.6
		c-0.6,1.3-1.5,2.6-2.6,3.7V23.2l13.4-5.6c0.3-0.1,0.5-0.4,0.5-0.7v-1.2c0-0.4-0.3-0.8-0.8-0.8s-0.8,0.3-0.8,0.8v0.7l-12.3,5.2v-2.9
		L61,13.4c0.3-0.1,0.5-0.4,0.5-0.7C61.5,12.4,61.3,12.1,61,12z M28.4,12.6c0-0.6,1-1.3,2.3-1.3s2.3,0.7,2.3,1.3c0,0.6-1,1.3-2.3,1.3
		S28.4,13.2,28.4,12.6z M47.1,46.5c0,0.8-0.7,1.5-1.5,1.5s-1.5-0.7-1.5-1.5s0.7-1.5,1.5-1.5S47.1,45.7,47.1,46.5z"/>
	<path class="st0" d="M49.4,50.4c-0.1-0.4-0.5-0.6-0.9-0.5c-0.4,0.1-0.6,0.5-0.5,0.9l1,4c0.1,0.3,0.4,0.6,0.7,0.6c0.1,0,0.1,0,0.2,0
		c0.4-0.1,0.6-0.5,0.5-0.9L49.4,50.4z"/>
	<path class="st0" d="M42.9,49.8c-0.4-0.1-0.8,0.1-0.9,0.5l-1,4c-0.1,0.4,0.1,0.8,0.5,0.9c0.1,0,0.1,0,0.2,0c0.3,0,0.6-0.2,0.7-0.6
		l1-4C43.5,50.3,43.3,49.9,42.9,49.8z"/>
	<path class="st0" d="M45.7,50.7c-0.4,0-0.8,0.3-0.8,0.8v3.1c0,0.4,0.3,0.8,0.8,0.8s0.8-0.3,0.8-0.8v-3.1
		C46.4,51,46.1,50.7,45.7,50.7z"/>
	<path class="st0" d="M30.8,29.7c0.1,0,0.2,0,0.3-0.1l10.3-4.3c0.4-0.2,0.6-0.6,0.4-1c-0.2-0.4-0.6-0.6-1-0.4l-10,4.2L2.6,16.5v-0.7
		c0-0.4-0.3-0.8-0.8-0.8s-0.8,0.3-0.8,0.8V17c0,0.3,0.2,0.6,0.5,0.7l28.9,11.9C30.6,29.7,30.7,29.7,30.8,29.7z"/>
</g>
</svg>
