<?xml version="1.0" encoding="utf-8"?>
<!-- Generator: Adobe Illustrator 24.3.0, SVG Export Plug-In . SVG Version: 6.00 Build 0)  -->
<svg version="1.1" id="Layer_1" xmlns="http://www.w3.org/2000/svg" xmlns:xlink="http://www.w3.org/1999/xlink" x="0px" y="0px"
	 viewBox="0 0 17.6 14.3" style="enable-background:new 0 0 17.6 14.3;" xml:space="preserve">
<style type="text/css">
	.st0{fill:#F5F5F5;}
	.st1{fill:#575756;}
	.st2{fill:#AD1820;}
	.st3{fill:#E5332A;}
	.st4{fill:#F6A723;}
	.st5{fill:#E84E1B;}
	.st6{fill:#FAA634;}
	.st7{fill:none;stroke:#9C9B9B;stroke-width:3;stroke-miterlimit:10;}
	.st8{fill:#9C9B9B;}
	.st9{fill:#1D1D1B;}
	.st10{clip-path:url(#SVGID_2_);}
	.st11{clip-path:url(#SVGID_4_);}
	.st12{clip-path:url(#SVGID_6_);}
	.st13{fill:none;stroke:#AD1820;stroke-width:2.7971;stroke-miterlimit:10;}
	.st14{fill:#FFFFFF;}
	.st15{fill:#C6C6C5;}
	.st16{fill:#868686;}
	.st17{fill:#3C3C3B;}
	.st18{opacity:0.52;fill:#AD1820;}
	.st19{fill:none;stroke:#AD1820;stroke-width:4.3435;stroke-miterlimit:10;}
	.st20{fill:none;stroke:#E5332A;stroke-width:4.3435;stroke-miterlimit:10;}
	.st21{fill:#B1B1B1;}
	.st22{fill:#DD4D02;}
	.st23{fill:#A4A4A4;}
	.st24{fill:#E94D00;}
	.st25{clip-path:url(#SVGID_8_);fill:#E74E1B;}
	.st26{clip-path:url(#SVGID_8_);}
	.st27{fill:#AC1820;}
	.st28{fill:#F19000;}
	.st29{opacity:0.52;fill:#AC1820;}
	.st30{fill:#E4332A;}
	.st31{fill-rule:evenodd;clip-rule:evenodd;fill:#D9D9D9;}
	.st32{fill:#D9D9D9;}
</style>
<path class="st31" d="M5.3,11.2C3.5,11.2,2.3,9.8,2,8.7c0.5,0.1,1,0.1,1.6,0c0,0,0,0,0.1,0C2.6,8.4,1.8,7.9,1.2,7
	C0.9,6.4,0.7,5.8,0.7,5c0.5,0.3,1,0.4,1.6,0.4C1.5,4.9,1,4.2,0.8,3.3C0.6,2.4,0.7,1.5,1.2,0.7c2,2.3,4.4,3.6,7.5,3.8
	c0-0.1,0-0.3-0.1-0.4C8.5,3.2,8.7,2.4,9.1,1.7c0.6-0.9,1.4-1.5,2.5-1.6c1.2-0.2,2.3,0.1,3.2,1c0.1,0.1,0.1,0.1,0.2,0.1
	c0.7-0.2,1.4-0.4,2.1-0.8c0,0,0,0,0,0c0,0,0,0,0,0c-0.3,0.8-0.8,1.5-1.5,2c0.7-0.1,1.4-0.3,2-0.5c0,0,0,0,0,0
	c-0.1,0.2-0.3,0.4-0.4,0.5c-0.4,0.5-0.8,0.9-1.3,1.3c0,0-0.1,0.1-0.1,0.1c0,0.5,0,1.1-0.1,1.6c-0.1,1.1-0.5,2.2-0.9,3.2
	c-0.5,1.1-1.1,2-2,2.9c-1.4,1.4-3,2.3-5,2.8c-0.7,0.1-1.3,0.2-2,0.2c-2.1,0.1-4-0.5-5.8-1.6c0,0,0,0-0.1-0.1c1.3,0.1,2.5,0,3.6-0.5
	C4.2,12,4.8,11.6,5.3,11.2z"/>
</svg>
