<?xml version="1.0" encoding="utf-8"?>
<!-- Generator: Adobe Illustrator 24.3.0, SVG Export Plug-In . SVG Version: 6.00 Build 0)  -->
<svg version="1.1" id="Layer_1" xmlns="http://www.w3.org/2000/svg" xmlns:xlink="http://www.w3.org/1999/xlink" x="0px" y="0px"
	 viewBox="0 0 56.8 72.6" style="enable-background:new 0 0 56.8 72.6;" xml:space="preserve">
<style type="text/css">
	.st0{fill:#F5F5F5;}
	.st1{fill:#575756;}
	.st2{fill:#AD1820;}
	.st3{fill:#E5332A;}
	.st4{fill:#F6A723;}
	.st5{fill:#E84E1B;}
	.st6{fill:#FAA634;}
	.st7{fill:none;stroke:#9C9B9B;stroke-width:3;stroke-miterlimit:10;}
	.st8{fill:#9C9B9B;}
	.st9{fill:#1D1D1B;}
	.st10{clip-path:url(#SVGID_2_);}
	.st11{clip-path:url(#SVGID_4_);}
	.st12{clip-path:url(#SVGID_6_);}
	.st13{fill:none;stroke:#AD1820;stroke-width:2.7971;stroke-miterlimit:10;}
	.st14{fill:#FFFFFF;}
	.st15{fill:#C6C6C5;}
	.st16{fill:#868686;}
	.st17{fill:#3C3C3B;}
	.st18{opacity:0.52;fill:#AD1820;}
	.st19{fill:none;stroke:#AD1820;stroke-width:4.3435;stroke-miterlimit:10;}
	.st20{fill:none;stroke:#E5332A;stroke-width:4.3435;stroke-miterlimit:10;}
	.st21{fill:#B1B1B1;}
	.st22{fill:#DD4D02;}
	.st23{fill:#A4A4A4;}
</style>
<g>
	<path class="st22" d="M55.7,14.5L29,0.2c-0.6-0.3-1.4-0.3-2,0l-26,14.2C0.4,14.9,0,15.6,0,16.3v18.6c0,15.6,9.2,29.7,23.5,35.9
		l3.6,1.6c0.3,0.1,0.5,0.2,0.8,0.2c0.3,0,0.6-0.1,0.8-0.2l4.1-1.8c14.6-6.1,24-20.3,24-36.1V16.3C56.8,15.5,56.4,14.8,55.7,14.5z
		 M55.3,34.5c0,15.2-9.1,28.8-23.1,34.7L28.2,71c-0.1,0.1-0.3,0.1-0.5,0l-3.6-1.6c-13.7-6-22.6-19.6-22.6-34.5V16.3
		c0-0.2,0.1-0.4,0.3-0.5l26-14.2c0.1,0,0.2-0.1,0.3-0.1c0.1,0,0.2,0,0.3,0.1L55,15.8c0.2,0.1,0.3,0.3,0.3,0.5V34.5z"/>
	<polygon class="st22" points="25.3,47 15.9,38.6 14.9,39.7 25.5,49.2 42.2,26.2 41,25.3 	"/>
</g>
</svg>
