<?xml version="1.0" encoding="utf-8"?>
<!-- Generator: Adobe Illustrator 24.3.0, SVG Export Plug-In . SVG Version: 6.00 Build 0)  -->
<svg version="1.1" id="Layer_1" xmlns="http://www.w3.org/2000/svg" xmlns:xlink="http://www.w3.org/1999/xlink" x="0px" y="0px"
	 viewBox="0 0 81.5 61.9" style="enable-background:new 0 0 81.5 61.9;" xml:space="preserve">
<style type="text/css">
	.st0{fill:#F5F5F5;}
	.st1{fill:#575756;}
	.st2{fill:#AD1820;}
	.st3{fill:#E5332A;}
	.st4{fill:#F6A723;}
	.st5{fill:#E84E1B;}
	.st6{fill:#FAA634;}
	.st7{fill:none;stroke:#9C9B9B;stroke-width:3;stroke-miterlimit:10;}
	.st8{fill:#9C9B9B;}
	.st9{fill:#1D1D1B;}
	.st10{clip-path:url(#SVGID_2_);}
	.st11{clip-path:url(#SVGID_4_);}
	.st12{clip-path:url(#SVGID_6_);}
	.st13{fill:none;stroke:#AD1820;stroke-width:2.7971;stroke-miterlimit:10;}
	.st14{fill:#FFFFFF;}
	.st15{fill:#C6C6C5;}
	.st16{fill:#868686;}
	.st17{fill:#3C3C3B;}
	.st18{opacity:0.52;fill:#AD1820;}
	.st19{fill:none;stroke:#AD1820;stroke-width:4.3435;stroke-miterlimit:10;}
	.st20{fill:none;stroke:#E5332A;stroke-width:4.3435;stroke-miterlimit:10;}
	.st21{fill:#B1B1B1;}
	.st22{fill:#DD4D02;}
	.st23{fill:#A4A4A4;}
</style>
<g>
	<path class="st22" d="M70.8,0h-60C4.8,0,0,4.8,0,10.8v40.4c0,5.9,4.8,10.8,10.8,10.8h60c5.9,0,10.8-4.8,10.8-10.8V10.8
		C81.5,4.8,76.7,0,70.8,0z M80,51.2c0,5.1-4.1,9.2-9.2,9.2h-60c-5.1,0-9.2-4.1-9.2-9.2V10.8c0-5.1,4.1-9.2,9.2-9.2h60
		c5.1,0,9.2,4.1,9.2,9.2V51.2z"/>
	<path class="st22" d="M73.4,21.7c-0.8,0-1.5,0.4-1.9,0.9l-14.9-4.2c-0.3-1-1.2-1.8-2.3-1.8c-1.3,0-2.4,1.1-2.4,2.4
		c0,0.3,0.1,0.6,0.2,0.8l-4.1,9.7l-8.4,2L31,12.3c0.6-0.4,1-1.1,1-2C32.1,9,31,8,29.7,8s-2.4,1.1-2.4,2.4c0,0.5,0.2,1,0.5,1.4
		L9.4,37.5c-0.2-0.1-0.5-0.1-0.7-0.1c-1.3,0-2.4,1.1-2.4,2.4c0,1.3,1.1,2.4,2.4,2.4c0.5,0,1-0.2,1.4-0.5l12.7,6.8c0,0.1,0,0.1,0,0.2
		c0,1.3,1.1,2.4,2.4,2.4c1.1,0,2-0.8,2.3-1.8l16.1-7l20.8,4.2c0.2,1.1,1.2,1.9,2.3,1.9c1.3,0,2.4-1.1,2.4-2.4c0-1.3-1.1-2.4-2.4-2.4
		c-0.1,0-0.2,0-0.3,0l-6.8-15.1l11.9-2.8c0.4,0.6,1.1,1,1.9,1c1.3,0,2.4-1.1,2.4-2.4C75.8,22.8,74.8,21.7,73.4,21.7z M53.1,21.2
		c0.3,0.2,0.7,0.3,1.1,0.3c0.2,0,0.3,0,0.5-0.1l2.7,6l-7.8,1.9L53.1,21.2z M47.2,31.4l-3.9,9.1L40.1,33L47.2,31.4z M10.7,38.5
		c0-0.1-0.1-0.1-0.1-0.2l18.4-25.7c0.2,0.1,0.4,0.1,0.7,0.1L38,32L10.7,38.5z M11,40.4c0-0.2,0.1-0.3,0.1-0.5l27.6-6.6l3.4,7.9
		l-14.7,6.4c-0.4-0.8-1.2-1.4-2.2-1.4c-0.7,0-1.4,0.3-1.8,0.8L11,40.4z M65.1,44.1c-0.2,0.2-0.4,0.5-0.6,0.8l-19.8-4l4.3-10l9.1-2.2
		L65.1,44.1z M59,27l-2.9-6.4c0.2-0.2,0.3-0.4,0.4-0.7L71,24.1c0,0,0,0,0,0c0,0,0,0,0,0L59,27z"/>
</g>
</svg>
