<?xml version="1.0" encoding="utf-8"?>
<!-- Generator: Adobe Illustrator 24.3.0, SVG Export Plug-In . SVG Version: 6.00 Build 0)  -->
<svg version="1.1" id="Layer_1" xmlns="http://www.w3.org/2000/svg" xmlns:xlink="http://www.w3.org/1999/xlink" x="0px" y="0px"
	 viewBox="0 0 79.1 81.5" style="enable-background:new 0 0 79.1 81.5;" xml:space="preserve">
<style type="text/css">
	.st0{fill:#F5F5F5;}
	.st1{fill:#575756;}
	.st2{fill:#AD1820;}
	.st3{fill:#E5332A;}
	.st4{fill:#F6A723;}
	.st5{fill:#E84E1B;}
	.st6{fill:#FAA634;}
	.st7{fill:none;stroke:#9C9B9B;stroke-width:3;stroke-miterlimit:10;}
	.st8{fill:#9C9B9B;}
	.st9{fill:#1D1D1B;}
	.st10{clip-path:url(#SVGID_2_);}
	.st11{clip-path:url(#SVGID_4_);}
	.st12{clip-path:url(#SVGID_6_);}
	.st13{fill:none;stroke:#AD1820;stroke-width:2.7971;stroke-miterlimit:10;}
	.st14{fill:#FFFFFF;}
	.st15{fill:#C6C6C5;}
	.st16{fill:#868686;}
	.st17{fill:#3C3C3B;}
	.st18{opacity:0.52;fill:#AD1820;}
	.st19{fill:none;stroke:#AD1820;stroke-width:4.3435;stroke-miterlimit:10;}
	.st20{fill:none;stroke:#E5332A;stroke-width:4.3435;stroke-miterlimit:10;}
	.st21{fill:#B1B1B1;}
	.st22{fill:#DD4D02;}
	.st23{fill:#A4A4A4;}
</style>
<path class="st22" d="M51.4,39.7c7.6,2.8,16,1,21.7-4.7c5.9-5.9,7.6-14.8,4.3-22.5c-0.1-0.2-0.3-0.4-0.5-0.4c-0.2,0-0.5,0-0.7,0.2
	L63.6,25h-9.4v-9.4L66.9,2.8c0.2-0.2,0.3-0.4,0.2-0.7c0-0.2-0.2-0.4-0.4-0.5c-7.7-3.2-16.6-1.5-22.5,4.5c-5.8,5.8-7.5,14.4-4.5,22
	l-3.4,3.4L23.2,18.3l1.2-1.2c0.2-0.2,0.2-0.4,0.2-0.6c0-0.2-0.1-0.4-0.3-0.5L8.6,3.7c-0.3-0.2-0.7-0.2-1,0.1l-7,7
	c-0.3,0.3-0.3,0.7-0.1,1l12.2,15.8c0.1,0.2,0.3,0.3,0.5,0.3c0.2,0,0.4-0.1,0.6-0.2l1.2-1.2l13,13.1c-4.8,4.9-12.7,12.8-25.8,26
	c-3.2,3.2-3.2,8.4,0,11.5c1.5,1.5,3.6,2.4,5.8,2.4c2.2,0,4.3-0.9,5.8-2.4c11.4-11.4,18.2-18.3,22.4-22.5l23.7,23.8
	c2,2,4.7,3.1,7.5,3.1c0,0,0,0,0,0c4.3,0,8.1-2.6,9.8-6.6c1.6-4,0.7-8.5-2.3-11.6L51.4,39.7z M15.7,24.9c-0.1-0.1-0.2-0.2-0.3-0.2
	c-0.3-0.1-0.6-0.1-0.8,0.2L13.5,26L2.2,11.4l6-6.1l14.5,11.3l-1.1,1.2c-0.2,0.2-0.3,0.5-0.2,0.8c0,0.1,0.1,0.2,0.2,0.3l13.5,13.6
	c-0.6,0.5-1.5,1.5-3.2,3.2c-0.7,0.7-1.6,1.6-2.7,2.7L15.7,24.9z M12.8,76C12.8,76,12.8,76,12.8,76c-1.2,1.3-2.9,2-4.7,2
	s-3.5-0.7-4.7-2c-2.6-2.6-2.6-6.8,0-9.4c13.4-13.5,21.4-21.5,26.2-26.3c0.1,0,0.2-0.1,0.2-0.1l7-7c0,0,0,0,0,0l4.2-4.3
	c0.2-0.2,0.3-0.5,0.2-0.8c-3-7.2-1.5-15.3,4-20.9c5.2-5.2,12.9-7,19.8-4.5L52.9,14.8c-0.1,0.1-0.2,0.3-0.2,0.5v10.5
	c0,0.4,0.3,0.8,0.8,0.8h10.4c0.2,0,0.4-0.1,0.5-0.2l12.1-12.2c2.5,6.9,0.8,14.5-4.4,19.8c-5.5,5.5-13.6,7.1-20.8,4.1
	c-0.3-0.1-0.6-0.1-0.8,0.2c-2.3,2.3-4,4-5.2,5.2l-3.7,3.7C40.7,48,37.2,51.5,12.8,76z M75.8,74.3c-1.4,3.4-4.7,5.6-8.4,5.7
	c0,0,0,0,0,0c-2.4,0-4.7-1-6.4-2.7L37.3,53.6l5.2-5.3c0.1-0.1,0.2-0.2,0.2-0.2c0.2-0.2,0.3-0.3,3.5-3.5l3.9-3.9l23.7,23.8
	C76.4,67,77.2,70.9,75.8,74.3z"/>
</svg>
