<?xml version="1.0" encoding="utf-8"?>
<!-- Generator: Adobe Illustrator 24.3.0, SVG Export Plug-In . SVG Version: 6.00 Build 0)  -->
<svg version="1.1" id="Layer_1" xmlns="http://www.w3.org/2000/svg" xmlns:xlink="http://www.w3.org/1999/xlink" x="0px" y="0px"
	 viewBox="0 0 82.2 74.3" style="enable-background:new 0 0 82.2 74.3;" xml:space="preserve">
<style type="text/css">
	.st0{fill:#F5F5F5;}
	.st1{fill:#575756;}
	.st2{fill:#AD1820;}
	.st3{fill:#E5332A;}
	.st4{fill:#F6A723;}
	.st5{fill:#E84E1B;}
	.st6{fill:#FAA634;}
	.st7{fill:none;stroke:#9C9B9B;stroke-width:3;stroke-miterlimit:10;}
	.st8{fill:#9C9B9B;}
	.st9{fill:#1D1D1B;}
	.st10{clip-path:url(#SVGID_2_);}
	.st11{clip-path:url(#SVGID_4_);}
	.st12{clip-path:url(#SVGID_6_);}
	.st13{fill:none;stroke:#AD1820;stroke-width:2.7971;stroke-miterlimit:10;}
	.st14{fill:#FFFFFF;}
	.st15{fill:#C6C6C5;}
	.st16{fill:#868686;}
	.st17{fill:#3C3C3B;}
	.st18{opacity:0.52;fill:#AD1820;}
	.st19{fill:none;stroke:#AD1820;stroke-width:4.3435;stroke-miterlimit:10;}
	.st20{fill:none;stroke:#E5332A;stroke-width:4.3435;stroke-miterlimit:10;}
	.st21{fill:#B1B1B1;}
	.st22{fill:#DD4D02;}
	.st23{fill:#A4A4A4;}
</style>
<g>
	<g>
		<path class="st22" d="M57.8,26.5c-0.3,0-0.5-0.2-0.7-0.4l-0.2-0.4c-0.3-0.6-0.6-1.3-0.7-1.4c-0.8-1.7-2.8-3.4-5.7-3.2l-13.8,0
			c-1.2,0-2.7-0.2-4-0.6l-0.6-0.2l-0.3,0.4c-0.5,0.7-1.1,1.4-1.9,2.2L29.7,23c-0.7,0.7-1.6,1.7-4.6,2.6c-0.4,0.1-0.8-0.1-0.9-0.5
			s0.1-0.8,0.5-0.9c2.6-0.8,3.4-1.6,4-2.3l0.2-0.2c0.8-0.8,1.3-1.4,1.8-2l0.6-0.8c0.2-0.2,0.5-0.4,0.8-0.3l1.1,0.3
			c1.1,0.3,2.5,0.6,3.6,0.6l13.7,0c3.5-0.2,6.1,1.9,7.1,4.1c0,0.1,0.3,0.7,0.7,1.3l0.2,0.4c0.2,0.4,0,0.8-0.3,1
			C58.1,26.4,58,26.5,57.8,26.5z"/>
	</g>
	<path class="st22" d="M81.4,74.3c-0.4,0-0.7-0.3-0.7-0.6l-2.1-13.6c-0.4-2.6-2.2-4.7-4.7-5.6l-19.7-7.1c-0.4-0.1-0.6-0.6-0.5-1
		c0.1-0.4,0.6-0.6,1-0.5l19.7,7.1c3,1.1,5.1,3.7,5.7,6.8l2.1,13.6c0.1,0.4-0.2,0.8-0.6,0.9C81.5,74.3,81.5,74.3,81.4,74.3z"/>
	<path class="st22" d="M0.8,74.3c0,0-0.1,0-0.1,0c-0.4-0.1-0.7-0.4-0.6-0.9l2.1-13.6c0.5-3.1,2.7-5.7,5.7-6.8l19.9-7
		c0.4-0.1,0.8,0.1,1,0.5c0.1,0.4-0.1,0.8-0.5,1l-19.9,7c-2.5,0.9-4.3,3-4.7,5.6L1.5,73.7C1.4,74.1,1.1,74.3,0.8,74.3z"/>
	<path class="st22" d="M41.3,62.6c-0.2,0-0.3,0-0.4-0.1c-1.3-0.2-2.4-0.8-3.2-1.9l-9.9-13.8c-0.1-0.2-0.2-0.4-0.1-0.6
		c0-0.2,0.1-0.4,0.3-0.5c2.4-1.7,3.1-2.9,3.2-5.5c-3.1-3.1-5.6-8.4-6.5-13.8c-0.1-0.3-0.3-0.7-0.4-0.9c-0.4-1-0.8-2.5-1-3.5
		c-0.6-4.6,0.1-7.2,1.8-11.1c2-4.4,4.2-7.5,8.6-8.8c0.7-0.2,1.4-0.3,2-0.4c0.4-0.2,0.7-0.3,1-0.5C38.3,0.6,39.4,0,41.5,0
		c10,0,18.1,8.6,18.1,19.2c0,0.5,0,0.9,0,1.3c0,1.9,0.1,3.3-0.8,5.4c0,0.1-0.1,0.2-0.1,0.3c-0.1,0.3-0.1,0.5-0.2,0.6
		c-0.8,4.4-5.6,11.3-7,13.1l0,0.1c0.1,3,0.3,3.8,2.5,5.4c0.3,0.2,0.4,0.7,0.2,1l-9.2,14.1C44.2,61.9,42.8,62.6,41.3,62.6z
		 M29.4,46.5l9.5,13.2c0.6,0.8,1.5,1.3,2.6,1.3c0.1,0,0.2,0,0.3,0.1c0.8-0.1,1.6-0.6,2.1-1.3l8.8-13.5c-2.2-1.8-2.5-3.2-2.5-6.2
		l0-0.4c0-0.2,0-0.3,0.1-0.5c2.8-3.8,6.3-9.5,6.8-12.8c0-0.1,0-0.2,0.1-0.2c0-0.1,0.1-0.2,0.1-0.4c0.1-0.2,0.1-0.5,0.2-0.6
		c0.8-1.8,0.7-3,0.7-4.8c0-0.4,0-0.8,0-1.3c0-9.7-7.4-17.7-16.6-17.7c-1.7,0-2.6,0.4-4,1.1c-0.4,0.2-0.7,0.3-1.1,0.5
		c-0.1,0-0.1,0-0.2,0.1c-0.6,0.1-1.3,0.2-1.9,0.4c-3.9,1.1-5.8,3.9-7.6,8c-1.7,3.7-2.3,6-1.7,10.3c0.1,0.9,0.5,2.2,0.8,3.1
		c0.1,0.2,0.3,0.8,0.4,1c0,0.1,0.1,0.2,0.1,0.2c0.9,5.2,3.3,10.4,6.3,13.3c0.2,0.1,0.2,0.3,0.2,0.6C32.6,43,31.8,44.7,29.4,46.5z"/>
</g>
</svg>
