<?xml version="1.0" encoding="utf-8"?>
<!-- Generator: Adobe Illustrator 24.3.0, SVG Export Plug-In . SVG Version: 6.00 Build 0)  -->
<svg version="1.1" id="Layer_1" xmlns="http://www.w3.org/2000/svg" xmlns:xlink="http://www.w3.org/1999/xlink" x="0px" y="0px"
	 viewBox="0 0 81.3 77.6" style="enable-background:new 0 0 81.3 77.6;" xml:space="preserve">
<style type="text/css">
	.st0{fill:#F5F5F5;}
	.st1{fill:#575756;}
	.st2{fill:#AD1820;}
	.st3{fill:#E5332A;}
	.st4{fill:#F6A723;}
	.st5{fill:#E84E1B;}
	.st6{fill:#FAA634;}
	.st7{fill:none;stroke:#9C9B9B;stroke-width:3;stroke-miterlimit:10;}
	.st8{fill:#9C9B9B;}
	.st9{fill:#1D1D1B;}
	.st10{clip-path:url(#SVGID_2_);}
	.st11{clip-path:url(#SVGID_4_);}
	.st12{clip-path:url(#SVGID_6_);}
	.st13{fill:none;stroke:#AD1820;stroke-width:2.7971;stroke-miterlimit:10;}
	.st14{fill:#FFFFFF;}
	.st15{fill:#C6C6C5;}
	.st16{fill:#868686;}
	.st17{fill:#3C3C3B;}
	.st18{opacity:0.52;fill:#AD1820;}
	.st19{fill:none;stroke:#AD1820;stroke-width:4.3435;stroke-miterlimit:10;}
	.st20{fill:none;stroke:#E5332A;stroke-width:4.3435;stroke-miterlimit:10;}
	.st21{fill:#B1B1B1;}
	.st22{fill:#DD4D02;}
	.st23{fill:#A4A4A4;}
</style>
<g>
	<path class="st22" d="M67.6,70.2c-0.1-0.1-0.1-0.2-0.2-0.3c0-0.1-0.1-0.1-0.2-0.2c-0.1-0.1-0.1-0.1-0.2-0.1
		c-0.1-0.1-0.2-0.1-0.3-0.2c-0.1,0-0.2-0.1-0.3-0.1c-0.1,0-0.2,0-0.3,0c-0.1,0-0.3,0-0.4,0c-0.2,0-0.3,0.1-0.5,0.2l-0.2,0.1
		c-0.1,0-0.2,0-0.3,0l-0.1,0c-0.1,0-0.2,0-0.3,0c-0.1,0-0.2,0-0.3,0c-0.1,0-0.2,0-0.3,0.1l-0.2,0c-0.1,0-0.1,0-0.2,0
		c0,0-0.1,0-0.2,0c-0.1,0-0.3,0-0.4,0l-0.1,0c0,0-0.1,0-0.2,0c0,0-0.1,0-0.1,0l-0.2-0.1c0,0-0.1,0-0.1-0.1l-0.4-0.3
		c-0.1-0.1-0.3-0.2-0.5-0.3c-0.3-0.1-0.7-0.1-0.9-0.1c-0.1,0-0.2,0-0.4,0.1c0,0-0.1,0-0.1,0.1c0,0-0.1,0.1-0.2,0.1
		c-0.1,0.1-0.2,0.2-0.2,0.3c-0.1,0.1-0.1,0.3-0.2,0.4c-0.1,0.2,0,0.5,0.1,0.7c0,0.1,0.1,0.1,0.1,0.2l0.1,0.2c0,0,0,0.1,0.1,0.1
		c0,0.1,0.1,0.2,0.1,0.4c0,0.1,0,0.2,0,0.3c0,0.1,0,0.1,0,0.2c0,0.1,0,0.2,0,0.4c0,0.1,0.1,0.3,0.1,0.3c0,0,0.1,0.1,0.1,0.1
		c0.1,0.1,0.2,0.2,0.3,0.4c0,0,0,0.1-0.1,0.1c0,0.1-0.1,0.3-0.1,0.3c0,0.1,0,0.3,0,0.4c0,0.1,0,0.2,0.1,0.3c0,0.1,0.1,0.2,0.1,0.3
		c0,0.1,0.1,0.2,0.1,0.2c0.1,0.1,0.2,0.3,0.3,0.5l0.3,0.4c0,0,0,0.1,0,0.1l0,0.3c0,0.1,0,0.2,0,0.3c0,0,0,0.1,0,0.1
		c0,0.1,0.1,0.3,0.1,0.3c0.1,0.1,0.1,0.2,0.2,0.3c0,0,0.1,0.1,0.2,0.1c0.1,0.1,0.1,0.1,0.2,0.1c0.2,0.1,0.4,0.2,0.6,0.2l0.1,0
		c0.1,0,0.3,0,0.5,0c0.1,0,0.3,0,0.4,0c0,0,0,0,0.1,0c0.2,0,0.4,0,0.6-0.1c0.1,0,0.2-0.1,0.3-0.2c0,0,0.1-0.1,0.1-0.1
		c0.1-0.1,0.1-0.1,0.2-0.2c0.1-0.1,0.2-0.1,0.2-0.2c0.1-0.1,0.1-0.2,0.2-0.2l0.1-0.2c0,0,0,0,0.1,0c0.2,0,0.3,0,0.4-0.1
		c0.1,0,0.3-0.1,0.4-0.3c0,0,0.1-0.1,0.1-0.1c0,0,0.1-0.1,0.1-0.2c0-0.1,0.1-0.1,0.1-0.2c0.1-0.1,0.1-0.2,0.1-0.4
		c0-0.1,0-0.2,0.1-0.3c0-0.1,0-0.2,0-0.3l0-0.2c0-0.1,0-0.2,0-0.2l-0.1,0c0,0,0,0,0,0l-0.1-0.1c0,0,0,0,0,0c0,0,0,0,0,0l0.3,0
		c0-0.1,0.1-0.2,0.1-0.3l0.2-0.4c0-0.1,0.1-0.2,0.1-0.3l0.1-0.3c0-0.1,0.1-0.2,0.1-0.3c0-0.1,0-0.2,0-0.3c0-0.1,0-0.2,0-0.3
		c0-0.1,0-0.1,0-0.2l0-0.2c0,0,0-0.1,0-0.1c0-0.1,0-0.2,0.1-0.3c0-0.1,0-0.3,0-0.4c0-0.1,0-0.2,0-0.3C67.6,70.3,67.6,70.2,67.6,70.2
		z M65.5,72.9c-0.1,0.1-0.1,0.2-0.2,0.3c0,0.1-0.1,0.2-0.1,0.2c0,0.1-0.1,0.2-0.1,0.3c0,0.1-0.1,0.2-0.1,0.3c0,0.1,0,0.2-0.1,0.4
		l0,0.2c0,0,0,0.1,0,0.1c-0.1,0-0.3,0-0.4,0.1c-0.2,0.1-0.3,0.2-0.3,0.2c-0.1,0.1-0.1,0.2-0.2,0.2c-0.1,0.1-0.1,0.2-0.2,0.3
		c0,0.1-0.1,0.1-0.2,0.2l-0.1,0.1c0,0-0.1,0,0,0l-0.3,0c0,0-0.1,0-0.1,0c-0.1,0-0.2,0-0.2,0c0-0.1,0-0.1,0-0.2c0-0.1,0-0.2,0-0.3
		l0-0.1c0-0.1,0-0.1-0.1-0.2c0,0,0-0.1-0.1-0.1l-0.1-0.2c0,0-0.1-0.1-0.1-0.1l-0.1-0.1c0-0.1-0.1-0.2-0.2-0.2l-0.1-0.1
		c-0.1-0.1-0.1-0.2-0.2-0.3L62,73.7l0,0c0-0.1,0.1-0.2,0.1-0.3c0,0,0-0.1,0-0.2c0-0.1,0-0.2,0-0.2c0-0.1,0-0.2,0-0.2
		c0,0-0.1-0.1-0.1-0.2c0-0.1-0.1-0.2-0.1-0.2c-0.1-0.1-0.2-0.2-0.3-0.4l-0.1-0.1c0,0,0,0,0-0.1c0,0,0,0,0-0.1c0-0.1,0-0.1,0-0.2
		c0-0.1,0-0.2,0-0.2c0-0.1,0-0.1,0-0.2c0-0.1,0-0.2-0.1-0.3c0,0,0.1,0,0.1,0.1l0.1,0.1c0.2,0.1,0.3,0.2,0.5,0.2
		c0.2,0.1,0.4,0.1,0.5,0.2c0.1,0,0.3,0,0.4,0.1c0.2,0,0.3,0,0.5,0.1c0.1,0,0.2,0,0.2,0c0.1,0,0.2,0,0.3,0c0.1,0,0.2,0,0.2,0l0.2,0
		c0,0,0.1,0,0.1,0c0.2,0,0.3,0,0.5,0c0.1,0,0.2,0,0.3,0c0.1,0,0.2,0,0.3-0.1c0,0,0.1,0,0.1,0c0,0,0,0.1,0,0.1c0,0.1,0,0.1,0,0.3
		c0,0.1,0,0.2,0,0.4c0,0.1,0,0.2,0,0.2l0.2,0c0,0,0,0.1,0,0.1l-0.2,0l0,0.1c0,0.1-0.1,0.2-0.1,0.3L65.5,72.9z"/>
	<path class="st22" d="M81.3,42.6l-0.1-0.3c0,0,0-0.1,0-0.1c0-0.2-0.1-0.4-0.1-0.7c0-0.2-0.1-0.4-0.1-0.6c-0.1-0.4-0.1-0.7-0.2-1.1
		L80,39.9l0.7-0.3c0-0.1-0.1-0.3-0.1-0.4c0-0.2-0.1-0.3-0.1-0.5c0-0.2,0-0.4-0.1-0.5c0-0.2,0-0.3,0-0.5l0-0.2c0-0.1,0-0.2,0-0.4
		c0-0.2,0-0.4-0.1-0.6c0-0.2-0.1-0.4-0.1-0.6c0-0.1-0.1-0.2-0.1-0.4c0,0,0-0.1,0-0.1L80,35.2c-0.1-0.1-0.1-0.2-0.1-0.3
		c-0.1-0.1-0.1-0.2-0.2-0.3c-0.1-0.2-0.2-0.4-0.4-0.6c-0.1-0.2-0.3-0.3-0.4-0.5c-0.1-0.2-0.3-0.3-0.3-0.4c-0.1-0.1-0.2-0.3-0.3-0.4
		L78,32.4c-0.1-0.1-0.1-0.2-0.2-0.3c-0.1-0.2-0.2-0.4-0.3-0.6c0-0.2-0.1-0.4-0.1-0.5l0-0.1c0-0.2,0-0.3-0.1-0.4c0-0.1,0-0.2-0.1-0.4
		c0-0.1,0-0.2-0.1-0.3c0,0,0-0.1,0-0.1c0-0.1-0.1-0.1-0.1-0.2c0-0.1-0.1-0.1-0.1-0.2c0,0-0.1-0.1-0.1-0.1c-0.1-0.1-0.1-0.1-0.2-0.2
		c0,0-0.1,0-0.1-0.1c-0.1,0-0.1-0.1-0.2-0.1c0,0-0.1,0-0.1,0c0,0-0.2,0-0.2,0c0,0,0-0.1,0-0.1c0,0,0-0.1,0-0.1L76,28.3
		c-0.1-0.2-0.3-0.4-0.5-0.5c-0.2-0.1-0.5,0-0.7,0.1c0,0,0,0,0,0c0,0,0-0.1-0.1-0.2c0-0.1-0.1-0.2-0.1-0.3l-0.1-0.3
		c0-0.2-0.1-0.3-0.2-0.5c-0.1-0.1-0.1-0.3-0.2-0.4c-0.1-0.1-0.1-0.2-0.1-0.3c0-0.1,0-0.2,0-0.2c0-0.1,0-0.2,0-0.2
		c0-0.1,0-0.2-0.1-0.4c0-0.1-0.1-0.2-0.1-0.3c-0.1-0.2-0.2-0.3-0.3-0.5l-0.3-0.4c-0.1-0.1-0.2-0.3-0.2-0.4c-0.1-0.2-0.2-0.3-0.4-0.5
		c-0.1-0.1-0.1-0.2-0.2-0.2c-0.1-0.1-0.1-0.1-0.2-0.2l-0.2-0.1c-0.1-0.1-0.2-0.1-0.3-0.2c-0.1-0.1-0.2-0.2-0.3-0.3L71,21.4
		c-0.1-0.1-0.3-0.3-0.4-0.4c-0.1-0.1-0.3-0.3-0.5-0.5c0,0-0.1-0.1-0.1-0.1c0,0-0.1-0.1-0.1-0.1c-0.1-0.1-0.1-0.2-0.1-0.4l-0.1-0.2
		c0-0.1,0-0.2-0.1-0.2c0,0,0-0.1,0-0.1c0-0.1-0.1-0.1-0.1-0.2c0,0-0.1-0.1-0.1-0.2c0-0.1-0.1-0.1-0.1-0.2L69,18.4
		c0,0-0.1-0.1-0.1-0.2l-0.7,0.1l0.7-0.2l0-0.3c0,0,0-0.1,0-0.1c0-0.2,0-0.4,0.1-0.7l0-0.2c0-0.1,0-0.1,0-0.2c0,0,0-0.1,0-0.2
		c0-0.1,0-0.2-0.1-0.3c0-0.1-0.1-0.2-0.1-0.3l-0.2-0.5c-0.1-0.2-0.2-0.4-0.2-0.5c-0.1-0.1-0.2-0.3-0.3-0.5c0,0-0.1-0.1-0.1-0.2
		l0-0.2c0,0,0-0.2,0-0.2l-0.7-0.1l0.8,0l0-0.4c0-0.1,0-0.2,0-0.3c0-0.1,0-0.2-0.1-0.4l0-0.1c0-0.2-0.1-0.3-0.1-0.5l-0.8,0l0.7-0.2
		l0-0.2l-0.8,0l0.8-0.1v-0.2c0,0,0-0.1,0-0.2c0,0,0-0.1,0-0.1c0-0.1,0-0.1,0-0.2c0-0.1,0-0.2-0.1-0.3c0,0,0-0.1,0-0.1
		c0-0.1-0.1-0.1-0.1-0.2c0,0-0.1-0.1-0.1-0.1c0,0-0.1-0.1-0.1-0.1c0,0-0.2-0.1-0.2-0.1l-0.1,0c-0.1,0-0.1-0.1-0.3-0.1
		c-0.1,0-0.1-0.1-0.2-0.1c0,0-0.1,0-0.1-0.1c0,0-0.1-0.1-0.1-0.1C66,9.2,66,9.2,65.9,9.1c0,0,0,0,0,0c-0.1-0.1-0.2-0.2-0.4-0.2
		c-0.1,0-0.1,0-0.2,0c-0.1,0-0.2,0-0.3,0c-0.1,0-0.2,0.1-0.3,0.1c0,0-0.2,0-0.2,0.1c0,0-0.1,0-0.1,0c0,0,0-0.1,0-0.1
		c0,0,0-0.1,0-0.1c0-0.1,0-0.2,0-0.3c0-0.1,0-0.2,0-0.3c0-0.2,0-0.4,0-0.7c0-0.2,0-0.4,0-0.6c0-0.3,0-0.4,0-0.6l0-0.7
		c0-0.1,0-0.2,0-0.3c0-0.1,0-0.2,0-0.4c0-0.1,0-0.2-0.1-0.2c0-0.1-0.1-0.2-0.1-0.3C64.1,4.2,64,4.1,64,4c-0.1-0.1-0.1-0.2-0.2-0.3
		c0,0-0.1-0.1-0.1-0.1c0,0-0.1-0.1-0.1-0.1l-0.1-0.2c0,0,0-0.1,0-0.1c-0.1-0.1-0.1-0.3-0.2-0.5l-0.2-0.5c0-0.1-0.1-0.2-0.1-0.4
		c0-0.1-0.1-0.2-0.1-0.3c0-0.1,0-0.1-0.1-0.2l0-0.2c0-0.2-0.1-0.4-0.2-0.6c0-0.1-0.1-0.1-0.1-0.2c0,0,0-0.1-0.1-0.1
		c0,0-0.1-0.2-0.2-0.2c0,0-0.1-0.1-0.1-0.1C62.1,0.1,62,0,61.9,0c-0.1,0-0.2,0-0.3,0c0,0-0.1,0-0.1,0c0,0-0.1,0-0.1,0.1
		c0,0-0.1,0.1-0.1,0.1c-0.1,0.1-0.1,0.1-0.1,0.1c0,0-0.1,0.1-0.1,0.1c-0.3,0.3-0.5,0.7-0.6,1.1L60,2.3c0,0.1-0.1,0.2-0.1,0.3
		c0,0.1-0.1,0.2-0.1,0.3c0,0.1,0,0.1,0,0.2c0,0,0,0.1,0,0.2l0,0.1c0,0.1,0,0.3-0.1,0.4c0,0.1,0,0.1-0.1,0.2l-0.1,0.3
		c0,0.1-0.1,0.2-0.1,0.3c0,0.1-0.1,0.2-0.1,0.4c0,0,0,0.1,0,0.2c0,0,0,0.1,0,0.1l0,0.4c0,0,0,0.1,0,0.2c0,0,0,0.1,0,0.1l-0.2,0.4
		c-0.1,0.1-0.1,0.2-0.2,0.4c0,0.1-0.1,0.2-0.1,0.3c0,0.1,0,0.1,0,0.3c0,0.1,0,0.2,0,0.3c0,0.1,0,0.2,0,0.4l0,0.2c0,0.1,0,0.2,0,0.3
		c0,0.1,0,0.2,0,0.2c0,0,0,0.1,0,0.1l0,0.5c0,0.1,0,0.2,0,0.3c0,0.1,0,0.3,0,0.4l0,0.3c0,0,0,0.1,0,0.2c0,0,0,0.1,0,0.1L58.4,11
		c0,0.1-0.1,0.2-0.2,0.4c0,0.1-0.1,0.3-0.2,0.4c0,0.1-0.1,0.3-0.2,0.4c0,0,0,0.1,0,0.1l-0.1,0.3c-0.1,0.2-0.2,0.4-0.2,0.6L57.3,14
		c0,0.1-0.1,0.1-0.1,0.2c0,0-0.1,0.1-0.1,0.1c0,0-0.1,0.1-0.2,0.1l-0.1,0.1c-0.1,0.1-0.1,0.1-0.2,0.2l-0.4,0.4c0,0-0.1,0.1-0.1,0.1
		c0,0-0.1,0.1-0.1,0.1c0,0-0.1,0-0.2,0.1c0,0-0.1,0-0.1,0c-0.1,0-0.1,0-0.2,0l0.1,0.7l-0.3-0.7l-0.1,0l-0.1,0c0,0-0.1,0-0.1-0.1
		c0,0-0.1-0.1-0.1-0.1c0,0-0.1-0.1-0.1-0.1l-0.5-0.6c0,0-0.1-0.1-0.2-0.1c-0.1-0.1-0.3-0.2-0.5-0.3c-0.2-0.1-0.3-0.2-0.5-0.2
		l-0.4-0.1c0,0-0.1,0-0.1,0l-0.8-0.2c-0.1-0.1-0.5-0.3-0.6-0.3l-0.4,0.6l0.3-0.7c-0.1-0.1-0.2-0.2-0.3-0.2c-0.1-0.1-0.2-0.1-0.4-0.2
		l-0.1-0.1c-0.4-0.2-0.7-0.4-0.9-0.6c-0.2-0.1-0.3-0.3-0.4-0.4c-0.1-0.1-0.3-0.3-0.5-0.4c-0.1-0.1-0.3-0.2-0.5-0.3l-0.1-0.1
		c-0.1-0.1-0.2-0.1-0.3-0.2c-0.1-0.1-0.3-0.2-0.5-0.3C47,10,46.8,9.9,46.7,9.8l-0.2-0.2c-0.1-0.1-0.1-0.1-0.2-0.2
		c0,0-0.1-0.1-0.1-0.1c0,0,0-0.1,0-0.1l-0.7,0.2L46.1,9c0,0,0-0.1,0-0.1c0-0.1,0-0.1,0.1-0.2l0.1-0.3c0.1-0.2,0.1-0.4,0.2-0.5
		c0.1-0.2,0.2-0.4,0.2-0.7l0-0.2c0-0.1,0-0.2,0.1-0.3c0-0.1,0-0.2,0.1-0.2c0-0.1,0.1-0.2,0.1-0.2C47,6.2,47,6.1,47.1,6
		c0-0.1,0.1-0.1,0.1-0.1l0.1-0.1c0.1,0,0.1-0.1,0.3-0.2c0.1-0.1,0.2-0.1,0.3-0.2c0.1-0.1,0.2-0.2,0.3-0.3L48.2,5
		c0.1-0.1,0.1-0.2,0.2-0.3c0.1-0.1,0.1-0.1,0.2-0.2l0.2-0.2C48.9,4.2,49,4.1,49,4c0.1-0.1,0.1-0.2,0.2-0.3c0.1-0.2,0.1-0.4,0-0.6
		s-0.3-0.3-0.5-0.4c0,0-0.1,0-0.1,0l-0.4,0c-0.1,0-0.2,0-0.3,0c-0.1,0-0.2,0-0.3,0.1c-0.1,0-0.1,0.1-0.2,0.1c-0.1,0-0.1,0.1-0.2,0.2
		l-0.1,0c-0.1,0-0.1,0-0.1,0c0,0-0.1,0-0.1,0L46.3,3l0,0L47,2.7c0-0.2-0.1-0.4-0.3-0.6C46.5,2,46.3,2,46,2c-0.1,0-0.2,0.1-0.3,0.1
		l-0.2,0.1l0.3,0.6l0,0l-0.4-0.5c0,0-0.1,0-0.1,0c-0.1,0-0.1,0-0.2,0c-0.1,0-0.1,0-0.2,0l-0.2-0.1c-0.1,0-0.2-0.1-0.3-0.1
		c-0.1,0-0.2,0-0.3-0.1c-0.1,0-0.2,0-0.3,0c-0.1,0-0.2,0-0.3,0c-0.1,0-0.1,0-0.2,0c-0.1,0-0.2-0.1-0.4-0.1l-0.1,0
		c-0.2-0.1-0.5-0.1-0.6-0.2c-0.1,0-0.2-0.1-0.4-0.1l-0.3,0c-0.1,0-0.3,0-0.4,0c0,0-0.1,0-0.1,0c-0.1,0-0.1,0-0.2,0c0,0,0-0.1,0-0.1
		c-0.1-0.4-0.5-0.7-0.9-0.6c-0.1,0-0.2,0-0.3,0.1l0.1,0.6l0,0l-0.3-0.6c-0.3,0-0.5,0.2-0.6,0.5c-0.1,0.2,0,0.5,0.1,0.7c0,0,0,0,0,0
		c0,0-0.1,0.1-0.1,0.1c-0.1,0-0.1,0.1-0.2,0.1c-0.1,0-0.1,0.1-0.2,0.1L38.8,3l-0.4-0.7l-0.1,0l-0.1,0c-0.1,0-0.2,0-0.3,0
		c-0.1,0-0.2,0-0.3,0.1c0,0-0.1,0.1-0.2,0.1l-0.2,0.1l-0.2,0l-0.4,0c-0.1,0-0.1,0-0.2,0l-0.1,0c-0.2,0-0.3,0-0.5,0
		c-0.1,0-0.2,0.1-0.4,0.1c0,0-0.1,0-0.2,0.1s-0.1,0.1-0.2,0.1C35,2.9,34.9,3,34.8,3.1l-0.6,0.6C34.2,3.8,34.1,3.9,34,4
		c-0.1,0.1-0.1,0.2-0.2,0.3c0,0.1-0.1,0.2-0.1,0.4l0,0.2c0,0,0,0.1,0,0.1c0,0.1,0,0.1-0.1,0.2l0.7,0.3l-0.8-0.1c0,0-0.1,0-0.1,0
		c-0.2,0-0.4,0.1-0.5,0.3c-0.1,0.2-0.2,0.4-0.2,0.6c0,0.1,0,0.1,0,0.2c0,0.1-0.1,0.2-0.1,0.3c0,0,0,0.1-0.1,0.1c0,0-0.1,0.1-0.2,0.2
		L33,7.7l-0.6-0.4c-0.1,0.1-0.1,0.1-0.2,0.3c0,0-0.1,0.1-0.1,0.2c0,0.1-0.1,0.2-0.1,0.3c0,0,0,0.1,0,0.2c0,0.1,0.1,0.2,0.1,0.3
		l0.1,0.2c0,0,0,0.2,0,0.2c0,0.1,0.1,0.2,0.1,0.3l0,0c0,0,0,0,0,0c0,0,0,0,0,0c-0.1,0-0.3,0-0.4,0c0,0,0,0,0,0c0,0-0.1,0-0.1,0
		c-0.1,0-0.2,0-0.3,0c0,0,0,0,0,0c0,0-0.1,0-0.1,0c-0.1,0-0.1,0-0.2-0.1c0,0-0.1,0-0.1,0c-0.1,0-0.1,0-0.3,0c-0.1,0-0.2,0-0.3,0.1
		c0,0-0.1,0-0.1,0c-0.1,0-0.1,0.1-0.3,0.2L30,9.5c0,0,0-0.1,0.1-0.1c0-0.1,0.1-0.2,0.1-0.3c0-0.2,0-0.5-0.2-0.7c0,0-0.1-0.1-0.1-0.1
		c0,0,0,0,0,0c0,0-0.1-0.1-0.2-0.1c-0.1,0-0.2,0-0.2-0.1l-0.1,0L28.7,8c-0.2,0-0.3-0.1-0.5-0.1c-0.1,0-0.2-0.1-0.3-0.1l-0.1-0.1
		c0,0-0.1,0-0.1-0.1c-0.1-0.1-0.2-0.1-0.3-0.3c-0.1-0.1-0.2-0.1-0.3-0.2C27,7,27,7,26.9,6.9C26.6,6.8,26.3,6.8,26,7
		c0,0-0.1,0.1-0.1,0.2c0,0,0,0.1-0.1,0.1c0,0.1-0.1,0.1-0.1,0.2c-0.1-0.1-0.3-0.2-0.5-0.2c-0.3,0-0.6,0.2-0.7,0.5
		c-0.1,0.1-0.1,0.3-0.1,0.5c0,0.1,0,0.1,0,0.2c0,0,0,0-0.1,0c-0.2,0-0.4,0.1-0.5,0.1l-0.2,0.1c-0.1,0-0.3,0.1-0.4,0.1
		c-0.1,0-0.1,0.1-0.2,0.1c-0.2,0.1-0.4,0.4-0.4,0.6c0,0.1,0,0.2,0,0.5c0,0.1,0,0.1,0,0.3c-0.1,0-0.2,0.1-0.3,0.1
		c-0.1,0-0.3,0.1-0.5,0.2c-0.1,0-0.2,0.1-0.3,0.2c-0.1,0.1-0.1,0.1-0.2,0.2c0,0,0,0.1-0.1,0.1c0,0,0,0.1-0.1,0.1c0,0,0,0.1,0,0.1
		c0,0,0,0.1,0,0.2c0,0.1,0,0.2,0,0.3c0,0.1,0,0.2,0.1,0.3l0.1,0.2c0,0,0,0.1,0,0.2c0,0.1-0.1,0.1-0.1,0.2c0,0-0.1,0-0.1,0.1
		c-0.2,0.1-0.4,0.2-0.5,0.3c0,0-0.1,0-0.1,0c0,0-0.1,0-0.2,0c-0.1,0-0.3-0.1-0.4-0.1c0,0-0.1,0-0.2,0c-0.3,0-0.6,0.2-0.7,0.5
		c-0.1,0.3-0.1,0.6,0.2,0.8c0.1,0.1,0.1,0.1,0.2,0.2c0.1,0.1,0.1,0.1,0.2,0.2c0.1,0.1,0.1,0.2,0.2,0.2c0.1,0.1,0.1,0.2,0.2,0.3
		c0.1,0.1,0.1,0.2,0.2,0.3l0.1,0.1c0,0,0,0.1,0.1,0.1c0,0.1,0,0.2,0,0.2c-0.1-0.1-0.2-0.1-0.3-0.2c0,0-0.1-0.1-0.1-0.1L19.3,16
		l0.4-0.6l-0.1-0.1c-0.1-0.1-0.1-0.1-0.2-0.2c0,0,0-0.1-0.1-0.2l-0.2-0.5c0-0.1-0.1-0.2-0.1-0.3c0-0.1-0.1-0.1-0.2-0.3
		c0,0-0.1-0.1-0.1-0.1c-0.2-0.2-0.6-0.3-0.9-0.1c-0.1,0.1-0.3,0.1-0.4,0.3c0,0-0.1,0.1-0.1,0.1c0,0-0.1,0.1-0.1,0.1
		c0,0.1-0.1,0.1-0.1,0.3c0,0.1-0.1,0.3-0.1,0.5l0,0.1c0,0.1-0.1,0.2-0.1,0.3l-0.3,0.6c-0.1,0.2-0.1,0.3-0.1,0.6c0,0,0,0.1,0,0.1
		c0,0,0,0.2,0,0.2c0,0.2,0.1,0.5,0.2,0.8l0.1,0.3l0,0.1l0.7,0.3L16.6,18c-0.1,0.1-0.1,0.1-0.2,0.2l-0.2,0.2c0,0-0.1,0.1-0.1,0.1
		c-0.1,0.1-0.1,0.1-0.2,0.3c-0.1,0.1-0.1,0.2-0.2,0.4l-0.1,0.2c0,0-0.1,0.2-0.1,0.2c0,0.1-0.1,0.2-0.1,0.2c-0.1,0-0.2,0.1-0.3,0.2
		C15,20,15,20.2,15,20.3c0,0.1-0.1,0.2-0.1,0.3l-0.1,0.2c0,0-0.1,0.1-0.1,0.1c0,0.1-0.1,0.1-0.2,0.2c0,0-0.1,0.1-0.1,0.1
		c0,0-0.1,0.1-0.1,0.1L14,21.4c-0.1,0-0.1,0.1-0.2,0.1c-0.1,0-0.1,0-0.2,0.1c-0.1,0-0.3,0.1-0.4,0.1l-0.5,0.1
		c-0.2,0-0.4,0.1-0.6,0.2C12,21.9,12,22,11.9,22c-0.1,0-0.1,0.1-0.2,0.1c0,0-0.1,0.1-0.1,0.1l-0.1,0.1c0,0-0.1,0.1-0.1,0.1
		c0,0-0.1,0-0.1,0.1c-0.2,0.1-0.3,0.1-0.5,0.2l-0.5,0.2C10,22.9,9.8,23,9.6,23c-0.1,0.1-0.3,0.1-0.5,0.2c-0.1,0-0.2,0.1-0.3,0.2
		c-0.1,0.1-0.2,0.1-0.3,0.2c-0.1,0.1-0.3,0.2-0.3,0.3c0,0-0.1,0.1-0.1,0.1l-0.2,0.3l0.5,0.6l-0.6-0.5c-0.1,0-0.1,0-0.2,0.1
		c-0.1,0-0.2,0-0.4,0c-0.1,0-0.2,0.1-0.3,0.1l-0.2,0c0,0-0.1,0-0.1,0l-0.2,0c-0.1,0-0.2,0-0.4,0c0,0-0.1,0-0.1,0
		c-0.1,0-0.2,0.1-0.4,0.1c-0.1,0-0.1,0.1-0.2,0.1c-0.1,0-0.1,0.1-0.2,0.1c-0.2,0.1-0.3,0.3-0.4,0.5c-0.1,0.1-0.1,0.2-0.2,0.3
		l0.6,0.4l-0.7-0.3c-0.1,0.1-0.1,0.2-0.2,0.3l-0.1,0.1c0,0-0.1,0.1-0.1,0.1c0,0-0.1,0.1-0.1,0.1l-0.2,0.2c0,0-0.1,0.1-0.1,0.1
		l-0.2,0.2c0,0-0.1,0.1-0.1,0.1c-0.1,0.1-0.1,0.1-0.2,0.1c-0.2,0-0.3,0.1-0.5,0.1c0,0-0.2,0-0.2,0c0,0-0.1,0-0.2,0c0,0-0.1,0-0.1,0
		c-0.1,0-0.2,0-0.3,0.1c0,0-0.1,0-0.1,0c-0.1,0.1-0.3,0.2-0.3,0.3c0,0,0,0.1,0,0.1c0,0,0,0.2,0,0.2c0,0.1,0,0.3-0.1,0.4c0,0,0,0,0,0
		c-0.1-0.2-0.4-0.3-0.6-0.3c-0.2,0-0.5,0.1-0.6,0.3c0,0.1-0.1,0.1-0.1,0.2c0,0.1-0.1,0.2-0.1,0.3c0,0.3,0,0.5,0,0.9l0.2,1.4
		c0,0.1,0,0.2,0,0.3c0,0,0,0.1,0,0.1l0,0.1c0,0,0,0.1,0,0.1l-0.1,0.3c-0.1,0.2-0.1,0.4-0.1,0.7c0,0.1,0,0.3,0,0.4c0,0.1,0,0.3,0,0.4
		c0,0.1,0,0.1,0,0.2c0,0.1,0,0.1,0.1,0.3c0,0.1,0.1,0.2,0.1,0.2c0,0,0.1,0.1,0.2,0.2c0,0,0.1,0.1,0.1,0.1c0,0.1,0.1,0.1,0.1,0.2l0,0
		c0,0.1,0.1,0.1,0.1,0.2c0.1,0.1,0.1,0.2,0.2,0.3c0.1,0.1,0.1,0.2,0.3,0.3l0.3,0.3c0,0,0.1,0.1,0.1,0.1l0.1,0.1c0,0,0.1,0.1,0.2,0.2
		c0,0,0,0.1,0,0.1c0,0.1,0,0.1,0,0.2l0,0.2c0,0.1,0,0.1,0,0.2C2,37,1.9,37,1.8,37.1c-0.2,0.2-0.4,0.5-0.3,0.8c0,0.1,0,0.1,0.1,0.2
		c-0.3,0-0.5,0.2-0.6,0.4c-0.1,0.3,0,0.7,0.3,0.9c0.1,0,0.1,0.1,0.2,0.2l0.2,0.2l0.4,0.4c0.1,0.1,0.2,0.3,0.4,0.4
		c0.1,0.1,0.1,0.1,0.2,0.3l0.1,0.1C2.9,41,3,41.2,3.1,41.3c0,0,0.1,0.1,0.1,0.2c0,0,0,0.1,0.1,0.1c0,0.1,0,0.1,0.1,0.2
		c0,0.1,0,0.1,0.1,0.2l0.1,0.3c0,0.1,0.1,0.2,0.1,0.3c0.1,0.1,0.1,0.3,0.2,0.4c0.1,0.1,0.2,0.3,0.3,0.4c0.1,0.2,0.2,0.3,0.4,0.4
		l0.4,0.4c0.1,0.1,0.2,0.2,0.3,0.3c0,0.1,0.1,0.1,0.1,0.2c0,0.1,0,0.1,0.1,0.2L5.3,45c0,0.1,0,0.2,0.1,0.3c0,0.1,0,0.1,0,0.3
		c0,0.2,0,0.3,0,0.5c0,0.2,0,0.4,0,0.6c0,0.2,0,0.4,0,0.6c0,0.1,0,0.2,0.1,0.3c0,0.1,0.1,0.2,0.1,0.3c0.1,0.1,0.1,0.3,0.2,0.4
		l0.3,0.3c0.1,0.1,0.2,0.3,0.2,0.4c0.1,0.1,0.1,0.2,0.2,0.3l0.1,0.1c0.1,0.1,0.2,0.2,0.3,0.4l0.3,0.4c0.1,0.2,0.2,0.3,0.2,0.4
		c0,0,0,0.1,0,0.2c0,0.1,0,0.1,0,0.2c0,0,0,0.1,0,0.1c0,0.1-0.1,0.2-0.1,0.4c-0.1,0.2-0.1,0.4-0.2,0.6c0,0.1,0,0.2,0,0.4
		c0,0,0,0.1,0,0.1c0,0.1,0,0.2,0,0.2l0.1,0.5c0,0.1,0,0.1,0,0.2c0,0.1,0,0.1,0,0.2c0,0.1,0,0.1-0.1,0.3l-0.2,0.1
		c0,0-0.1,0.1-0.1,0.1c-0.1,0-0.1,0.1-0.3,0.2c0,0-0.1,0.1-0.1,0.1c0,0-0.1,0.1-0.1,0.1l0,0c-0.1,0.1-0.1,0.3-0.1,0.5
		c0,0,0,0.1,0,0.1c0,0.1,0,0.1,0.1,0.2c0,0.1,0.1,0.2,0.2,0.2L7.1,55l-0.6,0.5c0,0.1,0.1,0.1,0.1,0.2l0,0.2c0,0.1,0.1,0.2,0.1,0.4
		c0,0.1,0.1,0.2,0.2,0.3c0,0,0.1,0.1,0.1,0.1c0,0,0.1,0.1,0.1,0.1c0.1,0.1,0.2,0.1,0.4,0.2l0.6,0.3c0,0,0.1,0,0.1,0l0.6,0.2
		c0.2,0.1,0.3,0.1,0.5,0.1c0.2,0,0.3,0.1,0.6,0.1c0.1,0,0.2,0,0.3,0c0.1,0,0.2,0,0.4,0l0.2,0l0.2,0c0.1,0,0.2,0,0.4,0
		c0.1,0,0.3,0,0.4-0.1c0.2,0,0.4-0.1,0.6-0.2c0.1,0,0.2-0.1,0.2-0.1c0.1,0,0.1-0.1,0.2-0.2c0.1-0.1,0.2-0.2,0.3-0.3l0.2-0.2
		c0,0,0.1-0.1,0.1-0.1c0,0,0.1-0.1,0.1-0.1l0.3-0.4c0.1-0.1,0.1-0.2,0.2-0.3l-0.4-0.6l0.6,0.5l0.2-0.1c0.1,0,0.1,0,0.2,0l0.2-0.1
		c0,0,0.1,0,0.1-0.1c0.1,0,0.2-0.1,0.3-0.2c0,0,0.1-0.1,0.1-0.1c0,0,0.1-0.1,0.1-0.1c0,0,0.1-0.2,0.1-0.2l0.1-0.2c0,0,0-0.1,0-0.1
		c0,0,0.1-0.1,0.1-0.1l0.1,0c0.2,0,0.4-0.1,0.6-0.1c0.3-0.1,0.5-0.1,0.8-0.2c0.1,0,0.3-0.1,0.4-0.1c0.1,0,0.2-0.1,0.3-0.1
		c0,0,0.2,0,0.2,0l0.2,0c0.1,0,0.3,0,0.4,0c0.2,0,0.3,0,0.5,0c0.2,0,0.4,0,0.6,0c0.3,0,0.5,0,0.8,0l0.4,0c0.1,0,0.3,0,0.4,0
		c0.2,0,0.3,0,0.6-0.1l0.2,0c0.1,0,0.2-0.1,0.4-0.1c0.1,0,0.1-0.1,0.2-0.1c0,0,0.1-0.1,0.2-0.1c0.1-0.1,0.1-0.1,0.2-0.3
		c0.1-0.1,0.1-0.2,0.2-0.4l0.1-0.2c0-0.1,0.1-0.1,0.1-0.2c0.1-0.1,0.3-0.2,0.3-0.4c0-0.1,0.1-0.2,0.1-0.3c0-0.1,0-0.2,0-0.2l0.1,0
		c0,0,0-0.1,0.1-0.1c0,0,0.1-0.1,0.1-0.1c0.1-0.1,0.2-0.2,0.4-0.3c0.1-0.1,0.2-0.1,0.3-0.2l0.3-0.2c0.1-0.1,0.2-0.1,0.3-0.1
		c0.1,0,0.1-0.1,0.2-0.1l0.2-0.1l-0.3-0.7l0.4,0.6l0.2-0.1c0,0,0.1,0,0.1,0c0,0,0.1,0,0.1-0.1c0.1,0,0.2-0.1,0.3-0.2l0.3-0.2
		c0.1-0.1,0.2-0.1,0.2-0.2l0.1-0.1l0.1,0c0.1,0,0.2,0,0.3,0l0.1,0c0.2,0,0.4,0,0.5,0l0.9,0.1c0.1,0,0.3,0,0.4,0
		c0.2,0,0.4-0.1,0.6-0.2l0.6-0.3c0.1-0.1,0.2-0.1,0.3-0.2c0.1-0.1,0.2-0.1,0.3-0.2c0,0,0.1-0.1,0.2-0.2l0.1-0.1c0,0,0.1-0.1,0.1-0.1
		c0.1-0.1,0.1-0.1,0.1-0.1l0-0.1c0,0,0.1,0,0.1,0.1l0,0.1c0.2,0,0.3,0,0.5,0c0,0,0,0,0,0l0.2,0c0.1,0,0.3-0.1,0.3-0.1
		c0,0,0.1,0,0.2,0c0.2,0,0.4,0,0.5-0.1l-0.3-0.7l0.4,0.6c0,0,0.1,0,0.1,0c0.1,0,0.1,0,0.2,0l0.1,0c0.1,0,0.3,0,0.5,0.1
		c0.1,0,0.2,0,0.2,0.1c0.1,0,0.2,0,0.4,0.1c0.1,0,0.2,0,0.4,0c0.2,0,0.3-0.1,0.5-0.1c0,0,0.1,0,0.1,0c0.1,0,0.1,0,0.2-0.1
		c0,0,0,0,0,0c0,0,0.2,0,0.2,0l0.1,0c0.1,0,0.2,0.1,0.3,0.1c0.1,0,0.2,0,0.3,0.1c0,0,0.1,0,0.1,0c0.1,0,0.2,0,0.2,0.1
		c0.1,0,0.2,0.1,0.3,0.1c0.1,0.1,0.3,0.2,0.4,0.2c0.1,0,0.1,0.1,0.2,0.2c0.1,0.1,0.2,0.1,0.3,0.2c0.1,0.1,0.2,0.1,0.3,0.2
		c0.1,0.1,0.2,0.1,0.3,0.2c0.1,0,0.3,0.1,0.4,0.1l0.4,0c0.1,0,0.2,0,0.4,0.1c0,0,0.1,0,0.1,0c0.1,0,0.2,0.1,0.2,0.1
		c0.1,0,0.1,0.1,0.2,0.1c0.1,0,0.1,0.1,0.2,0.2c0,0,0,0.1,0,0.1c0,0.1,0,0.1,0,0.2c0,0.1,0,0.2,0,0.4c0,0,0,0.1,0,0.1
		c0,0.1,0.1,0.3,0.1,0.4c0,0.1,0.1,0.2,0.1,0.2l0.1,0.1c0.1,0.1,0.1,0.2,0.2,0.3l0.5,0.5c0.1,0.1,0.1,0.1,0.2,0.2
		c0.1,0.1,0.1,0.1,0.2,0.2c0.1,0.1,0.1,0.1,0.2,0.2c0.1,0.2,0.2,0.3,0.2,0.4c0,0.1,0,0.1,0.1,0.2l0.1,0.4c0,0.1,0,0.1,0.1,0.3
		c0,0,0,0.1,0,0.1c0,0.1,0.1,0.2,0.1,0.3c0,0.1,0.1,0.2,0.1,0.3c0.1,0.2,0.4,0.3,0.6,0.3c0,0,0,0,0,0c0.2,0,0.5-0.1,0.6-0.3
		c0.1-0.1,0.1-0.2,0.2-0.3l-0.5-0.3l0,0l0.6,0.2c0.1-0.1,0.1-0.2,0.2-0.3c0.1-0.1,0.2-0.3,0.3-0.4c0.1-0.1,0.1-0.2,0.2-0.3L45.8,53
		l0.7,0.3c0-0.1,0.1-0.1,0.1-0.2c0.1-0.1,0.1-0.1,0.3-0.2l0.2,0c0.1,0,0.2,0,0.3,0c0,0,0.1,0,0.2,0c0,0,0.1,0,0.1-0.1
		c0,0,0.1,0,0.2-0.1c0,0,0.1-0.1,0.2-0.2c0.1-0.1,0.2-0.3,0.3-0.4l0.2-0.4c0-0.1,0.1-0.1,0.1-0.2l-0.1,0.2c0,0.1-0.1,0.2-0.1,0.3
		c0,0.1-0.1,0.2-0.1,0.3l-0.1,0.3c0,0.1,0,0.2-0.1,0.3c-0.1,0.2-0.1,0.3-0.2,0.5c-0.1,0.1-0.1,0.2-0.3,0.4c-0.1,0.1-0.1,0.2-0.2,0.3
		c0,0-0.1,0.1-0.1,0.2c0,0-0.1,0.1-0.1,0.1c-0.1,0.2-0.2,0.5-0.3,0.8c0,0,0,0.1,0,0.1c0,0.4,0.3,0.8,0.8,0.8c0.1,0,0.2,0,0.3,0
		c0.1,0,0.3-0.1,0.5-0.1c0,0,0.1-0.1,0.1-0.1c0,0,0.1,0,0.1-0.1c0,0,0.1-0.1,0.2-0.2c0.1-0.1,0.1-0.2,0.2-0.4c0-0.1,0.1-0.2,0.1-0.3
		c0-0.1,0-0.2,0.1-0.3c0,0.1,0,0.1,0.1,0.3c0,0.1,0.1,0.2,0.2,0.3c0,0,0.1,0.1,0.1,0.1c0,0,0,0-0.1,0.1c-0.1,0.1-0.2,0.2-0.2,0.4
		c0,0.1-0.1,0.2-0.1,0.4c0,0,0,0.1,0,0.1c0,0,0,0.1,0,0.1c0,0.4,0.3,0.7,0.7,0.7c0.1,0,0.2,0,0.3,0c0.1,0,0.1,0,0.2,0
		c0.1,0,0.1,0,0.2,0c0,0,0.2-0.1,0.2-0.1c0,0,0,0.1,0,0.1c0,0.1,0,0.1,0,0.2c0,0.1,0,0.1,0,0.2c0,0.2,0.1,0.5,0.2,0.7
		c0,0.1,0.1,0.2,0.2,0.3c0,0,0.1,0.1,0.1,0.1c0,0,0.1,0.1,0.1,0.1c0,0.1,0.1,0.1,0.1,0.2c0,0.1,0.1,0.3,0.1,0.5
		c0.1,0.3,0.1,0.6,0.1,0.8l0,0.3c0,0.1,0,0.2,0.1,0.3c0,0.1,0,0.1,0.1,0.2l0.1,0.3c0.1,0.1,0.1,0.3,0.2,0.4c0.1,0.1,0.2,0.3,0.4,0.4
		l0.6,0.5c0,0,0.1,0.1,0.1,0.1c0.1,0.1,0.2,0.3,0.4,0.3c0,0,0.4,0.3,0.5,0.4c0.2,0.2,0.5,0.3,0.8,0.2c0,0,0,0,0,0l0.1,0
		c0,0,0.1,0,0.2,0v-0.2c0,0,0.1-0.1,0.1-0.1l0.1,0.3L56,64c0.1,0,0.3,0.1,0.4,0.1c0.1,0,0.3,0.1,0.5,0.1l0.3,0l0.1-0.7l0,0.8
		c0,0,0.1,0.1,0.1,0.1l0.1,0.1c0,0,0.1,0.1,0.1,0.2c0.1,0.1,0.2,0.2,0.3,0.3c0.1,0.1,0.3,0.2,0.5,0.3c0.1,0,0.2,0.1,0.3,0.1
		c0.1,0,0.2,0,0.3,0c0,0,0.1,0,0.1,0c0,0,0.1,0,0.1,0c0,0,0.1,0,0.1-0.1c0.1,0,0.1-0.1,0.3-0.2c0.1-0.1,0.1-0.1,0.3-0.3l0.1-0.2
		c0,0,0-0.1,0.1-0.1c0.1,0,0.1,0,0.3,0.1c0,0,0.2,0,0.2,0c0.1,0,0.2,0,0.2-0.1c0,0,0.1,0,0.1,0c0,0,0,0.1,0,0.1
		c0,0.1,0.1,0.3,0.2,0.3c0,0,0.1,0.1,0.1,0.1c0,0,0.1,0.1,0.1,0.1c0,0,0.1,0,0.1,0c0.1,0,0.1,0,0.3,0.1l0.2,0.1c0.1,0,0.1,0,0.2,0.1
		c0,0,0.1,0.1,0.1,0.1c0,0,0.1,0.1,0.1,0.1c0,0.1,0.1,0.1,0.1,0.2c0,0,0.1,0.1,0.1,0.1c0.1,0.1,0.1,0.2,0.2,0.3
		c0.1,0.1,0.2,0.2,0.3,0.3c0.1,0.1,0.2,0.1,0.3,0.2c0.1,0,0.2,0.1,0.3,0.1c0,0,0.1,0,0.1,0c0,0,0.1,0,0.2,0c0,0,0.2,0,0.2,0
		c0,0,0.2,0,0.2-0.1c0.1,0,0.2-0.1,0.3-0.2l0.1-0.1c0.2-0.2,0.2-0.5,0.2-0.8c0,0,0,0,0-0.1l0,0c0.1,0,0.3-0.1,0.6-0.2
		c0.1-0.1,0.2-0.1,0.4-0.2c0.1-0.1,0.1-0.1,0.2-0.2l0.1-0.1c0,0,0.1-0.1,0.2-0.2L66.1,64l0.4,0.6c0.1,0,0.1,0,0.3,0
		c0.1,0,0.1,0,0.2,0l0.3,0c0.2,0,0.4,0,0.6,0c0.2,0,0.3,0,0.4,0s0.2,0,0.3,0c0.1,0,0.2,0,0.4-0.1c0.1,0,0.2-0.1,0.3-0.1l0.3-0.1
		c0.1,0,0.2-0.1,0.4-0.1c0.1,0,0.2-0.1,0.3-0.2c0.1-0.1,0.2-0.1,0.3-0.2c0,0,0.1-0.1,0.1-0.1c0,0,0.1-0.1,0.1-0.1
		c0.1-0.1,0.1-0.1,0.1-0.2c0,0,0.1-0.1,0.2-0.2c0,0,0.1-0.1,0.2-0.2c0.1-0.1,0.1-0.2,0.2-0.3l0-0.1c0-0.1,0.1-0.1,0.1-0.2
		c0-0.1,0-0.2,0.1-0.4l0-0.1c0-0.1,0-0.2,0.1-0.4l0-0.2c0-0.2,0.1-0.3,0.1-0.5c0-0.1,0-0.1,0.1-0.2c0-0.1,0-0.1,0.1-0.2
		c0.1-0.1,0.1-0.2,0.2-0.4c0.1-0.1,0.2-0.3,0.3-0.4c0.1-0.1,0.2-0.2,0.3-0.4c0-0.1,0.1-0.1,0.1-0.2l0.1-0.2c0.1-0.1,0.1-0.2,0.2-0.4
		c0-0.1,0.1-0.2,0.1-0.3l0-0.1l-0.7-0.2l0.7,0.1c0-0.1,0.1-0.3,0.2-0.4c0.1-0.1,0.1-0.2,0.2-0.4l0.1-0.1c0.1-0.1,0.2-0.2,0.2-0.4
		c0.1-0.1,0.2-0.3,0.2-0.5l0-0.1c0.1-0.1,0.1-0.3,0.2-0.4c0-0.1,0.1-0.1,0.1-0.2l0.1-0.2c0.1-0.1,0.1-0.2,0.2-0.3
		c0-0.1,0.1-0.2,0.1-0.3c0-0.1,0.1-0.2,0.1-0.2l0-0.1l-0.7-0.2l0.8,0.1c0-0.1,0-0.1,0.1-0.2c0,0,0-0.1,0.1-0.1c0,0,0.1-0.1,0.1-0.1
		c0-0.1,0.1-0.1,0.2-0.2c0,0,0.1-0.1,0.2-0.1l0.6-0.4c0.1,0,0.1-0.1,0.1-0.1c0.1-0.1,0.1-0.1,0.2-0.2c0-0.1,0.1-0.1,0.2-0.2l0.1-0.2
		c0.1-0.1,0.1-0.3,0.2-0.5l0.3-0.6c0.1-0.1,0.1-0.2,0.2-0.3l0.2-0.2c0,0,0.1-0.1,0.1-0.1c0.2-0.2,0.5-0.5,0.8-0.8
		c0.1-0.1,0.1-0.2,0.2-0.3c0.1-0.1,0.1-0.2,0.2-0.3l0.1-0.4c0-0.1,0.1-0.2,0.1-0.3c0.1-0.1,0.1-0.2,0.2-0.4l0.1-0.2
		c0.1-0.2,0.2-0.3,0.3-0.5c0.1-0.1,0.1-0.2,0.2-0.3c0-0.1,0.1-0.1,0.1-0.2c0,0,0.1-0.1,0.1-0.1c0-0.1,0.1-0.1,0.1-0.2
		c0,0,0-0.1,0-0.1c0.2-0.5,0.2-0.9,0.3-1.3c0-0.3,0.1-0.5,0.1-0.8l0-0.3c0-0.3,0.1-0.8,0.1-1.3c0-0.2,0-0.4,0-0.5
		C81.3,42.6,81.3,42.6,81.3,42.6z M30,9.6C30,9.6,30,9.6,30,9.6L30,9.6C30,9.6,30,9.6,30,9.6z M2.8,28.2L2.8,28.2l-0.1-0.3L2.8,28.2
		z M2.7,28.2L2.7,28.2L2.6,28L2.7,28.2z M1.6,28.7C1.6,28.7,1.6,28.7,1.6,28.7l0.6,0.1L1.6,28.7l-0.1,0C1.5,28.7,1.6,28.7,1.6,28.7z
		 M0.8,34.8C0.7,34.8,0.7,34.7,0.8,34.8l0.6-0.4L0.8,34.8z M31.1,48l-0.2-0.2l0.5,0.4L31.1,48z M31.8,31.5l-0.1,1c0,0.2,0,0.4,0,0.6
		l-0.1,1.2c0,0,0,0.1,0,0.1s0,0.1,0,0.1c0,0,0,0,0,0.1c0,0.3,0,0.5-0.1,0.7l0,0.2c0,0.1,0,0.3,0,0.4L31.3,37c0,0.2,0,0.3,0,0.5
		l-0.1,1.1c0,0.1,0,0.2,0,0.3c0,0.2,0,0.4,0,0.7c0,0.2,0,0.4,0.1,0.6l0.1,0.7c0,0.2,0.1,0.4,0.1,0.6c0,0.1,0,0.2,0.1,0.4l0.1,0.7
		c0,0.4,0.1,0.7,0,1l-0.1,1.8c0,0.1,0,0.2,0,0.3c0,0.1,0,0.2,0,0.4c0,0.2,0,0.5,0.1,0.7c0,0,0,0.1,0,0.1c-0.1,0-0.2,0.1-0.3,0.1
		c-0.3,0.2-0.4,0.4-0.6,0.6l-0.1,0.1l0,0c0,0-0.1,0.1-0.1,0.1c-0.1,0-0.1,0.1-0.2,0.1L30,48.1l0.3,0.7l-0.4-0.6c-0.1,0-0.2,0-0.2,0
		c0,0-0.1,0-0.2,0l-0.7-0.1c-0.2,0-0.4,0-0.7,0l-0.1,0c-0.2,0-0.3,0-0.4,0c-0.1,0-0.2,0-0.3,0.1c-0.1,0-0.2,0.1-0.3,0.1
		c-0.1,0-0.2,0.1-0.3,0.2c-0.1,0.1-0.3,0.2-0.5,0.3L26,48.9c0,0-0.1,0-0.1,0.1L25.6,49l0.3,0.7l-0.4-0.7c-0.1,0-0.1,0.1-0.2,0.1
		c-0.1,0-0.2,0.1-0.3,0.1c-0.2,0.1-0.3,0.2-0.5,0.2l-0.4,0.2c-0.1,0-0.1,0.1-0.2,0.1c-0.2,0.1-0.4,0.2-0.6,0.4
		c-0.1,0.1-0.2,0.2-0.4,0.4c-0.1,0.1-0.1,0.2-0.2,0.3l-0.1,0.2c0,0,0,0.1-0.1,0.2c0,0-0.1,0.1-0.1,0.1l-0.1,0.2c0,0.1,0,0.1,0,0.2
		c0,0,0,0.1-0.1,0.1l-0.2,0.3c0,0.1-0.1,0.1,0,0.1c-0.1,0-0.1,0-0.3,0.1c-0.1,0-0.3,0-0.4,0c-0.1,0-0.2,0-0.3,0l-0.4,0
		c-0.3,0-0.5,0-0.8,0c-0.1,0-0.3,0-0.4,0c-0.2,0-0.3,0-0.6,0c-0.2,0-0.4,0-0.6,0c-0.1,0-0.1,0-0.2,0l-0.1,0c-0.1,0-0.1,0-0.2,0
		c-0.1,0-0.1,0-0.2,0c-0.1,0-0.2,0.1-0.4,0.1c-0.1,0-0.2,0.1-0.3,0.1c-0.2,0.1-0.4,0.1-0.7,0.2c-0.2,0-0.4,0.1-0.7,0.1l-0.1,0
		c-0.1,0-0.3,0.1-0.4,0.2c-0.1,0.1-0.2,0.1-0.2,0.2c-0.1,0.1-0.2,0.2-0.2,0.3c-0.1,0.2-0.2,0.4-0.2,0.5l-0.2,0.1
		c-0.1,0-0.2,0-0.2,0.1c-0.1,0-0.2,0-0.2,0.1c-0.1,0.1-0.3,0.1-0.4,0.2c-0.3,0.2-0.4,0.5-0.6,0.7l-0.2,0.2c0,0-0.1,0.1-0.1,0.1
		l-0.1,0.1c-0.1,0.1-0.1,0.1-0.1,0.1L12,56.1c0,0-0.1,0-0.1,0c0,0,0,0,0,0c-0.1,0-0.2,0.1-0.3,0.1c-0.1,0-0.2,0-0.3,0.1
		c-0.1,0-0.1,0-0.2,0l-0.2,0l0,0.8l-0.2-0.8c-0.1,0-0.2,0-0.3,0l-0.2,0c-0.1,0-0.3,0-0.4-0.1c-0.1,0-0.3-0.1-0.4-0.1l-0.7-0.2
		l-0.4-0.2c0,0-0.1-0.1-0.1-0.1c0,0,0,0-0.1,0c0,0,0-0.1,0-0.1L8,55.2C8,55.2,8,55.1,7.9,55c0.1,0,0.1-0.1,0.2-0.1
		c0.1-0.1,0.1-0.1,0.2-0.2c0.1-0.1,0.1-0.1,0.2-0.2c0,0,0.1-0.1,0.1-0.1c0.1-0.1,0.1-0.3,0.1-0.4c0-0.1,0-0.2,0.1-0.3
		c0-0.1,0-0.3,0-0.4c0-0.1,0-0.2,0-0.3l-0.2-0.7c0-0.1,0-0.2,0.1-0.2c0.1-0.1,0.1-0.3,0.2-0.5c0-0.1,0.1-0.2,0.1-0.3
		c0-0.2,0-0.4,0-0.6l0-0.1c0-0.2-0.1-0.3-0.1-0.5c-0.1-0.3-0.3-0.5-0.4-0.8L8,48.8c-0.1-0.1-0.1-0.2-0.2-0.3l-0.1-0.1
		c-0.1-0.1-0.1-0.2-0.2-0.3c-0.1-0.1-0.2-0.3-0.3-0.5L7,47.3C7,47.3,7,47.2,7,47.2c0,0,0-0.1,0-0.1c0,0,0-0.1,0-0.1
		c0-0.1,0-0.3,0-0.4c0-0.2,0-0.3,0-0.5c0-0.1,0-0.3,0-0.4c0-0.2,0-0.3,0-0.6c0-0.1-0.1-0.3-0.1-0.4l-0.1-0.2c0-0.1-0.1-0.2-0.2-0.4
		c-0.1-0.1-0.1-0.3-0.2-0.4c-0.1-0.2-0.3-0.4-0.4-0.5l-0.4-0.4c-0.1-0.1-0.2-0.2-0.3-0.3c0-0.1-0.1-0.1-0.1-0.2
		C5.1,42.2,5,42.1,5,42c0,0,0-0.1,0-0.1l-0.1-0.3c0-0.1,0-0.2-0.1-0.3c0-0.1-0.1-0.2-0.1-0.3c0-0.1-0.1-0.2-0.2-0.3
		c-0.1-0.1-0.1-0.2-0.2-0.3c-0.1-0.2-0.3-0.3-0.4-0.5c-0.1-0.1-0.1-0.1-0.2-0.2c0,0-0.1-0.1-0.1-0.2c-0.1-0.1-0.2-0.2-0.3-0.4l0,0
		c0,0,0,0,0-0.1c0.1-0.2,0.1-0.3,0.1-0.5c0,0,0,0,0,0c0.1-0.1,0.1-0.1,0.2-0.2c0.1-0.1,0.2-0.2,0.2-0.4c0,0,0-0.1,0-0.1l0-0.2
		c0-0.1,0-0.2,0-0.2c0-0.1,0-0.2-0.1-0.3c0-0.1-0.1-0.2-0.1-0.3l0-0.1c0-0.1,0-0.1,0-0.2l0-0.2c0-0.1,0-0.2-0.1-0.4
		c0-0.1-0.1-0.2-0.1-0.3c0-0.1-0.1-0.2-0.2-0.3C3.1,35.2,3,35.1,2.9,35c0,0-0.1-0.1-0.2-0.1l-0.5,0.5l0.4-0.6l-0.4-0.3
		c0,0-0.1-0.1-0.1-0.1c0,0,0,0,0,0c0-0.1-0.1-0.1-0.1-0.2c0,0-0.1-0.1-0.1-0.1l-0.7,0.3L2,34c-0.1-0.1-0.1-0.2-0.2-0.3
		c-0.1-0.1-0.1-0.1-0.2-0.2l0-0.1c0-0.1,0-0.2,0-0.3c0-0.1,0-0.1,0-0.1c0-0.2,0.1-0.3,0.1-0.5l0.1-0.4c0-0.1,0-0.1,0.1-0.2
		c0-0.2,0.1-0.3,0.1-0.5c0-0.1,0-0.3,0-0.4l-0.1-0.8c0,0,0,0,0,0c0.1,0,0.2,0,0.4-0.1c0,0,0.1,0,0.1,0c0,0,0.1,0,0.1-0.1
		c0,0,0.1-0.1,0.1-0.1c0,0,0.1-0.1,0.1-0.1c0.1-0.1,0.1-0.1,0.2-0.2c0.1-0.1,0.1-0.2,0.2-0.4c0-0.1,0.1-0.2,0.1-0.3
		c0-0.1,0-0.2,0.1-0.3c0.2,0,0.4,0,0.6-0.1c0.2,0,0.4-0.1,0.7-0.3c0.1-0.1,0.2-0.1,0.3-0.2C4.6,28,4.6,28,4.7,27.9l-0.5-0.6l0.6,0.5
		L5,27.6c0.1-0.1,0.1-0.1,0.2-0.2c0.1-0.1,0.1-0.2,0.2-0.2c0-0.1,0.1-0.1,0.1-0.2c0.1-0.1,0.1-0.2,0.2-0.3c0,0,0.1-0.1,0.1-0.1
		c0-0.1,0.1-0.1,0.1-0.1C6,26.3,6,26.3,6.1,26.2c0,0,0.1,0,0.1,0l0.4,0l0-0.7l0,0l0.1,0.7l0.3,0c0.1,0,0.3,0,0.4,0c0,0,0,0,0,0
		C7.6,26,7.7,26,7.8,26c0.2,0,0.3-0.1,0.5-0.2c0.1,0,0.2-0.1,0.2-0.1c0.1-0.1,0.2-0.1,0.3-0.2C8.9,25.4,9,25.4,9,25.3l0.1-0.1
		c0.1-0.1,0.1-0.2,0.2-0.3c0,0,0-0.1,0.1-0.1c0.1,0,0.1-0.1,0.2-0.1c0.1,0,0.1-0.1,0.2-0.1c0,0,0.1,0,0.1,0c0.1-0.1,0.3-0.1,0.4-0.2
		c0.2-0.1,0.3-0.1,0.4-0.2l0.5-0.2c0.2-0.1,0.4-0.2,0.6-0.2c0.1,0,0.2-0.1,0.3-0.2c0.1-0.1,0.2-0.1,0.3-0.2l0.1-0.1L12,22.8l0.6,0.5
		l0.1-0.1c0.1-0.1,0.3-0.1,0.4-0.1l0.1,0l0.3-0.1c0.2,0,0.3-0.1,0.5-0.1c0.1,0,0.2-0.1,0.3-0.1c0.1-0.1,0.3-0.1,0.4-0.2l0.2-0.1
		c0.1,0,0.2-0.1,0.3-0.2c0.1-0.1,0.2-0.1,0.2-0.2c0.1-0.1,0.2-0.2,0.4-0.3c0.1-0.1,0.2-0.3,0.3-0.5l0.1-0.2c0-0.1,0-0.1,0.1-0.2
		l0.1-0.1c0,0,0,0,0,0c0,0,0.1-0.1,0.1-0.1c0.1-0.1,0.2-0.3,0.3-0.4c0.1-0.2,0.1-0.3,0.2-0.5l0.1-0.3c0,0,0-0.1,0.1-0.1l0.2-0.1
		c0.1-0.1,0.2-0.1,0.3-0.2c0.1-0.1,0.2-0.2,0.3-0.2c0-0.1,0.1-0.1,0.1-0.2c0.1-0.1,0.1-0.2,0.1-0.3c0-0.1,0-0.2,0.1-0.2
		c0-0.1,0-0.2,0-0.3c0-0.1,0-0.1,0-0.2c0-0.1,0-0.2,0-0.3l-0.1-0.3c0-0.2-0.1-0.4-0.1-0.6c0-0.1,0-0.1,0-0.1l0.3-0.5c0,0,0,0,0,0.1
		c0.1,0.1,0.2,0.2,0.3,0.3c0.1,0.1,0.1,0.1,0.2,0.2l0.1,0.1c0,0,0.1,0.1,0.1,0.1c0,0,0.1,0.1,0.1,0.1c0.1,0.1,0.3,0.2,0.5,0.3
		c0.4,0.2,0.8,0.2,1.2,0.1c0.2-0.1,0.5-0.2,0.6-0.4c0.1-0.1,0.1-0.2,0.2-0.3c0.1-0.1,0.1-0.2,0.1-0.3c0.1-0.3,0.1-0.7,0-1.1
		c0-0.1-0.1-0.2-0.1-0.4l-0.1-0.1c-0.1-0.1-0.1-0.2-0.2-0.3c0.2-0.1,0.5-0.2,0.7-0.3c0.1,0,0.1-0.1,0.2-0.1c0.1,0,0.1-0.1,0.2-0.1
		c0.1-0.1,0.2-0.2,0.2-0.2c0.1-0.1,0.2-0.3,0.3-0.5c0-0.1,0.1-0.2,0.1-0.3c0-0.2,0.1-0.3,0.1-0.5c0,0,0-0.1,0-0.1l0-0.1
		c0,0,0-0.1,0-0.1c0,0,0,0,0,0c0,0,0,0,0,0c0.2,0,0.3-0.1,0.5-0.2c0,0,0.1-0.1,0.1-0.1c0.1,0,0.1-0.1,0.2-0.1
		c0.1-0.1,0.2-0.3,0.3-0.4c0.1-0.2,0.2-0.5,0.2-0.7c0,0,0-0.1,0-0.1c0.1,0,0.3,0,0.4-0.1c0.1,0,0.2,0,0.3-0.1c0.1,0,0.3-0.1,0.5-0.2
		c0.1-0.1,0.2-0.2,0.2-0.2c0.2-0.2,0.2-0.3,0.3-0.5c0,0,0,0,0,0C26,9,26.1,9,26.2,9l0.2-0.1c0.1-0.1,0.2-0.1,0.2-0.2
		c0,0,0,0,0.1,0.1c0.1,0.1,0.1,0.1,0.2,0.2C27,8.9,27.1,9,27.1,9c0.2,0.1,0.5,0.2,0.7,0.3c0.2,0.1,0.4,0.1,0.6,0.1l0,0
		c0,0.1,0,0.2,0,0.3l0,0.2c0,0.1,0,0.2,0.1,0.2c0.1,0.2,0.2,0.3,0.3,0.5c0,0,0.1,0.1,0.1,0.1l0.1,0.1c0,0,0.1,0,0.1,0.1
		c0.1,0.1,0.2,0.1,0.2,0.1c0.1,0,0.2,0.1,0.4,0.1c0.1,0,0.2,0,0.3,0c0.1,0,0.2,0,0.3-0.1c0,0,0.2-0.1,0.2-0.1c0,0,0.1-0.1,0.1-0.1
		c0.1-0.1,0.2-0.1,0.2-0.2c0,0,0,0,0,0c0,0,0.1,0,0.1,0.1l0,0.2c0,0.3,0,0.6,0,0.8l0,0.6c0,0.3,0,0.7,0,1c0,0.6,0,1.1,0.1,1.7
		c0,0.5,0,1.1,0,1.6l0,0.5c0,0.4,0,0.8,0,1.2c0,0.5,0,1.1,0,1.7c0,0.6,0,1.1,0.1,1.6l0,3.3c0,0.3,0,0.6,0,0.9c0,0.3,0.1,0.6,0.1,0.9
		c0,0.3,0.1,0.6,0.1,0.8l0.2,2.4c0,0.3,0,0.5,0,0.7C31.8,31,31.8,31.2,31.8,31.5z M66.6,10.8l0.3-0.1L66.6,10.8L66.6,10.8z
		 M52.5,14.4l-0.1,0.3c0,0,0-0.1,0-0.1L52.5,14.4z M52,24.2c0-0.5,0-1,0-1.4l0-0.7c0-0.2,0-0.4,0-0.7l0.1-1.5c0-0.5,0.1-0.9,0.1-1.4
		l0.1-2c0-0.1,0-0.3,0-0.4c0-0.1,0-0.3,0-0.4c0-0.2,0-0.4,0-0.6l0.2,0.1c0.1,0.1,0.3,0.1,0.4,0.2c0.1,0.1,0.2,0.1,0.3,0.2l0.3,0.4
		c0,0.1,0.1,0.1,0.2,0.2c0.1,0.1,0.2,0.2,0.3,0.3c0.1,0.1,0.2,0.2,0.3,0.2l0.1,0.1c0.1,0,0.2,0.1,0.3,0.1c0.2,0.1,0.3,0.1,0.5,0.1
		c0.1,0,0.3,0,0.4,0c0.1,0,0.2,0,0.3,0c0.1,0,0.2,0,0.3-0.1c0.1,0,0.2-0.1,0.3-0.1c0.2-0.1,0.4-0.3,0.6-0.4c0.1-0.1,0.1-0.1,0.2-0.2
		l0.4-0.4c0,0,0.1-0.1,0.1-0.1l0.1-0.1c0,0,0.1-0.1,0.1-0.1c0.1-0.1,0.2-0.1,0.3-0.3l0.1-0.1c0-0.1,0.1-0.1,0.1-0.2
		c0.1-0.1,0.2-0.3,0.2-0.5l0.3-0.7c0.1-0.2,0.1-0.4,0.2-0.6l0.1-0.3c0.1-0.2,0.1-0.3,0.2-0.5c0.1-0.2,0.1-0.3,0.2-0.5
		c0-0.1,0.1-0.2,0.1-0.3l0.1-0.3c0-0.1,0.1-0.1,0.1-0.2c0-0.1,0.1-0.2,0.1-0.3c0-0.1,0-0.2,0.1-0.4l0-0.3c0-0.2,0-0.3,0-0.6
		c0-0.1,0-0.3,0-0.4l-0.1-0.5c0-0.1,0-0.2,0-0.3c0-0.1,0-0.2-0.1-0.4l0-0.1c0-0.1,0-0.1,0-0.2c0,0,0-0.1,0-0.2
		c0-0.1,0.1-0.1,0.1-0.2L60.3,7c0.1-0.1,0.1-0.2,0.2-0.3l0.1-0.1c0-0.1,0.1-0.2,0.1-0.3c0-0.1,0-0.2,0-0.3c0-0.1,0-0.2,0-0.3l0-0.4
		c0-0.1,0-0.1,0-0.2c0-0.1,0-0.1,0.1-0.3l0.1-0.2c0-0.1,0.1-0.2,0.1-0.3c0.1-0.3,0.1-0.5,0.1-0.8l0-0.1c0-0.1,0-0.1,0-0.1
		c0-0.1,0.1-0.2,0.1-0.2l0.3-0.7c0,0.1,0.1,0.1,0.1,0.2c0,0.1,0.1,0.2,0.1,0.2l0.1,0.4c0.1,0.2,0.1,0.4,0.2,0.6c0,0.1,0,0.1,0.1,0.2
		c0,0.1,0.1,0.1,0.1,0.2c0,0.1,0.1,0.2,0.2,0.3c0.1,0.1,0.1,0.2,0.1,0.2c0,0.1,0.1,0.1,0.1,0.2c0,0,0,0.1,0,0.1c0,0,0,0,0,0
		c0,0.1,0,0.2,0,0.3c0,0.1,0,0.1,0,0.3l0,0.6c0,0.2,0,0.4,0,0.7c0,0.3,0,0.5,0,0.8c0,0.2,0,0.4,0,0.6c0,0.1,0,0.3,0,0.4
		c0,0.1,0,0.3,0.1,0.4c0,0.1,0,0.1,0.1,0.2c0,0.1,0.1,0.2,0.1,0.2c0,0.1,0.1,0.2,0.2,0.3c0,0,0.1,0.1,0.2,0.2
		c0.1,0.1,0.1,0.1,0.2,0.2c0,0,0.1,0.1,0.1,0.1c0.1,0,0.2,0.1,0.4,0.1c0.1,0,0.1,0,0.3,0c0.1,0,0.2,0,0.2,0c0.1,0,0.2,0,0.3,0
		c0,0,0.1,0,0.1,0l0,0c0.1,0.1,0.1,0.1,0.2,0.1c0.1,0,0.1,0.1,0.1,0.1c0.1,0.1,0.2,0.1,0.3,0.2c0.1,0.1,0.2,0.1,0.4,0.2
		c0.1,0,0.1,0,0.2,0.1c0,0,0,0.1,0,0.1l0.7,0l-0.7,0.1v0.1c0,0,0,0.1,0,0.1l0,0.3c0,0.1,0,0.2,0,0.3l0,0.2c0,0.2,0.1,0.3,0.1,0.5
		l0,0.1c0,0.1,0,0.2,0.1,0.4l0,0.2c0,0,0,0.2,0,0.2l0,0.1c0,0.1,0,0.2,0,0.4l0,0.3c0,0.1,0.1,0.2,0.1,0.3c0,0.1,0.1,0.1,0.1,0.2
		c0.1,0.1,0.1,0.2,0.2,0.3c0.1,0.1,0.2,0.2,0.2,0.3c0.1,0.1,0.1,0.3,0.2,0.4l0.2,0.5c0,0.1,0,0.1,0.1,0.2c0,0,0,0.1,0,0.2l0,0.2
		c0,0.2,0,0.4-0.1,0.6c0,0,0,0.1,0,0.1l0,0.2c0,0.1,0,0.1,0,0.3c0,0.1,0,0.2,0,0.4c0,0.1,0.1,0.3,0.1,0.3c0.1,0.2,0.2,0.3,0.3,0.5
		c0.1,0.1,0.1,0.2,0.2,0.2c0,0,0.1,0.1,0.1,0.1s0.1,0.1,0.1,0.1l0.1,0.4c0.1,0.3,0.2,0.6,0.4,0.9c0.1,0.1,0.1,0.2,0.2,0.3
		c0.1,0.1,0.1,0.1,0.2,0.2c0.2,0.1,0.3,0.3,0.4,0.4c0.1,0.2,0.3,0.3,0.4,0.5l0.4,0.5c0.2,0.2,0.3,0.3,0.5,0.5
		c0.1,0.1,0.3,0.2,0.4,0.3l0.1,0.1c0,0,0.1,0.1,0.1,0.1c0,0,0.1,0.1,0.1,0.1c0.1,0.1,0.2,0.2,0.2,0.3c0.1,0.2,0.2,0.4,0.3,0.5
		l0.3,0.4c0.1,0.1,0.1,0.2,0.2,0.3c0,0.1,0,0.1,0,0.1c0,0.1,0,0.1,0,0.2l0,0.2c0,0.1,0,0.3,0.1,0.4c0.1,0.3,0.2,0.5,0.3,0.7
		c0.1,0.1,0.1,0.2,0.1,0.2c0,0.1,0.1,0.2,0.1,0.4l0,0.2c0,0.1,0.1,0.2,0.1,0.4c0,0.2,0.1,0.3,0.2,0.4c0.1,0.1,0.1,0.3,0.2,0.4
		c0.1,0.1,0.3,0.3,0.6,0.4c0.1,0,0.2,0.1,0.4,0.1c0,0,0.1,0,0.1,0c0,0,0.1,0.1,0.1,0.1c0,0,0.1,0.1,0.1,0.1c0.1,0.1,0.1,0.1,0.2,0.1
		c0.1,0.1,0.2,0.1,0.3,0.2c0.1,0,0.1,0,0.1,0.1c0,0,0.1,0,0.1,0l0.1,0.1c0,0,0,0.1,0,0.1c0,0.1,0,0.2,0,0.2c0,0.1,0,0.3,0.1,0.4
		l0,0.1c0,0.2,0.1,0.5,0.1,0.7c0.1,0.4,0.3,0.7,0.5,1c0.1,0.1,0.2,0.2,0.3,0.4l0.2,0.3c0.1,0.1,0.2,0.3,0.3,0.4
		c0.1,0.2,0.3,0.3,0.4,0.5c0.1,0.1,0.2,0.3,0.4,0.4c0.1,0.1,0.2,0.3,0.3,0.4c0,0.1,0.1,0.1,0.1,0.2c0,0.1,0.1,0.1,0.1,0.2l0,0.1
		l0.7-0.2L78.7,36c0,0.1,0,0.2,0.1,0.2c0,0.2,0.1,0.3,0.1,0.5c0,0.2,0,0.3,0,0.5c0,0.1,0,0.2,0,0.4l0,0.2c0,0.2,0,0.4,0,0.6
		c0,0.2,0,0.4,0.1,0.6c0,0.2,0.1,0.4,0.1,0.5c0,0.1,0.1,0.3,0.1,0.4c0,0,0,0.1,0,0.1c0.1,0.3,0.1,0.6,0.2,1c0,0.2,0.1,0.4,0.1,0.7
		c0,0.1,0,0.2,0.1,0.3c-0.1,0-0.1,0-0.2,0.1c-0.1,0-0.1,0-0.2,0s-0.2,0-0.2,0l-0.3,0c-0.1,0-0.3,0-0.4,0c0,0-0.1,0-0.2,0
		c-0.1,0-0.1,0-0.2,0.1c-0.1,0-0.2,0.1-0.4,0.1l-0.2,0.1c-0.1,0-0.1,0.1-0.3,0.2c-0.1,0-0.1,0.1-0.2,0.2L76.7,43
		c0,0-0.1,0.1-0.1,0.1l-0.1,0.1c0,0-0.1,0.1-0.1,0.1c0,0-0.1,0.1-0.1,0.1c0,0,0,0-0.1,0c-0.1,0-0.1,0-0.1-0.1c0,0-0.1-0.1-0.1-0.1
		c0,0-0.1-0.1-0.1-0.2l-0.1-0.2c0,0-0.1-0.1-0.1-0.1c-0.1-0.1-0.2-0.3-0.4-0.4c0,0-0.1,0-0.1-0.1c0,0-0.1-0.1-0.1-0.1
		c0,0-0.1,0-0.1,0c0,0-0.1,0-0.2,0c0,0-0.1,0-0.1,0c0,0,0,0,0,0c0,0-0.1,0-0.1,0c-0.1,0-0.1,0-0.3,0.1l-0.1,0c0,0-0.1,0-0.1,0
		c-0.2,0-0.4,0-0.6-0.1c-0.2,0-0.4,0-0.5,0c-0.1,0-0.1,0-0.3,0c-0.1,0-0.2,0-0.3,0.1c0,0-0.1,0-0.1,0.1c-0.1,0-0.1,0.1-0.2,0.2
		c-0.1,0-0.1,0.1-0.2,0.2l-0.5,0l-0.5,0c-0.1,0-0.3,0-0.4,0c-0.2,0-0.3,0-0.6,0l-1.2-0.1c0,0-0.2,0-0.2,0l-1.5-0.2
		c-0.2,0-0.4,0-0.6-0.1c-0.2,0-0.5-0.1-0.8-0.1l-0.3,0c-0.2,0-0.4-0.1-0.7-0.1c-0.2,0-0.3,0-0.5-0.1l-1.8-0.2c0,0-0.1,0-0.1,0
		l-1-0.1c-0.2,0-0.5,0-0.7-0.1l-0.7-0.1c-0.4-0.1-1.6-0.2-2.5-0.2c0,0,0-0.1,0-0.1l0.1-0.5c0-0.3,0.1-0.6,0.1-1c0-0.3,0-0.6,0.1-0.9
		c0-0.3,0-0.6,0-0.8l0-0.5c0-0.2,0-0.5,0-0.8c0-0.2,0-0.3,0-0.5l0-0.4c0-0.1,0-0.2,0-0.3c0,0,0-0.1,0-0.1l0-0.1c0-0.3-0.1-0.8-0.7-1
		c-0.1,0-0.2,0-0.3-0.1l-0.2,0c-0.1,0-0.3,0-0.4,0l-0.2,0c-0.2,0-0.4,0-0.6,0l-0.9,0c-0.2,0-0.3,0-0.5,0c-0.3,0-0.5,0-0.8,0
		c-0.2,0-0.4,0-0.6,0c0-0.1,0-0.2,0-0.3l0.1-2c0-0.2,0-0.4,0-0.7l0-1.4c0-0.4,0-0.8,0-1.1l0-1c0-0.2,0-0.5,0-0.7l0-0.5
		c0-0.3,0-0.6,0-0.9c0-0.4,0-0.8,0-1.2V24.2z M33.2,7.9L33.2,7.9l-0.3-0.2L33.2,7.9z M32.7,20c0-0.6,0-1.1,0-1.6c0-0.4,0-0.8,0-1.2
		l0-0.5c0-0.5,0-1.1,0-1.6c0-0.5,0-1.1-0.1-1.7c0-0.3,0-0.7,0-1.1l0-0.6c0-0.3,0-0.5,0-0.9l0-0.2c0.1,0,0.1,0,0.1,0
		c0.2-0.1,0.3-0.1,0.5-0.2c0.2-0.1,0.3-0.2,0.4-0.4c0,0,0-0.1,0-0.1s0,0,0,0c0.1-0.1,0.1-0.2,0.1-0.3c0.1-0.2,0.1-0.3,0.1-0.4
		c0-0.1,0-0.2,0-0.3c0-0.1-0.1-0.2-0.1-0.3c0,0,0-0.1-0.1-0.1l0,0c0-0.1-0.1-0.2-0.1-0.3c0,0,0,0,0,0l0.1-0.1
		c0.1-0.1,0.2-0.2,0.3-0.3C34,7.6,34,7.5,34.1,7.4c0.1-0.2,0.2-0.4,0.2-0.6c0,0,0,0,0-0.1c0.1,0,0.2-0.1,0.2-0.1
		c0.1-0.1,0.2-0.2,0.3-0.3C34.9,6.2,34.9,6.1,35,6c0-0.1,0.1-0.2,0.1-0.2c0.1-0.2,0.1-0.3,0.1-0.5c0-0.1,0-0.2,0-0.4
		c0,0,0.1-0.1,0.1-0.2l0.5-0.6C36,4.1,36,4,36,4c0.1,0,0.1,0,0.2,0c0.1,0,0.2,0,0.3,0L37,4c0.1,0,0.2,0,0.3,0c0.1,0,0.2,0,0.3,0
		c0.1,0,0.2,0,0.2-0.1L38,3.8c0,0,0.1,0,0.1,0c0.2,0,0.5,0,0.7,0c0.1,0,0.2-0.1,0.3-0.1c0.1-0.1,0.2-0.1,0.4-0.2
		c0.1-0.1,0.2-0.2,0.4-0.2c0,0,0.1-0.1,0.1-0.1c0.1-0.1,0.2-0.2,0.3-0.4c0.1,0,0.3,0.1,0.4,0.1c0.1,0,0.2,0,0.4,0c0.1,0,0.2,0,0.3,0
		l0.2,0c0.1,0,0.1,0,0.2,0.1c0.1,0,0.3,0.1,0.5,0.1l0.1,0.1c0.1,0.1,0.3,0.1,0.4,0.2c0.1,0,0.3,0.1,0.4,0.1c0.1,0,0.3,0,0.4,0
		c0.1,0,0.1,0,0.2,0c0,0,0.1,0,0.1,0c0.1,0,0.1,0,0.2,0.1c0,0,0.1,0,0.1,0l0.1,0c0.1,0,0.2,0.1,0.4,0.1c0.1,0,0.2,0,0.4,0.1
		c0.2,0,0.4,0,0.6,0c0,0,0,0,0,0c0.2,0.2,0.4,0.3,0.5,0.4c0.1,0.1,0.3,0.2,0.5,0.2c0,0,0.1,0,0.1,0L47.2,5l-0.5-0.6
		c-0.1,0.1-0.3,0.2-0.4,0.3l-0.2,0.1c-0.1,0.1-0.2,0.3-0.3,0.4c-0.1,0.1-0.2,0.2-0.2,0.3c-0.1,0.1-0.1,0.3-0.2,0.4
		c0,0.1-0.1,0.2-0.1,0.4s-0.1,0.3-0.1,0.5l0,0.1c0,0.1-0.1,0.3-0.1,0.4C45,7.5,45,7.7,44.9,7.9l-0.1,0.3c0,0.1-0.1,0.2-0.1,0.3
		c0,0.1,0,0.2-0.1,0.3c0,0.2,0,0.4,0,0.5c0,0.1,0.1,0.2,0.1,0.3c0,0.1,0.1,0.2,0.1,0.2c0,0.1,0.1,0.2,0.1,0.2
		c0.1,0.1,0.2,0.3,0.4,0.4l0.2,0.2c0.2,0.2,0.4,0.4,0.6,0.5c0.2,0.1,0.4,0.3,0.6,0.4c0.1,0.1,0.3,0.2,0.4,0.2l0.1,0.1
		c0.1,0.1,0.2,0.1,0.3,0.2c0.2,0.1,0.3,0.2,0.4,0.3c0.2,0.2,0.3,0.3,0.5,0.5c0.3,0.2,0.6,0.4,1,0.7l0.2,0.1c0.1,0.1,0.2,0.1,0.3,0.2
		l0.3,0.2c0,0,0.1,0.1,0.1,0.1c0,0,0.2,0.1,0.4,0.2c0,0.1,0,0.2,0,0.2c0,0.3,0,0.7,0,1c0,0.1,0,0.2,0,0.3c0,0.1,0,0.2,0,0.4
		l-0.1,2.1c0,0.4-0.1,0.9-0.1,1.4l-0.1,1.5c0,0.2,0,0.5,0,0.7l0,0.7c0,0.4,0,0.9,0,1.4v0.2c0,0.4,0,0.8,0,1.2c0,0.3,0,0.6,0,0.9
		l0,0.5c0,0.2,0,0.4,0,0.7l0,1c0,0.4,0,0.7,0,1.1l0,1.4c0,0.2,0,0.4,0,0.7l-0.1,2c0,0.1,0,0.2,0,0.3c-1.2-0.1-3.6-0.1-8.7-0.2
		c-3.5-0.1-7.2-0.1-8.7-0.1l0.1-0.6c0-0.2,0-0.4,0-0.6l0.1-1c0-0.3,0-0.6,0-0.9c0-0.3,0-0.5,0-0.8L33,27.4c0-0.2-0.1-0.5-0.1-0.8
		c0-0.3-0.1-0.6-0.1-0.8c0-0.3,0-0.5,0-0.8l0-3.3C32.8,21.1,32.7,20.6,32.7,20z M49.7,54.3C49.8,54.2,49.8,54.2,49.7,54.3l0.5-0.1
		L49.7,54.3z M54.9,55.2c0,0.3,0,0.6-0.1,1c0,0.1,0,0.2,0,0.3L54.8,57c0,0.1,0,0.3-0.1,0.4l-0.1,0.9c0,0,0,0.1,0,0.1l-0.1,0.4
		c0,0.2,0,0.3-0.1,0.5c0,0.1,0,0.3,0,0.4l0,0.1c0,0.2,0,0.3,0,0.5l-0.1,0.5c0,0.2-0.1,0.4-0.1,0.6c0,0,0,0,0,0l-0.3-0.2
		c-0.1-0.1-0.2-0.2-0.2-0.2c0,0-0.1-0.1-0.1-0.2c0,0,0-0.1,0-0.1l-0.7,0.2l0.7-0.3c0,0,0-0.1,0-0.1l0-0.2c0-0.3-0.1-0.7-0.1-1
		c0-0.2-0.1-0.4-0.2-0.6c-0.1-0.2-0.2-0.4-0.3-0.6c-0.1-0.1-0.1-0.1-0.2-0.2c0-0.1-0.1-0.3-0.1-0.4c0,0,0-0.1,0.1-0.2
		c0-0.1,0.1-0.2,0.1-0.2c0-0.1,0.1-0.2,0.1-0.3c0.1-0.2,0.1-0.4,0-0.6l-0.1-0.2c0-0.2-0.1-0.3-0.2-0.5c-0.2-0.3-0.5-0.5-0.9-0.5
		c-0.1,0-0.3,0-0.4,0.1c0-0.1-0.1-0.3-0.2-0.4L51,54.4c0,0,0-0.1,0-0.1c0,0,0-0.1,0-0.1c0-0.2,0-0.4-0.1-0.6c0-0.1-0.1-0.2-0.2-0.3
		c0-0.1-0.1-0.1-0.1-0.2c-0.1-0.1-0.2-0.2-0.2-0.2c-0.1-0.1-0.2-0.1-0.3-0.1c-0.1,0-0.1,0-0.2-0.1c0-0.1,0-0.1,0.1-0.2
		c0-0.1,0.1-0.2,0.1-0.3l0.1-0.3c0-0.1,0.1-0.2,0.1-0.4c0-0.2,0.1-0.4,0.1-0.7l0-0.2c0-0.1,0-0.2,0-0.3c0-0.1,0-0.2-0.1-0.3
		c-0.1-0.2-0.2-0.4-0.4-0.6c-0.2-0.1-0.5-0.2-0.7-0.2c-0.1,0-0.3,0-0.4,0.1c-0.1,0-0.3,0.1-0.4,0.2c-0.1,0.1-0.2,0.2-0.3,0.3
		c-0.1,0.1-0.2,0.3-0.4,0.4l-0.1,0.2c-0.1,0.1-0.2,0.3-0.3,0.4l-0.3,0.4c0,0,0,0.1-0.1,0.1c-0.1,0-0.1,0-0.2,0
		c-0.2,0-0.4,0.1-0.6,0.1c-0.3,0.1-0.5,0.3-0.7,0.5c-0.1,0.1-0.2,0.3-0.3,0.5c0,0,0,0,0,0c-0.1-0.2-0.2-0.5-0.4-0.7
		c-0.1-0.1-0.2-0.2-0.3-0.3c-0.1-0.1-0.2-0.2-0.3-0.3L44,50.9c0,0-0.1-0.1-0.1-0.1c-0.1-0.1-0.1-0.1-0.2-0.2l-0.1-0.1
		c0,0-0.1-0.1-0.1-0.1c0,0,0-0.1,0-0.1c0-0.1,0-0.1,0-0.2c0-0.1,0-0.3,0-0.4c0-0.1,0-0.1,0-0.2c0-0.2-0.1-0.3-0.1-0.4
		c-0.1-0.2-0.2-0.3-0.2-0.3c-0.1-0.1-0.1-0.1-0.2-0.2c-0.1-0.1-0.2-0.2-0.3-0.2c-0.1-0.1-0.3-0.2-0.4-0.2c-0.1-0.1-0.3-0.1-0.4-0.2
		c0,0-0.1,0-0.1,0c0,0-0.1,0-0.1,0l-0.1,0c-0.1,0-0.3,0-0.4-0.1l-0.3,0c0,0-0.1,0-0.1,0c-0.1,0-0.1-0.1-0.2-0.1
		c-0.1,0-0.1-0.1-0.2-0.1c-0.1,0-0.1-0.1-0.3-0.2c-0.1-0.1-0.2-0.1-0.2-0.2c-0.2-0.1-0.4-0.2-0.6-0.3c-0.1,0-0.2-0.1-0.3-0.2
		c-0.1-0.1-0.3-0.1-0.4-0.1c-0.1,0-0.2-0.1-0.4-0.1c-0.1,0-0.2,0-0.2,0c-0.1,0-0.1,0-0.2-0.1l-0.1,0c-0.2-0.1-0.3-0.1-0.5-0.1
		c-0.2,0-0.3,0-0.4,0c-0.1,0-0.1,0-0.2,0c-0.1,0-0.2,0.1-0.3,0.1c0,0-0.1,0-0.1,0c-0.1,0-0.2,0.1-0.2,0.1c0,0-0.1,0-0.1,0l-0.2-0.1
		c-0.2-0.1-0.5-0.1-0.7-0.1c-0.1,0-0.2,0-0.3,0c0,0-0.2,0-0.2,0c-0.1,0-0.2,0-0.4,0.1c-0.1,0-0.3,0.1-0.4,0.1l-0.1,0
		c0,0-0.1,0-0.1,0c0,0-0.1,0-0.1,0c0,0,0-0.1,0-0.2c0-0.2-0.1-0.3-0.1-0.5c0-0.1,0-0.1,0-0.2c0-0.1,0-0.2,0-0.3l0-0.2
		c0,0,0-0.2,0-0.2l0.1-1.4c0-0.4,0-0.8,0-1.3l-0.1-0.8c0-0.1,0-0.3-0.1-0.4c0-0.2-0.1-0.4-0.1-0.6L32.8,40c0-0.2,0-0.4,0-0.6
		c0-0.2,0-0.4,0-0.6c0-0.1,0-0.1,0-0.2l0.1-1.1c0-0.1,0-0.3,0-0.4l0.2-1.8c0,0,0-0.1,0-0.1c0.5,0,1.3,0,2.3,0.1l6.5,0.1
		c4.5,0.1,9.1,0.2,9.4,0.2c0.2,0,0.5,0,0.6,0c0.3,0,0.5,0,0.8,0c0.3,0,0.6,0,0.8,0c0.2,0,0.4,0,0.6,0l1,0c0.2,0,0.4,0,0.5,0l0.2,0
		c0.1,0,0.1,0,0.2,0c0,0,0,0,0,0l0,0.4c0,0.2,0,0.4,0,0.6c0,0.2,0,0.5,0,0.7l0,0.5c0,0.3,0,0.5,0,0.8c0,0.3,0,0.6,0,0.8
		c0,0.3-0.1,0.6-0.1,0.9L55.5,41l0,0.1c-0.1,0.1-0.1,0.3-0.1,0.4l0,0.1c0,0,0,0,0,0c-0.1,0.1-0.1,0.2-0.1,0.3l-0.1,0.6
		c0,0.3-0.1,0.6-0.1,0.9c0,0.2,0,0.3,0,0.5l0,0.4c0,0.1,0,0.2,0,0.4c0,0.2,0,0.3,0,0.5c0,0.2,0,0.4,0,0.5l0,0.4
		c0,0.3,0.1,0.5,0.1,0.8l0,1.3c0,0.2,0,0.3,0,0.5c0,0.1,0,0.2,0,0.4l0.1,1.4c0,0.3,0,0.5,0,0.8c0,0.1,0,0.2,0,0.3c0,0.1,0,0.3,0,0.4
		c0,0.1,0,0.3,0,0.4l-0.1,1.1c0,0,0,0.1,0,0.1c0,0,0,0.1,0,0.1l0,0.4c0,0.3-0.1,0.5-0.1,0.8l0.7,0.1L54.9,55.2z M60.5,63.5
		L60.5,63.5l0.1,0L60.5,63.5z M61.5,63.5L61.5,63.5L61.5,63.5C61.5,63.5,61.5,63.5,61.5,63.5z M61.5,63.5
		C61.5,63.5,61.5,63.5,61.5,63.5l0.1,0l0.3,0.2L61.5,63.5z M63.4,65.2l-0.2,0.1L63.4,65.2C63.4,65.2,63.4,65.2,63.4,65.2z M64,66
		L64,66L64,66L64,66z M69.1,62.9L68.9,63c-0.1,0-0.1,0-0.2,0.1c-0.1,0-0.2,0-0.2,0c-0.1,0-0.1,0-0.2,0c-0.1,0-0.2,0-0.3,0
		c-0.2,0-0.3,0-0.5,0c-0.1,0-0.2,0-0.3,0c-0.1,0-0.2,0-0.3,0c-0.1,0-0.3,0-0.4,0c-0.1,0-0.2,0-0.3,0.1c-0.1,0-0.2,0.1-0.3,0.1
		c-0.1,0-0.2,0.1-0.2,0.2c-0.1,0.1-0.2,0.1-0.3,0.2c-0.1,0.1-0.2,0.2-0.3,0.4c-0.1,0-0.2,0-0.2,0.1l-0.2,0c-0.2,0-0.4,0-0.6,0.1
		c-0.2,0.1-0.3,0.2-0.4,0.4c0,0,0,0,0,0c-0.1-0.1-0.2-0.2-0.3-0.3c-0.1-0.1-0.2-0.2-0.3-0.2c0,0-0.2-0.1-0.2-0.1c0,0-0.1,0-0.2-0.1
		c0-0.1,0-0.1,0.1-0.2c0-0.2,0-0.4,0-0.6c0-0.1-0.1-0.2-0.1-0.3c-0.1-0.1-0.1-0.2-0.2-0.3c-0.1-0.1-0.3-0.3-0.4-0.4
		c-0.1,0-0.2-0.1-0.2-0.1l-0.2,0.7l0-0.8c0,0-0.1,0-0.2,0c-0.2,0-0.4,0-0.5,0.1c-0.3,0.1-0.5,0.4-0.7,0.7c0,0,0,0,0,0.1
		c-0.1,0-0.1,0-0.2,0c-0.1,0-0.1,0-0.2,0c-0.1,0-0.2,0.1-0.3,0.1c-0.1,0.1-0.2,0.1-0.3,0.2c-0.1,0.1-0.2,0.2-0.3,0.4l0,0.1
		c0,0-0.1-0.1-0.1-0.1l-0.1-0.1c0,0-0.1-0.1-0.1-0.2c-0.1-0.1-0.2-0.2-0.4-0.3c-0.1-0.1-0.2-0.1-0.3-0.2l-0.2,0c-0.1,0-0.2,0-0.3,0
		l-0.2,0c0,0-0.1,0-0.1,0c-0.1,0-0.2,0-0.3-0.1c-0.1,0-0.2-0.1-0.4-0.1c-0.1,0-0.1,0-0.2-0.1c-0.1,0-0.2-0.1-0.3-0.1
		c-0.1,0-0.1,0-0.3,0l-0.1,0l0.2-0.1c0-0.1,0-0.2,0-0.4c0-0.2,0-0.4,0-0.5c0-0.2,0-0.3,0-0.4l0.1-0.5c0-0.2,0-0.4,0.1-0.6l0-0.1
		c0-0.1,0-0.2,0-0.4c0-0.1,0-0.3,0.1-0.5l0-0.3l-0.7-0.1l0.8,0l0.1-0.9c0-0.1,0-0.3,0.1-0.4l0.1-0.5c0-0.1,0-0.2,0-0.4
		c0,0,0-0.1,0-0.1c0-0.3,0-0.5,0.1-0.8c0,0,0-0.1,0-0.1c0-0.2,0-0.5,0.1-0.7l0-0.1c0,0.1,0,0.1,0.1,0.2l0.1,0.2c0,0,0.1,0.2,0.1,0.2
		c0,0,0,0.1,0,0.1c0.1,0.1,0.2,0.3,0.3,0.4c0,0,0.1,0.1,0.2,0.2c0.1,0.1,0.2,0.1,0.2,0.1c0.1,0.1,0.2,0.1,0.4,0.1
		c0.3,0.1,0.4,0.1,0.7,0c0,0,0,0.1,0,0.1c0,0,0,0.1,0,0.1c0,0.1,0,0.1,0,0.3c0,0.1,0,0.2,0,0.3c0,0.1,0,0.2,0.1,0.3
		c0.1,0.1,0.1,0.2,0.2,0.3c0,0,0.1,0.1,0.2,0.2c0.1,0.1,0.2,0.1,0.3,0.2c0.1,0,0.2,0.1,0.3,0.1c0.1,0,0.2,0.1,0.3,0.1l0.2,0
		c0.1,0,0.1,0,0.1,0c0.1,0,0.1,0.1,0.1,0.1l0.1,0.1c0,0,0.1,0.1,0.1,0.1c0.1,0.1,0.2,0.2,0.2,0.3l0.1,0.1c0.1,0.1,0.1,0.2,0.2,0.3
		c0,0,0.1,0.1,0.2,0.1c0.1,0.1,0.3,0.2,0.5,0.2c0.2,0,0.3,0,0.5,0c0.1,0,0.1,0,0.3-0.1l0.3-0.1c0.1,0,0.2-0.1,0.2-0.1
		c0.1,0,0.2,0,0.2,0c0,0,0.1,0,0.2,0.1l0.1,0.1c0.1,0.1,0.3,0.1,0.5,0.2c0.2,0.1,0.5,0.2,0.6,0.2c0.1,0,0.2,0,0.3,0.1l0.3,0
		c0.2,0,0.4,0.1,0.7,0.1l0.1,0c0.1,0,0.3,0,0.4,0l0.2,0c0,0,0.1,0,0.1,0l0,0.2c-0.1,0.2-0.1,0.5,0,0.8c0.1,0.1,0.1,0.3,0.2,0.4
		c0.1,0.1,0.2,0.2,0.2,0.2c0.1,0.1,0.2,0.1,0.2,0.2c0.1,0.1,0.2,0.1,0.3,0.1l0.5,0.2c0.1,0,0.1,0.1,0.2,0.1c0,0,0.1,0.1,0.1,0.1
		c0.1,0,0.1,0.1,0.2,0.2c0.1,0.1,0.1,0.1,0.2,0.2c0.1,0.1,0.2,0.2,0.3,0.2c0.1,0.1,0.2,0.1,0.3,0.2C69.3,62.8,69.2,62.9,69.1,62.9z
		 M79.7,44.3l0,0.4c0,0.2,0,0.5-0.1,0.7c0,0.3-0.1,0.7-0.2,1c0,0,0,0.1-0.1,0.1c0,0-0.1,0.1-0.1,0.1c-0.1,0.1-0.1,0.2-0.2,0.3
		c-0.1,0.2-0.3,0.4-0.4,0.6l-0.1,0.2c-0.1,0.1-0.2,0.3-0.2,0.4s-0.1,0.3-0.2,0.5L78,48.9c0,0.1-0.1,0.2-0.1,0.2
		c0,0.1-0.1,0.1-0.1,0.1c-0.2,0.2-0.4,0.4-0.6,0.6l-0.3,0.3c-0.1,0.1-0.3,0.3-0.4,0.5c-0.1,0.1-0.1,0.1-0.2,0.3
		c0,0.1-0.1,0.1-0.1,0.2l-0.2,0.4c-0.1,0.1-0.1,0.2-0.2,0.3l-0.1,0.2c0,0-0.1,0.1-0.1,0.2l0.6,0.4l-0.7-0.3l0.5,0.6l-0.6-0.5
		l-0.4,0.3c-0.1,0.1-0.1,0.1-0.2,0.2c-0.2,0.1-0.3,0.3-0.4,0.4c-0.1,0.1-0.1,0.1-0.2,0.2c-0.1,0.1-0.1,0.2-0.2,0.3
		c0,0.1-0.1,0.2-0.1,0.3l-0.1,0.3c0,0.1,0,0.1-0.1,0.2c0,0,0,0.1-0.1,0.1c0,0.1-0.1,0.1-0.1,0.2l-0.2,0.2c-0.1,0.1-0.1,0.2-0.2,0.3
		c-0.1,0.2-0.2,0.3-0.3,0.5L73,55.9c0,0.1-0.1,0.2-0.2,0.3c-0.1,0.1-0.1,0.2-0.2,0.3c0,0-0.1,0.1-0.1,0.1c-0.1,0.2-0.2,0.3-0.3,0.5
		c-0.1,0.2-0.2,0.4-0.3,0.6c0,0,0,0.1,0,0.1l0,0.1c0,0.1,0,0.1-0.1,0.2c0,0.1-0.1,0.2-0.1,0.2l-0.1,0.1c0,0-0.1,0.1-0.1,0.1
		c-0.1,0.1-0.1,0.2-0.2,0.3c-0.1,0.2-0.3,0.3-0.4,0.5c-0.1,0.2-0.2,0.3-0.3,0.5c-0.1,0.1-0.1,0.2-0.2,0.3c-0.1,0.1-0.1,0.2-0.1,0.3
		c-0.1,0.2-0.1,0.4-0.1,0.6l-0.1,0.6c0,0,0,0,0,0c-0.1,0-0.1-0.1-0.2-0.1c0,0-0.1-0.1-0.1-0.1c-0.1-0.1-0.2-0.1-0.2-0.2l-0.2-0.2
		c-0.1-0.1-0.2-0.1-0.3-0.2c-0.1-0.1-0.2-0.1-0.2-0.2c-0.1,0-0.2-0.1-0.3-0.1l-0.5-0.2c0,0-0.1,0-0.2-0.1c0-0.1,0.1-0.2,0.1-0.4
		c0-0.1,0-0.2,0-0.3c0,0,0-0.1,0-0.1c0-0.1,0-0.2-0.1-0.4c0,0-0.1-0.1-0.1-0.2c0,0-0.1-0.1-0.1-0.1c0,0-0.1-0.1-0.1-0.1
		c0,0-0.1-0.1-0.1-0.1c-0.1,0-0.1-0.1-0.3-0.1c-0.1,0-0.2-0.1-0.4-0.1c-0.1,0-0.3,0-0.4,0L66,58.3c-0.2,0-0.4,0-0.6-0.1l-0.3-0.1
		c-0.1,0-0.1,0-0.2,0c-0.1,0-0.3-0.1-0.5-0.1c-0.1-0.1-0.3-0.1-0.4-0.2l-0.2-0.1c-0.1-0.1-0.3-0.1-0.6-0.2c-0.2,0-0.4,0-0.6,0
		c-0.2,0-0.3,0.1-0.5,0.1c-0.1,0-0.1,0.1-0.2,0.1c0,0,0,0-0.1,0l-0.1-0.1c-0.1-0.1-0.2-0.3-0.3-0.4c-0.1-0.1-0.1-0.1-0.2-0.2
		l-0.2-0.2c-0.1-0.1-0.2-0.2-0.5-0.3c-0.1,0-0.3-0.1-0.4-0.1l-0.1,0c0,0-0.1,0-0.1,0l0-0.1c0-0.2,0-0.4,0-0.7c0-0.1,0-0.2-0.1-0.4
		c0-0.1-0.1-0.1-0.1-0.2c0,0-0.1-0.1-0.1-0.1c0,0-0.1-0.1-0.2-0.1c0,0-0.1-0.1-0.1-0.1c0,0-0.1,0-0.1-0.1c-0.1,0-0.1,0-0.3-0.1
		c-0.1,0-0.3,0-0.6,0c0,0-0.1,0-0.2,0l-0.1,0l-0.6,0.5l0.5-0.6l-0.7,0.2l0.7-0.4l0-0.1c0-0.1-0.1-0.2-0.1-0.4
		c-0.1-0.1-0.1-0.2-0.2-0.4c-0.1-0.1-0.1-0.1-0.2-0.2c-0.1-0.1-0.2-0.1-0.4-0.2c-0.1,0-0.2-0.1-0.3-0.1l0,0c0-0.2,0-0.3,0.1-0.5
		c0-0.1,0-0.3,0-0.5c0-0.1,0-0.3,0-0.4c0-0.3,0-0.6,0-0.9l-0.1-1.4c0-0.1,0-0.2,0-0.3c0-0.2,0-0.3,0-0.5l0-1.3c0-0.3,0-0.7-0.1-1
		l-0.1-0.5c0-0.1,0-0.2,0-0.4c0-0.1,0-0.3,0-0.4c0-0.1,0-0.3,0-0.4l0-0.5c0-0.1,0-0.2,0-0.4c0-0.3,0-0.5,0.1-0.8
		c0.7,0,2.1,0.1,2.7,0.2l0.7,0.1c0.3,0,0.5,0.1,0.8,0.1l1,0.1l0.1-0.7l0,0.8l3.3,0.3c0.3,0,0.5,0.1,0.8,0.1c0.2,0,0.5,0.1,0.7,0.1
		l1.6,0.2c0,0,0.1,0,0.1,0l1.1,0.1c0,0,0.2,0,0.2,0c0.2,0,0.4,0,0.6,0c0.2,0,0.4,0,0.5,0l0.6,0l0.4,0c0.1,0,0.2,0,0.2,0
		c0.1,0,0.2-0.1,0.3-0.1c0.1,0,0.2-0.1,0.2-0.1c0.1,0,0.1-0.1,0.2-0.2c0,0,0.1-0.1,0.2-0.1c0.1,0,0.2,0,0.3,0c0.3,0,0.5,0.1,0.7,0.1
		c0.1,0,0.3,0,0.5,0l0.2,0c0,0,0,0,0,0l0.1,0.2c0.1,0.1,0.2,0.2,0.3,0.3c0,0,0.1,0.1,0.1,0.1c0.1,0,0.1,0.1,0.2,0.2
		c0.1,0.1,0.3,0.2,0.5,0.3c0,0,0.2,0,0.2,0.1c0.3,0,0.5,0,0.7,0c0.1,0,0.2-0.1,0.4-0.1c0.1,0,0.2-0.1,0.2-0.2c0.1,0,0.1-0.1,0.2-0.1
		c0.1-0.1,0.2-0.2,0.3-0.3c0-0.1,0.1-0.1,0.1-0.2l-0.6-0.5l0.6,0.4c0,0,0.1,0,0.1-0.1l0.1,0c0.1,0,0.1,0,0.2-0.1l0.1,0
		c0.1,0,0.2,0,0.3,0l0.3,0c0.1,0,0.2,0,0.3,0c0.1,0,0.3,0,0.4-0.1C79.7,43.8,79.7,44.1,79.7,44.3z"/>
</g>
</svg>
