<?xml version="1.0" encoding="utf-8"?>
<!-- Generator: Adobe Illustrator 24.3.0, SVG Export Plug-In . SVG Version: 6.00 Build 0)  -->
<svg version="1.1" id="Layer_1" xmlns="http://www.w3.org/2000/svg" xmlns:xlink="http://www.w3.org/1999/xlink" x="0px" y="0px"
	 viewBox="0 0 107 64" style="enable-background:new 0 0 107 64;" xml:space="preserve">
<style type="text/css">
	.st0{fill:#F5F5F5;}
	.st1{fill:#575756;}
	.st2{fill:#AD1820;}
	.st3{fill:#E5332A;}
	.st4{fill:#F6A723;}
	.st5{fill:#E84E1B;}
	.st6{fill:#FAA634;}
	.st7{fill:none;stroke:#9C9B9B;stroke-width:3;stroke-miterlimit:10;}
	.st8{fill:#9C9B9B;}
	.st9{fill:#1D1D1B;}
	.st10{clip-path:url(#SVGID_2_);}
	.st11{clip-path:url(#SVGID_4_);}
	.st12{clip-path:url(#SVGID_6_);}
	.st13{fill:none;stroke:#AD1820;stroke-width:2.7971;stroke-miterlimit:10;}
	.st14{fill:#FFFFFF;}
	.st15{fill:#C6C6C5;}
	.st16{fill:#868686;}
	.st17{fill:#3C3C3B;}
	.st18{opacity:0.52;fill:#AD1820;}
	.st19{fill:none;stroke:#AD1820;stroke-width:4.3435;stroke-miterlimit:10;}
	.st20{fill:none;stroke:#E5332A;stroke-width:4.3435;stroke-miterlimit:10;}
	.st21{fill:#B1B1B1;}
	.st22{fill:#DD4D02;}
	.st23{fill:#A4A4A4;}
</style>
<g>
	<path class="st22" d="M64.2,0H4.8C2.2,0,0,2.2,0,4.8v36.7v8.2c0,2.7,2.2,4.8,4.8,4.8h22.1l-1.3,4.6c-0.5,1.8-2.6,3.4-4.5,3.4h-7.7
		c-0.4,0-0.8,0.3-0.8,0.8S13,64,13.5,64h7.7h26.8h7.7c0.4,0,0.8-0.3,0.8-0.7s-0.3-0.8-0.8-0.8h-7.7c-1.9,0-4-1.5-4.5-3.4l-1.3-4.6
		h22.1c2.7,0,4.8-2.2,4.8-4.8v-8.2V4.8C69,2.2,66.9,0,64.2,0z M1.5,4.8C1.5,3,3,1.5,4.8,1.5h59.4c1.8,0,3.3,1.5,3.3,3.3v35.9h-66
		V4.8z M42,59.5c0.3,1.1,1.1,2.2,2,3H25c1-0.8,1.7-1.8,2-3l1.4-5h12.1L42,59.5z M67.5,49.7c0,1.8-1.5,3.3-3.3,3.3H41.1H27.9H4.8
		c-1.8,0-3.3-1.5-3.3-3.3v-7.4h66V49.7z"/>
	<path class="st22" d="M34.5,50.4c1.5,0,2.8-1.3,2.8-2.8c0-1.5-1.3-2.8-2.8-2.8c-1.5,0-2.8,1.3-2.8,2.8C31.7,49.2,33,50.4,34.5,50.4
		z M34.5,46.3c0.7,0,1.3,0.6,1.3,1.3c0,0.7-0.6,1.3-1.3,1.3c-0.7,0-1.3-0.6-1.3-1.3C33.2,46.9,33.8,46.3,34.5,46.3z"/>
	<path class="st22" d="M102.1,16.1H82c-2.7,0-4.9,2.2-4.9,4.9v1.8c0,0,0,0,0,0s0,0,0,0V57c0,0,0,0,0,0c0,0,0,0,0,0v2.1
		c0,2.7,2.2,4.9,4.9,4.9h20.1c2.7,0,4.9-2.2,4.9-4.9V57c0,0,0,0,0,0c0,0,0,0,0,0V21C107,18.3,104.8,16.1,102.1,16.1z M78.6,22.7V21
		c0-1.9,1.5-3.4,3.4-3.4h20.1c1.9,0,3.4,1.5,3.4,3.4v34.1c-3.4,0-18.2,0-27,0V22.9C78.6,22.9,78.6,22.8,78.6,22.7
		C78.6,22.7,78.6,22.7,78.6,22.7z M105.5,57C105.5,57,105.5,57,105.5,57v2.1c0,1.9-1.5,3.4-3.4,3.4H82c-1.9,0-3.4-1.5-3.4-3.4v-1.9
		c0,0,0,0,0-0.1c0-0.1,0-0.2,0-0.3v-0.3l23.3,0c1.8,0,3,0,3.7,0V57C105.5,57,105.5,57,105.5,57z"/>
	<path class="st22" d="M92.1,57.2c-1.3,0-2.3,1-2.3,2.3s1,2.3,2.3,2.3s2.3-1,2.3-2.3S93.3,57.2,92.1,57.2z M92.1,60.3
		c-0.4,0-0.8-0.4-0.8-0.8s0.4-0.8,0.8-0.8s0.8,0.4,0.8,0.8S92.5,60.3,92.1,60.3z"/>
</g>
</svg>
