<?xml version="1.0" encoding="utf-8"?>
<!-- Generator: Adobe Illustrator 24.3.0, SVG Export Plug-In . SVG Version: 6.00 Build 0)  -->
<svg version="1.1" id="Layer_1" xmlns="http://www.w3.org/2000/svg" xmlns:xlink="http://www.w3.org/1999/xlink" x="0px" y="0px"
	 viewBox="0 0 82.2 74.3" style="enable-background:new 0 0 82.2 74.3;" xml:space="preserve">
<style type="text/css">
	.st0{fill:#F5F5F5;}
	.st1{fill:#575756;}
	.st2{fill:#AD1820;}
	.st3{fill:#E5332A;}
	.st4{fill:#F6A723;}
	.st5{fill:#E84E1B;}
	.st6{fill:#FAA634;}
	.st7{fill:none;stroke:#9C9B9B;stroke-width:3;stroke-miterlimit:10;}
	.st8{fill:#9C9B9B;}
	.st9{fill:#1D1D1B;}
	.st10{clip-path:url(#SVGID_2_);}
	.st11{clip-path:url(#SVGID_4_);}
	.st12{clip-path:url(#SVGID_6_);}
	.st13{fill:none;stroke:#AD1820;stroke-width:2.7971;stroke-miterlimit:10;}
	.st14{fill:#FFFFFF;}
	.st15{fill:#C6C6C5;}
	.st16{fill:#868686;}
	.st17{fill:#3C3C3B;}
	.st18{opacity:0.52;fill:#AD1820;}
	.st19{fill:none;stroke:#AD1820;stroke-width:4.3435;stroke-miterlimit:10;}
	.st20{fill:none;stroke:#E5332A;stroke-width:4.3435;stroke-miterlimit:10;}
	.st21{fill:#B1B1B1;}
	.st22{fill:#DD4D02;}
	.st23{fill:#A4A4A4;}
</style>
<path class="st22" d="M80.1,59.9c-0.5-3.1-2.7-5.7-5.7-6.8L54.7,46c-0.1,0-0.3,0-0.4,0c0-0.2-0.1-0.4-0.3-0.6
	c-2.2-1.6-2.4-2.4-2.5-5.4l0-0.1c1.1-1.5,6.2-8.7,7-13.1c0.1-0.2,0.1-0.3,0.2-0.6c0-0.1,0.1-0.3,0.1-0.3c0.9-2.1,0.9-3.6,0.8-5.4
	c0-0.4,0-0.8,0-1.3C59.6,8.6,51.4,0,41.5,0c-2,0-3.2,0.6-4.7,1.3c-0.3,0.2-0.6,0.3-1,0.5c-0.7,0.1-1.4,0.2-2,0.4
	c-4.4,1.3-6.6,4.4-8.6,8.8c-1.8,3.9-2.5,6.5-1.8,11.1c0.1,1,0.5,2.5,0.9,3.4c0.1,0.3,0.3,0.7,0.4,1c0.9,5.3,3.4,10.7,6.5,13.7
	c-0.1,2.5-0.9,3.8-3.2,5.5c-0.1,0.1-0.2,0.2-0.2,0.3l-19.9,7c-3,1.1-5.1,3.7-5.7,6.8L0,73.5c-0.1,0.4,0.2,0.8,0.6,0.9
	c0,0,0.1,0,0.1,0c0.4,0,0.7-0.3,0.7-0.6l2.1-13.6c0.4-2.6,2.2-4.7,4.7-5.6l19.9-7c0,0,0,0,0,0l9.4,13.1c0.8,1.1,1.9,1.8,3.2,1.9
	c0.1,0.1,0.3,0.1,0.4,0.1c1.5,0,2.9-0.7,3.8-2l8.8-13.5c0.1,0.2,0.2,0.3,0.4,0.3l19.7,7.1c2.5,0.9,4.3,3,4.7,5.6l2.1,13.6
	c0.1,0.4,0.4,0.6,0.7,0.6c0,0,0.1,0,0.1,0c0.4-0.1,0.7-0.4,0.6-0.9L80.1,59.9z M26.5,11.6c1.8-4.1,3.8-6.9,7.6-8
	c0.6-0.2,1.3-0.3,1.9-0.4c0.1,0,0.1,0,0.2-0.1c0.4-0.2,0.8-0.4,1.1-0.5c1.4-0.7,2.4-1.1,4-1.1c9.1,0,16.6,7.9,16.6,17.7
	c0,0.5,0,0.9,0,1.3c0,1.3,0,2.4-0.3,3.5c-0.1-0.2-0.2-0.3-0.2-0.4c-1-2.2-3.6-4.3-7.1-4.1l-13.7,0c-1,0-2.4-0.2-3.6-0.6l-1.1-0.3
	c-0.3-0.1-0.6,0-0.8,0.3l-0.6,0.8c-0.5,0.6-1,1.3-1.8,2L28.7,22c-0.6,0.6-1.3,1.3-3.4,2c-0.2-0.7-0.4-1.5-0.5-2.1
	C24.2,17.6,24.8,15.3,26.5,11.6z M43.8,59.8c-0.5,0.7-1.2,1.2-2.1,1.3c-0.1,0-0.2-0.1-0.3-0.1c-1,0-2-0.5-2.6-1.3l-9.5-13.2
	c2.4-1.8,3.2-3.6,3.3-6.5c0-0.2-0.1-0.4-0.2-0.6c-3-2.9-5.5-8.1-6.3-13.3c0-0.1,0-0.2-0.1-0.2c0-0.1-0.1-0.3-0.2-0.5
	c2.4-0.9,3.3-1.7,3.9-2.4l0.2-0.2c0.8-0.8,1.4-1.5,1.9-2.2l0.3-0.4l0.6,0.2c1.3,0.4,2.8,0.6,4,0.6l13.8,0c2.8-0.1,4.9,1.5,5.7,3.2
	c0.1,0.1,0.4,0.8,0.8,1.5l0.1,0.2c0,0.1,0,0.2,0,0.2c0,0.1-0.1,0.2-0.1,0.2c-0.6,3.5-4.6,9.7-6.8,12.8c-0.1,0.1-0.2,0.3-0.1,0.5
	l0,0.4c0.1,3.1,0.3,4.4,2.5,6.2L43.8,59.8z"/>
</svg>
